<?xml version="1.0" ?><svg xmlns="http://www.w3.org/2000/svg" xmlns:xlink="http://www.w3.org/1999/xlink" version="1.1" id="Layer_1" viewBox="0 0 32 32" style="enable-background:new 0 0 32 32;" xml:space="preserve"><style type="text/css">
	.st0{fill:none;stroke:#000000;stroke-linecap:round;stroke-linejoin:round;stroke-miterlimit:10;}
</style><g><polyline class="st0" points="29.8,31 2.2,31 2.2,3.4  "/><g><rect x="5.1" y="15.7" class="st0" width="4.5" height="15.3"/><rect x="13.8" y="22.5" class="st0" width="4.5" height="8.5"/><rect x="22.4" y="12.8" class="st0" width="4.5" height="18.2"/></g><g><path class="st0" d="M11.6,12.7l2.2-1.9c0.2-0.2,0.6-0.3,0.9-0.3h9.7c0.8,0,1.4-0.6,1.4-1.4V2.4c0-0.8-0.6-1.4-1.4-1.4H12.9    c-0.8,0-1.4,0.6-1.4,1.4v10.3H11.6z"/><g><polyline class="st0" points="13.7,8.4 15.3,5.2 18.9,6.8 23.5,3.4    "/><polyline class="st0" points="20.9,3.1 23.5,3.4 23.3,6    "/></g></g></g></svg>