<?xml version="1.0" ?><!DOCTYPE svg  PUBLIC '-//W3C//DTD SVG 1.1//EN'  'http://www.w3.org/Graphics/SVG/1.1/DTD/svg11.dtd'><svg height="8.4666mm" style="shape-rendering:geometricPrecision; text-rendering:geometricPrecision; image-rendering:optimizeQuality; fill-rule:evenodd; clip-rule:evenodd" version="1.1" viewBox="0 0 846.66 846.66" width="8.4666mm" xml:space="preserve" xmlns="http://www.w3.org/2000/svg" xmlns:xlink="http://www.w3.org/1999/xlink"><defs><style type="text/css">
   <![CDATA[
    .fil0 {fill:black;fill-rule:nonzero}
   ]]>
  </style></defs><g id="Layer_x0020_1"><path class="fil0" d="M616.3 672.88c83.13,-46.52 127.48,-140.03 109.32,-233.69 -37.65,14.9 -80.54,6.14 -109.32,-22.15 -28.82,28.33 -71.74,37.02 -109.31,22.15 -18.15,93.61 26.22,187.19 109.31,233.69zm-78.48 -130.24c-13.3,-23.14 21.94,-43.39 35.24,-20.25l17.22 29.82 72.45 -72.46c18.99,-18.98 47.85,9.88 28.87,28.87l-91.26 91.14c-9.4,9.38 -25.29,7.42 -31.99,-4.25l-30.53 -52.87zm250.71 -128.67c-7.34,-25.8 31.88,-36.96 39.22,-11.16 36.66,128.88 -12.72,275.87 -132.23,342.52 -23.38,13.01 -43.16,-22.55 -19.77,-35.56 103.12,-57.51 144.29,-184.99 112.78,-295.8zm-231.3 267.61l-467.31 0c-45.63,0 -82.89,-37.26 -82.89,-82.89l0 -417.29c0,-45.63 37.26,-82.89 82.89,-82.89l528.7 0c45.63,0 82.89,37.26 82.89,82.89l0 222.82 0.87 -0.21c8.59,-2.05 16.73,-5.96 23.83,-11.57 11.12,-8.78 27.79,-3.73 32.05,9.81 38.87,123.1 -17.87,254.04 -132.87,311.81 -6.02,3.01 -12.82,2.75 -18.38,-0.1 -18.13,-9.13 -34.76,-20.03 -49.78,-32.38zm103.46 -282.29l0 -124.83 -612.84 0 0 324.23c0,23.1 18.97,42.07 42.07,42.07l427.47 0c-52.82,-67.5 -68.94,-156.47 -43.05,-238.51 4.54,-14.39 22.46,-18.87 33.3,-8.85 29.89,22.4 72.76,13.21 90.8,-19.52 7.85,-14.28 28.26,-13.86 35.79,0.13 6.06,10.93 15.3,19.72 26.46,25.28zm-240.76 -190.65c-26.85,0 -26.85,-40.82 0,-40.82l19.97 0c26.85,0 26.85,40.82 0,40.82l-19.97 0zm86.17 0c-26.84,0 -26.84,-40.82 0,-40.82l19.97 0c26.85,0 26.85,40.82 0,40.82l-19.97 0zm86.18 0c-26.85,0 -26.85,-40.82 0,-40.82l19.97 0c26.84,0 26.84,40.82 0,40.82l-19.97 0zm-481.3 0c-26.84,0 -26.84,-40.82 0,-40.82l209.11 0c26.84,0 26.84,40.82 0,40.82l-209.11 0zm549.71 25l0 -52.24c0,-23.09 -18.98,-42.07 -42.07,-42.07l-528.7 0c-23.09,0 -42.07,18.98 -42.07,42.07l0 52.24 612.84 0z"/></g></svg>