<?xml version="1.0" ?><!DOCTYPE svg  PUBLIC '-//W3C//DTD SVG 1.1//EN'  'http://www.w3.org/Graphics/SVG/1.1/DTD/svg11.dtd'><svg class="icon" height="98.41px" version="1.1" viewBox="0 0 2081 1024" width="200px" xmlns="http://www.w3.org/2000/svg"><path d="M2071.021866 830.206344a130.917154 130.917154 0 0 0-2.522944-60.392978 54.322144 54.322144 0 0 0-2.917154-8.160148 56.017247 56.017247 0 0 0-11.313828-16.359716 145.857715 145.857715 0 0 0-20.81429-59.131506c-1.892208-2.995996-3.9421-5.952572-5.991993-8.790884 0-1.616261-0.315368-3.271943-0.473052-4.809363l-0.275947-2.207576c-0.236526-1.931629-0.512473-3.9421-0.867262-5.991993l-0.39421-2.325839c-0.354789-1.931629-0.78842-3.9421-1.222051-5.91315 0-0.867262-0.433631-1.734524-0.630736-2.562366-0.473052-2.010471-1.024946-3.9421-1.655683-6.189097l-0.748999-2.483524c-0.670157-2.089313-1.379735-4.178626-2.089313-6.149676-0.236526-0.709578-0.551894-1.419156-0.827841-2.128734v-0.39421c-0.748999-1.892208-1.537419-3.9421-2.36526-5.716046-0.433631-0.985525-0.906683-1.97105-1.379735-2.995996-0.867262-1.852787-1.773945-3.705574-2.759471-5.597783-0.512473-0.985525-1.024946-1.931629-1.537419-2.798891-1.103788-1.97105-2.246997-3.9421-3.666153-6.228519l-1.222051-1.931629c-1.419156-2.168155-2.917154-4.296889-4.730521-6.740992l-1.458577-1.892208c-1.616261-2.128734-3.350785-4.218047-5.12473-6.189097-0.630736-0.748999-1.300893-1.497998-1.971051-2.207577-1.852787-2.010471-3.9421-3.9421-5.91315-6.031413l-2.128734-1.97105c-1.419156-1.261472-2.838312-2.522944-4.336311-3.942101l-2.601786-2.168155-1.419156-1.064367c-2.798891-31.536803-8.436095-83.848476-18.646135-138.761934v-0.709578c-0.512473-2.720049-1.024946-5.440099-1.57684-8.23899l-1.379736-7.135202c-4.848783-24.125654-10.21004-46.556206-15.768401-66.73976a18.724977 18.724977 0 0 0-0.709578-2.246997c-0.630736-2.246997-1.300893-4.454573-1.931629-6.622729-0.236526-0.867262-0.433631-1.695103-0.709578-2.562365-10.99846-35.951956-23.889128-65.438867-38.277795-87.55405l-0.670157-0.985525c-0.906683-1.379735-1.813366-2.75947-2.72005-3.9421-0.433631-0.670157-0.906683-1.300893-1.379735-1.97105l-0.709578-0.946105c-0.473052-0.709578-0.985525-1.419156-1.458577-2.049892-1.143209-1.537419-2.286418-2.995996-3.429627-4.454573-6.228519-7.884201-34.848168-43.126578-77.777641-63.073607l-3.271944-1.497998-0.827841-0.354789c-1.695103-0.748999-3.390206-1.419156-4.927625-2.049892l-1.340314-0.512473a137.185094 137.185094 0 0 0-80.45827-6.780413l-3.074838 0.78842h-0.197105l-1.497998 0.39421A113.532492 113.532492 0 0 0 1655.682168 194.897444l-1.340314 1.024946-2.562365 2.089313a194.660918 194.660918 0 0 0-47.305205 59.368032l-0.78842 1.458577a302.753311 302.753311 0 0 0-5.440099 10.761934 54.400986 54.400986 0 0 0-3.074838 7.884201c-2.720049 7.884201-18.212504 47.305205-59.131506 47.305205-27.988913 0-64.808131-15.768402-106.436711-45.215892-9.185094-6.543887-19.158608-14.191561-29.684016-22.78534a145.857715 145.857715 0 0 0 0-40.170003 177.670465 177.670465 0 0 0-7.884201-33.862642c-17.424084-49.946412-57.633508-101.31198-120.036957-152.835233-7.489991-6.149677-15.374192-12.417616-23.652602-18.606714a55.189406 55.189406 0 0 0-66.700339 0l-31.536803 23.652603c-18.724977 14.033877-37.725901 28.225439-56.214352 41.983369l-2.404681 1.773945-0.236526 0.236526c-16.675085 12.378195-33.626116 24.953496-50.419464 37.331691l-2.089314 1.537419c-23.416076 17.226979-45.176471 33.153064-64.571604 47.305205l-9.02741 6.543886c-16.438559 11.826301-31.536803 22.588235-44.506313 31.852172L918.509393 204.989221c-31.536803 22.154604-47.068679 32.285802-54.716353 36.937481-0.906683 0.551894-1.695103 1.103788-2.404682 1.616261l-0.985525 0.512473c-1.813366 0.591315-4.848783 1.616261-8.712042 3.035417l-4.33631 1.616261c-28.737912 10.840776-67.291654 29.565753-90.155836 57.515245l-0.591315 0.630736c-15.29535 8.278411-45.570681 24.441022-80.537111 41.825685-64.413921 31.891592-116.252541 53.888512-149.799816 63.625501-2.010471 0.591315-3.9421 1.103788-5.794887 1.57684s-2.75947 0.709578-3.942101 0.985525l-1.57684 0.39421c-3.9421 0.827841-7.095781 1.419156-9.894672 1.773945H502.420696a55.189406 55.189406 0 0 0-12.102248 1.852788c-0.39421 0-2.325839 0.630736-5.676625 1.419156l-34.769325 7.647674-57.199877 10.091777-7.332307 1.103789-3.666153 0.551894-7.135202 0.985525-4.33631 0.630736-7.884201 1.024946-3.942101 0.551894-7.411148 0.906683-5.006468 0.630736-7.253465 0.827841-5.558361 0.630736-8.475516 0.906683-4.730521 0.473052-7.8842 0.749-5.87373 0.551894-7.292886 0.630736-6.70157 0.551894-7.884201 0.630736-6.307361 0.473052-9.145673 0.591315-5.558361 0.354789-8.554358 0.473052-6.425624 0.354789-9.500462 0.39421L232.583924 453.341546l-8.357253 0.275947-7.214044 0.236526H161.626116a58.145981 58.145981 0 0 0-10.407145 0.985525l-2.641207 0.551894c-14.861719 3.271943-65.399446 16.911611-92.599938 56.214352l-0.827841 1.18263c-1.024946 1.537419-2.010471 3.074838-2.995997 4.730521l-0.827841 1.458577c-0.867262 1.537419-1.734524 3.074838-2.483523 4.533415l-1.222051 2.641207v0.39421l-0.946104 2.010472c-0.709578 0.591315-1.458577 1.18263-2.286418 1.931629l-1.340315 1.143209-0.670157 0.630736-1.655682 1.57684-2.483523 2.444102-0.591315 0.591316c-20.498922 21.287342-32.640591 51.44441-36.10964 89.643363v0.473052c-0.236526 2.404681-0.39421 4.848783-0.551894 7.529411v1.182631c0 2.444102 0 4.888204-0.275947 7.608253v19.986449c0 2.010471 0 3.9421 0.354789 6.189098v2.522944c0 2.877733 0.433631 5.755467 0.709578 8.672621a52.824145 52.824145 0 0 0 0.906683 6.307361l0.275947 1.222051c3.9421 16.359717 20.262396 60.156452 92.166308 113.966122 77.34401 57.909455 194.542655 109.669233 348.363412 153.741916 11.156144 3.232522 22.745919 6.425624 34.375116 9.579304s23.652602 6.346782 35.478903 9.342778l18.291346 4.612257c1.379735 0.354789 2.75947 0.630736 4.139205 0.867263 2.601786 0.433631 260.888204 43.087157 468.163844 43.087157a975.906375 975.906375 0 0 0 142.349245-8.948568 59.446874 59.446874 0 0 0 9.579304-2.325839 58.303665 58.303665 0 0 0 8.751463-3.942101s6.346782-3.429627 16.438559-7.8842c2.877733-1.261472 6.070835-2.641207 9.500462-3.942101 4.967047-2.010471 9.973514-3.9421 14.861718-5.558361a228.089929 228.089929 0 0 1 33.783801-9.02741c2.917154-0.551894 5.794888-0.985525 8.554358-1.340314a125.279951 125.279951 0 0 1 16.202032-1.103789c23.337234 0 32.009855 7.135202 37.410533 14.191562a54.440407 54.440407 0 0 0 8.514937 8.790884 55.544195 55.544195 0 0 0 33.823221 12.693563c7.884201 0.197105 79.31506 2.010471 150.391131 2.010471 31.02433 0 57.830613-0.315368 79.630428-1.024946 22.78534-0.709578 40.288266-1.813366 53.494302-3.271943 4.178626-0.473052 7.884201-0.985525 11.195565-1.537419a59.919926 59.919926 0 0 0 7.095781-1.655682 56.450878 56.450878 0 0 0 24.283339 5.479519h5.321835c17.739452-0.473052 80.852479-2.562365 149.405605-9.658146l16.162612-1.773945a855.711734 855.711734 0 0 0 129.064367-23.061287c56.13551-15.768402 88.184786-35.951956 103.953188-66.030182a57.121035 57.121035 0 0 0 3.9421-9.776409 94.019095 94.019095 0 0 0 2.483523-10.99846 105.648291 105.648291 0 0 0-9.106252-63.507238z" fill="#FFFFFF"/><path d="M1003.658762 976.694795c-203.412381 0-457.83554-42.02279-460.397906-42.456421h-0.591315c-459.885433-114.320912-492.76255-250.559901-493.984601-256.236526a3.508469 3.508469 0 0 1 0-0.867262c-7.884201-87.514629 24.165075-111.52202 37.68648-117.711118 7.884201-44.506314 70.957807-57.081614 73.717277-57.594087a6.465045 6.465045 0 0 1 1.497998 0c7.174623 0 14.270403 0.197105 21.326764 0.197105 180.666461 0 318.088081-36.622113 319.310132-36.976902a8.830305 8.830305 0 0 1 1.734524-0.275947c67.725285-2.838312 262.977518-109.393286 284.935017-121.495534 18.567293-32.20696 84.00616-53.336618 86.726209-54.243302a7.884201 7.884201 0 0 1 1.300893-0.315368c18.015399-4.888204 213.937789-149.484447 333.146905-239.482599a7.884201 7.884201 0 0 1 4.73052-1.57684 7.884201 7.884201 0 0 1 4.769942 1.616261c55.701879 42.456421 123.939637 107.106868 132.769941 173.767786a86.726209 86.726209 0 0 1-6.977517 50.301201c73.993225 65.675393 137.973514 98.94672 189.930397 98.94672 79.117955 0 103.519557-77.817062 104.505082-81.128426 0-0.354789 0.275947-0.748999 0.433631-1.103789 32.404065-67.725285 71.430859-72.337542 80.064059-72.495226a84.755159 84.755159 0 0 1 25.426547-3.9421c57.199877 0 100.760086 57.199877 102.494611 59.643979 61.378503 75.964275 79.078534 296.761318 81.601478 333.186326 49.828149 23.652602 50.931937 73.717277 50.064675 88.618417a97.36988 97.36988 0 0 1 27.831229 73.756698l12.141669 9.736988a7.884201 7.884201 0 0 1 2.680628 3.9421 80.300585 80.300585 0 0 1-3.744995 55.898984c22.194025 21.60271 13.403141 52.114567 12.96951 53.494303a5.952572 5.952572 0 0 1-0.551894 1.379735c-15.768402 29.802279-79.866954 50.734832-196.513705 64.059131-83.966739 9.579304-164.819218 11.234986-165.568216 11.234986a7.884201 7.884201 0 0 1-6.425624-3.311364c-14.54635-20.617185-20.893132-20.853711-21.169079-20.853711-1.419156 0-4.257468 6.780413-4.6911 13.679088a7.884201 7.884201 0 0 1-6.583307 7.292886c-20.735448 3.469048-66.660918 5.203573-136.514937 5.203573-73.599014 0-148.498922-1.97105-149.247921-2.010472a7.884201 7.884201 0 0 1-6.031414-3.074838c-16.635664-21.642131-41.825685-32.60117-74.899908-32.60117-58.619033 0-121.456113 34.335694-122.205112 34.690483a7.568833 7.568833 0 0 1-2.601786 0.906683 926.078226 926.078226 0 0 1-135.095781 8.199569z" fill="#FFFFFF"/><path d="M1215.034185 55.189406c182.282723 139.037881 120.510009 219.377887 120.51001 219.377887 88.263628 79.512165 153.071759 105.293502 199.982753 105.293502 86.174315 0 112.073914-86.726209 112.073914-86.726209 31.260856-65.399446 67.764706-68.001232 73.40191-68.001232h0.748999a75.885433 75.885433 0 0 1 24.204496-3.942101c53.927933 0 96.266092 56.490299 96.266092 56.490299 64.886973 80.340006 80.340006 333.698799 80.340006 333.698799 58.697875 24.71697 49.433939 86.489683 49.433939 86.489683 33.980905 30.906067 27.831229 74.150909 27.831229 74.150908l15.413613 12.378196c9.303357 33.980905-6.149677 55.623037-6.149677 55.623036 24.71697 18.527872 15.453034 49.433939 15.453034 49.433939-34.020326 64.847552-355.34093 70.957807-355.34093 70.957808-12.851247-18.212504-21.642131-24.165075-27.594703-24.165076-11.234986 0-12.5753 21.090237-12.575301 21.090237-23.652602 3.9421-79.433323 5.08531-135.214043 5.08531-74.348014 0-149.011395-2.010471-149.011395-2.010471-20.617185-26.766862-50.458885-35.478904-81.128427-35.478904-61.339082 0-125.871266 35.478904-125.871265 35.478904a919.692023 919.692023 0 0 1-134.031414 8.357252c-204.989221 0-459.097013-42.338158-459.097013-42.338158C84.203265 812.072682 56.411457 676.227903 56.411457 676.227903c-9.263936-101.982137 37.055744-111.246073 37.055743-111.246074 3.114259-43.363104 68.001232-55.623037 68.001232-55.623036h21.405606c184.017247 0 321.517709-37.252849 321.517708-37.252849 74.19033-3.114259 290.453957-123.584848 290.453958-123.584848 15.453034-30.906067 83.414844-52.548198 83.414844-52.548198 21.642131-2.877733 336.773637-240.783492 336.773637-240.783492m0-15.768402a15.768402 15.768402 0 0 0-9.500462 3.193101c-115.897752 87.475208-307.483831 228.996612-330.781644 238.181707l-1.261472 0.354789c-7.292886 2.325839-69.10502 22.78534-90.155836 55.898983-62.245765 34.414536-223.044041 117.119803-279.573761 119.485063a14.822298 14.822298 0 0 0-3.469048 0.551894c-1.340314 0.354789-137.973514 36.700955-317.417924 36.700955-7.05636 0-14.191561 0-21.16908-0.197105H161.626116a18.764398 18.764398 0 0 0-2.956575 0.275947c-2.956575 0.591315-67.725285 13.442562-79.196797 59.998768a63.073606 63.073606 0 0 0-20.81429 19.513397c-16.004928 23.140129-21.99692 58.185402-17.778873 104.268556a13.087773 13.087773 0 0 0 0.236526 1.734524c0.827841 3.9421 10.091777 41.313212 77.462273 91.732676 87.278103 65.320604 229.390822 122.757006 422.356637 170.653527l1.222051 0.275947c2.522944 0.39421 257.616261 42.535263 461.659378 42.535263a936.761318 936.761318 0 0 0 136.514937-8.514937 15.768402 15.768402 0 0 0 5.242993-1.813366c0.591315-0.315368 61.851555-33.704958 118.263012-33.704958 30.866646 0 53.336618 9.658146 68.631968 29.526332a15.768402 15.768402 0 0 0 12.062828 6.149676c0.748999 0 75.727749 2.010471 149.445026 2.010471 70.248229 0 116.646751-1.773945 137.973514-5.321835a15.768402 15.768402 0 0 0 13.166615-14.546351 21.563289 21.563289 0 0 1 0.315368-2.562365 103.480136 103.480136 0 0 1 11.234986 13.75793 15.768402 15.768402 0 0 0 12.851248 6.66215h0.315368c0.827841 0 82.035109-1.655682 166.396057-11.274407a827.841084 827.841084 0 0 0 122.993533-21.878657c44.151524-12.299353 69.459809-27.003388 79.591007-46.359101a16.951032 16.951032 0 0 0 1.143209-2.75947c0.433631-1.497998 9.500462-32.99538-11.313828-57.436403a89.367416 89.367416 0 0 0 2.128734-56.293194 15.768402 15.768402 0 0 0-5.361256-8.199569L2015.990145 764.767478a105.135818 105.135818 0 0 0-27.594703-72.928858c1.103788-25.939021-8.436095-68.237758-50.695411-90.668309-3.508469-47.541731-22.312288-257.655682-82.784109-333.107484-3.9421-4.967047-48.960887-62.521712-108.723129-62.561133a91.772097 91.772097 0 0 0-26.688019 3.9421c-24.519864 0.946104-59.407453 21.523868-85.898368 76.910379a16.714506 16.714506 0 0 0-0.906683 2.325839c-0.906683 3.035417-23.889128 75.451802-96.936249 75.451802-49.07915 0-109.708654-31.300277-180.351093-93.151832a97.251617 97.251617 0 0 0 5.203572-49.236834c-7.371728-55.701879-53.060671-115.937173-135.765938-179.01078a15.768402 15.768402 0 0 0-9.579304-3.232522z"/><path d="M767.645211 645.321836c-27.594703 0-76.082538-20.971974-115.188174-39.223899-13.087773-6.110256-33.626116-9.185094-61.063135-9.185094a596.439791 596.439791 0 0 0-91.811518 8.514936h-1.419156a7.884201 7.884201 0 0 1-5.913151-2.680628 7.884201 7.884201 0 0 1-1.57684-7.568833c25.11118-78.763166 128.433631-91.772097 171.59963-93.585463h3.626733a85.780105 85.780105 0 0 1 44.78226 12.654142c47.817678 29.329227 75.451802 59.131506 82.113952 88.618417 4.691099 20.577764-2.877733 33.113643-3.942101 34.453958a6.465045 6.465045 0 0 1-1.024946 1.300893 27.910071 27.910071 0 0 1-20.42008 6.780413z" fill="#0C1011"/><path d="M665.978442 509.398214a77.698799 77.698799 0 0 1 40.643055 11.510933c106.200185 65.123499 75.846012 112.034493 75.846011 112.034493a20.538343 20.538343 0 0 1-14.822297 4.493995c-26.057284 0-74.899908-21.2085-111.837388-38.4749-16.08377-7.489991-40.012319-9.934093-64.413921-9.934093a600.539575 600.539575 0 0 0-93.230674 8.6332c23.337234-73.401909 119.169695-86.292578 164.54327-88.184786h3.271944m0-15.768402h-3.942101c-24.71697 1.064367-61.378503 5.08531-95.556513 18.370188-43.639051 16.911611-71.667385 44.112103-83.336003 80.813058a15.768402 15.768402 0 0 0 15.019403 20.538343 17.226979 17.226979 0 0 0 2.838312-0.236526 588.673853 588.673853 0 0 1 90.31352-8.396674c32.719433 0 49.433939 4.612257 57.751771 8.475516 59.131506 27.594703 95.714198 39.933477 118.499538 39.933477a35.478904 35.478904 0 0 0 25.978442-9.106252 16.044349 16.044349 0 0 0 2.089313-2.562365c1.064367-1.655682 10.249461-16.753927 4.848783-40.524792-7.174623-31.536803-35.991377-63.073606-85.701262-93.546042a93.270095 93.270095 0 0 0-48.882045-13.836773z"/><path d="M602.589467 764.412689L170.062211 727.317524a7.884201 7.884201 0 0 1-4.33631-1.734524l-114.044965-93.546043a7.884201 7.884201 0 0 1-2.838312-7.095781v-0.867262l3.035417-16.162611v-0.512473c8.278411-32.246381 25.190022-44.033261 34.099169-48.133046 7.687096-44.545735 70.957807-57.121035 73.717277-57.633508a6.465045 6.465045 0 0 1 1.497998 0h1.300894a7.253465 7.253465 0 0 1 2.444102 0.433631c48.566677 16.635664 176.842624 57.199877 318.482291 73.756698a7.884201 7.884201 0 0 1 4.257469 1.852788c4.769941 4.139205 116.804435 101.863874 123.190637 178.340622a7.884201 7.884201 0 0 1-2.286418 6.228518 7.884201 7.884201 0 0 1-5.558362 2.286419z" fill="#DFE2E9"/><path d="M161.626116 509.358793h1.222052c52.666461 18.05482 179.247305 57.672929 320.098552 74.111487 0 0 114.320912 98.867878 120.510009 173.018787l-432.566677-37.055744-114.202648-93.4672v-0.433631l3.035417-16.162612c10.170619-39.65753 33.704958-44.388051 33.704958-44.388051 3.114259-43.363104 68.001232-55.623037 68.001232-55.623036m0-15.768402a18.764398 18.764398 0 0 0-2.956575 0.275947c-2.956575 0.591315-67.764706 13.481983-79.196797 60.038189-10.880197 6.070835-26.727441 20.02587-34.808746 51.523252l-0.236527 1.024947-3.035417 16.162611v1.419156a15.768402 15.768402 0 0 0 5.637204 14.11272l113.88728 93.506621a15.768402 15.768402 0 0 0 8.672621 3.50847l432.527256 37.095164h1.222051a15.768402 15.768402 0 0 0 15.768402-17.069294c-6.622729-79.630428-121.022482-179.404989-125.910687-183.623037a15.374192 15.374192 0 0 0-8.475516-3.744995c-140.851247-16.438559-268.496458-56.805667-316.826609-73.40191a15.768402 15.768402 0 0 0-4.888204-0.827841H161.626116z"/><path d="M1003.658762 976.694795c-203.412381 0-457.83554-42.02279-460.397906-42.456421h-0.591315c-459.885433-114.320912-492.76255-250.559901-493.984601-256.236526a3.508469 3.508469 0 0 1 0-0.867262c-2.917154-32.049276-2.877733-89.406837 30.038805-113.217124a7.884201 7.884201 0 0 1 12.496458 6.977518c-3.587311 47.305205 2.838312 57.71235 4.848784 59.762242 18.212504 16.438559 316.787188 84.203265 352.857407 84.203265h341.937788a70.721281 70.721281 0 0 1 60.629504 35.478903 22.351709 22.351709 0 0 0 13.363721 11.156144 41.983369 41.983369 0 0 1 10.761934 4.572837c5.440099 3.035417 11.116723 6.189098 29.8417 6.189097 42.968894 0 136.396674-17.66061 285.723437-53.927933 13.206036-4.967047 201.638435-75.412381 328.101016-75.412381 28.107176 0 51.247305 3.54789 69.223283 10.643671 5.321836 1.537419 78.053588 22.39113 155.791808 22.391131 83.493686 0 141.521404-23.061287 172.506314-68.553126a7.884201 7.884201 0 0 1 9.618725-2.798892c53.573144 23.021866 54.755775 75.097013 53.888512 90.352942a97.36988 97.36988 0 0 1 27.831229 73.756698l12.141669 9.736988a7.884201 7.884201 0 0 1 2.680628 3.9421 80.300585 80.300585 0 0 1-3.744995 55.898984c22.194025 21.60271 13.403141 52.114567 12.96951 53.494303a5.952572 5.952572 0 0 1-0.551894 1.379735c-15.768402 29.802279-79.866954 50.734832-196.513705 64.059131-83.966739 9.579304-164.819218 11.234986-165.568216 11.234986a7.884201 7.884201 0 0 1-6.425624-3.311364c-14.54635-20.617185-20.893132-20.853711-21.169079-20.853711-1.419156 0-4.257468 6.780413-4.6911 13.679088a7.884201 7.884201 0 0 1-6.583307 7.292886c-20.735448 3.469048-66.660918 5.203573-136.514937 5.203573-73.599014 0-148.498922-1.97105-149.247921-2.010472a7.884201 7.884201 0 0 1-6.031414-3.074838c-16.635664-21.642131-41.825685-32.60117-74.899908-32.60117-58.619033 0-121.456113 34.335694-122.205112 34.690483a7.568833 7.568833 0 0 1-2.601786 0.906683 926.078226 926.078226 0 0 1-135.529412 8.317832z" fill="#FFFFFF"/><path d="M83.217739 570.10656c-2.089313 27.594703-1.773945 56.963351 7.174623 65.95134 18.527872 18.527872 321.320604 86.489683 358.415769 86.489682h341.937788a63.073606 63.073606 0 0 1 53.888513 31.536804 29.881121 29.881121 0 0 0 18.173083 14.782876c11.432091 2.838312 12.299353 10.99846 42.535263 10.99846 35.202957 0 110.378811-11.037881 288.049276-54.243301 0 0 197.420388-75.136434 325.775177-75.097013 25.663074 0 48.606098 2.995996 66.621497 10.21004a621.708654 621.708654 0 0 0 158.393594 22.824761c68.001232 0 140.535879-15.492455 179.010779-71.982753 57.988297 24.914075 48.803203 86.213736 48.803203 86.213736 33.980905 30.906067 27.831229 74.150909 27.831229 74.150908l15.413613 12.378196c9.303357 33.980905-6.149677 55.623037-6.149677 55.623036 24.71697 18.527872 15.453034 49.433939 15.453034 49.433939-34.020326 64.847552-355.34093 70.957807-355.34093 70.957808-12.851247-18.212504-21.642131-24.165075-27.594703-24.165076-11.234986 0-12.5753 21.090237-12.575301 21.090237-23.652602 3.9421-79.433323 5.08531-135.214043 5.08531-74.348014 0-149.011395-2.010471-149.011395-2.010471-20.617185-26.766862-50.458885-35.478904-81.128427-35.478904-61.339082 0-125.871266 35.478904-125.871265 35.478904a919.692023 919.692023 0 0 1-134.031414 8.357252c-204.989221 0-459.097013-42.338158-459.097013-42.338158C84.203265 812.072682 56.411457 676.227903 56.411457 676.227903c-6.425624-70.484755 13.75793-96.699723 26.806282-106.121343m0-15.768402a15.768402 15.768402 0 0 0-9.224514 2.995997C55.189406 571.013243 33.902063 603.141361 40.721897 677.647059a13.087773 13.087773 0 0 0 0.236526 1.734524c0.827841 3.9421 10.091777 41.313212 77.462273 91.732676 87.278103 65.320604 229.390822 122.757006 422.356637 170.653527l1.222051 0.275947c2.522944 0.39421 257.616261 42.535263 461.659378 42.535263a936.761318 936.761318 0 0 0 136.514937-8.514937 15.768402 15.768402 0 0 0 5.242993-1.813366c0.591315-0.315368 61.851555-33.704958 118.263012-33.704958 30.866646 0 53.336618 9.658146 68.631968 29.526332a15.768402 15.768402 0 0 0 12.062828 6.149676c0.748999 0 75.727749 2.010471 149.445026 2.010471 70.28765 0 116.646751-1.773945 137.973514-5.321835a15.768402 15.768402 0 0 0 13.166615-14.546351 21.563289 21.563289 0 0 1 0.315368-2.562365 103.480136 103.480136 0 0 1 11.234986 13.75793 15.768402 15.768402 0 0 0 12.851248 6.66215h0.315368c0.827841 0 82.035109-1.655682 166.396057-11.274407a827.841084 827.841084 0 0 0 122.993533-21.878657c44.151524-12.299353 69.459809-27.003388 79.591007-46.359101a16.951032 16.951032 0 0 0 1.143209-2.75947c0.433631-1.497998 9.500462-32.99538-11.313828-57.436403a89.367416 89.367416 0 0 0 2.128734-56.293194 15.768402 15.768402 0 0 0-5.361256-8.199569L2015.990145 764.767478a105.135818 105.135818 0 0 0-27.594703-72.928858c1.143209-27.594703-9.658146-73.559593-58.934401-94.610409a15.768402 15.768402 0 0 0-19.23745 5.637203c-29.44749 43.165999-85.267632 65.084078-166.001848 65.084078-75.37296 0-146.05482-19.710502-153.268863-21.99692-18.685556-7.332307-42.81121-11.037881-71.746228-11.037882-126.580844 0-313.71235 69.459809-330.426855 75.76717-148.42008 36.030798-241.138281 53.573144-283.397598 53.573145-16.714506 0-21.247921-2.522944-26.017863-5.203573a49.236834 49.236834 0 0 0-12.693563-5.321835c-1.143209-0.275947-4.651678-1.18263-8.475516-7.568833a78.566061 78.566061 0 0 0-67.409917-39.421004h-341.977209c-13.836772 0-84.163844-13.008931-177.985833-34.808747-102.218663-23.652602-158.748383-40.958423-169.313213-47.305205-1.18263-2.286418-5.558362-13.639667-2.562365-53.41546a15.768402 15.768402 0 0 0-15.768402-16.951032z m0 31.536804z"/><path d="M1676.378195 557.886049c-30.63012 0-63.546658-1.419156-97.842932-4.178627-47.305205-3.9421-76.437327-18.646135-86.726208-44.230366-19.710502-48.921466 39.223899-116.765014 41.746843-119.642747a8.357253 8.357253 0 0 1 3.744995-2.365261l115.03049-33.310748L1725.65445 264.120727a7.884201 7.884201 0 0 1 10.407145-1.616261l113.532492 73.362488a7.647675 7.647675 0 0 1 3.074838 3.942101l37.095165 95.753618a7.884201 7.884201 0 0 1-0.946104 7.45057l-70.957807 98.867878a7.884201 7.884201 0 0 1-3.942101 2.956575c-1.773945 0.551894-44.269787 13.166615-137.263936 13.166616z" fill="#0C1011"/><path d="M1731.764706 269.166615l113.571912 73.362489 37.055744 95.79304-70.957807 98.867878s-42.101632 12.811826-134.977518 12.811826c-27.791808 0-60.117031-1.143209-97.212196-4.139206-161.153064-12.930089-39.696951-150.824761-39.696951-150.824761l117.39575-33.980905 74.899908-91.890361m0-15.768401a15.768402 15.768402 0 0 0-12.220511 5.794887L1647.797967 347.299045l-112.744071 32.601171a15.768402 15.768402 0 0 0-7.45057 4.73052 265.81583 265.81583 0 0 0-28.935017 41.62858c-18.84324 33.902063-23.652602 63.073606-14.230982 86.174315 11.589775 28.540807 43.008315 45.097629 93.4672 49.157992 34.493379 2.75947 67.646443 4.178626 98.55251 4.178626 94.137358 0 137.736988-12.96951 139.550354-13.521404a15.768402 15.768402 0 0 0 8.199569-5.87373l70.957807-98.867878a15.768402 15.768402 0 0 0 1.892209-14.901139l-37.055744-95.753619a15.768402 15.768402 0 0 0-6.149677-7.568833l-113.532491-73.362488a15.768402 15.768402 0 0 0-8.554358-2.522944z"/><path d="M1709.373576 727.356945a6.425624 6.425624 0 0 1-1.222052 0l-293.528795-46.31968a7.884201 7.884201 0 0 1-6.149677-10.525408c21.326763-57.909455 127.645211-166.08069 287.773329-166.08069 4.454573 0 8.948568 0 13.481984 0.275947s9.342778 0.275947 13.797351 0.275947c50.734832 0 85.346474-11.39267 102.88882-33.902063a62.285186 62.285186 0 0 0 11.313829-49.276255 9.145673 9.145673 0 0 1-0.236526-2.522944c1.537419-19.710502 16.517401-38.396058 43.363104-53.730829a7.884201 7.884201 0 0 1 11.353249 4.533416c26.412073 92.757622 36.070219 210.981213 37.883585 236.013551a92.245149 92.245149 0 0 1 17.66061 10.959039 7.884201 7.884201 0 0 1 2.128734 9.697567l-17.226979 34.453957a7.884201 7.884201 0 0 1-4.888204 3.942101l-216.263628 61.772713a7.884201 7.884201 0 0 1-2.128734 0.433631z" fill="#596563"/><path d="M1884.67878 372.252541c29.644595 104.150293 37.883585 239.088389 37.883585 239.088389a88.027102 88.027102 0 0 1 20.341238 11.826301l-17.226978 34.453958-216.303049 61.812134-293.528796-46.359101c21.050816-57.081614 126.81737-160.916538 280.36218-160.916538 4.33631 0 8.751463 0 13.166616 0.275947s9.579304 0.275947 14.112719 0.275947c145.069295 0 121.850323-92.994148 121.850323-92.994148 1.616261-21.090237 21.169079-37.055744 39.421004-47.305205m0-15.768402a15.768402 15.768402 0 0 0-7.8842 2.089313c-29.171543 16.714506-45.491839 37.449954-47.305205 59.998769a15.216508 15.216508 0 0 0 0.433631 5.006467 54.006775 54.006775 0 0 1-10.131198 42.890052c-15.768402 19.947028-49.197413 30.511857-96.423776 30.511857-4.375731 0-8.909147 0-13.481983-0.275947s-9.224515-0.275947-13.797352-0.275947c-163.991377 0-273.148137 111.52202-295.145057 171.244842a15.768402 15.768402 0 0 0 1.18263 13.442562 15.768402 15.768402 0 0 0 11.156145 7.568833L1706.929473 735.044041a17.029874 17.029874 0 0 0 2.444103 0 16.202033 16.202033 0 0 0 4.33631-0.591315l216.263628-61.812135a15.768402 15.768402 0 0 0 9.776409-8.120727l17.226979-34.453957a15.768402 15.768402 0 0 0-4.29689-19.395134 100.52356 100.52356 0 0 0-15.019402-9.81583c-2.444102-32.60117-12.18109-143.098245-37.804743-233.096397a15.768402 15.768402 0 0 0-15.177087-11.471512z"/><path d="M1042.015399 690.26178c-17.2664 0-121.022482-51.956883-182.834617-115.503542-36.582692-37.607638-54.637512-74.229751-53.691407-108.880813a7.884201 7.884201 0 0 1 4.296889-6.780412l330.58454-169.943949a8.278411 8.278411 0 0 1 3.587311-0.867262 7.529412 7.529412 0 0 1 3.311365 0.748999c24.559285 11.274407 239.640283 112.665229 233.214659 190.088082-2.877733 34.453957-58.343086 80.261164-164.858639 136.081305-72.416384 37.962427-160.60117 75.057592-173.610101 75.057592z" fill="#006A68"/><path d="M1143.958115 296.170003s234.830921 108.171235 228.641823 182.322144S1060.425008 682.377579 1042.015399 682.377579s-231.716662-105.017555-228.641823-216.263628l330.584539-169.943948m0-15.768402a15.768402 15.768402 0 0 0-7.214044 1.773946l-330.584539 169.904527a15.768402 15.768402 0 0 0-8.554358 13.600246c-1.024946 36.819218 17.778873 75.37296 55.938405 114.557438 62.561133 64.3745 168.248845 117.908223 188.47182 117.908223 15.768402 0 106.830921-39.026794 177.394518-75.924854 110.615337-57.988297 165.923006-104.583924 169.076686-142.428087s-35.912535-81.325531-119.3668-133.637204a1177.071759 1177.071759 0 0 0-118.263012-64.295657 16.320296 16.320296 0 0 0-6.622729-1.458578z"/><path d="M1304.835233 535.810286a7.884201 7.884201 0 0 1-5.361257-2.128734L1105.364952 353.015091a7.884201 7.884201 0 0 1-1.261472-10.012935l20.893132-32.522328a7.884201 7.884201 0 0 1 6.622729-3.626733 7.884201 7.884201 0 0 1 3.9421 1.143209c35.005852 21.405605 210.07453 130.089313 219.732677 162.020327 11.077302 36.976902-45.058208 63.901447-47.305205 65.044656a8.278411 8.278411 0 0 1-3.15368 0.748999z" fill="#0C1011"/><path d="M1131.619341 314.737296s206.999692 126.659686 216.263628 157.684016-43.363104 55.623037-43.363105 55.623037l-193.793655-180.784725 20.893132-32.522328m0-15.768402a15.768402 15.768402 0 0 0-13.284878 7.253465l-20.853712 32.522328A15.768402 15.768402 0 0 0 1099.846012 358.731136l193.872497 180.627041a15.768402 15.768402 0 0 0 10.761934 4.257468 15.413613 15.413613 0 0 0 6.701571-1.537419c6.66215-3.114259 64.453342-31.733908 51.641515-74.387435-2.404681-7.884201-7.411149-24.71697-117.908223-98.94672-52.587619-35.478904-104.702187-67.252233-105.214659-67.5676a16.044349 16.044349 0 0 0-8.23899-2.286419z"/><path d="M1004.171235 675.202957a7.884201 7.884201 0 0 1-3.508469-0.827842A614.967662 614.967662 0 0 1 898.798891 610.040037a7.411149 7.411149 0 0 1-0.985525-0.946104l-77.146905-86.016631a7.253465 7.253465 0 0 1-1.143209-1.655682 114.675701 114.675701 0 0 1-13.915614-55.544195 7.884201 7.884201 0 0 1 4.296889-6.780412l7.884201-3.942101a10.840776 10.840776 0 0 1 1.419156-0.591315l97.251617-27.949492a8.23899 8.23899 0 0 1 2.168155-0.315368 7.884201 7.884201 0 0 1 5.400678 2.168156l191.349553 180.390514a7.884201 7.884201 0 0 1 2.404682 6.859255 7.884201 7.884201 0 0 1-4.257469 5.91315l-105.845396 52.902988a7.884201 7.884201 0 0 1-3.508469 0.670157z" fill="#0C1011"/><path d="M918.509393 434.025254l191.349554 180.390514-105.805975 52.902988a602.471204 602.471204 0 0 1-100.602402-63.467817l-77.146905-86.01663a107.106868 107.106868 0 0 1-13.048352-51.720358l7.8842-3.9421 97.36988-28.146597m0-15.768402a14.782877 14.782877 0 0 0-4.33631 0.630737l-97.251617 27.949491a14.743455 14.743455 0 0 0-2.838312 1.143209l-7.884201 3.942101a15.768402 15.768402 0 0 0-8.554358 13.600246 122.835848 122.835848 0 0 0 14.782877 59.368032 15.965507 15.965507 0 0 0 2.286418 3.311365l77.146905 86.01663a17.424084 17.424084 0 0 0 1.97105 1.852788A623.364336 623.364336 0 0 0 997.351401 681.470896a16.202033 16.202033 0 0 0 7.016939 1.616261 15.965507 15.965507 0 0 0 7.05636-1.655682l105.805974-52.902987a15.768402 15.768402 0 0 0 3.942101-25.584232l-191.388975-180.390514a15.768402 15.768402 0 0 0-11.274407-4.29689z"/><path d="M1094.524176 640.827841a7.884201 7.884201 0 0 1-5.400677-2.128734l-200.810595-188.47182a7.884201 7.884201 0 0 1 2.36526-13.008932l83.21774-34.927009a8.160148 8.160148 0 0 1 3.035417-0.591315 7.884201 7.884201 0 0 1 5.597783 2.325839l191.743763 192.453342a7.884201 7.884201 0 0 1 2.168155 7.135201 7.884201 7.884201 0 0 1-4.73052 5.716046l-74.150909 30.906067a8.160148 8.160148 0 0 1-3.035417 0.591315z" fill="#C4CAC8"/><path d="M976.931321 409.584232l191.743764 192.492762-74.150909 30.866646-200.810594-188.47182 83.217739-34.887588m0-15.768402a15.768402 15.768402 0 0 0-6.070834 1.222051l-83.257161 34.92701a15.768402 15.768402 0 0 0-4.691099 26.017862l201.04712 188.47182a15.768402 15.768402 0 0 0 10.761934 4.257469 16.320296 16.320296 0 0 0 6.070835-1.18263l73.953803-30.906067a15.768402 15.768402 0 0 0 5.124731-25.702495l-191.743764-192.492763a15.768402 15.768402 0 0 0-11.195565-4.612257z"/><path d="M1168.675085 609.961195a7.884201 7.884201 0 0 1-5.164152-1.931629L953.436403 425.746843a7.884201 7.884201 0 0 1-2.680628-6.740991 7.884201 7.884201 0 0 1 3.9421-6.070835L1038.191561 366.615337a7.884201 7.884201 0 0 1 3.942101-0.985525 7.884201 7.884201 0 0 1 5.361256 2.089313l203.924854 188.47182a7.884201 7.884201 0 0 1-1.734524 12.772406l-77.34401 40.091161a8.120727 8.120727 0 0 1-3.666153 0.906683z" fill="#0C1011"/><path d="M1042.015399 373.435171l203.924854 188.47182-77.265168 40.170003-210.074531-182.322143 83.414845-46.31968m0-15.768402a15.768402 15.768402 0 0 0-7.647675 1.971051L950.95288 406.036341a15.768402 15.768402 0 0 0-2.680629 25.702495l210.074531 182.282722a15.768402 15.768402 0 0 0 10.328303 3.942101 15.492455 15.492455 0 0 0 7.292885-1.813366l77.225747-40.130582a15.768402 15.768402 0 0 0 3.429628-25.584232L1052.540807 361.845396a15.768402 15.768402 0 0 0-10.683092-4.178627z"/><path d="M570.658454 518.465045c-43.363104 0-60.511241-24.086233-67.015707-44.269788a7.884201 7.884201 0 0 1 6.583308-10.288882C583.036649 455.47028 767.684632 354.789036 789.011395 342.962735c18.567293-32.20696 84.00616-53.336618 86.726209-54.243302a7.884201 7.884201 0 0 1 1.300893-0.315368c18.015399-4.888204 213.937789-149.484447 333.146905-239.482599a7.884201 7.884201 0 0 1 4.73052-1.57684 7.884201 7.884201 0 0 1 4.769942 1.616261c55.701879 42.456421 123.939637 107.106868 132.769941 173.767786a86.726209 86.726209 0 0 1-6.977517 50.26178c7.884201 6.819834 15.413613 13.403141 23.652602 19.986449a7.884201 7.884201 0 0 1-1.261472 13.048352c-36.543271 19.710502-75.648907 22.548814-95.714198 22.548814-18.685556 0-36.858639-2.444102-47.305205-6.425623-4.848783-1.813366-9.934093-4.218047-15.33477-6.780413-11.471512-5.361257-24.441022-11.471512-35.005852-11.471512-6.031414 0-13.797351 1.655682-20.144133 14.388666-18.606714 37.213428-121.968586 76.397906-141.442562 83.493687l-32.640591 38.553742a7.884201 7.884201 0 0 1-3.942101 2.483523l-154.490915 46.31968a7.884201 7.884201 0 0 1-1.379735 0.315368c-1.379735 0-140.023406 15.571297-231.558977 27.594703a141.915614 141.915614 0 0 1-18.251925 1.419156z" fill="#FFFFFF"/><path d="M1215.034185 55.189406c182.282723 139.037881 120.510009 219.377887 120.51001 219.377887 9.776409 8.830305 19.276871 16.911611 28.501386 24.480443a197.735756 197.735756 0 0 1-91.969203 21.602711 141.36372 141.36372 0 0 1-44.663997-5.913151c-15.413613-5.794888-35.478904-18.764398-53.139514-18.764398-10.60425 0-20.222975 4.769941-27.200493 18.764398-18.567293 37.055744-139.037881 80.300585-139.037881 80.300585l-33.980905 40.170003-154.490915 46.359101s-139.037881 15.453034-231.716661 27.791808a130.089313 130.089313 0 0 1-17.187558 1.222051c-37.68648 0-53.376039-19.710502-59.643979-38.829689 79.551586-9.224515 283.831229-123.032953 283.831229-123.032954 15.453034-30.906067 83.414844-52.548198 83.414844-52.548198 21.642131-3.074838 336.773637-240.980597 336.773637-240.980597m0-15.768402a15.768402 15.768402 0 0 0-9.500462 3.193101c-115.897752 87.475208-307.483831 228.996612-330.781644 238.181707l-1.261472 0.354789c-7.292886 2.325839-69.065599 22.78534-90.116415 55.898983-28.186018 15.453034-204.437327 110.930705-274.212504 119.051432a15.768402 15.768402 0 0 0-11.432091 7.135202 15.768402 15.768402 0 0 0-1.734525 13.442562c10.525408 32.009855 37.055744 49.670465 74.663382 49.670465a152.046812 152.046812 0 0 0 19.276871-1.340314c91.417308-12.220511 229.982137-27.594703 231.361872-27.791808a13.521404 13.521404 0 0 0 2.798892-0.551894l154.490914-46.3591a15.768402 15.768402 0 0 0 7.489991-4.888205l31.260856-36.976902c28.067755-10.328303 124.570373-48.133046 143.847244-86.726208 4.612257-9.224515 9.185094-10.012935 13.087773-10.012935 8.830305 0 20.932553 5.716046 31.536803 10.722513 5.518941 2.641207 10.761934 5.08531 15.768402 7.016938 11.589775 4.33631 30.354173 6.938097 50.222359 6.938097a212.242686 212.242686 0 0 0 99.419772-23.652602 15.768402 15.768402 0 0 0 2.522945-26.096705c-6.425624-5.282415-12.654142-10.525408-18.84324-15.768401a97.251617 97.251617 0 0 0 5.203572-49.236834c-7.371728-55.701879-53.060671-115.937173-135.765938-179.01078a15.768402 15.768402 0 0 0-9.579304-3.232522z"/><path d="M332.319064 544.325223c-29.171543 0-60.984293-1.103788-94.61041-3.311364a7.45057 7.45057 0 0 1-2.75947-0.670157l-51.917462-23.652603a7.884201 7.884201 0 0 1 3.271943-15.058823c178.971358-0.433631 314.579612-36.582692 315.919926-36.937481a8.830305 8.830305 0 0 1 1.734524-0.275947c67.725285-2.838312 262.977518-109.393286 284.935017-121.495534 18.567293-32.20696 84.00616-53.336618 86.726209-54.243302a7.884201 7.884201 0 0 1 1.300893-0.315368c18.015399-4.888204 213.937789-149.484447 333.146905-239.482599a7.884201 7.884201 0 0 1 4.73052-1.57684 7.884201 7.884201 0 0 1 4.769942 1.616261c55.701879 42.456421 123.939637 107.106868 132.769941 173.767786a86.726209 86.726209 0 0 1-6.977517 50.301201c73.993225 65.675393 137.973514 98.94672 189.930397 98.94672 79.117955 0 103.519557-77.817062 104.505082-81.128426 0-0.354789 0.275947-0.748999 0.433631-1.103789 32.404065-67.725285 71.430859-72.337542 80.064059-72.495226a84.439791 84.439791 0 0 1 25.387126-3.9421A97.921774 97.921774 0 0 1 1785.771481 222.2162a7.884201 7.884201 0 0 1 3.942101 10.367724c-14.073298 32.719433-38.435479 80.064059-74.387435 119.682168-43.954419 48.408993-93.782569 72.968278-148.104712 72.968278a197.814598 197.814598 0 0 1-51.247305-7.095781h-0.551894c-6.622729-2.286418-163.912535-57.751771-260.178627-178.65599-19.907607-25.032338-42.456421-37.725901-67.015706-37.725901-70.68186 0-138.840776 101.075454-139.550354 102.100401a7.884201 7.884201 0 0 1-3.942101 3.074838c-63.388974 21.129658-167.736372 61.496766-177.86757 79.788112a8.081306 8.081306 0 0 1-6.543887 3.942101c-1.261472 0-127.329843 6.66215-177.07915 56.372035a7.884201 7.884201 0 0 1-5.558361 2.32584c-25.860179 0-91.693255 14.033877-155.712966 66.187865l-0.551894 0.433631c-1.931629 1.064367-43.717893 28.343702-189.102556 28.343702z" fill="#0C1011"/><path d="M1215.034185 55.189406c182.282723 139.037881 120.510009 219.377887 120.51001 219.377887 88.263628 79.512165 153.071759 105.293502 199.982753 105.293502 86.174315 0 112.073914-86.726209 112.073914-86.726209 31.260856-65.399446 67.764706-68.001232 73.40191-68.001232h0.748999a75.570065 75.570065 0 0 1 24.165075-3.942101 89.958731 89.958731 0 0 1 36.50385 8.23899c-27.042809 62.83708-95.832461 187.880505-215.238682 187.880505a188.235294 188.235294 0 0 1-49.47336-6.819833S1357.146905 354.789036 1261.472128 234.39729c-23.652602-29.565753-48.68494-40.721897-73.283646-40.721897-75.688328 0-146.094241 105.60887-146.094241 105.608869S875.146289 354.789036 859.732676 382.699107c0 0-129.773945 6.189098-182.282722 58.697875 0 0-77.265168 0-160.680013 67.961811 0 0-39.815214 27.08223-184.450877 27.082229-27.594703 0-58.579612-0.985525-93.979674-3.271943l-51.917462-23.652602c182.243302-0.473052 317.969818-37.213428 317.969818-37.213428 74.19033-3.114259 290.453957-123.584848 290.453958-123.584848 15.453034-30.906067 83.414844-52.548198 83.414844-52.548198 21.642131-3.074838 336.773637-240.980597 336.773637-240.980597m0-15.768402a15.768402 15.768402 0 0 0-9.500462 3.193101c-115.897752 87.475208-307.483831 228.996612-330.781644 238.181707l-1.261472 0.354789c-7.292886 2.325839-69.10502 22.78534-90.155836 55.898983-62.245765 34.414536-223.044041 117.119803-279.573761 119.485063a14.822298 14.822298 0 0 0-3.469048 0.551894c-1.340314 0.354789-136.120727 36.227903-313.909455 36.661534a15.768402 15.768402 0 0 0-6.465045 30.117647l51.878042 23.652603a15.768402 15.768402 0 0 0 5.51894 1.379735c33.704958 2.207576 65.635972 3.311364 95.00462 3.311364 145.305821 0 188.826609-26.766862 193.162919-29.802279a10.052356 10.052356 0 0 0 1.103788-0.827841c62.04866-50.577148 125.753003-64.256237 150.74592-64.413921a15.768402 15.768402 0 0 0 11.077302-4.612257c47.581152-47.581152 170.692947-54.046196 171.914998-54.125039a15.768402 15.768402 0 0 0 13.008932-7.8842c0.867262-1.261472 10.959039-14.15214 90.234678-45.610102 42.219895-16.793348 82.784108-30.354173 83.25716-30.511857a15.768402 15.768402 0 0 0 8.160148-6.189098 353.685248 353.685248 0 0 1 42.929474-50.65599c22.509393-21.878657 56.372036-47.935941 90.037573-47.935941 22.430551 0 42.338158 11.39267 60.944872 34.769326 97.488143 122.678164 256.867262 178.853095 263.608254 181.336618l1.064367 0.315368a204.989221 204.989221 0 0 0 53.454881 7.371728c56.647983 0 108.447182-25.426548 153.939021-75.530644 36.700955-40.44595 61.457345-88.618417 75.80659-121.889744a15.768402 15.768402 0 0 0-8.120726-20.656606 105.21466 105.21466 0 0 0-42.890053-9.579304 91.535571 91.535571 0 0 0-26.688019 3.9421c-11.826301 0.630736-52.824145 7.884201-85.858947 76.910379a16.714506 16.714506 0 0 0-0.906683 2.325839c-0.906683 3.035417-23.889128 75.451802-96.936249 75.451802-49.07915 0-109.708654-31.300277-180.351093-93.151832a97.251617 97.251617 0 0 0 5.203572-49.236834c-7.371728-55.701879-53.060671-115.937173-135.765938-179.01078a15.768402 15.768402 0 0 0-9.579304-3.232522z"/><path d="M1848.411457 402.922082a9.106252 9.106252 0 0 1-1.458577 0A7.884201 7.884201 0 0 1 1840.960887 398.15214c-24.559285-61.457345-102.49461-66.227287-126.147213-66.227286H1709.097629a7.884201 7.884201 0 0 1-7.489991-10.288882c6.859255-21.445026 31.536803-91.574992 59.131506-95.044041a22.469972 22.469972 0 0 1 2.917154 0c12.299353 0 34.414536 9.145673 67.488759 27.949492a6.583308 6.583308 0 0 1 1.655682 1.261472 168.091161 168.091161 0 0 1 15.531876 17.305821c15.019403 18.567293 28.737912 47.738836 40.564213 86.726209a7.884201 7.884201 0 0 1-2.089313 7.8842c-15.965507 15.177087-32.680012 32.837696-32.837697 33.034802a7.884201 7.884201 0 0 1-5.558361 2.168155z" fill="#006A68"/><path d="M1763.853403 234.279027c12.851247 0 39.421004 13.087773 63.625501 26.924546a162.966431 162.966431 0 0 1 14.743455 16.438558c15.768402 19.710502 28.856175 49.86757 39.421004 84.085002-16.280875 15.492455-33.153064 33.310748-33.153064 33.310748-26.648599-66.582076-110.654758-70.957807-133.361257-70.957807h-5.676624s27.752387-86.607946 52.666461-89.682784a14.506929 14.506929 0 0 1 1.931629 0m0-15.768402a31.536803 31.536803 0 0 0-3.9421 0.236526c-16.714506 2.089313-31.536803 19.079766-47.935941 55.189406A480.068987 480.068987 0 0 0 1694.354173 319.310132a15.768402 15.768402 0 0 0 15.019403 20.617186h5.676624a191.704342 191.704342 0 0 1 59.959347 9.736988c29.408069 10.249461 49.157992 27.594703 58.737296 51.523252a15.768402 15.768402 0 0 0 11.826301 9.618725 15.019403 15.019403 0 0 0 2.956576 0.275947 15.768402 15.768402 0 0 0 11.353249-5.045889s16.753927-17.739452 32.522328-32.719433a15.768402 15.768402 0 0 0 4.257469-16.044349c-12.141669-39.421004-26.254389-69.617493-42.022791-89.209732a185.278719 185.278719 0 0 0-16.12319-17.936557 15.768402 15.768402 0 0 0-3.271944-2.483523c-45.688944-25.978442-62.639975-28.974438-71.391438-28.974438z"/><path d="M1046.312288 300.466893c-11.510933-0.630736-40.130582-9.855251-56.332614-82.587004a7.884201 7.884201 0 0 1 3.074838-8.120727c21.918078-15.768402 46.792732-34.020326 73.953803-54.046196a7.884201 7.884201 0 0 1 4.651679-1.537419 7.884201 7.884201 0 0 1 5.085309 1.852787l59.131506 49.670465a7.884201 7.884201 0 0 1-1.024946 12.811826 212.321528 212.321528 0 0 0-29.013859 21.169079 7.884201 7.884201 0 0 1-5.12473 1.892209 7.884201 7.884201 0 0 1-4.572837-1.458578c-13.639667-9.736988-28.067755-20.301817-39.421004-28.461965 5.440099 18.567293 12.062827 44.190945 12.772406 61.536188a7.884201 7.884201 0 0 1-1.852788 5.361256c-6.543887 7.884201-11.589775 14.506929-14.664613 18.685556a7.884201 7.884201 0 0 1-6.346782 3.232523z" fill="#FFFFFF"/><path d="M1071.659994 162.059747l59.131506 49.670466a220.994148 220.994148 0 0 0-30.078226 21.957499c-27.791808-19.710502-58.619033-42.81121-58.619033-42.811211s18.567293 54.046196 19.710502 82.784109c-6.504466 7.884201-11.589775 14.467508-14.979982 19.079766-15.492455-0.827841-36.385587-19.473976-49.07915-76.437327 23.96797-17.305821 49.355097-35.912535 73.993225-54.085618m0-15.768401a15.768402 15.768402 0 0 0-9.342778 3.114259c-27.08223 19.947028-51.956883 38.120111-73.874962 53.967355a15.768402 15.768402 0 0 0-6.149676 16.202032c16.753927 75.215276 47.068679 87.869418 63.6255 88.776101h0.827841a15.768402 15.768402 0 0 0 12.732985-6.465044c2.995996-3.9421 7.884201-10.60425 14.349245-18.251925a16.162612 16.162612 0 0 0 3.666153-10.761934 227.183246 227.183246 0 0 0-7.135201-41.589159c6.859255 5.006468 14.112719 10.21004 21.090237 15.216507a15.768402 15.768402 0 0 0 9.185094 2.956575 15.492455 15.492455 0 0 0 10.249461-3.9421 208.931321 208.931321 0 0 1 27.949492-20.380659 15.768402 15.768402 0 0 0 2.049892-25.584232l-59.131506-49.670465a15.768402 15.768402 0 0 0-10.170619-3.705574z"/><path d="M894.541423 365.905759a7.884201 7.884201 0 0 1-5.282415-2.010471c-12.5753-11.234986-14.033877-36.346166-4.454573-76.752695a7.884201 7.884201 0 0 1 3.587311-4.927625c11.826301-7.292886 31.536803-20.341238 57.633508-38.829689a7.884201 7.884201 0 0 1 9.855251 0.630736c24.480443 22.430551 45.373576 47.305205 54.519249 65.20234a7.884201 7.884201 0 0 1 0.315368 6.465045 7.884201 7.884201 0 0 1-4.651679 4.533416c-8.396674 3.074838-17.700031 6.504466-27.594703 10.249461a7.647675 7.647675 0 0 1-2.798891 0.512473 7.884201 7.884201 0 0 1-4.375731-1.300894 362.673237 362.673237 0 0 1-34.5328-26.885124 152.401601 152.401601 0 0 1-2.917154 42.259316 7.884201 7.884201 0 0 1-4.493995 5.321836c-11.826301 5.203573-22.588235 10.170619-31.536803 14.664613a7.884201 7.884201 0 0 1-3.271943 0.867262z" fill="#FFFFFF"/><path d="M950.55867 249.810902c23.849707 21.878657 44.112103 46.083154 52.824145 63.073607-8.436095 3.074838-17.778873 6.543887-27.594703 10.288882a433.236834 433.236834 0 0 1-48.133046-39.421004c2.798891 28.935017 1.655682 47.305205-1.340314 59.131506-11.39267 4.967047-22.272867 10.012935-31.81275 14.901139-12.496458-11.156144-8.160148-43.363104-2.049892-69.065599 13.048352-7.884201 33.547274-21.878657 58.067139-39.145057m0-15.768401a16.08377 16.08377 0 0 0-9.106252 2.877733c-26.096705 18.409609-45.334155 31.536803-57.160456 38.553742a15.768402 15.768402 0 0 0-7.135202 9.855251c-10.446566 44.072682-8.278411 70.957807 6.859255 84.439791a15.768402 15.768402 0 0 0 10.525408 3.9421 15.531876 15.531876 0 0 0 7.174623-1.734524c8.6332-4.415152 19.040345-9.303357 30.945488-14.467509a15.768402 15.768402 0 0 0 9.02741-10.367724 127.290422 127.290422 0 0 0 3.350785-27.161072c7.016939 5.676625 14.704034 11.510933 22.075762 16.399138a15.768402 15.768402 0 0 0 8.751463 2.641207 16.162612 16.162612 0 0 0 5.755467-0.946104c8.869726-3.390206 18.05482-6.819834 27.358176-10.21004a15.768402 15.768402 0 0 0 8.6332-22.036341c-9.539883-18.527872-31.103172-44.388051-56.214351-67.370496a15.768402 15.768402 0 0 0-10.643671-4.178626z"/><path d="M726.489683 418.611642a7.884201 7.884201 0 0 1-3.666154-0.906684 7.884201 7.884201 0 0 1-3.9421-5.400677 140.890668 140.890668 0 0 1-2.601786-25.978442 7.884201 7.884201 0 0 1 4.296889-7.135201c34.453957-17.542347 61.102556-32.167539 68.434863-36.188482a58.855559 58.855559 0 0 1 3.429627-5.203573 7.884201 7.884201 0 0 1 6.346782-3.15368 7.608254 7.608254 0 0 1 3.54789 0.867262 456.613489 456.613489 0 0 1 62.285187 41.076686 7.884201 7.884201 0 0 1-4.533416 14.073299 494.221127 494.221127 0 0 0-56.17493 6.780412 8.160148 8.160148 0 0 1-1.379735 0 7.884201 7.884201 0 0 1-3.547891-0.827841l-21.366184-10.722513c-0.275947 3.587311-0.630736 7.687096-1.222051 11.826301a7.884201 7.884201 0 0 1-5.87373 6.583308 310.676933 310.676933 0 0 0-40.997844 13.481983 8.160148 8.160148 0 0 1-3.035417 0.827842z" fill="#FFFFFF"/><path d="M798.787804 342.450262a455.391438 455.391438 0 0 1 60.944872 40.248845 503.130274 503.130274 0 0 0-57.199876 6.898676l-32.246382-16.162612a208.931321 208.931321 0 0 1-1.695103 23.652602 316.47182 316.47182 0 0 0-42.101632 13.797352 133.794888 133.794888 0 0 1-2.325839-24.559286c41.037265-20.971974 70.68186-37.449954 70.68186-37.449954a41.392054 41.392054 0 0 1 3.9421-6.267939m0-15.768402a15.768402 15.768402 0 0 0-12.654142 6.307361c-0.985525 1.379735-1.931629 2.720049-2.798891 3.9421a2616.805667 2616.805667 0 0 1-66.34555 35.045273 15.768402 15.768402 0 0 0-8.593779 14.191561 150.588235 150.588235 0 0 0 2.641207 27.594703 15.768402 15.768402 0 0 0 15.453034 12.5753 15.768402 15.768402 0 0 0 6.070834-1.222051 300.545735 300.545735 0 0 1 40.091161-13.087773 15.768402 15.768402 0 0 0 11.826302-13.166615v-0.906684l11.116723 5.597783a15.768402 15.768402 0 0 0 7.095781 1.655682 16.320296 16.320296 0 0 0 2.75947-0.236526 497.690176 497.690176 0 0 1 55.189405-6.701571 15.768402 15.768402 0 0 0 9.02741-28.107175 463.354481 463.354481 0 0 0-63.586079-41.904528 15.492455 15.492455 0 0 0-7.135202-1.734524z"/><path d="M998.770557 350.413305a7.884201 7.884201 0 0 1-3.15368-0.670157 7.884201 7.884201 0 0 1-4.375731-4.888205l-14.349246-46.359101a7.884201 7.884201 0 0 1 3.587312-9.145673l46.792731-27.003387a7.884201 7.884201 0 0 1 3.942101-1.064367 8.120727 8.120727 0 0 1 4.967046 1.734524l44.782261 36.306744a7.884201 7.884201 0 0 1-1.537419 13.245458l-77.265168 37.055744a7.884201 7.884201 0 0 1-3.390207 0.78842z" fill="#006A68"/><path d="M1031.214044 269.166615l44.979365 36.267324-77.225747 37.095165-14.349245-46.359101 46.792732-27.003388m0-15.768401a15.768402 15.768402 0 0 0-7.884201 2.089313l-46.753311 27.042809a15.768402 15.768402 0 0 0-7.174623 18.291346l14.349246 46.3591a15.768402 15.768402 0 0 0 15.058823 11.116723 15.768402 15.768402 0 0 0 6.819834-1.537419l77.225747-37.095165a15.768402 15.768402 0 0 0 3.114259-26.451493l-45.058207-36.306745a15.768402 15.768402 0 0 0-9.894672-3.508469z"/><path d="M862.807515 421.489375a8.23899 8.23899 0 0 1-3.074839-0.630736 7.884201 7.884201 0 0 1-4.454573-4.927626l-14.309825-46.3591a7.884201 7.884201 0 0 1 3.587312-9.145673l46.753311-27.042809a7.884201 7.884201 0 0 1 9.81583 1.537419l35.478903 39.421004a7.884201 7.884201 0 0 1 1.892208 6.740992 7.884201 7.884201 0 0 1-4.218047 5.558361l-67.961811 34.020327a7.884201 7.884201 0 0 1-3.508469 0.827841z" fill="#C4CAC8"/><path d="M895.251001 340.203265l35.478904 39.421004-67.961811 33.980905-14.309825-46.359101 46.792732-27.042808m0-15.768402a15.768402 15.768402 0 0 0-7.884201 2.128734l-46.753311 27.042809a15.768402 15.768402 0 0 0-7.174622 18.291346l14.309824 46.3591a15.768402 15.768402 0 0 0 8.869726 9.81583 15.453034 15.453034 0 0 0 13.245457-0.39421l67.961811-33.980905A15.768402 15.768402 0 0 0 946.104096 382.383739a15.768402 15.768402 0 0 0-3.9421-13.481984l-35.478904-39.421004a15.768402 15.768402 0 0 0-11.826301-5.203572z"/><path d="M1236.873422 195.252233a177.946412 177.946412 0 0 1-40.327687-7.016939 129.813366 129.813366 0 0 0-24.835233-4.888204 11.589775 11.589775 0 0 0-1.734524 0 13.521404 13.521404 0 0 1-2.207576 0.197105c-8.869726 0-21.523868-7.016939-48.054204-58.776717a7.884201 7.884201 0 0 1 2.325839-9.894672C1143.997536 98.55251 1163.589775 83.966739 1178.68802 72.65291a7.884201 7.884201 0 0 1 4.73052-1.57684 7.884201 7.884201 0 0 1 5.321836 2.049892c85.937789 78.329535 79.472744 97.724669 77.028642 105.056976s-9.736988 17.069295-28.895596 17.069295z" fill="#006A68"/><path d="M1183.41854 78.842008c32.285802 29.408069 81.128426 77.895904 74.899908 96.739144-2.917154 8.751463-11.077302 11.826301-21.405605 11.826301-20.932553 0-50.853095-11.826301-65.16292-11.826301a17.897136 17.897136 0 0 0-3.035417 0.236526h-0.906683c-10.840776 0-28.186018-29.368648-41.037266-54.479828 21.99692-16.359717 41.549738-30.984909 56.687404-42.338158m0-15.768402a15.768402 15.768402 0 0 0-9.461041 3.153681c-18.922082 14.191561-38.001848 28.422544-56.647983 42.298737a15.768402 15.768402 0 0 0-4.612257 19.710502c26.806283 52.351093 41.392054 63.073606 55.189406 63.073606a20.735448 20.735448 0 0 0 3.508469-0.315368h0.433631a137.303357 137.303357 0 0 1 22.588235 4.730521c13.521404 3.390206 28.856175 7.253465 42.259317 7.253465 25.11118 0 33.586695-14.073298 36.385586-22.469973 5.203573-15.768402 0-41.313212-79.236218-113.374807a15.768402 15.768402 0 0 0-10.60425-3.942101z"/></svg>