<?xml version="1.0" ?><!DOCTYPE svg  PUBLIC '-//W3C//DTD SVG 1.1//EN'  'http://www.w3.org/Graphics/SVG/1.1/DTD/svg11.dtd'><svg class="icon" height="94.86px" version="1.1" viewBox="0 0 2159 1024" width="200px" xmlns="http://www.w3.org/2000/svg"><path d="M2029.752762 754.344373l-37.792468 7.720627 37.792468-7.720627a220.655511 220.655511 0 0 1-4.863995-28.411906 110.520771 110.520771 0 0 0-30.882507-78.209949V644.479855v-4.516567V635.485325c0-1.312507 0-2.663616-0.308825-3.860313s-0.193016-1.96876-0.308825-2.933839v-1.2353c0-1.312507-0.270222-2.663616-0.463237-3.860313l-0.463238-2.972441-0.193016-1.119491c0-1.2353-0.424634-2.470601-0.61765-3.590092s-0.424634-2.045966-0.656253-3.049647l-0.193016-0.887872-0.810666-3.435679c-0.270222-0.965078-0.501841-1.891554-0.772062-2.818029l-0.231619-0.772063c-0.308825-1.119491-0.61765-2.238982-0.926475-3.20406s-0.656253-1.930157-0.965079-2.895235l-36.59577 12.353003 36.364152-12.970653c-0.347428-1.042285-0.73346-2.084569-1.119491-3.088251s-0.73346-1.85295-1.196697-3.049647l-1.312507-3.049648c-0.424634-0.965078-0.887872-1.85295-1.312506-2.702219s-0.965078-2.045966-1.428316-2.895235-0.926475-1.737141-1.466919-2.663616-1.042285-1.85295-1.582729-2.740823l-0.540444-0.887872c3.281266-81.06658-26.636162-205.831908-30.264857-220.694114a54.044387 54.044387 0 0 0-29.57-36.09393c-12.468812-49.720836-38.603134-111.949087-52.924896-144.99337a64.042599 64.042599 0 0 0-11.117702-39.877037c-7.295992-10.615862-24.51299-28.373303-57.904701-28.373303-21.887977 0-45.358682 8.068055-55.742925 12.082781-36.981802 12.044178-70.798147 42.849478-103.340588 94.114439-10.075418 15.904491-18.336488 31.152729-24.358577 43.119701a112.798356 112.798356 0 0 1-13.240875 0.694856c-56.978225 0-135.805824-30.071841-136.539283-30.342063a50.184074 50.184074 0 0 0-6.987168-2.161775c-27.485431-6.562533-88.594191-51.110549-136.423474-92.647521-4.55517-17.98906-14.360366-38.873355-30.149047-64.158408s-31.384348-45.551698-32.001998-46.32376A54.353212 54.353212 0 0 0 1212.794647 0.00054h-4.169139c-19.648995 1.505522-47.752076 9.226149-154.219518 83.498578-9.534974 6.678342-19.533186 13.742716-29.878826 21.154517q-5.829073 0.656253-11.58094 1.505523a47.095823 47.095823 0 0 0-13.318081 4.053329c-20.035026 9.650783-62.073839 32.426632-85.930575 64.003995a112.605341 112.605341 0 0 0-22.389817 5.443042 200.736294 200.736294 0 0 0-93.303774 68.481959c-105.733983 54.623434-234.205211 115.809401-304.964755 148.969492a57.9047 57.9047 0 0 0-34.511202 3.860314 202.126007 202.126007 0 0 0-37.599452 20.884295 58.290732 58.290732 0 0 0-10.84748 10.500052c-57.518669 17.062585-236.366987 67.01504-269.874507 74.195223-53.002102 11.387924-87.474701 63.231933-102.838748 91.991267l-1.814347 1.621332-1.930157 1.737141c-1.389713 1.35111-2.625013 2.663616-3.860313 3.860313l-1.737141 1.930157c-1.273903 1.428316-2.393394 2.856632-3.435679 4.246344A20.266645 20.266645 0 0 0 23.16188 613.790364a56.746606 56.746606 0 0 0-3.242663 4.902598l-0.965078 1.659935a63.69517 63.69517 0 0 0-6.215105 15.248237v0.347429l-1.158094 2.933838v0.424634c-0.270222 0.694856-0.540444 1.389713-0.772063 2.123172s-0.579047 1.582728-0.849269 2.393395v0.656253c-0.270222 0.772063-0.540444 1.544125-0.772062 2.431997s-0.386031 1.196697-0.61765 2.045967v0.50184l-0.810666 2.818029c0 0.540444-0.270222 1.080888-0.463238 1.85295s-0.579047 2.354791-0.849269 3.474282l-0.347428 1.737141-0.810666 3.860314v0.463237c-0.308825 1.621332-0.579047 3.281266-0.849269 4.863995v0.694857a388.501936 388.501936 0 0 0-3.397075 72.80551v0.270221c0 4.362154 0.308825 8.454086 0.50184 12.3144v0.501841c0 2.625013 0.308825 5.134217 0.463238 7.411801 0.308825 4.670979 0.61765 8.685705 0.849269 11.580941l0.386031 4.246344a54.469021 54.469021 0 0 0 4.130536 16.213316c1.196697 2.779426 2.509204 5.558851 3.860313 8.261071 19.301567 37.869674 56.321972 69.254022 110.327756 93.265171 42.926685 19.301567 98.515197 34.74282 165.182808 45.860522 114.728513 19.301567 243.778788 23.89534 331.986949 24.165562h8.569895c55.202481 0 94.539074-1.544125 105.309348-2.007363h0.270222c55.4341 0.73346 110.404962 1.312507 163.368462 1.775744l57.480065 0.424634h13.742716q44.007572 0.231619 86.046385 0.386032h70.026084c294.194481 0 514.077929-6.060692 653.551051-18.027664 119.901333-10.268434 158.272848-22.814452 183.982534-31.152728 3.860313-1.273903 7.373199-2.393394 10.307037-3.20406 39.568212-11.001893 64.158408-42.231828 67.516881-85.73756 1.042285-25.285052-4.516567-52.423055-9.148943-74.233826z" fill="#FFFFFF"/><path d="M1122.501917 920.762482c-117.430732 0-249.067418-0.965078-391.242758-2.856632-3.512885 0-44.934047 2.045966-104.807508 2.045966-192.591033 0-523.728713-18.60671-577.232656-143.449244a8.415483 8.415483 0 0 1-0.579047-2.354791c-0.926475-9.689387-8.183864-93.573996 8.608499-124.263487 0.193016-4.979804 3.860313-12.237193 16.792363-21.347533 5.597454-11.58094 34.74282-67.864309 75.816554-76.665823 40.185862-8.608499 270.762379-73.345954 290.48858-80.062899 25.323656-8.415483 490.80024-227.372457 540.984314-277.556531l0.772063-0.694856c19.301567-14.746397 190.236242-144.144101 230.036072-147.193748h0.579047a7.720627 7.720627 0 0 1 6.137899 3.011044c9.72799 12.700431 56.167559 74.697063 55.472703 105.656777 17.834648 16.058904 114.68991 101.564844 169.081725 114.496894l1.003681 0.308825c0.849269 0.347428 87.088669 33.430314 153.25444 33.430314 18.992742 0 34.472598-2.702219 46.053539-8.106658 7.720627-17.834648 52.886293-114.844322 110.404961-132.447352 3.088251-1.2353 24.242768-9.419165 40.185862-9.419164 9.380561 0 16.0203 2.779426 19.803408 8.26107s3.860313 11.58094 1.428316 19.95782c8.724308 19.301567 56.6694 127.892181 61.456189 179.967809h16.444934a7.720627 7.720627 0 0 1 7.489008 5.867676c1.544125 6.369517 37.174818 152.829806 27.639844 224.129794 8.531293 7.064373 23.393499 26.829178 17.757441 76.743029a66.822024 66.822024 0 0 1 32.156411 57.518669 214.826438 214.826438 0 0 0 5.829073 37.869674c8.222467 39.491006 19.494582 93.573996-26.36594 106.31303-3.860313 1.080888-7.720627 2.316188-12.237194 3.860313-46.748395 15.286841-144.105498 46.980014-823.211823 46.980014z" fill="#FFFFFF"/><path d="M1212.71744 54.044927s59.448826 77.206267 53.46534 104.228461c0 0 112.952769 104.228461 175.412639 118.936254 0 0 87.59051 33.970758 156.033866 33.970758 19.842011 0 38.024087-2.856632 52.037024-10.191227 0 0 47.559061-112.991372 107.007886-130.82602 0 0 22.080992-8.99453 37.638055-8.99453 11.272115 0 19.301567 4.670979 12.893447 20.884295 0 0 62.45987 136.770902 62.45987 187.302404h23.77953s38.603134 157.539388 26.751972 225.905538c0 0 26.751972 11.889765 17.834648 77.206267a59.98927 59.98927 0 0 1 32.735457 53.272324c0 38.603134 38.603134 121.870093-14.862206 136.732299-46.32376 12.893447-90.717364 50.415692-833.403051 50.415693-113.377403 0-242.929519-0.887872-391.358568-2.856632 0 0-41.807194 2.045966-104.691698 2.045966-176.068892 0-517.552211-16.13611-570.129679-138.778265 0 0-8.917324-95.118121 8.917324-121.908696 0 0-2.972441-5.944883 14.862206-17.834648 0 0 29.724413-65.393708 71.338591-74.311032s273.503201-74.311032 291.337849-80.255914 490.491415-225.789728 543.995358-279.293672c0 0 187.302404-142.831594 225.94414-145.649623m0-15.441253h-1.196697c-7.720627 0.61765-28.3347 2.200379-135.110967 76.704426-51.303564 35.785105-98.515197 71.724622-98.978435 72.072051a13.202272 13.202272 0 0 0-1.544125 1.389712c-49.64363 49.605027-513.653295 267.056478-538.050475 275.70358-19.610392 6.52393-249.569258 71.222781-289.523502 79.792677-43.003891 9.226149-72.342272 62.923108-80.294518 79.097821-12.893447 9.419165-17.410013 17.796045-18.297885 24.39718-16.444935 33.237298-10.191227 111.138421-8.685705 127.081516a14.630588 14.630588 0 0 0 1.196697 4.632376c13.858525 32.349426 45.590301 59.757651 94.384662 81.491215 39.992846 17.796045 92.647521 32.27222 155.956659 43.081097 114.844322 19.494582 245.014089 23.586515 333.955709 23.586515 58.908382 0 100.020719-1.814347 104.96192-2.045966 142.059531 1.891554 273.619011 2.856632 391.088346 2.856631 680.341626 0 778.432188-31.924791 825.605217-47.288838 4.400757-1.428316 8.183864-2.663616 11.928368-3.860314 16.483538-4.55517 36.71158-17.216998 39.375196-51.49658 1.544125-20.228042-3.281266-43.389922-7.720626-63.810979a210.695903 210.695903 0 0 1-5.674661-36.286946 74.195223 74.195223 0 0 0-31.693173-61.533395c3.860313-44.123382-8.183864-65.625327-17.796044-75.777951 7.990849-74.079413-26.713368-216.833801-28.257494-223.126112a15.441253 15.441253 0 0 0-14.978016-11.58094H1883.832917c-7.720627-53.388134-48.562742-147.077939-60.105079-172.864832a28.3347 28.3347 0 0 0-3.242663-23.702324c-3.860313-5.327232-11.156306-11.58094-26.172925-11.58094-16.985379 0-38.139896 8.029452-42.772271 9.882402-28.103081 8.724308-56.244766 35.090248-83.691594 78.364361a468.603438 468.603438 0 0 0-29.956032 55.472703 108.938043 108.938043 0 0 1-40.263068 6.253708c-64.698852 0-149.625746-32.581045-150.552221-32.88987a17.410013 17.410013 0 0 0-2.007363-0.656253c-45.397285-10.808877-128.471228-79.21363-163.136842-110.366359-0.694856-11.58094-6.369517-30.226254-27.253812-63.733774-14.360366-23.16188-29.222572-42.463447-29.840223-43.235509a15.441253 15.441253 0 0 0-12.121384-6.022089z"/><path d="M739.597436 736.548329l-278.637418-16.058904a7.720627 7.720627 0 0 1-7.218786-8.647102c0-1.428316 19.069948-143.603657 146.691907-195.254649C723.770151 466.635219 1081.235168 313.071954 1084.748053 311.527828l0.926475-0.347428a49.798042 49.798042 0 0 1 12.3144-1.312507c16.792363 0 50.917533 6.215105 90.524348 48.022299 52.500262 55.395497 240.96076 200.736294 242.890916 202.319023a7.720627 7.720627 0 0 1 2.972441 5.867676 7.720627 7.720627 0 0 1-2.625013 6.060692l-101.063003 88.20816a7.720627 7.720627 0 0 1-4.130536 1.85295L741.180164 736.509725h-0.965078z" fill="#FFFFFF"/><path d="M1098.066134 317.58852c15.441253 0 47.250235 5.867676 84.926894 45.628904 53.503943 56.476384 243.778788 203.091086 243.778788 203.091086l-101.101607 88.20816-585.609536 74.349635-278.676021-16.058904s17.062585-138.546646 141.943722-189.155354 484.546532-205.021242 484.546533-205.021242a40.610496 40.610496 0 0 1 10.191227-1.042285m0-15.441253a55.086672 55.086672 0 0 0-14.437572 1.621331 13.086462 13.086462 0 0 0-1.852951 0.656254c-3.590091 1.544125-360.977902 155.107391-484.27631 204.982639-54.623434 22.119596-98.167769 64.003995-125.846215 121.059427a281.802875 281.802875 0 0 0-25.593878 80.44893 15.441253 15.441253 0 0 0 14.437572 17.294204l278.676021 16.058903h0.887872a10.577259 10.577259 0 0 0 1.930157 0l585.648139-74.311032a15.441253 15.441253 0 0 0 8.183864-3.860313l101.101607-88.246763a15.441253 15.441253 0 0 0-0.733459-23.856737c-1.891554-1.466919-189.927417-146.691907-242.003045-201.469754-41.575575-43.698747-78.094139-50.377089-96.121802-50.377089z"/><path d="M1391.83598 604.487009a7.720627 7.720627 0 0 1-5.05701-1.852951l-315.696427-273.155773a7.720627 7.720627 0 0 1-2.586409-6.987167A7.720627 7.720627 0 0 1 1073.167113 316.546236l11.58094-5.018408 0.926475-0.347428a49.798042 49.798042 0 0 1 12.3144-1.312507c16.792363 0 50.917533 6.215105 90.524348 48.022299 52.500262 55.395497 240.96076 200.736294 242.890916 202.319023a7.720627 7.720627 0 0 1 2.972441 5.867676 7.720627 7.720627 0 0 1-2.625013 6.060692l-34.74282 30.457872a7.720627 7.720627 0 0 1-5.17282 1.891554z" fill="#79080C"/><path d="M1098.066134 317.58852c15.441253 0 47.288839 5.867676 84.926894 45.628904 53.503943 56.476384 243.778788 203.091086 243.778788 203.091086l-34.935836 30.457872-315.696426-273.11717 11.58094-5.018407a40.610496 40.610496 0 0 1 10.191227-1.042285m0-15.441253a55.086672 55.086672 0 0 0-14.437572 1.621331 13.086462 13.086462 0 0 0-1.85295 0.656254l-11.58094 5.05701a15.441253 15.441253 0 0 0-3.860314 25.8641l315.73503 273.117169a15.441253 15.441253 0 0 0 10.075418 3.860314 15.441253 15.441253 0 0 0 10.152624-3.860314l34.935836-30.496475a15.441253 15.441253 0 0 0-0.73346-23.856737c-1.891554-1.466919-189.927417-146.691907-242.003044-201.469754-41.729987-43.814557-78.248552-50.492899-96.276215-50.492898z"/><path d="M1194.573968 662.237296a7.489008 7.489008 0 0 1-4.748186-1.891553l-294.040068-255.900172a7.720627 7.720627 0 0 1-2.547807-7.025771 7.720627 7.720627 0 0 1 4.593773-5.906279c60.954348-25.979909 115.809401-49.489217 150.204793-64.197011a7.720627 7.720627 0 0 1 3.049647-0.656253 7.720627 7.720627 0 0 1 5.095614 1.930156l320.097183 280.413162a7.720627 7.720627 0 0 1 0 11.58094l-45.513094 39.722625a7.720627 7.720627 0 0 1-4.130535 1.85295l-30.41927 3.860314h-0.965078z" fill="#070E16"/><path d="M1051.08612 334.380883l320.135787 280.413162-45.551698 39.722625-30.419269 3.860313-100.368147-3.860313-294.040068-255.900173c60.992951-25.979909 115.809401-49.489217 150.243395-64.235614m0-15.441253a15.441253 15.441253 0 0 0-6.099295 1.273903c-34.974439 14.978016-89.44346 38.332912-150.166189 64.197011a15.441253 15.441253 0 0 0-4.091932 25.8641l294.001465 255.900172a15.441253 15.441253 0 0 0 9.573577 3.860313l100.368147 3.860314h2.547807l30.419269-3.860314a15.441253 15.441253 0 0 0 8.183864-3.860313l45.551698-39.761227a15.441253 15.441253 0 0 0 0-23.161881l-320.097183-280.451765a15.441253 15.441253 0 0 0-10.191228-3.860313z"/><path d="M1156.279659 683.739242a8.106658 8.106658 0 0 1-2.354791-0.347428l-54.70064-17.641632a8.492689 8.492689 0 0 1-2.58641-1.428316l-273.580408-228.76217a7.720627 7.720627 0 0 1 1.930157-13.047859l48.331123-20.57547a8.37688 8.37688 0 0 1 2.972442-0.463238 7.720627 7.720627 0 0 1 4.941201 1.775744l313.264428 262.771531a7.720627 7.720627 0 0 1-3.860313 13.549699l-33.353107 4.246345z" fill="#79080C"/><path d="M876.291132 409.193756l313.341635 262.501308-33.353108 4.207742-54.662037-17.641632-273.619011-228.76217L876.291132 409.193756m0-15.441253a15.865888 15.865888 0 0 0-6.060692 1.196697l-48.331124 20.57547a15.441253 15.441253 0 0 0-3.860313 26.057115l273.619011 228.76217a15.827285 15.827285 0 0 0 5.17282 2.856631l54.662037 17.641632a15.441253 15.441253 0 0 0 4.748185 0.73346 15.711475 15.711475 0 0 0 1.930157 0l33.353107-4.207742a15.441253 15.441253 0 0 0 7.990849-27.022193l-313.225826-263.118958a15.441253 15.441253 0 0 0-9.998211-3.474282z"/><path d="M1122.54052 920.762482c-117.546542 0-249.183227-0.965078-391.281361-2.856632-3.512885 0-44.895444 2.045966-104.807508 2.045966-192.591033 0-523.728713-18.60671-577.232656-143.449244a8.415483 8.415483 0 0 1-0.579047-2.354791c-0.926475-9.72799-8.183864-93.612599 8.647102-124.30209 0.193016-4.941201 3.667298-12.159987 16.637951-21.231724a7.720627 7.720627 0 0 1 4.43936-1.389713 7.720627 7.720627 0 0 1 7.720627 8.261071 49.836645 49.836645 0 0 0 0.347428 14.205953c15.016619 8.492689 141.05585 38.603134 181.434728 41.729987l18.529504 1.505523c53.195118 4.362154 177.806033 14.553381 256.749441 14.553381 15.441253 0 28.450509-0.386031 38.603134-1.196697 21.772167-1.659935 45.127063-1.930157 69.833068-2.238982 64.891867-0.772063 145.688226-1.737141 265.049115-27.331018 83.923212-17.98906 173.21226-28.296097 252.039859-37.367834 75.27611-8.685705 140.32239-16.213316 172.054166-27.755653 32.465235-11.812559 50.608708-30.882507 65.200693-46.32376s27.022193-28.527716 47.443251-28.527716c29.338381 0 337.159768 32.735457 468.101597 46.825601a7.720627 7.720627 0 0 1 5.28863 2.895235 7.720627 7.720627 0 0 1 1.621331 4.825392c8.531293 7.064373 23.509308 26.790575 17.834648 76.820236a66.822024 66.822024 0 0 1 32.27222 57.634478 214.826438 214.826438 0 0 0 5.829073 37.869674c8.222467 39.491006 19.494582 93.573996-26.36594 106.31303-3.860313 1.080888-7.720627 2.316188-12.237194 3.860313-46.748395 15.209635-144.105498 46.902807-823.134616 46.902808z" fill="#FFFFFF"/><path d="M1453.523788 544.536342c29.68581 0 358.082667 35.013042 467.290931 46.748395l-0.579047 3.860313s26.751972 11.889765 17.834648 77.206267a59.98927 59.98927 0 0 1 32.696854 53.388134c0 38.603134 38.603134 121.870093-14.862206 136.732299-46.32376 12.893447-90.562951 50.415692-833.403051 50.415693-113.3388 0-243.006726-0.887872-391.358568-2.856632 0 0-41.768591 2.045966-104.691698 2.045966-176.068892 0-517.552211-16.13611-570.129679-138.778265 0 0-8.917324-95.118121 8.917324-121.908696 0 0-2.702219-5.520248 13.125065-16.599347-0.61765 8.647102-0.386031 16.406332 1.737141 19.571788 5.944883 8.917324 148.660667 41.652781 187.302404 44.625223 33.160092 2.547807 184.754597 16.058904 275.857992 16.058903 14.978016 0 28.3347-0.386031 39.220784-1.196697 77.206267-5.944883 169.467756 5.944883 335.847262-29.724413s359.781205-41.498369 425.059104-65.277899 74.349635-74.311032 110.01893-74.311032m0-15.441253c-23.663721 0-37.94688 15.016619-53.040705 30.882507s-31.461554 33.121489-62.228252 44.277794-95.504152 18.72252-170.355628 27.331018c-78.943408 9.11034-168.464075 19.301567-252.734715 37.483643-118.588826 25.439465-198.96055 26.404543-263.543593 27.022194-24.821815 0.308825-48.29252 0.579047-70.296306 2.277584-9.998212 0.772063-22.814452 1.158094-38.06269 1.158094-78.711789 0-203.091086-10.191227-256.208997-14.553381l-18.490901-1.466919c-36.016724-2.779426-149.973174-29.415588-175.026608-39.29799 0-1.85295 0-4.55517 0.231619-8.454086a15.441253 15.441253 0 0 0-7.720627-14.476175 15.209635 15.209635 0 0 0-7.720626-2.007363 15.441253 15.441253 0 0 0-8.878721 2.779425c-14.051541 9.843799-18.876932 18.645314-19.803408 25.478069-16.483538 33.198695-10.22983 111.138421-8.724308 127.120118a14.630588 14.630588 0 0 0 1.196697 4.632376c13.858525 32.349426 45.590301 59.757651 94.384662 81.491215 39.992846 17.757441 92.647521 32.27222 155.956659 43.042494 114.844322 19.533186 245.014089 23.625118 333.955709 23.625118 58.908382 0 100.020719-1.814347 104.96192-2.045966 142.059531 1.891554 273.657614 2.856632 391.088346 2.856632 680.380229 0 778.470791-31.924791 825.605217-47.288839 4.400757-1.428316 8.183864-2.663616 11.928368-3.860313 16.483538-4.55517 36.71158-17.216998 39.375197-51.49658 1.544125-20.228042-3.281266-43.389922-7.720627-63.81098a210.695903 210.695903 0 0 1-5.674661-36.286946 74.195223 74.195223 0 0 0-31.693172-61.533395c4.130535-45.474491-8.917324-67.053643-18.683917-76.665823a15.441253 15.441253 0 0 0-13.356684-11.58094c-131.250654-14.090144-439.18785-46.864204-468.950867-46.864204z"/><path d="M1622.952941 418.497111c-52.809087 0-158.272848-90.17692-162.596399-94.037233a7.720627 7.720627 0 0 1 5.057011-13.5497 8.222467 8.222467 0 0 1 2.123172 0.270222 427.375292 427.375292 0 0 0 117.006098 17.603029c65.972755 0 111.640262-18.799726 141.866516-31.268538l9.61218-3.860314c19.301567-7.720627 20.768486-23.16188 21.849373-47.829282 0.849269-19.031345 1.814347-40.571893 16.908173-57.209844 10.307037-11.310718 21.347533-17.062585 32.812663-17.062585h0.73346a7.720627 7.720627 0 0 1 7.218786 9.882402c9.11034 20.228042 61.340379 138.315028 61.765014 186.87777a7.720627 7.720627 0 0 1-6.137899 7.720626c-77.090458 15.865888-211.931203 42.463447-248.218148 42.463447z" fill="#313E46"/><path d="M1807.591728 179.23489h0.579047c-0.270222 0.849269-0.540444 1.698538-0.926475 2.625013 0 0 61.765014 135.535602 62.421267 186.607547-76.279792 15.672872-211.043331 42.463447-246.712626 42.463447-50.531502 0-157.539388-92.14568-157.539388-92.14568a432.625318 432.625318 0 0 0 119.12927 17.873251c74.851476 0 123.530027-23.470705 154.412534-35.707898 44.586619-17.834648 11.889765-74.349635 41.614178-107.04649 9.921005-10.886084 19.301567-14.514778 27.022193-14.514778m0-15.441253c-13.742716 0-26.713368 6.601136-38.603133 19.571788-16.985379 18.72252-18.027663 42.733669-18.915536 62.073839-1.080888 25.246449-2.856632 35.36047-16.985378 40.996528l-9.689387 3.860313c-29.647207 12.19859-74.504048 30.650888-138.971281 30.650888a421.005774 421.005774 0 0 1-114.882925-17.294204 16.290522 16.290522 0 0 0-4.246345-0.579047 15.441253 15.441253 0 0 0-10.075418 27.022194c11.387924 9.805196 112.914166 95.890184 167.614806 95.890184 35.128852 0 155.2232-23.16188 249.839481-42.463447a15.441253 15.441253 0 0 0 12.314399-15.441254c-0.231619-23.16188-11.156306-62.652886-32.426632-117.816763-12.082781-31.268538-24.242768-59.062794-29.145366-70.026084a15.132428 15.132428 0 0 0-2.856632-10.191228 15.441253 15.441253 0 0 0-12.19859-6.446723zM1630.441949 441.350166h-4.053329a3.860313 3.860313 0 0 1 0-7.720626h4.284947c4.709582 0 9.72799 0 14.862207-0.347429a3.860313 3.860313 0 1 1 0.308825 7.720627c-5.211423 0.231619-10.500052 0.308825-15.40265 0.347428z m-23.161881-1.080887h-0.386031a158.272848 158.272848 0 0 1-19.533185-3.088251 3.860313 3.860313 0 0 1-2.895235-4.632376 3.860313 3.860313 0 0 1 4.593772-2.895235 152.366568 152.366568 0 0 0 18.568108 2.933838 3.860313 3.860313 0 0 1-0.347429 7.720627z m57.904701-0.579047a3.860313 3.860313 0 0 1-0.347428-7.720627c6.099295-0.540444 12.546018-1.2353 19.108551-2.045966a3.860313 3.860313 0 0 1 0.965078 7.720626c-6.678342 0.849269-13.163669 1.544125-19.301567 2.123173z m38.371515-4.786789a3.860313 3.860313 0 0 1-0.617651-7.720627c6.330914-0.965078 12.661828-2.045966 18.992742-3.20406a3.860313 3.860313 0 1 1 1.35111 7.720627c-6.369517 1.158094-12.777637 2.238982-19.301567 3.242663z m-133.528239-3.860313a3.860313 3.860313 0 0 1-1.659935-0.386032 172.749023 172.749023 0 0 1-17.294204-9.534974 3.860313 3.860313 0 0 1-1.273903-5.288629 3.860313 3.860313 0 0 1 5.327232-1.273903 173.289467 173.289467 0 0 0 16.522141 9.110339 3.860313 3.860313 0 0 1-1.621331 7.373199z m171.552325-3.088251a3.860313 3.860313 0 0 1-0.772063-7.720627c6.369517-1.273903 12.661828-2.625013 18.83833-3.860313a3.860313 3.860313 0 0 1 4.593772 2.933838 3.860313 3.860313 0 0 1-2.895235 4.593773c-6.253708 1.389713-12.584622 2.740822-18.992741 3.860313a2.625013 2.625013 0 0 1-0.926475 0.270222z m37.753865-8.338277a3.860313 3.860313 0 0 1-0.926476-7.720627q9.61218-2.316188 18.72252-4.632376a3.860313 3.860313 0 1 1 1.891554 7.489008c-6.060692 1.544125-12.353003 3.088251-18.799726 4.632376z m-242.427679-8.531292a3.860313 3.860313 0 0 1-2.161775-0.694857c-4.979804-3.397076-10.268434-7.218786-15.827285-11.310718a3.860313 3.860313 0 1 1 4.593773-6.215104c5.481645 3.860313 10.731671 7.720627 15.441253 11.194908a3.860313 3.860313 0 0 1 1.003682 5.365836 3.860313 3.860313 0 0 1-3.204061 1.737141z m279.872718-1.003682a3.860313 3.860313 0 0 1-1.003681-7.720627c6.562533-1.775744 12.777637-3.512885 18.568107-5.172819a3.860313 3.860313 0 0 1 2.123172 7.450404c-5.829073 1.659935-12.082781 3.397076-18.683916 5.17282a4.516567 4.516567 0 0 1-1.158094 0.347428z m37.174818-10.615862a3.860313 3.860313 0 0 1-3.860314-2.740822 3.860313 3.860313 0 0 1 2.58641-4.825392c7.527611-2.238982 13.781319-4.207742 18.413695-5.67466a3.860313 3.860313 0 1 1 2.354791 7.373198c-4.670979 1.466919-10.96329 3.435679-18.568107 5.713264a3.860313 3.860313 0 0 1-1.080888 0.231619zM1505.522208 388.193651a3.860313 3.860313 0 0 1-2.393394-0.810665c-5.05701-3.860313-10.152624-7.990849-15.209634-12.044178a3.860313 3.860313 0 0 1 4.863994-6.022089c5.018407 3.860313 10.075418 8.068055 15.093826 11.966972a3.860313 3.860313 0 0 1-2.354792 6.90996z m-30.149047-24.242767a3.860313 3.860313 0 0 1-2.431997-0.887873q-7.720627-6.330914-14.862207-12.468812A3.860313 3.860313 0 1 1 1463.058762 344.726523c4.786789 3.860313 9.766593 8.222467 14.785 12.391606a3.860313 3.860313 0 0 1 0.50184 5.443042 3.860313 3.860313 0 0 1-2.818028 1.389713z m-29.492794-25.014831a3.860313 3.860313 0 0 1-2.509204-0.965078c-5.211423-4.477963-10.114021-8.762911-14.591984-12.739034a3.860313 3.860313 0 0 1 5.095614-5.79047c4.477963 3.860313 9.380561 8.222467 14.553381 12.70043a3.860313 3.860313 0 0 1-2.547807 6.794152z m-28.990953-25.593878a3.860313 3.860313 0 0 1-2.58641-1.003681c-9.033133-8.106658-14.437572-13.125065-14.437572-13.125065a3.860313 3.860313 0 0 1 5.288629-5.636058s5.404439 4.979804 14.321763 13.009256a3.860313 3.860313 0 0 1 0.308825 5.443042 3.860313 3.860313 0 0 1-2.740823 1.312506zM298.054794 694.084882a3.590091 3.590091 0 0 1-1.544125-0.347429 3.860313 3.860313 0 0 1-2.007363-5.05701s2.972441-6.794152 7.990848-17.796045a3.860313 3.860313 0 1 1 7.025771 3.20406c-4.979804 10.924687-7.913642 17.641632-7.913643 17.641633a3.860313 3.860313 0 0 1-3.551488 2.354791z m16.097507-35.321868a4.284948 4.284948 0 0 1-1.659935-0.347428 3.860313 3.860313 0 0 1-1.85295-5.17282c2.58641-5.404439 5.365836-11.310718 8.37688-17.487219a3.860313 3.860313 0 0 1 5.134216-1.775744 3.860313 3.860313 0 0 1 1.814348 5.134216c-2.972441 6.176501-5.79047 12.005575-8.338277 17.448617a3.860313 3.860313 0 0 1-3.474282 2.200378z m16.869569-34.74282a3.860313 3.860313 0 0 1-1.737141-0.424634 3.860313 3.860313 0 0 1-1.737141-5.17282c2.818029-5.674661 5.751867-11.58094 8.801515-17.294204a3.860313 3.860313 0 1 1 6.832754 3.551488c-2.972441 5.79047-5.906279 11.58094-8.724308 17.178395a3.860313 3.860313 0 0 1-3.435679 2.084569z m17.757442-34.395392a3.435679 3.435679 0 0 1-1.814348-0.463237 3.860313 3.860313 0 0 1-1.582728-5.211423c3.088251-5.713264 6.215105-11.58094 9.341958-17.023982a3.860313 3.860313 0 0 1 5.288629-1.466919 3.860313 3.860313 0 0 1 1.46692 5.250026c-3.165457 5.558851-6.253708 11.233512-9.303356 16.908172a3.860313 3.860313 0 0 1-3.397075 1.930157z m19.031344-33.739138a4.091932 4.091932 0 0 1-1.968759-0.540444 3.860313 3.860313 0 0 1-1.312507-5.327233c3.551488-5.867676 7.02577-11.58094 10.34564-16.483538a3.860313 3.860313 0 0 1 5.327232-1.119491 3.860313 3.860313 0 0 1 1.119491 5.327233c-3.281266 4.979804-6.678342 10.461449-10.191227 16.290522a3.860313 3.860313 0 0 1-3.31987 1.852951z m21.347533-32.233617a3.860313 3.860313 0 0 1-2.316188-0.810666 3.860313 3.860313 0 0 1-0.772062-5.365835 149.316921 149.316921 0 0 1 12.777637-15.209635 3.860313 3.860313 0 0 1 5.520248 5.404439 146.962129 146.962129 0 0 0-12.121384 14.398969 3.860313 3.860313 0 0 1-3.088251 1.582728zM406.838424 694.084882a3.628695 3.628695 0 0 1-1.85295-0.501841 3.860313 3.860313 0 0 1-1.544125-5.211423l9.264752-16.946776a3.860313 3.860313 0 1 1 6.755548 3.667298l-9.226149 16.946776a3.860313 3.860313 0 0 1-3.397076 2.045966z m-78.982011-17.757442a3.860313 3.860313 0 0 1-1.158094 0 3.860313 3.860313 0 0 1-2.547807-4.825391 209.228984 209.228984 0 0 1 6.832755-18.490901 3.860313 3.860313 0 0 1 7.14158 3.011044c-2.625013 6.215105-4.863995 12.159987-6.601136 17.757441a3.860313 3.860313 0 0 1-3.667298 2.547807z m97.472912-16.213316a3.628695 3.628695 0 0 1-1.85295-0.501841 3.860313 3.860313 0 0 1-1.544125-5.211423l9.264752-16.946775a3.860313 3.860313 0 1 1 6.755548 3.860313l-9.226149 16.908173a3.860313 3.860313 0 0 1-3.397076 1.891553z m-82.610705-19.301567a3.860313 3.860313 0 0 1-1.737141-0.424634 3.860313 3.860313 0 0 1-1.698538-5.211423c2.818029-5.520248 5.944883-11.310718 9.264752-17.178395a3.860313 3.860313 0 0 1 5.288629-1.389712 3.860313 3.860313 0 0 1 1.428316 5.250026c-3.281266 5.713264-6.330914 11.58094-9.110339 16.830966a3.860313 3.860313 0 0 1-3.435679 2.123172z m101.217416-14.514778a3.860313 3.860313 0 0 1-1.852951-0.463237 3.860313 3.860313 0 0 1-1.544125-5.250027l9.226149-16.946775a3.860313 3.860313 0 0 1 5.250026-1.544126 3.860313 3.860313 0 0 1 1.544125 5.250027l-9.226148 16.946775a3.860313 3.860313 0 0 1-3.397076 2.007363z m-81.954453-19.301567a3.860313 3.860313 0 0 1-2.045966-0.579047 3.860313 3.860313 0 0 1-1.196697-5.327232c3.397076-5.365836 6.987167-10.847481 10.654465-16.290522a3.860313 3.860313 0 0 1 5.365835-1.003682 3.860313 3.860313 0 0 1 1.042285 5.365836c-3.628695 5.327232-7.180183 10.731671-10.538655 16.058903a3.860313 3.860313 0 0 1-3.397076 1.930157z m100.368148-14.746397a3.860313 3.860313 0 0 1-3.397076-5.713263l9.226149-16.946776a3.860313 3.860313 0 0 1 6.794151 3.860313l-9.264752 16.946776a3.860313 3.860313 0 0 1-3.397076 2.007363zM383.637941 575.18723a3.860313 3.860313 0 0 1-2.277585-0.733459 3.860313 3.860313 0 0 1-0.849269-5.404439c6.755548-9.264752 11.233512-14.823603 11.58094-15.055222a3.860313 3.860313 0 0 1 3.165457-1.428316h0.656254a3.860313 3.860313 0 0 1 1.2353 7.450405c-1.659935 2.123172-5.365836 6.909961-10.22983 13.5497a3.860313 3.860313 0 0 1-3.281267 1.621331z m89.134636-12.121384l-19.301567-0.694856a3.860313 3.860313 0 0 1-3.860314-3.860313 3.860313 3.860313 0 0 1 3.860314-3.860314l19.301567 0.656254a3.860313 3.860313 0 0 1 0 7.720626z m-38.603134-1.351109l-19.301567-0.656254a3.860313 3.860313 0 0 1-3.860313-3.860313 3.860313 3.860313 0 0 1 3.860313-3.860313l19.301567 0.694856a3.860313 3.860313 0 0 1 0 7.720627zM429.421258 700.029764h-0.849269a3.860313 3.860313 0 0 1-2.895235-4.632376 193.015668 193.015668 0 0 1 5.597454-18.954138 3.860313 3.860313 0 1 1 7.295992 2.4706 189.657195 189.657195 0 0 0-5.365835 18.220679 3.860313 3.860313 0 0 1-3.783107 2.895235z m12.237193-36.750183a3.860313 3.860313 0 0 1-1.428316-0.270222 3.860313 3.860313 0 0 1-2.123172-5.018407c2.431997-6.022089 5.05701-12.044178 7.720626-17.911854a3.860313 3.860313 0 0 1 5.134217-1.852951 3.860313 3.860313 0 0 1 1.852951 5.17282c-2.740822 5.713264-5.327232 11.58094-7.720627 17.48722a3.860313 3.860313 0 0 1-3.435679 2.393394z m16.522141-34.74282a3.860313 3.860313 0 0 1-1.85295-0.501841 3.860313 3.860313 0 0 1-1.544126-5.211423c3.165457-5.751867 6.446723-11.58094 9.843799-16.908172a3.860313 3.860313 0 1 1 6.562533 4.091932c-3.319869 5.327232-6.562533 10.886084-9.61218 16.483538a3.860313 3.860313 0 0 1-3.397076 1.891553z m20.421058-32.77406a3.590091 3.590091 0 0 1-2.200379-0.73346 3.860313 3.860313 0 0 1-0.926475-5.365836c3.860313-5.327232 7.720627-10.577259 11.851162-15.441253a3.860313 3.860313 0 0 1 5.443042-0.540444 3.860313 3.860313 0 0 1 0.540444 5.404439c-3.860313 4.863995-7.720627 9.959608-11.58094 15.171031a3.860313 3.860313 0 0 1-3.049648 1.35111z m24.435783-29.878826a3.860313 3.860313 0 0 1-2.663616-1.042284 3.860313 3.860313 0 0 1 0-5.481645 259.721883 259.721883 0 0 1 13.897128-13.781319 3.860313 3.860313 0 0 1 5.443042 0.193016 3.860313 3.860313 0 0 1-0.231619 5.481645c-4.593773 4.246345-9.148943 8.762911-13.472493 13.395287a3.860313 3.860313 0 0 1-2.972442 1.080888z m935.083704-21.115914c-1.119491 0-2.161775-0.887872-7.02577-4.979804a3.860313 3.860313 0 0 1 4.979804-5.90628l4.670979 3.860314-2.431997 2.972441 0.810666 3.860313a5.327232 5.327232 0 0 1-1.003682 0.038604z m-906.749004-5.05701A3.860313 3.860313 0 0 1 528.86293 532.723783c5.134217-4.091932 10.461449-7.952246 15.827284-11.58094a3.860313 3.860313 0 0 1 5.365836 1.042285 3.860313 3.860313 0 0 1-1.080888 5.365836c-5.17282 3.474282-10.34564 7.218786-15.441253 11.194908a3.860313 3.860313 0 0 1-2.161776 0.810666z m887.408834-11.58094a3.860313 3.860313 0 0 1-2.509203-0.926476l-14.746397-12.507415a3.860313 3.860313 0 0 1-0.463238-5.443042 3.860313 3.860313 0 0 1 5.443042-0.463237l14.785 12.507415a3.860313 3.860313 0 0 1 0.424634 5.443042 3.860313 3.860313 0 0 1-2.933838 1.312506z m-855.406836-9.959609a3.860313 3.860313 0 0 1-3.358473-1.96876 3.860313 3.860313 0 0 1 1.466919-5.250026c5.674661-3.165457 11.58094-6.176501 17.48722-8.878721a3.860313 3.860313 0 1 1 3.20406 6.987168c-5.751867 2.663616-11.58094 5.558851-16.908172 8.608498a3.860313 3.860313 0 0 1-1.891554 0.424635z m825.875439-15.055222a3.860313 3.860313 0 0 1-2.509204-0.926475l-14.746397-12.546019a3.860313 3.860313 0 1 1 5.018408-5.867676l14.746397 12.507415a3.860313 3.860313 0 0 1 0.424634 5.443042 3.860313 3.860313 0 0 1-2.933838 1.312507zM598.34857 502.034292a3.860313 3.860313 0 0 1-1.312507-7.489008c3.860313-1.466919 8.145261-2.856632 12.3144-4.169138l5.481645-2.431997a3.860313 3.860313 0 1 1 3.165457 7.02577l-5.674661 2.547807-0.463237 0.193015a237.795303 237.795303 0 0 0-12.19859 4.091932 3.860313 3.860313 0 0 1-1.312507 0.231619z m35.707899-14.630587a3.860313 3.860313 0 0 1-1.582729-7.373199l17.603029-7.720627a3.860313 3.860313 0 0 1 3.165457 7.025771l-17.641632 7.913642a3.860313 3.860313 0 0 1-1.505522 0.154413z m725.73891-9.457768a3.860313 3.860313 0 0 1-2.509203-0.926475l-14.707794-12.546019a3.860313 3.860313 0 1 1 5.018407-5.867676l14.669191 12.546018a3.860313 3.860313 0 0 1-2.470601 6.794152z m-690.49425-6.330914a3.860313 3.860313 0 0 1-1.582728-7.373198l17.603029-7.720627a3.860313 3.860313 0 1 1 3.165457 7.02577l-17.603029 7.720627a3.860313 3.860313 0 0 1-1.582729 0.347428z m35.244661-15.788682a3.860313 3.860313 0 0 1-1.582728-7.373198l17.603029-7.720627a3.860313 3.860313 0 0 1 3.165457 7.064374l-17.641632 7.720626a4.400757 4.400757 0 0 1-1.544126 0.308825z m625.834002-3.011044a3.860313 3.860313 0 0 1-2.509204-0.926475l-14.669191-12.623225a3.860313 3.860313 0 1 1 5.018407-5.829073l14.669191 12.584621a3.860313 3.860313 0 0 1-2.509203 6.794152z m-590.627944-12.777637a3.860313 3.860313 0 0 1-1.582728-7.373199l17.603029-7.720626a3.860313 3.860313 0 1 1 3.165457 7.064373l-17.603029 7.720627a3.860313 3.860313 0 0 1-1.582729 0.347428zM1300.925601 427.568848a3.860313 3.860313 0 0 1-2.547807-0.926476l-14.591985-12.661827a3.860313 3.860313 0 0 1 5.057011-5.829074l14.591984 12.623225a3.860313 3.860313 0 0 1 0.386032 5.443042 3.860313 3.860313 0 0 1-2.895235 1.35111z m-526.044901-3.31987a3.860313 3.860313 0 0 1-1.582729-7.373198l17.603029-7.720627a3.860313 3.860313 0 0 1 3.165457 7.064373l-17.641632 7.720627a3.860313 3.860313 0 0 1-1.428316 0.308825z m35.206058-15.788681a3.860313 3.860313 0 0 1-1.582729-7.373199l17.603029-7.913642a3.860313 3.860313 0 1 1 3.165457 7.064373l-17.603029 7.720627a3.860313 3.860313 0 0 1-1.466919 0.501841z m461.616271-6.215105a3.860313 3.860313 0 0 1-2.547807-0.926475l-14.591985-12.739034a3.860313 3.860313 0 0 1-0.347428-5.443042 3.860313 3.860313 0 0 1 5.443042-0.347428l14.591984 12.700431a3.860313 3.860313 0 0 1 0.347429 5.443041 3.860313 3.860313 0 0 1-2.779426 1.312507zM845.408625 392.671615a3.860313 3.860313 0 0 1-1.582729-7.373199l17.603029-7.720626a3.860313 3.860313 0 0 1 3.165457 7.064373l-17.603029 7.720627a3.860313 3.860313 0 0 1-1.582728 0.308825z m35.206058-15.788682a3.860313 3.860313 0 0 1-1.582729-7.373198l17.603029-7.720627a3.860313 3.860313 0 1 1 3.165457 7.064374l-17.603029 7.720626a3.860313 3.860313 0 0 1-1.544125 0.308825z m362.058789 0a3.860313 3.860313 0 0 1-2.547807-0.965078c-5.018407-4.400757-9.843799-8.724308-14.514778-12.854844a3.860313 3.860313 0 0 1 5.134217-5.751866l14.476175 12.81624a3.860313 3.860313 0 0 1 0.347428 5.443042 3.860313 3.860313 0 0 1-2.856632 1.196697z m-326.814129-15.672872a3.860313 3.860313 0 0 1-3.551488-2.277585 3.860313 3.860313 0 0 1 1.96876-5.095613l17.603029-7.720627a3.860313 3.860313 0 0 1 5.095614 1.930157 3.860313 3.860313 0 0 1-1.930157 5.134216l-17.603029 7.720627a3.860313 3.860313 0 0 1-1.544125 0.193016z m297.938985-10.075418a3.860313 3.860313 0 0 1-2.58641-1.003681c-5.17282-4.670979-9.998212-9.071736-14.321762-13.086463a3.860313 3.860313 0 0 1-0.231619-5.443041 3.860313 3.860313 0 0 1 5.481645-0.231619c4.323551 3.860313 9.11034 8.37688 14.244556 13.047859a3.860313 3.860313 0 0 1-2.58641 6.716945z m-262.732927-5.713264a3.860313 3.860313 0 0 1-1.582728-7.373198l17.603029-7.913642a3.860313 3.860313 0 1 1 3.165457 7.064373l-17.603029 7.720627a3.860313 3.860313 0 0 1-1.544126 0.386031z m35.244661-15.788681a3.860313 3.860313 0 0 1-3.551488-2.277585 3.860313 3.860313 0 0 1 1.96876-5.095614l17.603029-7.720626a3.860313 3.860313 0 0 1 5.095613 1.930156 3.860313 3.860313 0 0 1-1.930156 5.134217l-17.603029 7.720627a3.860313 3.860313 0 0 1-1.544126 0.193015z m198.806138-4.748186a3.628695 3.628695 0 0 1-2.431997-0.887872 125.151359 125.151359 0 0 0-15.441254-10.770274 3.860313 3.860313 0 1 1 3.860313-6.639739 132.138526 132.138526 0 0 1 16.213317 11.58094 3.860313 3.860313 0 0 1 0.50184 5.443042 3.860313 3.860313 0 0 1-2.702219 1.273903z m-163.715889-11.156305a3.860313 3.860313 0 0 1-1.582729-7.411802l17.603029-7.720627a3.860313 3.860313 0 0 1 5.134217 1.930157 3.860313 3.860313 0 0 1-1.96876 5.095614L1022.983039 313.380779a3.860313 3.860313 0 0 1-1.428316 0.347428z m130.71021-8.49269a3.860313 3.860313 0 0 1-1.428316-0.308825 135.342586 135.342586 0 0 0-17.834648-5.713263 3.860313 3.860313 0 1 1 1.814347-7.489008 140.32239 140.32239 0 0 1 18.915536 6.060692 3.860313 3.860313 0 0 1 2.123172 5.018407 3.860313 3.860313 0 0 1-3.435679 2.431997z m-94.925106-5.79047a3.860313 3.860313 0 0 1-0.849269-7.720626 171.822547 171.822547 0 0 1 19.301567-3.281267 3.860313 3.860313 0 0 1 0.849269 7.720627 166.958553 166.958553 0 0 0-18.60671 3.126854z m57.557272-3.435679h-0.424634a162.712208 162.712208 0 0 0-17.525823-0.965078h-1.273903a3.860313 3.860313 0 0 1-3.860313-3.860313 3.860313 3.860313 0 0 1 3.860313-3.860314h1.35111a169.120328 169.120328 0 0 1 18.375091 1.003682 3.860313 3.860313 0 0 1-0.424634 7.720627z"/><path d="M1220.167845 270.222475a6.40812 6.40812 0 1 1 6.369517-6.40812 6.40812 6.40812 0 0 1-6.369517 6.40812z" fill="#FFFFFF"/><path d="M1220.167845 259.181979a4.477963 4.477963 0 1 1-4.477963 4.43936 4.43936 4.43936 0 0 1 4.477963-4.43936m0-3.860313a8.338277 8.338277 0 1 0 8.299674 8.299673 8.338277 8.338277 0 0 0-8.299674-8.299673z"/><path d="M1297.451319 326.505844a6.40812 6.40812 0 1 1 6.369517-6.40812 6.40812 6.40812 0 0 1-6.369517 6.40812z" fill="#FFFFFF"/><path d="M1297.451319 315.658363a4.477963 4.477963 0 0 1 0 8.917324 4.477963 4.477963 0 1 1 0-8.917324m0-3.860313a8.338277 8.338277 0 1 0 8.299673 8.299674 8.338277 8.338277 0 0 0-8.299673-8.299674z"/><path d="M1371.762351 386.031876a6.40812 6.40812 0 1 1 6.369517-6.485327 6.40812 6.40812 0 0 1-6.369517 6.485327z" fill="#FFFFFF"/><path d="M1371.762351 375.107189a4.477963 4.477963 0 1 1-4.477964 4.43936 4.43936 4.43936 0 0 1 4.477964-4.43936m0-3.860313a8.338277 8.338277 0 1 0 8.299673 8.299673 8.338277 8.338277 0 0 0-8.299673-8.299673z"/><path d="M1449.045824 448.375937a6.40812 6.40812 0 1 1 6.40812-6.408121 6.369517 6.369517 0 0 1-6.40812 6.408121z" fill="#FFFFFF"/><path d="M1449.045824 437.528456a4.477963 4.477963 0 1 1-4.43936 4.43936 4.477963 4.477963 0 0 1 4.43936-4.43936m0-3.860313a8.338277 8.338277 0 1 0 8.338277 8.299673 8.299674 8.299674 0 0 0-8.338277-8.299673z"/><path d="M1148.790651 239.339968c-17.680235 0-32.079204-13.047859-32.079204-29.106762s14.398969-29.145366 32.079204-29.145366 32.117807 13.086462 32.117807 29.145366-14.398969 29.106763-32.117807 29.106762z" fill="#FFFFFF"/><path d="M1148.790651 184.832344c15.441253 0 28.257494 11.310718 28.257494 25.285052S1164.386317 235.479655 1148.790651 235.479655s-28.218891-11.310718-28.21889-25.246449 12.623225-25.285052 28.21889-25.285053m0-7.720626c-19.803408 0-35.939517 14.823603-35.939517 33.005679s16.13611 32.967076 35.939517 32.967076 35.97812-14.785 35.978121-32.967076-16.13611-33.005679-35.978121-33.005679z"/><path d="M1128.562609 210.117396a20.228042 18.490901 0 1 0 40.456084 0 20.228042 18.490901 0 1 0-40.456084 0Z" fill="#FFFFFF"/><path d="M1148.790651 195.486809a14.707794 14.707794 0 1 1-16.329125 14.630587 15.441253 15.441253 0 0 1 16.329125-14.630587m0-7.720627a22.428421 22.428421 0 1 0 24.088356 22.351214 23.16188 23.16188 0 0 0-24.088356-22.351214z"/><path d="M1145.161957 226.948363a31.808982 31.808982 0 0 1-5.17282-0.386032 3.860313 3.860313 0 0 1-2.084569-1.042284c-24.706005-24.744609-65.625327-37.252024-121.484062-37.252024-6.601136 0-12.3144 0-16.715156 0.270222h-6.948565c-13.240875 0-38.950562 24.860418-47.713473 34.433995a3.860313 3.860313 0 0 1-2.856631 1.2353 3.860313 3.860313 0 0 1-1.544126-0.308825 3.860313 3.860313 0 0 1-2.277585-3.860313c3.126854-34.472598 76.356998-69.987481 79.445249-71.493004a5.404439 5.404439 0 0 1 1.119491-0.347428 254.433253 254.433253 0 0 1 36.441358-2.779425c48.176711 0 76.356998 16.637951 91.566633 30.612284a80.255915 80.255915 0 0 1 21.887977 31.307142 4.091932 4.091932 0 0 1 0 1.814347c-1.891554 11.233512-10.577259 17.680235-23.818134 17.680235z" fill="#FFFFFF"/><path d="M1055.371068 149.394667c90.833173 0 109.787312 59.062794 109.787312 59.062795-2.123172 12.623225-13.511097 14.476175-19.996423 14.476175a30.342063 30.342063 0 0 1-4.516567-0.308825c-34.202376-34.202376-90.79457-38.371515-124.224884-38.371515-10.886084 0-19.301567 0.424634-23.663721 0.424634-17.873251 0-50.570105 35.669295-50.570104 35.669296 2.972441-32.696854 77.206267-68.36615 77.206267-68.36615a250.264115 250.264115 0 0 1 35.862311-2.740822m0-7.720627a255.977379 255.977379 0 0 0-36.981802 2.818029 7.720627 7.720627 0 0 0-2.238982 0.694856c-8.029452 3.860313-78.364361 38.603134-81.645627 74.619857a7.720627 7.720627 0 0 0 4.555169 7.720627 7.720627 7.720627 0 0 0 3.126854 0.656253 7.720627 7.720627 0 0 0 5.713264-2.4706c21.000105-22.891658 38.873355-33.198695 44.856841-33.198695h7.064374c4.477963 0 10.075418-0.270222 16.599347-0.270222 54.81645 0 94.770693 12.159987 118.743239 36.09393a7.720627 7.720627 0 0 0 4.169138 2.161775 38.332912 38.332912 0 0 0 5.829073 0.424635c15.093825 0 25.439465-7.720627 27.601241-20.922899a7.720627 7.720627 0 0 0-0.270222-3.628694c-0.810666-2.625013-21.772167-64.583042-117.121907-64.583043z"/><path d="M782.987358 390.316824a3.860313 3.860313 0 0 1 0-7.720627 103.495001 103.495001 0 0 0 18.452298-1.659935 3.860313 3.860313 0 1 1 1.428316 7.720627 109.131059 109.131059 0 0 1-19.880614 1.659935z m-19.301567-1.659935h-0.656253a98.939831 98.939831 0 0 1-19.494583-5.211423 3.860313 3.860313 0 0 1 2.972442-7.14158A91.103395 91.103395 0 0 0 764.342044 381.013469a3.860313 3.860313 0 0 1-0.656253 7.720626z m56.901019-5.443042a3.860313 3.860313 0 0 1-3.590092-2.4706 3.860313 3.860313 0 0 1 2.200379-4.979805c6.716945-2.58641 12.353003-4.786789 17.834648-7.02577a3.860313 3.860313 0 1 1 2.895235 7.14158c-5.481645 2.238982-11.194909 4.477963-17.950457 7.102976a4.362154 4.362154 0 0 1-1.312507 0.231619z m35.553486-14.669191a3.860313 3.860313 0 0 1-1.621332-7.373198c5.134217-2.316188 10.731671-4.941201 17.37141-8.106658a3.860313 3.860313 0 0 1 3.31987 6.948564c-6.678342 3.20406-12.353003 5.867676-17.48722 8.183864a3.860313 3.860313 0 0 1-1.505522 0.347428z m34.74282-16.522141a3.860313 3.860313 0 0 1-1.698538-7.334595l17.294204-8.492689a3.860313 3.860313 0 0 1 5.17282 1.775744 3.860313 3.860313 0 0 1-1.775744 5.134216l-17.294204 8.49269a3.860313 3.860313 0 0 1-1.621332 0.424634z m34.74282-17.023982a3.860313 3.860313 0 0 1-3.474282-2.161775 3.860313 3.860313 0 0 1 1.737141-5.17282l17.294204-8.531293a3.860313 3.860313 0 0 1 5.17282 1.775745 3.860313 3.860313 0 0 1-1.737141 5.17282l-17.294204 8.531292a3.860313 3.860313 0 0 1-1.775744 0.386031z m34.74282-17.062585a3.860313 3.860313 0 0 1-1.698537-7.334595l17.294203-8.531293a3.860313 3.860313 0 1 1 3.397076 6.948565l-17.294204 8.531292a3.860313 3.860313 0 0 1-1.96876 0.386031z m34.742821-17.062585a3.860313 3.860313 0 0 1-1.698538-7.295992l17.294204-8.531292a3.860313 3.860313 0 0 1 3.397075 6.948564l-17.294203 8.492689a3.860313 3.860313 0 0 1-2.123173 0.386031z m34.74282-16.985378a3.860313 3.860313 0 0 1-1.737141-7.334596l9.187546-4.516566c0-1.196697 0.347428-2.856632 0.61765-4.863995a3.860313 3.860313 0 1 1 7.720626 0.887872c-0.501841 4.362154-0.887872 7.102977-0.887872 7.102976a3.860313 3.860313 0 0 1-2.123172 2.895235l-11.001893 5.404439a4.091932 4.091932 0 0 1-2.316188 0.424635z m13.626906-31.65457h-0.231619a3.860313 3.860313 0 0 1-3.628694-4.091932c0.270222-4.246345 0.386031-8.183864 0.386031-11.58094v-7.102977a3.860313 3.860313 0 1 1 7.720627-0.463237c0 2.393394 0.231619 4.979804 0.231618 7.720626 0 3.860313 0 7.720627-0.386031 12.198591a3.860313 3.860313 0 0 1-4.632376 3.319869z"/><path d="M918.40715 310.601353a4.43936 4.43936 0 0 1-1.389713-0.270222 3.860313 3.860313 0 0 1-2.161775-2.084569c-0.193016-0.463238-18.60671-45.204269 34.472598-73.345954a66.358787 66.358787 0 0 1 30.882507-8.608499c31.731776 0 45.242873 29.994635 45.783316 31.268538a3.860313 3.860313 0 0 1-1.930156 5.057011l-104.035445 47.636267a3.860313 3.860313 0 0 1-1.621332 0.347428z" fill="#E42029"/><path d="M980.210767 230.191026c29.57 0 42.463447 28.990953 42.463447 28.990953l-104.228461 47.559061s-17.834648-41.614178 32.696855-68.404753a62.382664 62.382664 0 0 1 29.106762-8.145261m0-7.720627a70.180497 70.180497 0 0 0-32.735457 9.148943c-44.972651 23.77953-43.312716 61.765014-36.209739 78.209948a7.720627 7.720627 0 0 0 7.102976 4.709583 7.720627 7.720627 0 0 0 3.20406-0.694857L1025.685258 266.362162a7.720627 7.720627 0 0 0 3.860314-10.114021c-0.61765-1.35111-15.093825-33.584726-49.334805-33.584726z"/><path d="M940.95138 293.384355a3.551488 3.551488 0 0 1-1.389713-0.270222 3.860313 3.860313 0 0 1-2.161775-2.084569c0-0.231619-10.924687-26.48175 19.842011-42.772272a38.873355 38.873355 0 0 1 17.911854-4.979804c18.683917 0 26.597559 17.603029 27.022193 18.375092a3.860313 3.860313 0 0 1-1.930157 5.05701l-57.595875 26.327337a3.860313 3.860313 0 0 1-1.698538 0.347428z" fill="#560526"/><path d="M975.153757 247.253611c16.406332 0 23.393499 16.058904 23.393499 16.058903L940.95138 289.524042s-9.882402-23.16188 18.10487-37.831071a34.240979 34.240979 0 0 1 16.097507-4.55517m0-7.720626a42.193225 42.193225 0 0 0-19.687599 5.443042c-27.022193 14.321763-25.979909 37.483643-21.617754 47.713473A8.029452 8.029452 0 0 0 938.056145 296.858637a7.720627 7.720627 0 0 0 2.779426 0.501841 7.720627 7.720627 0 0 0 3.20406-0.694856L1001.751316 270.222475a7.720627 7.720627 0 0 0 3.860313-10.114021c-0.386031-0.849269-9.303355-20.69128-30.496476-20.691279z"/><path d="M787.503924 375.995061a3.551488 3.551488 0 0 1-1.389712-0.270222 3.860313 3.860313 0 0 1-2.161776-2.084569c-0.193016-0.424634-18.60671-45.204269 34.433995-73.345954a66.590405 66.590405 0 0 1 30.882507-8.608498c31.770379 0 45.242873 29.994635 45.82192 31.307141a3.860313 3.860313 0 0 1-1.930157 5.05701l-104.228461 47.559061a4.091932 4.091932 0 0 1-1.428316 0.386031z" fill="#65747B"/><path d="M849.268938 295.584734c29.608603 0 42.270431 28.990953 42.270431 28.990953L787.503924 372.134748s-17.834648-41.614178 32.696855-68.36615a61.765014 61.765014 0 0 1 29.068159-8.183864m0-7.720627a70.412116 70.412116 0 0 0-32.696854 9.071737c-44.934047 23.77953-43.312716 61.765014-36.171136 78.248551a7.720627 7.720627 0 0 0 10.307036 3.860314l104.151255-47.443251a7.720627 7.720627 0 0 0 3.860313-10.152624c-0.579047-1.35111-15.093825-33.584726-49.334805-33.584727z"/><path d="M810.163964 359.009682a4.362154 4.362154 0 0 1-1.389713-0.231618 4.091932 4.091932 0 0 1-2.161775-2.08457c0-0.270222-10.924687-26.520353 19.84201-42.810875a38.603134 38.603134 0 0 1 17.911854-5.05701c18.683917 0 26.597559 17.603029 27.022194 18.336488a3.860313 3.860313 0 0 1-1.930157 5.057011l-57.634478 26.327337a3.860313 3.860313 0 0 1-1.659935 0.463237z" fill="#1F1F27"/><path d="M844.36634 312.685922c16.367729 0 23.393499 16.0203 23.393499 16.020301L810.163964 355.149369s-9.882402-23.16188 18.104869-37.831071a34.009361 34.009361 0 0 1 16.097507-4.632376m0-7.720627a42.463447 42.463447 0 0 0-19.726201 5.404439c-27.022193 14.360366-25.941306 37.483643-21.579152 47.713473a7.720627 7.720627 0 0 0 4.323551 4.169139 7.720627 7.720627 0 0 0 5.983486 0L870.963899 335.847802a7.720627 7.720627 0 0 0 3.860313-10.114021c-0.347428-0.849269-9.264752-20.652676-30.457872-20.652676z"/><path d="M832.206353 283.849381a3.860313 3.860313 0 0 1-3.281266-5.906279 154.412534 154.412534 0 0 1 76.318395-57.9047 64.505836 64.505836 0 0 1 21.231723-3.860314c38.873355 0 57.055431 39.91564 57.904701 41.614178a3.860313 3.860313 0 0 1-1.814348 5.018408l-41.575575 20.614073a3.860313 3.860313 0 0 1-1.698537 0.424634 3.860313 3.860313 0 0 1-1.775745-0.424634 3.860313 3.860313 0 0 1-2.045966-2.818029c-1.582728-9.650783-9.689387-11.58094-16.213316-11.58094a24.358577 24.358577 0 0 0-3.20406 0h-0.579047a3.860313 3.860313 0 0 1-2.740822-1.119491l-17.834648-17.834647a4.670979 4.670979 0 0 0-1.119491 0c-10.422846 0-41.15094 19.842011-59.294413 33.198694a3.860313 3.860313 0 0 1-2.277585 0.579047z" fill="#FFFFFF"/><path d="M926.475205 220.038402c36.827389 0 54.276006 39.336593 54.276006 39.336593l-41.536972 20.614073c-2.161775-13.163669-13.858525-14.939413-20.035026-14.939413a24.474387 24.474387 0 0 0-3.860313 0.270222l-17.834648-17.873251a5.250026 5.250026 0 0 0-3.860313-1.2353c-15.441253 0-61.571998 33.970758-61.571998 33.970758a151.748918 151.748918 0 0 1 74.311032-56.514988A59.950666 59.950666 0 0 1 926.475205 220.038402m0-7.720627a67.864309 67.864309 0 0 0-22.505627 3.860313 158.272848 158.272848 0 0 0-78.325758 59.719048 7.720627 7.720627 0 0 0 11.156306 10.268433c20.69128-15.441253 47.67487-31.693173 56.399178-32.426632l16.792363 16.792363a7.720627 7.720627 0 0 0 5.443042 2.277585 6.678342 6.678342 0 0 0 1.2353 0 19.494582 19.494582 0 0 1 2.58641 0c11.040496 0 12.044178 6.137898 12.391606 8.454086a7.720627 7.720627 0 0 0 4.091932 5.636058 8.145261 8.145261 0 0 0 3.551489 0.849269 7.720627 7.720627 0 0 0 3.435678-0.810666l41.652782-20.845692a7.720627 7.720627 0 0 0 3.628694-10.075418C987.120728 254.240778 967.934971 212.317775 926.475205 212.317775z"/><path d="M817.344147 355.149369a3.628695 3.628695 0 0 1-2.045966-0.61765 3.860313 3.860313 0 0 1-1.814348-3.512885 19.726201 19.726201 0 0 0-4.207741-15.441254c-3.860313-4.169138-10.731671-6.330914-20.266645-6.330914a131.250654 131.250654 0 0 0-38.603134 7.720627 3.242663 3.242663 0 0 1-1.35111 0.270222 3.860313 3.860313 0 0 1-3.319869-5.867676c9.650783-16.097507 69.717259-40.494687 79.83128-40.494687 9.11034 0 28.566319 23.89534 36.518564 34.163773a3.860313 3.860313 0 0 1 0.73346 3.126854 3.860313 3.860313 0 0 1-1.85295 2.58641l-41.614178 23.818133a4.362154 4.362154 0 0 1-2.007363 0.579047z" fill="#FFFFFF"/><path d="M825.489408 294.851274c8.183864 0 33.468917 32.696854 33.468917 32.696855L817.344147 351.289056c1.35111-20.266645-12.661828-25.825496-28.3347-25.825497A134.493317 134.493317 0 0 0 748.900791 333.493011c8.917324-14.862206 68.36615-38.603134 76.511411-38.603133m0-7.720627c-9.766593 0-72.380875 24.474387-83.15115 42.463447a7.720627 7.720627 0 0 0 6.639739 11.58094 7.450405 7.450405 0 0 0 2.702219-0.501841 127.390341 127.390341 0 0 1 37.32923-7.489008c5.79047 0 13.511097 0.887872 17.448617 5.134217a16.0203 16.0203 0 0 1 3.20406 12.430209 7.720627 7.720627 0 0 0 3.590091 7.064373 7.720627 7.720627 0 0 0 7.913643 0l41.614178-23.77953a7.489008 7.489008 0 0 0 3.860313-5.17282 7.720627 7.720627 0 0 0-1.466919-6.253707c-27.60124-35.669295-36.595771-35.669295-39.568212-35.669296z"/><path d="M691.575138 416.721367a32.117807 27.639844 0 1 0 64.235614 0 32.117807 27.639844 0 1 0-64.235614 0Z" fill="#FFFFFF"/><path d="M723.692945 392.941837c15.441253 0 28.257494 10.654465 28.257493 23.77953s-12.661828 23.77953-28.257493 23.77953-28.218891-10.654465-28.218891-23.77953 12.623225-23.77953 28.218891-23.77953m0-7.720627c-19.803408 0-35.939517 14.128747-35.939518 31.500157s16.13611 31.500157 35.939518 31.500157 35.97812-14.128747 35.97812-31.500157-16.13611-31.500157-35.97812-31.500157z"/><path d="M723.692945 434.362999c-11.117702 0-20.189439-7.720627-20.189439-17.641632s9.071736-17.641632 20.189439-17.641632 20.228042 7.913642 20.228042 17.641632-9.071736 17.641632-20.228042 17.641632z" fill="#494951"/><path d="M723.692945 402.940048c9.033133 0 16.367729 6.176501 16.367728 13.781319s-7.334595 13.781319-16.367728 13.781319-16.329125-6.176501-16.329126-13.781319 7.295992-13.781319 16.329126-13.781319m0-7.720626c-13.240875 0-24.049752 9.650783-24.049753 21.501945s10.808877 21.501945 24.049753 21.501945 24.088355-9.650783 24.088355-21.501945-10.808877-21.501945-24.088355-21.501945z"/><path d="M705.781091 430.155258c-11.928368 0-29.415588-29.299778-34.472599-38.294309a2.740822 2.740822 0 0 0-2.4706-1.35111 17.410013 17.410013 0 0 0-9.303355 5.17282c-6.446723 6.446723-42.193225 9.303355-53.002103 10.036815h-0.231618a3.860313 3.860313 0 0 1-2.933839-6.40812c20.845692-23.818133 79.290836-33.044282 85.197116-33.932155a18.915535 18.915535 0 0 1 6.215105-1.042284c24.049752 0 46.32376 45.551698 48.755757 50.724517a3.860313 3.860313 0 0 1-2.702219 5.443042c-11.851162 2.354791-25.092037 5.250026-28.566319 6.330914a8.029452 8.029452 0 0 1-6.485326 3.31987z" fill="#FFFFFF"/><path d="M694.856404 368.197228c22.312611 0 45.281476 48.524139 45.281476 48.524139s-29.724413 5.944883-30.380667 7.02577a4.400757 4.400757 0 0 1-3.860313 2.547807c-10.615862 0-31.114126-36.325549-31.114126-36.325548a6.755548 6.755548 0 0 0-5.829073-3.31987c-5.713264 0-12.005575 6.292311-12.005574 6.292311-5.944883 5.944883-50.531502 8.917324-50.531502 8.917324 20.807089-23.77953 83.228356-32.696854 83.228356-32.696854a14.669191 14.669191 0 0 1 5.250026-0.965079m0-7.720626a22.080992 22.080992 0 0 0-7.102977 1.158094c-7.720627 1.158094-65.625327 10.693068-87.204478 35.128851a7.720627 7.720627 0 0 0 5.79047 12.81624h0.540444c21.656358-1.428316 48.871567-4.55517 55.472703-11.156305a17.796045 17.796045 0 0 1 6.060692-3.860314c10.34564 18.220679 25.092037 39.568212 37.445039 39.568212a11.773956 11.773956 0 0 0 8.647102-3.860313c4.43936-1.196697 16.715157-3.860313 27.022193-5.944883a7.720627 7.720627 0 0 0 5.404439-4.091932 7.720627 7.720627 0 0 0 0-6.794151c-4.207742-8.840118-26.404543-52.924896-52.268643-52.924896z"/><path d="M581.59481 461.307986a32.117807 27.639844 0 1 0 64.235614 0 32.117807 27.639844 0 1 0-64.235614 0Z" fill="#FFFFFF"/><path d="M613.789823 437.528456c15.441253 0 28.257494 10.654465 28.257494 23.77953s-12.661828 23.77953-28.257494 23.779531-28.218891-10.654465-28.21889-23.779531 12.623225-23.77953 28.21889-23.77953m0-7.720627c-19.842011 0-35.939517 14.128747-35.939517 31.500157s16.097507 31.500157 35.939517 31.500157 35.97812-14.128747 35.978121-31.500157-16.13611-31.500157-35.978121-31.500157z"/><path d="M613.789823 478.949618c-11.156306 0-20.189439-7.720627-20.189438-17.641632s9.033133-17.641632 20.189438-17.641632 20.228042 7.720627 20.228042 17.641632-9.148943 17.641632-20.228042 17.641632z" fill="#494951"/><path d="M613.789823 447.526668c9.033133 0 16.367729 6.176501 16.367729 13.781318s-7.334595 13.781319-16.367729 13.781319-16.329125-6.176501-16.329125-13.781319 7.295992-13.781319 16.329125-13.781318m0-7.720627c-13.279478 0-24.049752 9.650783-24.049752 21.501945s10.770274 21.501945 24.049752 21.501946 24.088355-9.650783 24.088356-21.501946-10.808877-21.501945-24.088356-21.501945z"/><path d="M496.822329 519.830337a27.022193 27.022193 0 0 1-24.088356-13.086462c-7.450405-13.318081-0.926475-31.191332 14.514779-39.838434a35.823708 35.823708 0 0 1 17.448616-4.670979 26.790575 26.790575 0 0 1 24.049752 13.125065c7.450405 13.279478 0.965078 31.152729-14.476175 39.799831a35.939517 35.939517 0 0 1-17.448616 4.670979z" fill="#FFFFFF"/><path d="M504.697368 466.094775a23.16188 23.16188 0 0 1 20.69128 11.117702c6.40812 11.58094 0.579047 27.022193-13.009256 34.742821a32.117807 32.117807 0 0 1-15.441254 4.169138 23.16188 23.16188 0 0 1-20.691279-11.117702c-6.446723-11.58094-0.61765-27.022193 13.009256-34.742821a31.53876 31.53876 0 0 1 15.441253-4.207741m0-7.720627a39.877037 39.877037 0 0 0-19.301567 5.17282 38.796149 38.796149 0 0 0-17.487219 19.842011 29.57 29.57 0 0 0 1.505522 25.207846 30.650888 30.650888 0 0 0 27.446828 15.093825 39.992846 39.992846 0 0 0 19.301567-5.17282 38.603134 38.603134 0 0 0 17.448616-19.842011 29.57 29.57 0 0 0-1.466919-25.207846 30.650888 30.650888 0 0 0-27.446828-15.093825z"/><path d="M498.482264 509.330284a17.178394 17.178394 0 0 1-15.441254-8.415483c-4.748185-8.492689-0.694856-19.803408 9.033133-25.246449a22.042389 22.042389 0 0 1 10.886084-2.933838 17.216998 17.216998 0 0 1 15.441253 8.415483 16.599347 16.599347 0 0 1 0.810666 14.090144 21.617755 21.617755 0 0 1-9.843799 11.156305 22.158199 22.158199 0 0 1-10.886083 2.933838z" fill="#494951"/><path d="M503.037433 476.594827a13.318081 13.318081 0 0 1 11.966972 6.446724c3.860313 6.639739 0.347428 15.441253-7.527611 19.996423a18.143473 18.143473 0 0 1-8.99453 2.431997 13.43389 13.43389 0 0 1-12.005575-6.446723c-3.860313-6.639739-0.347428-15.441253 7.720627-19.996423a18.799726 18.799726 0 0 1 9.033133-2.431998m0-7.720626a26.48175 26.48175 0 0 0-12.777637 3.397075 25.825496 25.825496 0 0 0-11.58094 13.202272 20.57547 20.57547 0 0 0 1.080887 17.332807 20.922898 20.922898 0 0 0 18.72252 10.384243 26.597559 26.597559 0 0 0 12.777637-3.397076 25.825496 25.825496 0 0 0 11.58094-13.202272 20.57547 20.57547 0 0 0-1.080887-17.332807 21.038708 21.038708 0 0 0-18.72252-10.384242z"/><path d="M599.931298 472.232673a4.55517 4.55517 0 0 1-1.930156-0.424634c-8.685705-4.284948-33.430314-31.577363-36.209739-34.742821l-0.347429-0.463237a2.895235 2.895235 0 0 0-2.625013-1.582729 17.294204 17.294204 0 0 0-9.264752 5.17282c-6.330914 6.330914-34.74282 14.321763-40.340274 15.827285a3.242663 3.242663 0 0 1-1.042285 0 3.860313 3.860313 0 0 1-3.20406-5.983486c18.413695-27.639844 71.299988-42.463447 73.538969-43.196906a16.406332 16.406332 0 0 1 6.022089-1.080888c24.165562 0 46.593982 48.253917 49.064583 53.735562a3.860313 3.860313 0 0 1 0 3.242663 3.860313 3.860313 0 0 1-2.509204 2.08457c-8.338277 2.161775-27.987272 7.180183-31.114125 7.180182z" fill="#FFFFFF"/><path d="M584.528648 409.850009c22.389817 0 45.551698 51.457977 45.551698 51.457977s-27.022193 7.064373-30.149048 7.064374h-0.231618c-8.261071-4.091932-35.051645-33.816345-35.051646-33.816345a6.716945 6.716945 0 0 0-5.829073-3.31987c-5.713264 0-12.005575 6.292311-12.005574 6.292311-5.944883 5.944883-38.603134 14.862206-38.603134 14.862207 17.834648-26.751972 71.338591-41.614178 71.338591-41.614178a14.398969 14.398969 0 0 1 5.018407-0.926476m0-7.720626a21.965183 21.965183 0 0 0-7.373198 1.273903c-4.941201 1.428316-56.708003 16.676554-75.39192 44.702429a7.720627 7.720627 0 0 0 6.40812 12.005574 7.450405 7.450405 0 0 0 2.045966-0.270222c10.422846-2.856632 35.399073-10.191227 42.077416-16.869569a17.603029 17.603029 0 0 1 6.060692-3.860313l0.579047 0.694856c6.485326 7.218786 28.450509 31.152729 37.32923 35.553486a8.37688 8.37688 0 0 0 3.667298 0.810666c0.965078 0 3.860313 0 32.079204-7.295992a7.720627 7.720627 0 0 0 5.095613-10.654465c-4.207742-9.341958-26.520353-56.013147-52.577468-56.013147z"/><path d="M490.954652 502.265911c-15.904491 0-33.468917-11.812559-45.397285-21.694961a15.672872 15.672872 0 0 1-5.636057-12.468812 14.978016 14.978016 0 0 1 6.176501-11.851162 169.853788 169.853788 0 0 1 29.570001-16.213316 15.711475 15.711475 0 0 1 6.369517-1.35111 15.441253 15.441253 0 0 1 11.233511 4.825392c8.840118 9.341958 22.853055 29.183969 19.301567 44.123381a18.027663 18.027663 0 0 1-12.082781 12.970653 27.022193 27.022193 0 0 1-9.650783 1.659935z" fill="#FFFFFF"/><path d="M482.037329 442.546863a11.58094 11.58094 0 0 1 8.415483 3.590092c14.128747 14.978016 29.531397 43.081097 8.801514 50.840327a23.16188 23.16188 0 0 1-8.299674 1.428316c-15.441253 0-32.851267-12.468812-42.926684-20.807089a11.58094 11.58094 0 0 1 0.347428-18.259282 169.622169 169.622169 0 0 1 28.875144-15.788682 11.58094 11.58094 0 0 1 4.786789-1.003682m0-7.720626a19.494582 19.494582 0 0 0-7.952246 1.698538 174.794989 174.794989 0 0 0-30.30346 16.599347 19.031345 19.031345 0 0 0-7.720626 14.862206 19.301567 19.301567 0 0 0 7.02577 15.441254c12.430209 10.307037 30.882507 22.582833 47.867885 22.582833a31.229935 31.229935 0 0 0 11.001894-1.930157 21.656358 21.656358 0 0 0 14.476175-15.711475c3.590091-15.441253-8.724308-35.321867-20.382455-47.636267a19.301567 19.301567 0 0 0-14.012937-6.022089zM1903.134484 678.450613c0 0.501841-6.485326 0.579047-18.683917 0.193015l-22.505627-0.926475-14.360365-0.694856c-5.134217 0-10.577259-0.231619-16.367729-0.386032l-38.603133-0.887872h-45.744714c-16.406332 0-33.970758 0.656253-52.577468 1.042285s-38.294308 1.505522-58.908381 2.4706l-15.672873 0.772063-16.0203 1.119491-33.044282 2.316188c-11.272115 0.656253-22.737246 1.891554-34.395392 2.895235l-35.707899 3.20406c-48.369726 4.941201-99.982116 10.731671-154.219518 17.98906-108.474805 14.16735-227.372457 33.005679-352.678228 50.184074-62.691489 8.569896-124.070471 16.058904-183.480694 22.003786s-116.928892 9.882402-171.783944 12.353003l-40.6491 1.389713c-13.356684 0.386031-26.558956 0.308825-39.568212 0.463237-26.018512 0.540444-51.303564-0.424634-75.739348-0.772063-12.19859-0.308825-24.204165-1.119491-35.978121-1.621331l-17.487219-0.887872-8.608499-0.424635-8.531292-0.733459-33.237298-2.740823-16.058904-1.389713-15.557063-1.737141c-20.614073-2.547807-40.301671-4.516567-58.753969-7.720626l-27.022193-4.362154c-4.362154-0.73346-8.647102-1.312507-12.854844-2.161776l-12.314399-2.509203c-16.174713-3.397076-31.268538-6.253708-45.011254-9.457768l-37.483643-9.573577c-5.597454-1.466919-10.924687-2.740822-15.865888-4.169139l-13.781318-4.323551-21.501946-6.909961c-11.58094-3.860313-17.603029-6.099295-17.448616-6.639739s6.446723 0.772063 18.297885 3.628695l21.887977 5.481645 13.897128 3.590091c4.979804 1.2353 10.34564 2.277585 15.981697 3.512886l37.560849 8.222467c13.781319 2.740822 28.875144 5.17282 45.011254 8.145261l12.314399 2.200379c4.169138 0.73346 8.454086 1.2353 12.777638 1.85295l27.022193 3.860314c18.375092 2.895235 37.985483 4.477963 58.522351 6.678342l15.441253 1.621331 15.981697 1.119491 33.044283 2.238982 8.454086 0.579047 8.569896 0.347428 17.410013 0.61765c11.58094 0.386031 23.586515 1.042285 35.746501 1.196697 24.281371 0 49.373408 0.810666 75.237508 0 12.93205-0.308825 26.057115-0.347428 39.336593-0.849269l40.417481-1.659934c54.507625-2.856632 111.756072-6.909961 170.896072-13.202272s120.325967-13.665509 182.863043-22.235405c125.112756-17.37141 244.16482-35.746502 353.025657-49.218995 54.391815-6.871358 106.235824-12.19859 154.837168-16.599348 12.159987-1.080888 24.126958-1.891554 35.862312-2.818028s23.16188-1.891554 34.549804-2.431998l33.237298-1.85295 16.097507-0.849269 15.750078-0.501841c20.729883-0.656253 40.494687-1.505522 59.178604-1.428316s36.325549-0.463238 52.84769 0 31.808982 0.656253 45.937729 1.273904l38.603133 2.238981c5.751867 0.386031 11.233512 0.656253 16.367729 1.080888l14.360366 1.389713 22.467023 2.393394c12.121384 1.466919 18.413695 2.470601 18.413695 3.011045z"/></svg>