<?xml version="1.0" ?><svg data-name="Layer 1" id="Layer_1" viewBox="0 0 64 64" xmlns="http://www.w3.org/2000/svg"><title/><path d="M44.567,49.845l-.159.31a3.919,3.919,0,0,0-.433,1.789V55H27.58V51.944a3.919,3.919,0,0,0-.433-1.789l-.159-.31a3.931,3.931,0,0,1-.433-1.789V43l-3.918-3A2.884,2.884,0,0,1,21,37.415h0a2.963,2.963,0,0,1,4.531-2.45L28.605,37V24a3.037,3.037,0,0,1,3.074-3h0a3.037,3.037,0,0,1,3.074,3V35H40.9A4.05,4.05,0,0,1,45,39v9.056A3.919,3.919,0,0,1,44.567,49.845Z" style="fill:#fec3a6"/><rect height="6" style="fill:#4f5d75" width="18" x="27" y="55"/><rect height="14" style="fill:#ff6b6b" width="14" x="3" y="19"/><rect height="14" style="fill:#ff6b6b" width="14" x="47" y="19"/><rect height="14" style="fill:#41ead4" width="14" x="25" y="3"/><path d="M22.1,40.851l3.453,2.643v4.562A4.927,4.927,0,0,0,26.1,50.3l.158.31a2.932,2.932,0,0,1,.323,1.333V54.1A1,1,0,0,0,26,55v6a1,1,0,0,0,1,1H45a1,1,0,0,0,1-1V55a1,1,0,0,0-1-1h-.024V51.944a2.935,2.935,0,0,1,.322-1.333l.159-.31h0A4.95,4.95,0,0,0,46,48.056V39a5.056,5.056,0,0,0-5.1-5H35.753V24A4.075,4.075,0,0,0,27.6,24V35.139l-1.553-1.028a3.971,3.971,0,0,0-4.057-.072,3.857,3.857,0,0,0,.109,6.812ZM44,60H28V56H44ZM22.974,35.783a1.981,1.981,0,0,1,2,.016l3.074,2.035A1,1,0,0,0,29.6,37V24a2.076,2.076,0,0,1,4.149,0V35a1,1,0,0,0,1,1H40.9A3.054,3.054,0,0,1,44,39v9.056a2.932,2.932,0,0,1-.323,1.333l-.158.31a4.927,4.927,0,0,0-.543,2.245V54H28.58V51.944a4.946,4.946,0,0,0-.543-2.245l-.159-.311a2.927,2.927,0,0,1-.322-1.332V43a1,1,0,0,0-.393-.794l-3.919-3a.948.948,0,0,0-.169-.1A1.878,1.878,0,0,1,22,37.415,1.858,1.858,0,0,1,22.974,35.783Z"/><polygon points="12.121 22.293 10 24.414 7.879 22.293 6.465 23.707 8.586 25.828 6.465 27.95 7.879 29.364 10 27.242 12.121 29.364 13.535 27.95 11.414 25.828 13.535 23.707 12.121 22.293"/><path d="M3,34H17a1,1,0,0,0,1-1V19a1,1,0,0,0-1-1H3a1,1,0,0,0-1,1V33A1,1,0,0,0,3,34ZM4,20H16V32H4Z"/><path d="M61,18H47a1,1,0,0,0-1,1V33a1,1,0,0,0,1,1H61a1,1,0,0,0,1-1V19A1,1,0,0,0,61,18ZM60,32H48V20H60Z"/><polygon points="51.879 29.364 54 27.242 56.121 29.364 57.535 27.95 55.414 25.828 57.535 23.707 56.121 22.293 54 24.414 51.879 22.293 50.465 23.707 52.586 25.828 50.465 27.95 51.879 29.364"/><path d="M25,18H39a1,1,0,0,0,1-1V3a1,1,0,0,0-1-1H25a1,1,0,0,0-1,1V17A1,1,0,0,0,25,18ZM26,4H38V16H26Z"/><path d="M30.807,11.669l-2.252-1.5-1.11,1.664,3,2a1,1,0,0,0,1.324-.192l5-6L35.231,6.36Z"/></svg>