<?xml version="1.0" ?><!DOCTYPE svg  PUBLIC '-//W3C//DTD SVG 1.1//EN'  'http://www.w3.org/Graphics/SVG/1.1/DTD/svg11.dtd'><svg enable-background="new 0 0 48 48" height="48px" id="Layer_3" version="1.1" viewBox="0 0 48 48" width="48px" xml:space="preserve" xmlns="http://www.w3.org/2000/svg" xmlns:xlink="http://www.w3.org/1999/xlink"><g><polygon fill="#241F20" points="13.259,15.342 11.338,15.342 11.338,3.775 7.789,3.775 7.789,15.342 5.843,15.342 5.843,3.775    2.294,3.775 2.294,15.342 2.294,15.56 2.294,22.323 7.333,22.323 6.379,38.547 6.379,47.983 7.333,47.983 11.795,47.983    12.794,47.983 12.794,38.547 11.795,22.323 16.808,22.323 16.808,15.56 16.808,15.342 16.808,3.775 13.259,3.775  "/><polygon fill="#241F20" points="20.325,14.793 20.325,20.371 23.114,20.371 26.043,47.983 39.848,47.983 42.777,20.371    45.705,20.371 45.705,14.793  "/><path d="M34.875,8.639c0-0.378,0.078-0.651,0.166-0.873c0.078-0.127,0.369-0.569,0.879-0.882l5.953-3.659   l-1.971-3.208l-7.453,4.581c0,0.001,0,0.001,0,0.001c-0.133,0.082-0.266,0.181-0.393,0.28c0,0.001,0,0.001,0,0.001   c-0.012,0.008-0.021,0.02-0.033,0.027c-0.045,0.037-0.082,0.071-0.123,0.107c-0.129,0.122-0.252,0.273-0.357,0.416   c-0.332,0.404-0.434,1.309-0.434,1.309v5.962h3.766V8.639z" fill="#241F20"/></g></svg>