<?xml version="1.0" ?><svg id="outline" viewBox="0 0 340 340" xmlns="http://www.w3.org/2000/svg"><title/><path d="M16.349,304.015a4,4,0,0,0,5.178-2.28l12.562-32.321a19.337,19.337,0,0,1,5.841-8.006l5.9-4.779-5.552,17.929a4.132,4.132,0,0,0,2.272,5.084,4,4,0,0,0,5.312-2.53l9.468-30.573,4.315-11.127a19.317,19.317,0,0,1,6.706-8.679l4.69-3.384a4.975,4.975,0,0,1,3.665-.863c2.814.429,7.918.577,9.657-3.5.867-2.033-1.925-3.956-4.087-3.911a34.344,34.344,0,0,1-6.788-1.171l-.01-.005a12.2,12.2,0,0,1-4.437-2.916c-7.552-7.964-3.385-24.1-1.928-28.864.727-2.377,1.357-4.782,1.873-7.149l3.576-16.409c1.649-7.289,5.34-10.789,11.479-10.814-1.416,8.819-2.657,16.947-3.459,22.292a30.28,30.28,0,0,1-2.574,8.434c-7.718,16.358,3.749,29.681,10.887,34.437l.368.217c6.379,3.307,19.044,5.26,28.569,6.317q-3.406,2.574-7.362,5.968a48.432,48.432,0,0,1-12.2,7.884,26.037,26.037,0,0,0-2.612,1.316,18.728,18.728,0,0,0-7.118,24.834,79.516,79.516,0,0,0,16.79,21.711,33.849,33.849,0,0,0,26.495,8.989,96.7,96.7,0,0,1,31.251,1.648,8.317,8.317,0,0,1,4.731,3.031,15.986,15.986,0,0,0,7.254,5.333l.1.032a18.225,18.225,0,0,0,5.109.792,10.944,10.944,0,0,0,8.6-3.728,11.071,11.071,0,0,0-.437-14.667,30.967,30.967,0,0,0-3.3-3.089c5.786-.576,11.1-1.42,14.594-2.04a11.191,11.191,0,0,0,8.591-7.163,10.9,10.9,0,0,0-1.7-10.758,10.764,10.764,0,0,0-1.229-1.3,11.975,11.975,0,0,0-7.244-3.136,13.581,13.581,0,0,0-.33-6.708,14.18,14.18,0,0,0-7.473-8.312c-.045-.02-.092-.039-.139-.057-4.8-1.866-9.814-.061-13.762,4.954a10.149,10.149,0,0,1-6.006,3.7,209.1,209.1,0,0,0-25.035,6.479,213.207,213.207,0,0,1-21.34,5.809,4.388,4.388,0,0,1-5.122-2.947l-.37-1.14a5.016,5.016,0,0,1,2.374-6l.219-.115a26.321,26.321,0,0,1,8.784-2.659,59.493,59.493,0,0,0,25.637-9.365,25.83,25.83,0,0,0,9.541-31.782c-6.273-14.3-22.143-19.4-24.2-20-16.664-6.47-29.455-6.547-29.993-6.547a4,4,0,1,0,0,8c.118,0,11.9.069,27.265,6.069.069.027.14.037.21.06s.11.05.17.067c.141.039,14.2,4.115,19.222,15.567a17.841,17.841,0,0,1-6.668,21.924,51.6,51.6,0,0,1-22.229,8.079,34.28,34.28,0,0,0-11.454,3.5l-.241.127a13.007,13.007,0,0,0-6.246,15.538l.37,1.14a12.355,12.355,0,0,0,14.438,8.294,221.055,221.055,0,0,0,22.162-6.034,200.975,200.975,0,0,1,24.048-6.219,18.152,18.152,0,0,0,10.75-6.6c2.369-3.007,3.853-2.708,4.454-2.492a6.239,6.239,0,0,1,3.021,3.417c.666,2.226-.433,4.888-1.595,6.888a14.091,14.091,0,0,1-8.557,2.558c-.062,0-.124,0-.186,0l-13.65.638a4.144,4.144,0,0,0-4.025,3.906,4,4,0,0,0,4,4.1c.063,0,.126,0,.19,0l13.773-.643a21.458,21.458,0,0,0,13.785-4.582c1.007-.42,4.036-1.441,6.076.443.047.043.035.034.083.075a3.142,3.142,0,0,1,.294.324,2.959,2.959,0,0,1,.444,2.933,3.262,3.262,0,0,1-2.5,2.094c-5.9,1.046-17.16,2.754-26.605,2.544a79.06,79.06,0,0,0-15.544-.355,4.11,4.11,0,0,0-3.8,4,4,4,0,0,0,4.365,3.984,71.4,71.4,0,0,1,13.678.274c1.669.7,8.085,3.563,12.105,7.959a3.114,3.114,0,0,1,.273,4.055c-.92,1.07-2.7,1.24-5.29.5a8.266,8.266,0,0,1-3.339-2.559A16.338,16.338,0,0,0,166.89,284a103.6,103.6,0,0,0-33.884-1.817,25.833,25.833,0,0,1-20.227-6.882,71.56,71.56,0,0,1-15.126-19.508,10.734,10.734,0,0,1,4-14.256,17.846,17.846,0,0,1,1.807-.91,56.336,56.336,0,0,0,14.219-9.148c6.689-5.742,12.154-9.641,15.815-11.285a4.12,4.12,0,0,0,2.463-3.986,4,4,0,0,0-3.744-3.706c-7.74-.475-29.331-2.542-37.052-6.371-1.738-1.234-14.282-10.763-7.92-24.248a38.328,38.328,0,0,0,3.251-10.661c.095-.63.2-1.313.3-2.018a12.969,12.969,0,0,0,1.324.183c1.089.086,2.112.126,3.075.126,8.983,0,12.633-3.532,14.1-6.672,2.081-4.449,1.792-9.342-.832-14.149a12.728,12.728,0,0,0-3.286-3.9,4.089,4.089,0,0,0-5.283.089,4,4,0,0,0,.252,6.131,4.786,4.786,0,0,1,1.295,1.509c1.375,2.518,1.579,4.849.607,6.927-.738,1.578-4.39,2.348-9.3,1.959a4.762,4.762,0,0,1-.745-.121c2.6-16.828,6.686-42.074,9.4-52.885.111-.321,2.075-5.5,12.688-11.5l.055.012a14.443,14.443,0,0,1,3.088,6.855,5.792,5.792,0,0,1-.053,1.284c-.429,3.415-1.563,6.2-2.892,7.1-.249.169-.834.565-2.324.175a20.334,20.334,0,0,1-2.124-.688,4.187,4.187,0,0,0-5.328,1.906,4,4,0,0,0,2.138,5.437,28.43,28.43,0,0,0,3.288,1.084,12.421,12.421,0,0,0,3.159.425,10.011,10.011,0,0,0,5.675-1.713c4.516-3.056,5.914-9.289,6.346-12.729a13.426,13.426,0,0,0,.072-3.107,21.284,21.284,0,0,0-3.808-9.635c.6-.259,1.212-.518,1.847-.777a50.931,50.931,0,0,0,6.091-2.99A13.063,13.063,0,0,0,141,96.809h3.207a12.843,12.843,0,0,0,7.828-23.146c8.87-7.106,18.37-15.963,25.355-25.732a10.312,10.312,0,0,1,9.249-4.18,32.7,32.7,0,0,1,5.534.976,32.446,32.446,0,0,0,8.066,1.062c5.845.026,14.064-.193,20.127-1.423a8.023,8.023,0,0,1,6.779,1.83l.187.161a9.822,9.822,0,0,1,3.241,5.616,45.493,45.493,0,0,1,.5,13.111c-4.082,2.936-15.843,11.588-24.147,19.664a4.137,4.137,0,0,0-.4,5.618,4,4,0,0,0,5.832.259,184.511,184.511,0,0,1,15.213-12.934,39.562,39.562,0,0,1-4.867,7.851,43.305,43.305,0,0,0-8.6,19.738c-1.621,9.63-5.313,22.31-13.621,32l.24-3.28a4,4,0,0,0-7.978-.585L191,157.235a16.8,16.8,0,0,0,6,14.119l14.45,12.013a4,4,0,0,0,5.042.058,4.3,4.3,0,0,0,1.341-1.949l1.353-3.749a21.054,21.054,0,0,1,9.436-11.387,17.631,17.631,0,0,1,6.721-2.166A4.638,4.638,0,0,1,239,165.268a5.39,5.39,0,0,1,1.517,3.7,22.865,22.865,0,0,0-14.619,4.1,4.148,4.148,0,0,0-1.253,5.472,4,4,0,0,0,5.811,1.107c5.443-4.083,12.42-2.348,12.582-2.306.087.024.174.026.261.043s.155.047.237.059a9.762,9.762,0,0,1,3.246,1.227,3.907,3.907,0,0,0,.481.344c.143.082.28.164.422.246,2.143,1.562,4.4,4.428,4.842,9.677a2.858,2.858,0,0,1-2.347,3.165c-.372.036-1.364.133-2.74-1.356a2.486,2.486,0,0,1-.256-.369,15.54,15.54,0,0,0-16.942-7.1,33.285,33.285,0,0,0-15.657,8.837,16.761,16.761,0,0,1-11.5,4.812,61.9,61.9,0,0,0-14.573,2.069l-.482.166c-1.518.6-6.008,1.722-6.858.02-1.121-2.239,1.766-4.889,2.443-5.468,1.482-.807,5.529-2.464,8.787-1.6a3.993,3.993,0,0,0,3.936-6.716l-8.459-8.1a20.413,20.413,0,0,1-3.385-4.241l-.05-.079a20.372,20.372,0,0,1-2.813-11.761l2.889-43.831a4.69,4.69,0,0,1,8.58-2.3,4.915,4.915,0,0,1,.762,3.12l-.059.8a4,4,0,0,0,7.979.582l.043-.6a13.182,13.182,0,0,0-2.86-9.406,12.688,12.688,0,0,0-22.427,7.266l-2.889,43.83a28.391,28.391,0,0,0,1.953,12.381l-17.184,6.774a4.12,4.12,0,0,0-2.525,4.961,4,4,0,0,0,5.291,2.548l18.458-7.277a28.4,28.4,0,0,0,2.7,3l1.86,1.781a24.17,24.17,0,0,0-4.891,2.107,3.975,3.975,0,0,0-.361.241c-3.2,2.4-8.349,8.74-4.937,15.561,2.024,4.047,5.79,5.333,9.52,5.333a20.7,20.7,0,0,0,7.305-1.439,53.952,53.952,0,0,1,12.441-1.729,24.736,24.736,0,0,0,16.956-7.145,25.373,25.373,0,0,1,11.943-6.739,7.481,7.481,0,0,1,8.146,3.451,10.019,10.019,0,0,0,1.245,1.689,11,11,0,0,0,9.381,3.886,10.845,10.845,0,0,0,9.551-11.8c-.022-.259-.062-.5-.09-.754a90.113,90.113,0,0,1,12.8,11.315,27.585,27.585,0,0,1,7.122,15.247l2.134,16.368,2.067,34.738a4,4,0,0,0,3.989,3.763c.08,0,.161,0,.241-.007a4,4,0,0,0,3.756-4.231L291,239.047c3.966,3.4,9.027,7.917,13.605,12.5a27.844,27.844,0,0,1,7.414,13.37c2.111,9.073,5.72,25.755,6.193,35.557a4,4,0,0,0,3.992,3.807c.064,0,.13,0,.195,0a4,4,0,0,0,3.8-4.188c-.476-9.882-3.722-25.5-6.371-36.9a35.881,35.881,0,0,0-9.489-17.222c-7.859-7.887-16.845-15.352-20.126-18.023l-1.944-14.916a35.553,35.553,0,0,0-9.18-19.643c-7.053-7.632-16.09-14.565-27.613-21.187a19.164,19.164,0,0,0-2.96-1.577c.318-5.649-1.878-9.131-3.988-11.146a12.535,12.535,0,0,0-10.019-3.265,25.57,25.57,0,0,0-9.762,3.125h0A13.916,13.916,0,0,0,213.8,155.3a14.342,14.342,0,0,0-10.548,6.062,21.46,21.46,0,0,0-1.869,3.144,8.785,8.785,0,0,1-2.4-6.69l.624-8.515c.344-.325.7-.641,1.058-.943,13.76-11.5,19.2-29.054,21.333-41.755a35.3,35.3,0,0,1,6.979-16.093c11.908-15.01,11.041-31.5,9.464-40A17.847,17.847,0,0,0,232.558,40.3l-.187-.161a16.07,16.07,0,0,0-13.6-3.614c-5.68,1.152-14.037,1.281-18.5,1.263a24.378,24.378,0,0,1-6.073-.8,40.794,40.794,0,0,0-6.889-1.209,18.351,18.351,0,0,0-16.437,7.5c-7.853,10.984-19.241,20.833-28.945,28.1-5.122,4.691-12.268,9.278-21.722,13.747-23.137,9.427-26.281,20.129-26.549,21.262-1.8,7.1-4.166,20.332-6.329,33.4-10.572-.488-17.984,5.533-20.585,17.038l-3.583,16.439c-.47,2.154-1.044,4.344-1.706,6.511-2.279,7.44-6.471,25.909,3.772,36.711a19.282,19.282,0,0,0,1.6,1.48l-3.165,2.284a27.235,27.235,0,0,0-9.481,12.271L50.2,242.787,34.894,255.192a27.359,27.359,0,0,0-8.262,11.323L14.07,298.837A4,4,0,0,0,16.349,304.015ZM210.106,165.56a6.131,6.131,0,0,1,8.211-1.246,29.842,29.842,0,0,0-6.1,9.282l-4.427-3.681A14.481,14.481,0,0,1,210.106,165.56ZM136.3,85.136c1.282-.851,2.659-1.785,4.116-2.8l.643-.451q1.738-1.219,3.6-2.575c.14-.1.285-.2.425-.3l.883.336a5.006,5.006,0,0,1,3.176,5.439,4.954,4.954,0,0,1-4.935,4.028H141a5,5,0,0,1-4.8-3.565v0l-.009-.031C136.227,85.187,136.264,85.16,136.3,85.136Z"/><path d="M204.505,64.832a10.995,10.995,0,1,0-10.994,10.994A11.006,11.006,0,0,0,204.505,64.832Zm-13.989,0a2.995,2.995,0,1,1,3,2.994A3,3,0,0,1,190.516,64.832Z"/><path d="M140.155,153.886a18.633,18.633,0,0,0,5.3-11.31,14.6,14.6,0,0,0-22.288-13.886l-.432.271a14.52,14.52,0,0,0-6.834,12.362v.475a14.546,14.546,0,0,0,7.408,12.708,18.291,18.291,0,0,0,8.881,2.663A11.054,11.054,0,0,0,140.155,153.886ZM123.9,141.8v-.475a6.561,6.561,0,0,1,3.091-5.588l0,0,.429-.27A6.6,6.6,0,0,1,137.5,141.71a10.579,10.579,0,0,1-3,6.519c-1.432,1.432-3.885,1.2-7.29-.707A6.539,6.539,0,0,1,123.9,141.8Z"/><circle cx="119.896" cy="166.879" r="4.002"/><circle cx="150.396" cy="159.268" r="4.002"/><circle cx="160.716" cy="132.939" r="4.002"/><circle cx="138.706" cy="115.266" r="4.002"/><circle cx="163.466" cy="99.339" r="4.002"/><circle cx="170" cy="74.488" r="4.002"/><circle cx="219.196" cy="57.836" r="4.002"/></svg>