<?xml version="1.0" ?><svg id="outline" viewBox="0 0 340 340" xmlns="http://www.w3.org/2000/svg"><title/><path d="M81.958,103.423a4,4,0,1,0,7.83,1.641,79.916,79.916,0,0,1,7.653-20.827c1.3-2.471,2.68-4.857,4.092-7.121a35.333,35.333,0,0,1,7.445,2.319,4,4,0,0,0,3.182-7.341c-12.528-5.427-21.794-2.943-22.182-2.835a4,4,0,0,0,2.116,7.715c.026-.007.119-.029.244-.055-.67,1.176-1.331,2.369-1.972,3.584A87.946,87.946,0,0,0,81.958,103.423Z"/><path d="M115.451,226.343a7.155,7.155,0,0,1,6.208-.894,150.963,150.963,0,0,0,16.288,4.168,61.072,61.072,0,0,1-6.06,16.6,4,4,0,0,0,2.63,5.818c.323.073,6.991,1.568,17.148,3.167a3.99,3.99,0,0,0,7.15,3.358,64.531,64.531,0,0,0,7.2-16.333,4,4,0,0,0-7.721-2.095,63.332,63.332,0,0,1-2.743,7.575c-5.923-.888-10.875-1.788-14.276-2.449a70.384,70.384,0,0,0,4.554-14.247,197.986,197.986,0,0,0,46.27,1.479,166.674,166.674,0,0,0,28.6-4.632c.79-.2,1.574-.407,2.359-.616a96.638,96.638,0,0,0-6.782,22.471c-11.979,1.735-26.784,1.759-44.072.066a4,4,0,1,0-.78,7.962q13.16,1.289,24.5,1.288a154.69,154.69,0,0,0,19.729-1.165c0,1.374.035,2.811.154,3.991a4,4,0,0,0,3.975,3.6c.134,0,.268-.007.405-.02a4,4,0,0,0,3.579-4.38,62.571,62.571,0,0,1,.007-7.489c.195-1.472,2.5-17.641,10.182-29.749a125.39,125.39,0,0,0,70.19-63.7A119.874,119.874,0,0,0,314.6,127.81c9.654-9.32,14.233-21.7,13.6-36.871a72.874,72.874,0,0,0-4.952-23.772l-2.713-6.953a4,4,0,0,0-7.454,2.909l1.767,4.525-7.47,7.252-.118-.562a4,4,0,1,0-7.828,1.645l1.158,5.509-8,7.766a252.6,252.6,0,0,1,1.691-25.4l1.454,1.053a4,4,0,1,0,4.695-6.477l-5.039-3.653c.31-2.328.619-4.5.913-6.488l2.454,1.822a4,4,0,1,0,4.77-6.422l-5.812-4.317c.254-1.5.413-2.37.423-2.426a4,4,0,0,0-1.77-4.088c-3.6-2.315-8.3-2.979-13.571-1.922a24.274,24.274,0,0,1-8.8.05,93.2,93.2,0,0,0-18.833-1c-2.692-.23-20.409-1.427-44.3,4.419A164.532,164.532,0,0,0,167.212,52.05a3.772,3.772,0,0,0-.475.006c-12.568,1.435-31.385,2.3-49.647-1.736a4.01,4.01,0,0,0-3.035.547,47.258,47.258,0,0,0-7.772,6.872,4,4,0,1,0,5.8,5.507,51.542,51.542,0,0,1,5.076-4.732,152.763,152.763,0,0,0,36.2,2.587A167.962,167.962,0,0,0,124.6,87.728c-1.208,1.325-14.329,16.182-23.167,44.141-5.2-12.2-14.785-16.72-15.352-16.977-.033-.016-.068-.021-.1-.035s-.061-.035-.095-.048a27.676,27.676,0,0,0-9.238-1.8,4,4,0,0,0-.014,8,20.31,20.31,0,0,1,6.23,1.2c1.166.579,14.494,7.682,13.847,28.384-.875,4.538-1.607,9.316-2.159,14.337-5.511.332-15.162,2.466-19.933,12.808a22.115,22.115,0,0,0-1.8,11.573,4,4,0,0,0,3.973,3.583,3.76,3.76,0,0,0,.423-.023,4,4,0,0,0,3.561-4.4,14.107,14.107,0,0,1,1.109-7.386c2.727-5.91,8.169-7.623,11.905-8.074a35.846,35.846,0,0,1-15.2,26.078c-1.013.693-2.068,1.357-3.136,1.975a20.361,20.361,0,0,0-2.675,1.855,253.261,253.261,0,0,0-52.491,2.043,4,4,0,0,0-2.884,5.789,20.018,20.018,0,0,1,1.98,7.191c-2.257.076-3.781.181-3.925.192a4,4,0,0,0,.57,7.979,114.961,114.961,0,0,1,14.67,0c.109.008.216.012.323.012a4,4,0,0,0,.315-7.987c-1.3-.1-2.628-.171-3.929-.213a31.294,31.294,0,0,0-.95-5.737,260.665,260.665,0,0,1,40.471-1.553,20.471,20.471,0,0,0-1.617,10.189,4,4,0,0,0,3.975,3.608c.131,0,.264-.006.4-.019a4,4,0,0,0,3.589-4.373A12.531,12.531,0,0,1,79.456,208c1.242-.717,2.469-1.49,3.651-2.3A43.926,43.926,0,0,0,101.9,172.333c3.762-51.523,28.4-78.975,28.642-79.241.034-.036.067-.073.1-.11a156.664,156.664,0,0,1,81.808-50.724A154.623,154.623,0,0,1,242.7,37.871a90.042,90.042,0,0,0-17.182,19.735c-4.5,6.966-7.548,16.224-9.048,27.517a4,4,0,1,0,7.93,1.053c1.325-9.968,4.034-18.345,7.837-24.226,9.745-15.074,21.121-22.329,23.99-24a86.008,86.008,0,0,1,16.45.926,32.236,32.236,0,0,0,11.7-.1,13.632,13.632,0,0,1,5.347-.119c-1.664,9.818-6.35,39.97-4.833,60.084a4,4,0,0,0,6.775,2.569l26.118-25.361a68.659,68.659,0,0,1,2.429,15.322c.587,13.979-3.722,24.646-13.174,32.612-4.7,3.963-11.029,8.393-22.3,11.2-8.23,2.052-16.44,1.265-23.387.225-9.2-1.377-16.9-4.655-23.043-9.766a53.832,53.832,0,0,0,18.191,3.292,48.312,48.312,0,0,0,4.935-.252,35.886,35.886,0,0,0,24.361-13.227,4,4,0,1,0-6.267-4.972,27.848,27.848,0,0,1-18.912,10.241c-16.572,1.7-30.292-7.64-33.459-10a41.155,41.155,0,0,1-2.679-8.9,4,4,0,0,0-7.871,1.433,48.93,48.93,0,0,0,3.7,11.739c.021.045.038.092.062.137a47.324,47.324,0,0,0,4.406,7.591c8.006,11.208,20.244,18.331,35.39,20.6a90.5,90.5,0,0,0,13.43,1.131,54,54,0,0,0,13.074-1.5,62.7,62.7,0,0,0,18.138-7.453,118.6,118.6,0,0,1-86.025,84.688c-5.9,1.452-11.246,2.438-15.608,3.1,22.107-26.327,19.134-70.174,18.851-73.734-.048-4.693-.029-9.608.058-14.611a4,4,0,1,0-8-.139c-.09,5.127-.109,10.166-.058,14.975,0,.1.006.2.014.3.045.528,4.1,52.537-23.711,74.62a188.007,188.007,0,0,1-47.032-2.109c-.047-.009-.088-.027-.136-.034-.024,0-.049,0-.074,0a147.121,147.121,0,0,1-18.992-4.62,15.118,15.118,0,0,0-13.111,1.877,14.8,14.8,0,0,0-6.4,10c-.02.117-.038.233-.047.352-.037.277-.09.549-.112.83-.018.237-.032.467-.041.686a9.313,9.313,0,0,1-2.875,6.655c-5.256,4.625-14.481,2.019-15.344,1.76A17.854,17.854,0,0,1,79.03,235.1c.37-.077.734-.149,1.088-.21a4,4,0,0,0-1.372-7.882c-6.97,1.212-16.277,4.975-16.669,5.134a4,4,0,1,0,3.011,7.412c.046-.019,2.491-1.006,5.684-2.094a25.773,25.773,0,0,0,12.677,10.054q.084.032.171.06a32.528,32.528,0,0,0,9.27,1.362c4.443,0,9.7-1,13.906-4.7.232-.2.44-.429.659-.646,2.153,12.717,3.215,31.563-1.067,56.233a40.334,40.334,0,0,0-11.541-3.664c-.632-.1-1.267-.225-1.886-.37a4,4,0,0,0-1.826,7.789c.807.189,1.632.351,2.453.482a29.6,29.6,0,0,1,13.086,5.263,4,4,0,0,0,6.5-2.273c7.623-38.116,3.1-64.166-.534-76.834A6.882,6.882,0,0,1,115.451,226.343Z"/><path d="M242.018,198.48a22.039,22.039,0,0,0,2.968.2,26.223,26.223,0,0,0,5.038-.508,16.58,16.58,0,0,0,11.5-8.494c10.016-18.821-1.144-35.516-1.624-36.217a4,4,0,0,0-7,.746c-4.184,10.248-11.788,19.359-17.432,25.2a11.311,11.311,0,0,0,6.552,19.078Zm-.8-13.519a103.033,103.033,0,0,0,15.241-19.9,27.082,27.082,0,0,1-2,20.852,8.725,8.725,0,0,1-5.98,4.4,16.46,16.46,0,0,1-5.382.235,3.184,3.184,0,0,1-2.638-2.168A3.32,3.32,0,0,1,241.219,184.961Z"/><path d="M74.5,304.209a4,4,0,0,0,5.537-1.161c4.827-7.389,8.059-17.613,8.2-18.045A4,4,0,0,0,80.6,282.61c-.013.04-.551,1.732-1.474,4.147a27.131,27.131,0,0,1-5.711-13.866,31.682,31.682,0,0,1-.12-4.472,19.2,19.2,0,0,0-5.185-13.847c-4.3-4.408-10.869-6.642-19.518-6.642l-.367,0a18.727,18.727,0,0,1-9.279-2.206,19.578,19.578,0,0,1-6.668-6.2c1.847.054,3.829.151,5.916.31a4,4,0,1,0,.609-7.976,125.375,125.375,0,0,0-20.307.009,4,4,0,0,0,.4,7.98c.136,0,.273-.008.411-.021.034,0,1.46-.143,3.866-.248a28.506,28.506,0,0,0,11.842,13.112,26.478,26.478,0,0,0,13.268,3.238c6.578-.063,11.315,1.376,14.1,4.229A11.141,11.141,0,0,1,65.3,268.17a38.916,38.916,0,0,0,.169,5.633,35.72,35.72,0,0,0,10.092,21.025,44.332,44.332,0,0,1-2.219,3.845A4,4,0,0,0,74.5,304.209Z"/><path d="M257.414,68.977a38.378,38.378,0,0,0,5.727-.469,4,4,0,1,0-1.078-7.926,29.247,29.247,0,0,1-5.113.391h-.06a4,4,0,0,0-.058,8C257.032,68.975,257.225,68.977,257.414,68.977Z"/><path d="M175.218,111.222c3.829,0,8.046-1.465,12.6-4.368a14.875,14.875,0,0,0,6.285,1.307,19.773,19.773,0,0,0,2.041-.109,4,4,0,1,0-.834-7.956c-2.314.243-4.047-.153-5.288-1.211-1.881-1.6-2.441-4.6-2.5-5.589a4,4,0,0,0-4-3.839h-.056c-2.1.025-4.879-.258-6.223-1.782a4.858,4.858,0,0,1-.942-3.491,4,4,0,0,0-7.893-1.306,12.816,12.816,0,0,0,2.719,9.954,13.623,13.623,0,0,0,9.012,4.443,17.3,17.3,0,0,0,1.586,3.891c-3.389,1.853-6.253,2.469-8.386,1.766-2.891-.952-4.049-4.259-4.093-4.388a4,4,0,0,0-7.638,2.38c.823,2.68,3.663,7.709,9.1,9.563A13.859,13.859,0,0,0,175.218,111.222Z"/><path d="M207.008,157.4a4,4,0,0,0-4.4-3.561c-2.314.243-4.047-.152-5.288-1.21-1.881-1.6-2.44-4.6-2.5-5.588a4,4,0,0,0-4-3.84h-.056c-2.107.022-4.879-.258-6.223-1.782a4.856,4.856,0,0,1-.942-3.491,4,4,0,0,0-7.892-1.306,12.807,12.807,0,0,0,2.717,9.954,13.623,13.623,0,0,0,9.013,4.443,17.316,17.316,0,0,0,1.669,4.028c-3.284,1.752-6.061,2.315-8.144,1.629-2.892-.952-4.049-4.259-4.093-4.388a4,4,0,0,0-7.638,2.38c.822,2.68,3.663,7.709,9.1,9.562a13.87,13.87,0,0,0,4.509.735c3.793,0,7.964-1.431,12.466-4.281a14.927,14.927,0,0,0,6.09,1.22,19.525,19.525,0,0,0,2.042-.11A4,4,0,0,0,207.008,157.4Z"/><path d="M153.871,177.767c-2.32.243-4.048-.154-5.289-1.211-1.88-1.6-2.44-4.6-2.5-5.587a3.967,3.967,0,0,0-4.051-3.84c-2.077.027-4.879-.257-6.224-1.782a4.855,4.855,0,0,1-.941-3.489,4,4,0,0,0-7.893-1.307,12.81,12.81,0,0,0,2.718,9.954,13.625,13.625,0,0,0,9.013,4.443,17.216,17.216,0,0,0,1.75,4.163c-3.488,1.951-6.437,2.62-8.619,1.9-2.891-.952-4.049-4.259-4.093-4.388A4,4,0,0,0,120.108,179c.823,2.681,3.663,7.71,9.1,9.563a13.863,13.863,0,0,0,4.508.734c3.938,0,8.288-1.559,12.987-4.629a15.023,15.023,0,0,0,5.964,1.161,19.507,19.507,0,0,0,2.041-.11,4,4,0,0,0-.834-7.956Z"/></svg>