<?xml version="1.0" ?><svg id="outline" viewBox="0 0 340 340" xmlns="http://www.w3.org/2000/svg"><title/><path d="M148.376,197.983A102.921,102.921,0,0,0,137.489,210.4,49.578,49.578,0,0,0,127.7,240.1v36.429a3.938,3.938,0,0,0,7.875,0V240.1a41.767,41.767,0,0,1,8.249-25.021,94.968,94.968,0,0,1,10.054-11.46,48.633,48.633,0,0,0,14.571-32.47c.454-8.83.512-16.91.184-24.1a34.527,34.527,0,0,0,15.8-6.226c8.1-6.027,12.6-15.717,13.4-28.792a57.213,57.213,0,0,0,11.395-7.872,13.641,13.641,0,0,0,4.675-10.819,13.493,13.493,0,0,0-2.337-7.116,49.555,49.555,0,0,0,3.3-4.26,3.938,3.938,0,0,0-6.467-4.5,33.01,33.01,0,0,1-4.8,5.685,3.939,3.939,0,0,0,.172,6.164,5.645,5.645,0,0,1,2.265,4.32,5.8,5.8,0,0,1-1.993,4.6c-9.735,8.524-20.188,12.047-31.062,10.491a27.1,27.1,0,0,1-18.273-10.9,25.98,25.98,0,0,1-4.573-19.881q.114-.657.248-1.289a25.632,25.632,0,0,1,7.622-13.471,66.9,66.9,0,0,0,15.173-20.911c3.021,6.793,2.9,15.419,2.9,15.512a3.938,3.938,0,0,0,7.579,1.585,27.48,27.48,0,0,1,7.888-10.43,37.306,37.306,0,0,1,10.181-5.955c6.847-2.8,12.945-8.03,17.167-12.335a87.672,87.672,0,0,1-1.073,23.475,3.938,3.938,0,0,0,7.737,1.474,101.2,101.2,0,0,0,.071-34.816,3.938,3.938,0,0,0-7.054-1.723c-.09.123-9.185,12.288-19.826,16.634a45,45,0,0,0-12.293,7.237,40.579,40.579,0,0,0-3.718,3.566,34.23,34.23,0,0,0-4.348-11.13,6.392,6.392,0,0,0-11.336,1.176,57.677,57.677,0,0,1-14.427,20.894,33.464,33.464,0,0,0-9.944,17.592q-.16.762-.3,1.562a33.789,33.789,0,0,0,5.958,25.859,34.907,34.907,0,0,0,23.525,14.073,43.522,43.522,0,0,0,6.2.45,41.451,41.451,0,0,0,11.55-1.649c-1.17,8.7-4.466,15.14-9.844,19.159-10.487,7.837-25.954,4.5-27.224,4.208l-.019-.008a29.808,29.808,0,0,1-8.881-4.449,3.936,3.936,0,0,0-4.8,6.236,32.3,32.3,0,0,0,5.935,3.579c-14.481,13.7-35.975,9.855-44.37,7.63a57.415,57.415,0,0,0,4.679-21.045A14.965,14.965,0,0,0,90.966,115.01a17.5,17.5,0,0,1-2.7-.335c10.3-27.967-1.589-43.322-2.124-43.991a3.945,3.945,0,0,0-6.649.808,48.045,48.045,0,0,1-22.067,20.64,3.938,3.938,0,1,0,3.317,7.143,56.846,56.846,0,0,0,22-18.105c2.177,6.277,3.778,17.791-3.3,34.381a3.937,3.937,0,0,0,1.8,5.033,23.768,23.768,0,0,0,9.376,2.293,7.074,7.074,0,0,1,6.591,7.451c-.58,14.852-6.616,33.723-32.081,39.283a36.682,36.682,0,0,1-17.487-.419c-10.108-2.781-22.475-9.438-23.986-25.365a37.114,37.114,0,0,1,7.87-26.062,50.517,50.517,0,0,1,5.49-6.081,3.937,3.937,0,1,0-5.385-5.745,58.177,58.177,0,0,0-6.351,7.031,44.957,44.957,0,0,0-9.464,31.6c1.51,15.914,12.071,27.355,29.738,32.213a43.939,43.939,0,0,0,11.645,1.559,45.09,45.09,0,0,0,9.611-1.038c14.8-3.231,23.966-10.375,29.611-18.547a74,74,0,0,0,20.95,3.168,59.812,59.812,0,0,0,6.7-.369v32.351a3.937,3.937,0,0,0,5.748,3.5c12.164-6.3,19.739-17.86,21.907-33.442a3.937,3.937,0,1,0-7.8-1.084c-1.442,10.362-5.462,18.316-11.979,23.737V160.035a42.148,42.148,0,0,0,21.08-13.224,53.524,53.524,0,0,0,7.739.713c.311,6.905.251,14.69-.188,23.224A40.78,40.78,0,0,1,148.376,197.983Z"/><path d="M322.091,89.862c3.323-11.784,3.387-31.983-15.827-41.089-.308-8.316-4.789-21.575-20.737-26.879-2.341-.984-21.6-8.373-48.5,2.347a3.937,3.937,0,0,0,2.914,7.316c24.856-9.9,42.422-2.453,42.582-2.384.125.056.254.105.384.149,11.542,3.777,14.525,12.442,15.255,17.6a23.507,23.507,0,0,0-15.87,5.126c-9.855-7.647-19.725-4.985-23.877-2.215a3.917,3.917,0,0,0-1.094,5.41,3.957,3.957,0,0,0,5.429,1.164c.819-.522,8.262-4.838,16.907,3.805a3.935,3.935,0,0,0,2.784,1.154c.1,0,.21,0,.315-.013a3.932,3.932,0,0,0,2.878-1.621c.048-.065,4.865-6.524,15.539-4.578,16.776,6.749,15.417,23.143,13.743,30.763a20.2,20.2,0,0,0-18.649,3.557,3.937,3.937,0,1,0,4.806,6.238,12.95,12.95,0,0,1,14.242-1.182c8.144,5.914,10.354,15.937,10.766,23.323a34.178,34.178,0,0,1-5.556,21.044c-.508.746-1.041,1.468-1.587,2.146a3.938,3.938,0,1,0,6.137,4.936c.676-.841,1.337-1.734,1.963-2.656a42.094,42.094,0,0,0,6.907-25.911C333.47,108.96,330.98,97.623,322.091,89.862Z"/><path d="M11.952,122.42a3.937,3.937,0,0,0,2.993-4.7,39.205,39.205,0,0,1-.871-11.914,3.906,3.906,0,0,0,.016-.878C11.947,82.114,25.554,77.76,26.1,77.6a3.938,3.938,0,0,0,2.861-3.341C31.942,48.5,47.7,49.241,48.328,49.287a3.941,3.941,0,0,0,.652,0c.017,0,.034,0,.052,0,.094-.006,9.819-.81,14.572,4.5a3.937,3.937,0,1,0,5.867-5.252c-3.961-4.424-9.565-6.158-14.016-6.807C68.264,23.061,85.8,24.312,94.7,26.513a20.273,20.273,0,0,0-3.408,10.861,3.936,3.936,0,0,0,3.785,4.083c.051,0,.1,0,.152,0a3.938,3.938,0,0,0,3.932-3.788c.227-6.024,3.565-8.658,4.47-9.265a40.4,40.4,0,0,1,10.7-2.075,56.749,56.749,0,0,1,34,9.049c1.682,1.056,3.344,2.168,4.939,3.3a3.938,3.938,0,1,0,4.564-6.418c-1.717-1.221-3.5-2.416-5.311-3.552A64.554,64.554,0,0,0,113.81,18.474a49.375,49.375,0,0,0-11.735,2.135C94.918,17.974,64.741,9.276,46.282,41.538c-6.212.656-21.149,4.836-24.847,29.537-5.384,2.709-17.223,11.334-15.222,34.2a47.7,47.7,0,0,0,1.044,14.154,3.938,3.938,0,0,0,3.84,3.088A3.984,3.984,0,0,0,11.952,122.42Z"/><path d="M285.866,216.649a4,4,0,0,0,.695-.061,41.413,41.413,0,0,0,28.407-20.445c4.209-7.3,6.46-15.921,6.689-25.639a4.124,4.124,0,0,0-1.612-3.444,3.955,3.955,0,0,0-5.386.688,5.818,5.818,0,0,1-7.575,1.2,5.518,5.518,0,0,1-2.622-6.878,11.057,11.057,0,0,1,2.744-4.228c8.79-8.6,8.924-28.35,3.556-41.575a7.154,7.154,0,0,0-5.326-4.435A6.857,6.857,0,0,0,299,114.19c-3.146,3.726-10.536,11.032-24.695,18.11-13.833,6.918-23.952,17.049-29.433,29.232a38.013,38.013,0,0,1-16.146-10.05c-.059-.071-.128-.132-.192-.2-.024-.025-.041-.055-.066-.08a19.221,19.221,0,0,1-4.688-10.764,3.937,3.937,0,1,0-7.813.976,28.848,28.848,0,0,0,3.108,9.922c-11.367,1.833-20.546.393-27.339-4.319a4.089,4.089,0,0,0-5.5.629,3.938,3.938,0,0,0,.794,5.692c7.939,5.6,18.154,7.654,30.435,6.17v16.407a8.027,8.027,0,0,1-2.675,6.118c-.848.312-3.129.8-4.264,1.035-1.006.214-1.8.381-2.353.54a3.935,3.935,0,0,0-2.855,3.785v26.061a3.974,3.974,0,0,0,1.793,3.3s.389.256.984.739c3.038,2.469,11.109,9.024,11.109,14.807v15.4a4,4,0,0,0,3.117,3.958,3.942,3.942,0,0,0,4.758-3.854V198.4a4,4,0,0,0-3.116-3.958,3.942,3.942,0,0,0-4.759,3.855v18.59a73.528,73.528,0,0,0-6.011-5.394v-20.94c3.279-.711,5.041-1.211,6.214-2.124a15.894,15.894,0,0,0,5.933-12.512v-16.7a46.582,46.582,0,0,0,16.865,9.731,53.2,53.2,0,0,0-1.234,5.379,34.727,34.727,0,0,0,10.541,31.632c.382.35.776.7,1.187,1.049a43.606,43.606,0,0,0,11.062,6.888V279.5a4,4,0,0,0,3.117,3.957,3.942,3.942,0,0,0,4.759-3.854V211.319a4.425,4.425,0,0,0-2.79-3.875,35.336,35.336,0,0,1-11.045-6.435c-.332-.284-.655-.57-.966-.854a26.889,26.889,0,0,1-8.1-24.5c2.625-15.346,12.956-28.241,29.091-36.308,13.52-6.76,21.566-13.785,26.122-18.85,4.133,11.4,3.158,26.427-2.253,31.722a18.861,18.861,0,0,0-4.662,7.235,13.319,13.319,0,0,0,6.105,16.316,13.933,13.933,0,0,0,10.039,1.614,42.111,42.111,0,0,1-5.033,14.826c-5.2,9.009-13.356,14.914-22.966,16.627a3.937,3.937,0,0,0,.685,7.814Z"/><path d="M37.906,149.474c4.326,8.4,12.712,10.758,19.822,10.758a31.41,31.41,0,0,0,8.466-1.135,3.959,3.959,0,0,0,.447-.159C81.222,152.742,81.5,137.7,79.608,130.6a3.939,3.939,0,0,0-6.349-1.991c-1.76,1.489-5.161,2.107-8.246,2.25.456-7.973-3.026-15.766-3.206-16.16a3.939,3.939,0,0,0-3.452-2.307,4.012,4.012,0,0,0-3.6,2.069c-1.8,3.342-6.585,7.015-8.273,8.145C40.712,126.457,31.492,137.023,37.906,149.474Zm12.946-20.312a46.206,46.206,0,0,0,5.8-4.68,18.836,18.836,0,0,1-.031,9.008,3.939,3.939,0,0,0,3.327,5.1,35.48,35.48,0,0,0,12.579-.983c-.046,4.472-1.519,10.792-8.724,13.978-1.767.448-14.27,3.261-18.9-5.719C40.122,136.58,50.423,129.453,50.852,129.162Z"/><path d="M189.3,65.337a3.94,3.94,0,0,0-3.963,1.866c-1.209,2.016-4.036,2.042-4.375,2.015-6.874-.769-20.094,1.395-21.844,15.1-.989,7.746,2.318,13.451,9.07,15.652a16.879,16.879,0,0,0,5.241.822A18.732,18.732,0,0,0,184.1,97.378c13.158-9.187,8.634-28.281,8.435-29.089A3.936,3.936,0,0,0,189.3,65.337Zm-9.707,25.585a10.266,10.266,0,0,1-8.963,1.56c-2.191-.714-4.344-2.124-3.7-7.167.948-7.426,8.006-8.348,11.457-8.348a16.929,16.929,0,0,1,1.778.087c.056.007.113.013.17.016a13.791,13.791,0,0,0,5.247-.711C185.651,81.094,184.65,87.392,179.594,90.922Z"/><path d="M288.412,188.628c4.683-11.081-4.022-24.995-4.395-25.582a3.938,3.938,0,0,0-4.3-1.7c-6.337,1.619-18.372,8.311-18.562,22.05-.137,9.834,5.67,12.928,9.145,13.9a15.248,15.248,0,0,0,18.11-8.663Zm-7.254-3.067a7.439,7.439,0,0,1-8.74,4.144c-1.035-.289-3.459-.966-3.386-6.2.107-7.858,6.145-11.806,9.845-13.49C280.887,174.136,283.169,180.8,281.158,185.561Z"/><path d="M323.573,268.26c-5.373-10.239-2.371-17.581-2.257-17.85a3.938,3.938,0,0,0-5.39-5.118c-14.3,7.348-24.655,26.447-29.557,37.178a21.318,21.318,0,0,1-7.251,8.735c-.194.133-.388.264-.576.389a20.7,20.7,0,0,1-24.385-.766,21.251,21.251,0,0,1-7.648-23.86,32.33,32.33,0,0,1,3.854-8.218,3.938,3.938,0,0,0-3.44-6.237c-.311.02-31.157,2.312-37.418,31.692-4.419,20.737-19.124,21.038-19.938,21.038h-.014c-8.353-.1-14.365-2.477-17.869-7.066-6.516-8.536-3.011-22.382-2.978-22.512a3.937,3.937,0,0,0-4.6-4.866,65.2,65.2,0,0,0-30.024,17.079c-10.331,10.331-23.653,6.93-25.6,6.362-4.907-2.473-7.652-6.45-8.392-12.147a20.772,20.772,0,0,1,4.014-14.671c14.44-20.212,1.8-41.877,1.25-42.789a3.938,3.938,0,0,0-7.311,1.794c-.2,3.44-2.2,6.8-5.954,9.977a26.816,26.816,0,0,1-6.038,3.826V188.619a3.938,3.938,0,1,0-7.875,0V242.98c-19.934,6.59-36.326,18.8-37.821,19.933C8.461,284.8,8.713,321.188,8.74,322.728a3.933,3.933,0,0,0,3.935,3.866h.062a3.939,3.939,0,0,0,3.876-3.994c0-.335-.126-33.814,28.274-53.246.056-.038.113-.079.168-.121.179-.136,18.1-13.732,38.629-19.726a36.521,36.521,0,0,0,13.5-7.094,29.335,29.335,0,0,0,4.8-5.111c1.725,6.709,2.259,16.376-4.289,25.542a28.6,28.6,0,0,0-5.415,20.261A22.736,22.736,0,0,0,105.3,301.45a3.907,3.907,0,0,0,.479.195c.786.263,19.438,6.237,33.872-8.2a59.274,59.274,0,0,1,20.378-13.13c-.522,6.158-.108,15.4,5.368,22.6,5.046,6.638,13.141,10.071,24.024,10.2,7.559.115,23.111-5.325,27.787-27.271,3.294-15.458,14.911-21.574,22.751-23.968-.333.852-.658,1.762-.961,2.725a29.266,29.266,0,0,0,10.422,32.514,28.7,28.7,0,0,0,33.473,1.04c.224-.149.45-.3.684-.461a29.222,29.222,0,0,0,9.957-11.955c2.908-6.368,9.815-20,19.012-28.443a33.846,33.846,0,0,0,4.054,14.619c.625,1.192,1.327,2.293,1.929,3.21,1.951,2.973,11.374,19.193,5.308,46.685a3.938,3.938,0,0,0,3,4.693,4.012,4.012,0,0,0,.852.093,3.94,3.94,0,0,0,3.841-3.091c6.576-29.808-3.247-47.873-6.416-52.7C324.613,270.047,324.04,269.152,323.573,268.26Z"/><path d="M41.236,218.226c-11.295,1.945-22.219,10.659-25.412,20.266a11.5,11.5,0,0,0,.878,9.927,11.665,11.665,0,0,0,10.02,5.476,12.391,12.391,0,0,0,3.232-.43c7.554-2.043,12.8-5.967,15.58-11.665,4.74-9.7.2-20.755,0-21.22A3.933,3.933,0,0,0,41.236,218.226Zm-2.8,20.155c-1.749,3.546-5.295,6.063-10.542,7.482a3.956,3.956,0,0,1-4.464-1.529,3.715,3.715,0,0,1-.137-3.359c1.965-5.913,8.72-11.751,15.929-14.142C39.9,229.837,40.383,234.436,38.44,238.381Z"/><path d="M171.943,256.375c.344.029.688.042,1.03.042a12.707,12.707,0,0,0,9.9-4.778c13.21-16.431,1.277-39.268.763-40.232a3.934,3.934,0,0,0-4.5-1.947c-.479.13-11.794,3.394-17.968,22.128-2.317,7.027-2,13.236.939,18.455A12.473,12.473,0,0,0,171.943,256.375Zm-3.3-22.322c2.924-8.874,6.923-13.236,9.633-15.3,2.357,6.167,5.765,18.866-1.539,27.952a4.771,4.771,0,0,1-4.146,1.821,4.546,4.546,0,0,1-3.627-2.35C167.154,242.969,167.046,238.89,168.64,234.053Z"/><path d="M188.153,14.632l-1.507,1.593a3.937,3.937,0,1,0,5.719,5.412l1.508-1.593a3.937,3.937,0,1,0-5.72-5.412Z"/><path d="M117.106,89.445a3.92,3.92,0,0,0,2.19-.669l1.846-1.239A3.937,3.937,0,1,0,116.755,81l-1.847,1.24a3.937,3.937,0,0,0,2.2,7.207Z"/><path d="M273.344,91.746a3.932,3.932,0,0,0,3.229-1.679l1.239-1.77a3.937,3.937,0,1,0-6.45-4.517l-1.239,1.77a3.937,3.937,0,0,0,3.221,6.2Z"/><path d="M186.611,283.219a3.934,3.934,0,0,0,5.178-2.05l1.33-3.073a3.937,3.937,0,1,0-7.227-3.128l-1.331,3.073A3.938,3.938,0,0,0,186.611,283.219Z"/><path d="M47.787,196.712a3.937,3.937,0,0,0-5.464,1.071l-1.836,2.731a3.937,3.937,0,1,0,6.535,4.394l1.836-2.731A3.938,3.938,0,0,0,47.787,196.712Z"/><path d="M324.438,194.615l-1.676,2.436a3.937,3.937,0,1,0,6.487,4.464l1.676-2.436a3.937,3.937,0,1,0-6.487-4.464Z"/><circle cx="45.972" cy="100.761" r="3.98"/><circle cx="218.009" cy="67.64" r="3.98"/></svg>