<?xml version="1.0" ?><!DOCTYPE svg  PUBLIC '-//W3C//DTD SVG 1.1//EN'  'http://www.w3.org/Graphics/SVG/1.1/DTD/svg11.dtd'><svg class="icon" height="74.04px" version="1.1" viewBox="0 0 2766 1024" width="200px" xmlns="http://www.w3.org/2000/svg"><path d="M1220.577727 1013.110438c-163.016749 0-280.133993-3.756899-348.084862-11.21625C491.031494 960.023821 163.364562 917.554528 17.444426 821.617483a10.889562 10.889562 0 0 1-4.845856-8.058276c-0.762269-7.404902-16.66103-180.712288 64.411762-222.800447a114.775988 114.775988 0 0 1 27.496145-16.987717c10.399532-23.848142 61.852714-103.450843 285.252087-103.450843a1226.05583 1226.05583 0 0 1 134.050513 8.003828c55.700112-19.16563 1064.781411-367.849418 1219.630989-465.746583a10.889562 10.889562 0 0 1 5.989259-1.687883 10.889562 10.889562 0 0 1 8.276067 3.811347l51.0176 59.511459c0.707822 0.871165 62.45164 74.484607 109.930132 90.274472 9.419471 3.157973 20.036795 10.617323 34.8466 20.962408 43.55825 30.708566 117.171691 82.052853 246.376349 82.052852 108.895624 0 235.541235-37.187856 377.159994-110.529058a78.840432 78.840432 0 0 1 40.345829-13.93864c14.210879 0 38.82129 6.697081 44.102727 51.779869a441.027277 441.027277 0 0 0 34.411018 122.18089H2706.077381a10.889562 10.889562 0 0 1 10.889563 10.889563v41.271441c4.573616 19.982347 51.235391 229.061945 27.768384 337.576435a17.91333 17.91333 0 0 1 10.508428 16.334343c0 8.548306-11.434041 211.366406-12.740788 234.452279a10.889562 10.889562 0 0 1-10.345085 10.236188c-9.746158 0.598926-950.495454 45.355027-1511.580156 45.355028z" fill="#FFFFFF"/><path d="M1749.429325 21.779125l51.0176 59.511458S1864.205312 157.898655 1915.222912 174.831924c32.940926 10.889562 110.256819 103.450843 284.653161 103.450843 95.55591 0 220.241399-27.768384 382.768119-112.053597 0 0 17.4233-12.414101 34.737704-12.414101 14.700909 0 29.401818 8.929441 33.267613 42.142606a447.506567 447.506567 0 0 0 38.113468 131.818153H2706.077381V370.245121s55.264529 238.100282 25.536024 344.382411c0 0 12.740788 0 12.740788 8.493859s-12.740788 233.798905-12.740788 233.798905-943.526134 45.191684-1510.872335 45.191684c-150.221513 0-273.926942-3.157973-346.941458-10.889563-348.465997-38.113468-701.451162-80.800553-850.202584-178.534375 0 0-17.042165-174.232998 59.511459-212.346467 0 0 21.234647-17.042165 29.728505-17.042165 0 0 25.481576-101.708513 277.084915-101.708513a1208.741426 1208.741426 0 0 1 135.302813 8.22162S1587.882667 123.814324 1749.429325 21.779125m0-21.779125a21.779125 21.779125 0 0 0-11.651832 3.375764C1585.595859 99.476152 598.947058 441.027277 522.720121 467.216675a1240.103366 1240.103366 0 0 0-132.852661-7.786037c-108.895624 0-191.166268 18.348913-245.015154 54.447812a138.950816 138.950816 0 0 0-48.240762 51.289838 128.769075 128.769075 0 0 0-25.481576 16.334344c-37.56899 20.091243-60.545967 66.045196-68.277556 136.718456a516.437497 516.437497 0 0 0-1.088956 96.427075 21.779125 21.779125 0 0 0 9.69171 16.062104C159.498767 928.008507 488.417999 970.695592 871.186118 1012.729303c68.332004 7.45935 185.88483 11.270697 349.282713 11.270697 561.356942 0 1502.759611-44.756101 1511.906844-45.191684a21.779125 21.779125 0 0 0 20.690168-20.526825c2.177912-37.732334 12.795236-226.394002 12.795236-235.051204a28.421758 28.421758 0 0 0-9.310576-21.343543c20.309034-110.855745-22.976977-308.229064-28.693997-333.982878v-40.019142a21.779125 21.779125 0 0 0-21.779125-21.779125h-2.940181a431.825597 431.825597 0 0 1-30.654119-112.543627c-6.533737-55.48232-40.618068-61.417132-54.937842-61.417132a89.675546 89.675546 0 0 0-45.899505 15.463178c-139.876429 72.361142-264.888605 108.895624-371.606317 108.895624-125.774446 0-197.373318-50.146435-240.169299-80.092731-15.517626-10.889562-26.733876-18.730047-37.623438-22.378051-37.024512-12.305206-88.314351-66.807465-104.920934-86.789812L1765.927012 7.622694a21.779125 21.779125 0 0 0-16.334344-7.622694z"/><path d="M2259.605323 751.379805a10.889562 10.889562 0 0 1-9.909502-15.40873c133.723826-292.330303 329.46371-390.009677 434.221301-422.188335a10.889562 10.889562 0 0 1 3.157973-0.49003 10.889562 10.889562 0 0 1 8.439411 3.97469H2706.077381a10.889562 10.889562 0 0 1 10.889563 10.889563v40.999202c4.573616 19.982347 51.235391 229.061945 27.768384 337.576435a17.91333 17.91333 0 0 1 10.508428 16.334343c0 1.088956 0 3.920242-0.76227 17.586643a10.889562 10.889562 0 0 1-10.889562 10.290637z" fill="#FFFFFF"/><path d="M2687.020647 323.910033c1.197852 2.559047 1.905673 3.97469 1.905674 3.974691H2706.077381V370.245121s55.264529 238.100282 25.536024 344.382411c0 0 12.740788 0 12.740788 8.493859 0 1.2523-0.272239 7.45935-0.762269 16.987717H2259.605323c133.723826-292.275855 331.097145-386.579465 427.469772-416.30797m0-21.779125a21.779125 21.779125 0 0 0-6.370394 0.925613 618.254905 618.254905 0 0 0-206.901686 113.632583c-95.283671 77.860371-174.232998 183.706918-233.798904 314.490563A21.779125 21.779125 0 0 0 2259.605323 762.269368h483.877705a21.779125 21.779125 0 0 0 21.779125-20.635721c0.816717-15.735418 0.816717-17.259956 0.816717-18.131121a28.421758 28.421758 0 0 0-9.310576-21.343543c20.091243-111.127984-23.194768-308.501303-28.911788-334.255117v-40.019142a21.779125 21.779125 0 0 0-21.779125-21.779125h-6.315946a21.779125 21.779125 0 0 0-12.577444-3.97469z"/><path d="M869.87937 1001.513054h-1.197852C489.289164 959.80603 163.364562 917.50008 17.444426 821.617483a10.889562 10.889562 0 0 1-4.845856-8.058276c-0.707822-6.914872-15.68097-169.496039 56.680173-218.226831a11.270697 11.270697 0 0 1 6.098155-1.851225 10.889562 10.889562 0 0 1 4.410272 0.98006c80.855001 35.935556 321.242091 123.160951 803.105227 156.156325a10.889562 10.889562 0 0 1 10.072845 12.468549 1555.356197 1555.356197 0 0 0-12.19631 227.374063 10.889562 10.889562 0 0 1-10.889562 10.889562z" fill="#FFFFFF"/><path d="M75.376898 604.370713c83.468496 37.133408 324.400064 124.086564 806.807678 157.136385a1552.470463 1552.470463 0 0 0-12.305206 229.116393C522.720121 952.510023 171.695077 909.931834 23.433685 812.524698c0 0-15.844313-162.472271 51.943213-208.153985m0-21.779125a21.452438 21.452438 0 0 0-12.19631 3.756899c-33.757643 22.704738-54.447812 68.822034-60.872654 137.099591a513.442867 513.442867 0 0 0-0.544478 91.145637 21.779125 21.779125 0 0 0 9.69171 16.334344c147.934705 97.243792 475.220503 139.767533 856.0285 181.583453a17.641091 17.641091 0 0 0 2.395704 0 21.779125 21.779125 0 0 0 21.779125-22.16026 1555.628436 1555.628436 0 0 1 12.19631-225.68618 21.779125 21.779125 0 0 0-20.036795-24.882651c-480.393045-32.940926-719.092253-119.785186-799.457223-155.285159a21.779125 21.779125 0 0 0-8.820546-1.905674z"/><path d="M1308.892078 931.057585c-142.871059 0-283.618653-0.816717-418.376987-2.450152a10.889562 10.889562 0 0 1-10.889563-10.889562v-50.25533a10.889562 10.889562 0 0 1 10.889563-10.889563c5.009199 0 505.439039 9.092785 983.599723 9.092785 481.699793 0 771.362152-8.766098 860.928803-26.026054a13.230818 13.230818 0 0 1 2.069017 0 10.889562 10.889562 0 0 1 7.132664 2.667942 10.889562 10.889562 0 0 1 3.756899 8.820546l-2.559048 45.082788a10.889562 10.889562 0 0 1-10.453979 10.290637c-6.043707 0.054448-645.859946 24.555963-1426.097092 24.555963z" fill="#0C1011"/><path d="M2737.439321 850.365928l-2.504599 45.082788S2097.949769 920.168023 1308.892078 920.168023c-135.738395 0-275.941511-0.707822-418.213644-2.450152v-50.25533S1390.672692 876.609773 1874.495949 876.609773c383.367044 0 756.824587-5.71702 862.943372-26.189398m0-21.779124h-0.762269a27.223906 27.223906 0 0 0-3.756899 0.435582c-88.205455 16.878822-385.000479 25.753815-858.424204 25.753815-478.106237 0-978.427181-9.038337-983.43638-9.092784h-0.381135a21.779125 21.779125 0 0 0-21.779125 21.779124v50.255331a21.779125 21.779125 0 0 0 21.506886 21.779125c134.758335 1.633434 275.560376 2.450152 418.485883 2.450151 780.454937 0 1420.488967-24.501515 1426.859361-24.719306a21.779125 21.779125 0 0 0 20.90796-20.581273l2.450151-44.266072a12.522997 12.522997 0 0 0 0-2.014569 21.779125 21.779125 0 0 0-21.779125-21.779124z m0 43.558249z"/><path d="M423.026177 674.60839a10.889562 10.889562 0 0 1-8.003828-3.539107 10.889562 10.889562 0 0 1-2.831287-8.276068c3.103525-37.187856 52.324347-118.69623 93.051311-180.494496a10.889562 10.889562 0 0 1 9.092785-4.900304h1.143404l8.330515 0.871165c55.645664-19.16563 1064.781411-367.849418 1219.630989-465.746583a10.889562 10.889562 0 0 1 5.989259-1.633435 10.889562 10.889562 0 0 1 8.276067 3.811347l50.582018 59.021428c5.934812 5.444781 70.782156 65.337374 112.761418 91.907907a232.982187 232.982187 0 0 1 19.65566 14.918701c39.256872 31.525283 112.325836 90.274472 250.459935 90.274472 110.311267 0 240.169299-38.113468 386.034987-113.850375a78.622641 78.622641 0 0 1 40.291381-13.93864c11.651832 0 32.668687 4.682512 41.162546 36.044452a10.889562 10.889562 0 0 1-4.029138 11.651831C2514.421083 294.018185 2368.500947 346.723667 2220.130659 346.723667c-119.785186 0-196.012123-35.173287-202.981443-38.603499-46.389536-18.131121-88.967725-49.329718-142.81661-88.749934-36.970064-27.223906-78.840432-57.769129-130.674749-90.601159a114.775988 114.775988 0 0 0-62.342745-16.334343c-95.610358 0-223.236029 81.181688-307.793481 134.86723-32.995374 20.962408-59.075876 37.514542-74.865742 43.884936C1222.102266 321.786569 796.320376 479.140745 658.458516 500.157601c-131.273675 19.927899-169.2238 164.759079-169.604934 166.22917a10.889562 10.889562 0 0 1-10.562876 8.221619z" fill="#FFFFFF"/><path d="M1749.429325 21.779125l51.0176 59.511458s69.366512 64.738448 114.775987 93.541341c30.381879 19.220078 106.336577 106.881055 275.778168 106.881055 96.971553 0 224.542777-28.748445 391.643112-115.374913 0 0 17.368852-12.414101 34.683256-12.414102 12.359653 0 24.719307 6.370394 30.654118 28.040624-165.085766 122.071994-315.79731 153.869517-427.850907 153.869516-122.071994 0-198.625618-37.732334-198.625618-37.732333-76.553624-29.728505-144.558941-98.006062-272.23906-178.534376a125.229968 125.229968 0 0 0-68.16866-17.967778c-136.555112 0-332.893922 157.898655-386.579465 179.67778C1230.541677 306.595629 797.137093 468.251183 656.825082 489.431382s-178.534375 174.232998-178.534376 174.232998H423.026177c3.103525-37.242303 60.491519-128.66018 91.308981-175.43085l10.889562 1.143404S1587.882667 123.814324 1749.429325 21.779125m0-21.779125a21.779125 21.779125 0 0 0-11.651832 3.375764C1585.541411 99.5306 598.947058 441.027277 522.720121 467.216675l-3.756899-0.381135h-2.232361a15.68097 15.68097 0 0 0-2.23236 0 21.779125 21.779125 0 0 0-18.185569 9.800606c-60.273728 91.417876-92.180146 153.869517-94.793641 185.612591a21.779125 21.779125 0 0 0 21.779125 23.575903h54.99229a21.779125 21.779125 0 0 0 21.125751-16.334344 267.610996 267.610996 0 0 1 34.465465-73.558994c32.342-48.295209 74.811294-76.716967 126.210028-84.503004C798.879423 490.030308 1225.96806 332.131653 1302.63058 301.314192c16.769926-6.697081 41.870367-22.65029 76.662519-44.756102 83.414048-53.032169 209.515181-133.1249 301.967565-133.179348a102.688573 102.688573 0 0 1 56.516829 14.592014c51.562078 32.668687 93.32355 63.21391 130.130271 90.165576 54.447812 39.801351 97.352688 71.326634 144.885627 89.947786 9.800606 4.628064 87.388738 39.529112 207.337268 39.529111 150.5482 0 298.86404-53.195512 441.027278-157.898655a21.779125 21.779125 0 0 0 8.058276-23.249215c-10.889562-39.801351-39.801351-44.102728-51.670974-44.102728a89.403307 89.403307 0 0 0-45.845058 15.463179c-144.068911 74.539055-272.23906 112.325836-380.48131 112.325836-134.159409 0-205.268251-57.170203-243.436167-87.878769a242.891689 242.891689 0 0 0-20.690169-15.626522C1886.365572 130.674749 1824.022827 73.66789 1816.182342 66.154092L1765.927012 7.622694a21.779125 21.779125 0 0 0-16.334344-7.622694z"/><path d="M2174.557841 785.137449c-10.508428 0-1210.048174-8.384963-1292.972191-12.795236-35.717765-1.851226-196.774393-21.452438-377.377785-52.215452-153.379486-26.080502-352.876269-65.9363-432.043388-107.262189a10.889562 10.889562 0 0 1-5.880364-9.201681 10.889562 10.889562 0 0 1 5.118094-9.69171c1.960121-1.197852 3.811347-2.286808 5.444781-3.212421 9.147232-7.241559 25.100441-18.566704 35.445526-18.675599a10.562876 10.562876 0 0 1 3.865795 0.707821 2164.518318 2164.518318 0 0 0 647.112245 131.055884c390.663051 16.824374 820.092944 21.180199 824.394321 21.234646 8.276067 0 842.307651 0 1143.404052-23.521455h0.816717a10.889562 10.889562 0 0 1 8.058276 3.593556 18.893391 18.893391 0 0 1 14.973149 18.131121c0 0.871165 0 2.885734-1.578987 32.396449a10.889562 10.889562 0 0 1-10.45398 10.290636c-160.566598 5.71702-537.726591 19.16563-568.326261 19.16563z" fill="#A60007"/><path d="M112.619201 582.972723a2172.467698 2172.467698 0 0 0 650.48801 131.763705c395.400011 16.987717 824.775456 21.234647 824.775456 21.234647s839.36747 0 1144.166321-23.575903c0 0.762269-0.381135 1.578987-0.598926 2.341256s12.740788 0 12.740788 8.493859c0 1.851226-0.598926 13.993088-1.524539 31.797522-148.152496 5.444781-537.182113 19.220078-568.10847 19.220077-38.113468 0-1211.62716-8.493859-1292.373265-12.740788-75.464667-3.97469-658.927421-82.161748-805.010901-158.279789a54.447812 54.447812 0 0 1 5.771468-3.266869s21.125751-16.878822 29.674058-16.987717m0-21.779125h-0.272239c-10.345084 0-24.229276 6.96932-41.325889 20.41793-1.74233 0.925613-3.539108 1.960121-5.444782 3.157973a21.779125 21.779125 0 0 0 1.524539 37.732333c80.419418 42.033711 281.114053 82.1073 435.310257 108.405594 168.298187 28.639549 336.650822 50.146435 378.630084 52.324347 83.032913 4.355825 1283.008242 12.795236 1293.51667 12.795236 30.926357 0 408.35859-13.44861 568.870739-19.220077a21.779125 21.779125 0 0 0 20.962408-20.635721c1.578987-29.837401 1.578987-31.797522 1.578987-32.668687a29.184027 29.184027 0 0 0-20.363482-27.87728 21.779125 21.779125 0 0 0-13.44861-4.73696h-2.014569c-300.660818 23.194768-1133.875685 23.467007-1142.260647 23.467007-4.083586 0-433.350136-4.410273-823.795396-21.234646a2155.316637 2155.316637 0 0 1-643.790929-130.511406 20.635721 20.635721 0 0 0-7.677141-1.415643z"/><path d="M673.867247 700.089967a11.379593 11.379593 0 0 1-2.341256 0 10.889562 10.889562 0 0 1-8.330515-13.013028l9.419471-42.523741a10.889562 10.889562 0 1 1 21.234647 4.682512l-9.365024 42.251502a10.889562 10.889562 0 0 1-10.617323 8.602755z m24.991546-78.677089a10.889562 10.889562 0 0 1-2.014569-21.779125c8.384963-1.633434 23.085872-4.464721 42.687084-8.43941a10.889562 10.889562 0 0 1 12.849684 8.548306 10.889562 10.889562 0 0 1-8.548307 12.795236c-19.710108 4.029138-34.519913 6.860424-42.959323 8.493858a12.577445 12.577445 0 0 1-2.014569 0.381135z m85.537512-17.042165a10.889562 10.889562 0 0 1-2.23236-21.779125c13.176371-2.776838 27.223906-5.880364 42.523741-9.20168a10.889562 10.889562 0 0 1 4.682512 21.289094c-15.19094 3.321317-29.456266 6.424842-42.687085 9.201681a10.889562 10.889562 0 0 1-2.286808 0.49003z m85.156378-18.838943a10.889562 10.889562 0 0 1-2.450151-21.779125c13.666401-3.157973 27.822832-6.47929 42.360397-9.963949a10.889562 10.889562 0 0 1 5.063647 21.180199c-14.537566 3.48466-28.802893 6.860424-42.523741 10.018397a12.522997 12.522997 0 0 1-2.450152 0.326687z m84.775243-20.363482a10.889562 10.889562 0 0 1-10.562875-8.276067 10.889562 10.889562 0 0 1 7.94938-13.176371c13.829744-3.48466 27.87728-7.132663 42.088159-10.889562a10.889562 10.889562 0 0 1 5.444781 21.071303c-14.265327 3.756899-28.421758 7.350455-42.360397 10.889563a11.161801 11.161801 0 0 1-2.559048 0.163343z m84.339661-22.214707a10.889562 10.889562 0 0 1-2.940182-21.39799c13.93864-3.811347 27.931728-7.786037 41.81592-11.869623a10.889562 10.889562 0 0 1 5.989259 20.690169c-13.993088 4.083586-28.040623 8.112724-42.088158 11.978518a10.889562 10.889562 0 0 1-2.776839 0.381135z m83.686287-24.447067a10.889562 10.889562 0 0 1-3.212421-21.289095q16.007657-4.954751 31.743075-10.127293l9.528367-3.103525a10.889562 10.889562 0 0 1 6.914872 20.63572l-9.691711 3.212421c-10.889562 3.430212-21.289094 6.860424-32.069761 10.181741a11.216249 11.216249 0 0 1-3.212421 0.272239z m82.760674-27.605041a10.889562 10.889562 0 0 1-3.702451-21.180199c13.067475-4.628064 26.733876-9.637263 40.890307-14.9187a10.889562 10.889562 0 0 1 7.622694 20.417929Q1228.47266 483.00654 1208.762552 490.030308a10.889562 10.889562 0 0 1-3.648004 0.653374z m81.671718-30.436327a10.889562 10.889562 0 0 1-3.920242-21.071303q19.927899-7.568246 40.618068-15.735418a10.889562 10.889562 0 1 1 7.94938 20.309034c-13.829744 5.444781-27.496145 10.889562-40.781411 15.789865a10.562876 10.562876 0 0 1-3.702451 0.490031z m81.290584-31.743074a10.889562 10.889562 0 0 1-4.029138-21.016856q20.091243-8.003828 40.454724-16.334343a10.889562 10.889562 0 1 1 8.167172 20.200138l-40.56362 16.334343a11.488488 11.488488 0 0 1-3.865795 0.598926z m80.909448-32.668688a10.889562 10.889562 0 0 1-4.138033-20.962407l40.400276-16.334344a10.889562 10.889562 0 0 1 14.210879 5.880364 10.889562 10.889562 0 0 1-5.934812 14.265327l-40.454724 16.334343a10.889562 10.889562 0 0 1-3.920242 0.653374zM1530.004643 362.731323a10.889562 10.889562 0 0 1-4.192482-20.962407l40.291381-16.769926a10.889562 10.889562 0 0 1 8.384963 20.091242l-40.345829 16.769926a10.290636 10.290636 0 0 1-4.138033 0.871165z m80.528313-33.648747a10.889562 10.889562 0 0 1-4.246929-20.962408l40.236933-16.93327a10.889562 10.889562 0 0 1 8.493859 20.036795l-40.236933 16.987718a10.889562 10.889562 0 0 1-4.355825 0.871165z m80.419419-34.029883a10.889562 10.889562 0 0 1-4.301377-20.90796l40.128037-17.15106a10.889562 10.889562 0 1 1 8.602754 19.982347l-40.291381 17.042165a11.815175 11.815175 0 0 1-4.246929 1.034508z m80.256075-34.411017a10.889562 10.889562 0 0 1-4.301378-20.853512l40.07359-17.314404a10.889562 10.889562 0 0 1 8.657202 19.982347l-40.128037 17.314404a10.889562 10.889562 0 0 1-4.410273 0.871165z m80.038283-34.737704a10.889562 10.889562 0 0 1-4.355825-20.90796l4.845856-2.069017a11.434041 11.434041 0 0 1 5.172542-1.306747 10.889562 10.889562 0 0 1 4.138033 21.016855l-5.444781 2.341256a11.161801 11.161801 0 0 1-4.355825 0.925613zM673.867247 576.82012a10.889562 10.889562 0 0 1-3.702451-0.653374l-12.305206-4.410272a10.889562 10.889562 0 1 1 7.350455-20.472378l9.637262 3.430213 27.223906-4.791408a10.889562 10.889562 0 0 1 3.811347 21.452438c-18.947839 3.375764-30.327431 5.444781-30.327431 5.444781a10.018397 10.018397 0 0 1-1.687882 0z m73.177859-13.121923a10.889562 10.889562 0 0 1-1.960121-21.779124c13.176371-2.450152 27.605041-5.118094 42.850428-8.058276a10.889562 10.889562 0 1 1 4.083586 21.39799c-15.299835 2.940182-29.782953 5.444781-42.959324 8.058276a12.577445 12.577445 0 0 1-2.014569 0.381134z m-126.318924-5.989259a10.889562 10.889562 0 0 1-3.702451-0.653374l-40.999202-14.755357a10.889562 10.889562 0 0 1 7.350454-20.472377l40.999203 14.700909a10.889562 10.889562 0 0 1-3.648004 21.180199z m212.346467-10.345084a10.889562 10.889562 0 0 1-2.069017-21.779125c13.993088-2.776838 28.312862-5.444781 42.687085-8.657202a10.889562 10.889562 0 0 1 4.410273 21.343542c-14.42867 2.99463-28.802893 5.880364-42.904876 8.657202a9.365024 9.365024 0 0 1-2.123465 0.435583z m85.483065-17.695539a10.889562 10.889562 0 0 1-2.286808-21.779125c14.483118-3.157973 28.693997-6.370394 42.414845-9.528367a10.889562 10.889562 0 1 1 4.954751 21.180199c-13.829744 3.212421-28.149519 6.424842-42.741532 9.637263a11.70628 11.70628 0 0 1-2.613495 0.49003z m84.993034-19.982347a10.889562 10.889562 0 0 1-2.72239-21.39799c16.007657-4.192482 30.000744-8.112724 41.434785-11.760728a10.889562 10.889562 0 0 1 6.588185 20.799065c-11.869623 3.702451-26.189398 7.786037-42.578189 12.032966a11.978519 11.978519 0 0 1-2.99463 0.326687z m83.468496-25.590472A10.889562 10.889562 0 0 1 1083.532584 462.806402c10.399532-2.99463 24.174829-7.513798 40.999203-13.44861a10.889562 10.889562 0 1 1 7.187111 20.581273c-17.205509 6.043707-31.36194 10.889562-42.142607 13.775297a9.528367 9.528367 0 0 1-2.831286 0.381134z m82.651779-28.530653a10.889562 10.889562 0 0 1-3.811347-21.125751c12.740788-4.73696 26.407189-9.96395 40.726963-15.463179a10.889562 10.889562 0 0 1 7.622694 20.309034c-14.42867 5.444781-28.149519 10.889562-40.944755 15.572074a10.889562 10.889562 0 0 1-3.865794 0.707822z m81.671718-31.416388A10.889562 10.889562 0 0 1 1246.87602 402.913809l40.56362-16.334344a10.889562 10.889562 0 1 1 8.058276 20.200138q-20.853512 8.330515-40.618067 16.334344a10.399532 10.399532 0 0 1-3.974691 1.034508z m81.12724-32.668687a10.889562 10.889562 0 0 1-4.083586-20.962407l40.454724-16.334344a10.889562 10.889562 0 1 1 8.22162 20.14569l-40.509172 16.334344a10.889562 10.889562 0 0 1-4.519169 1.361195z m80.909448-32.668687a10.889562 10.889562 0 0 1-4.138033-20.962408l40.400276-16.334343a10.889562 10.889562 0 1 1 8.276067 20.091242c-13.44861 5.444781-26.951667 10.889562-40.400276 16.661031a11.216249 11.216249 0 0 1-4.573616 0.544478z m80.746105-33.322061a10.889562 10.889562 0 0 1-4.192481-20.962408l40.291381-16.769926a10.889562 10.889562 0 1 1 8.384963 20.091243l-40.291381 16.769926a10.345084 10.345084 0 0 1-4.628064 0.871165z m80.582762-33.648748a10.889562 10.889562 0 0 1-4.192481-20.962407c13.775296-5.444781 27.223906-11.379593 40.236933-16.878822a10.889562 10.889562 0 1 1 8.439411 20.091243l-40.236933 16.878821a10.889562 10.889562 0 0 1-4.682512 0.871165zM1655.23461 257.973733a10.889562 10.889562 0 0 1-4.246929-20.962407l40.236933-16.987718a10.889562 10.889562 0 1 1 8.493858 20.036795l-40.236933 17.042165a10.889562 10.889562 0 0 1-4.682511 0.871165z m80.473866-34.138778a10.889562 10.889562 0 0 1-4.246929-20.90796l40.236933-17.151061a10.889562 10.889562 0 0 1 8.548306 20.036795l-40.672515 17.4233a10.889562 10.889562 0 0 1-4.301377 0.598926z"/><path d="M1700.53519 188.770564c-23.303664 0-41.598128-12.68634-41.598129-28.802892s18.294465-28.85734 41.598129-28.857341 41.543681 12.68634 41.54368 28.857341-18.240017 28.802893-41.54368 28.802892z" fill="#FFFFFF"/><path d="M1700.53519 136.555112c19.927899 0 36.098899 10.45398 36.098899 23.41256s-16.334344 23.358111-36.098899 23.358111-36.153347-10.45398-36.153347-23.358111 16.334344-23.412559 36.153347-23.41256m0-10.889562c-26.352741 0-47.04291 15.082044-47.04291 34.302122s20.690169 34.247674 47.04291 34.247673 47.260701-15.027596 47.2607-34.247673-20.635721-34.302122-46.988461-34.302122z"/><path d="M1500.983959 268.101026a23.358111 23.358111 0 0 1-16.93327-6.479289c-11.434041-11.434041-7.45935-33.322061 9.038337-49.765301a49.003031 49.003031 0 0 1 32.668687-15.517626 23.194768 23.194768 0 0 1 16.878822 6.47929 25.536024 25.536024 0 0 1 5.71702 24.174828 53.358856 53.358856 0 0 1-14.700909 25.590472 49.003031 49.003031 0 0 1-32.668687 15.517626z" fill="#FFFFFF"/><path d="M1525.975504 201.783591a17.967778 17.967778 0 0 1 13.067475 4.900303c9.092785 9.092785 5.063647 27.931728-9.038336 42.088159a43.55825 43.55825 0 0 1-29.020684 13.884192 17.967778 17.967778 0 0 1-13.067475-4.900303c-9.147232-9.092785-5.063647-27.986175 9.038337-42.088159a43.55825 43.55825 0 0 1 29.020683-13.884192m0-10.889562a54.447812 54.447812 0 0 0-36.752273 17.096613c-18.621152 18.621152-22.595842 43.884936-8.983889 57.496889a28.476206 28.476206 0 0 0 20.744617 8.058276 54.447812 54.447812 0 0 0 36.697825-17.096613c18.6756-18.621152 22.65029-43.884936 9.038337-57.496889a28.585101 28.585101 0 0 0-20.744617-8.058276z"/><path d="M1322.395135 348.847131a23.194768 23.194768 0 0 1-16.878821-6.479289c-11.434041-11.434041-7.45935-33.267613 9.038337-49.7653a49.003031 49.003031 0 0 1 32.668687-15.517627 23.412559 23.412559 0 0 1 16.878821 6.47929 25.427128 25.427128 0 0 1 5.444782 24.174828 52.814378 52.814378 0 0 1-14.70091 25.64492 49.003031 49.003031 0 0 1-32.450896 15.463178z" fill="#FFFFFF"/><path d="M1347.441129 282.529696a17.749987 17.749987 0 0 1 13.013027 4.900303c9.147232 9.147232 5.118094 27.986175-8.983889 42.088159a43.55825 43.55825 0 0 1-29.075132 13.884192 18.022226 18.022226 0 0 1-13.013027-4.845855c-9.147232-9.147232-5.118094-27.986175 8.983889-42.088159a43.55825 43.55825 0 0 1 29.075132-13.93864m0-10.889562a54.720051 54.720051 0 0 0-36.752273 16.93327c-18.621152 18.6756-22.595842 43.939384-9.038337 57.496889a28.585101 28.585101 0 0 0 20.744616 8.058276 54.447812 54.447812 0 0 0 36.752274-17.096613c18.6756-18.621152 22.595842-43.884936 9.038336-57.442441a28.639549 28.639549 0 0 0-20.744616-8.112724z"/><path d="M1139.341592 419.248152a24.664859 24.664859 0 0 1-20.200139-8.874993 25.644919 25.644919 0 0 1-2.504599-24.719307 53.413304 53.413304 0 0 1 17.91333-23.467007 51.616526 51.616526 0 0 1 30.327431-11.379592 24.664859 24.664859 0 0 1 20.200139 8.874993c9.855054 12.849684 3.103525 34.029882-15.408731 48.240761a51.779869 51.779869 0 0 1-30.327431 11.325145z" fill="#FFFFFF"/><path d="M1164.877615 356.469825a19.328973 19.328973 0 0 1 15.898761 6.751529c7.840485 10.236189 1.415643 28.421758-14.42867 40.56362a45.953953 45.953953 0 0 1-27.223906 10.236188 19.328973 19.328973 0 0 1-15.898761-6.751528c-7.840485-10.236189-1.415643-28.36731 14.42867-40.56362a46.062849 46.062849 0 0 1 27.223906-10.236189m0-10.889562a57.170203 57.170203 0 0 0-33.648747 12.522996c-20.90796 16.334344-28.095071 40.56362-16.334344 55.809008a29.782953 29.782953 0 0 0 24.501515 10.889562 57.061307 57.061307 0 0 0 33.648748-12.468549c20.90796-16.334344 28.149519-40.618068 16.334344-55.809007a30.000744 30.000744 0 0 0-24.555963-10.889563z"/><path d="M952.857835 473.097038a26.298293 26.298293 0 0 1-23.902589-11.760727 25.427128 25.427128 0 0 1 0.762269-24.828202 52.977721 52.977721 0 0 1 20.799065-20.962408 54.447812 54.447812 0 0 1 26.516084-7.622694 26.407189 26.407189 0 0 1 23.957037 11.815176 25.590472 25.590472 0 0 1-0.816717 24.828202 52.487691 52.487691 0 0 1-20.799064 20.90796 54.447812 54.447812 0 0 1-26.516085 7.622693z" fill="#FFFFFF"/><path d="M977.14156 413.367789a21.180199 21.180199 0 0 1 19.274525 9.092784c6.47929 10.889562-2.341256 28.312862-19.601212 38.113469a49.003031 49.003031 0 0 1-23.957038 7.078215 21.180199 21.180199 0 0 1-19.220077-9.038337c-6.424842-11.216249 2.341256-28.36731 19.601212-38.113468a48.676344 48.676344 0 0 1 23.793694-6.914872m0-10.889563a59.892593 59.892593 0 0 0-29.238475 8.384963c-22.813633 13.176371-33.158717 36.534482-23.575903 53.195513a31.688627 31.688627 0 0 0 28.639549 14.265327 59.892593 59.892593 0 0 0 29.238476-8.330516c22.813633-13.176371 33.213165-36.534482 23.575902-53.195512a31.634179 31.634179 0 0 0-28.639549-14.537566z"/><path d="M758.805834 522.698995c-13.176371 0-23.467007-5.444781-27.223906-14.755357a25.37268 25.37268 0 0 1 3.48466-24.447068 53.086617 53.086617 0 0 1 23.14032-18.40336 55.809007 55.809007 0 0 1 22.105811-4.791407c13.176371 0 23.467007 5.444781 27.496145 14.755357a25.590472 25.590472 0 0 1-3.648003 24.555963 52.923273 52.923273 0 0 1-23.085872 18.40336 57.22465 57.22465 0 0 1-22.269155 4.682512z" fill="#FFFFFF"/><path d="M780.203824 465.746584c10.562876 0 19.274525 4.029138 22.486946 11.43404 5.118094 11.869623-5.444781 27.931728-23.902589 35.826661a51.0176 51.0176 0 0 1-19.982347 4.355824c-10.562876 0-19.274525-4.029138-22.486947-11.488488-5.118094-11.869623 5.444781-27.87728 23.90259-35.772212a51.0176 51.0176 0 0 1 19.982347-4.355825m0-10.889563a61.907162 61.907162 0 0 0-24.283724 5.444782c-24.229276 10.45398-37.187856 32.668687-29.565162 50.091987 4.845855 11.325145 17.042165 18.076674 32.668687 18.076673a61.907162 61.907162 0 0 0 24.283724-5.444781c24.229276-10.508428 37.187856-32.668687 29.565162-50.146435-4.845855-11.270697-16.987717-18.022226-32.668687-18.022226z"/><path d="M1681.968486 177.608763a45.953953 45.953953 0 0 1-6.424842-0.490031c-15.082044-2.23236-34.519913-26.026054-71.707768-87.769873l-3.103526-5.444781h-1.524538c-8.820546 0-25.427128 6.207051-33.757644 10.072845a10.889562 10.889562 0 0 1-4.628064 1.034509 10.889562 10.889562 0 0 1-8.058276-18.185569c3.756899-4.192482 38.113468-40.944755 72.41559-40.944755a43.177115 43.177115 0 0 1 21.125751 5.444781c21.016855 4.410273 46.607327 33.376509 76.226937 86.190887a31.525283 31.525283 0 0 1 1.633434 27.223906 29.61961 29.61961 0 0 1-19.056734 17.368852l-6.588185 2.069017a52.215452 52.215452 0 0 1-16.334344 3.266868z" fill="#FFFFFF"/><path d="M1625.179418 46.934014a31.85197 31.85197 0 0 1 17.314404 4.845855c23.358111 2.776838 54.012229 51.888765 70.346573 81.12724a20.036795 20.036795 0 0 1-10.889562 28.911788 73.068964 73.068964 0 0 1-19.873452 4.900303 32.015313 32.015313 0 0 1-4.845855-0.381134c-17.695539-2.613495-60.545967-77.479236-68.005317-89.294412a10.889562 10.889562 0 0 0-9.909502-3.865795c-14.592014 0-38.113468 10.889562-38.113468 10.889563s33.703196-37.351199 64.357314-37.351199m0-21.779125c-39.202425 0-76.226937 39.964694-80.528314 44.53831a21.779125 21.779125 0 0 0 16.334343 36.371138 21.180199 21.180199 0 0 0 9.20168-2.069016 136.500665 136.500665 0 0 1 24.828203-8.548307c44.864997 74.484607 62.45164 89.947785 79.112671 92.561281a52.215452 52.215452 0 0 0 8.003828 0.653373 60.600415 60.600415 0 0 0 19.601212-3.811347l6.370394-1.960121a40.454724 40.454724 0 0 0 26.080502-23.684798 42.30595 42.30595 0 0 0-2.177912-36.752273c-39.638007-71.108842-65.337374-87.116499-81.671718-91.308981a54.447812 54.447812 0 0 0-24.828203-5.825916z"/><path d="M1494.341326 253.726804c-13.230818 0-83.196257-32.668687-123.759877-52.052108a10.889562 10.889562 0 0 1-6.152603-9.855054 10.889562 10.889562 0 0 1 6.207051-9.800607l63.758388-30.436326a10.889562 10.889562 0 0 1 4.682512-1.088957h1.524538c6.914872 1.034508 68.059765 10.399532 91.200085 33.539853a30.381879 30.381879 0 0 1 6.751529 34.955495c-7.731589 18.784495-30.763014 34.737704-44.211623 34.737704z" fill="#FFFFFF"/><path d="M1439.076797 161.383315s63.758388 9.20168 85.047482 30.436327-17.042165 51.0176-29.782953 51.017599-119.022917-51.0176-119.022917-51.017599l63.758388-30.436327m0-21.779125a22.432499 22.432499 0 0 0-9.365024 2.123465l-63.758388 30.436326a21.779125 21.779125 0 0 0 0 39.311321c110.74685 53.141064 123.596533 53.141064 128.442388 53.141064 19.111182 0 45.463923-20.091243 54.447812-41.325889a41.271441 41.271441 0 0 0-9.147232-46.879566c-25.100441-25.100441-85.428617-34.8466-97.29824-36.58893a29.728505 29.728505 0 0 0-3.103525 0z"/><path d="M1318.474893 338.883182c-25.481576 0-81.671718-61.689371-104.430903-88.259903a10.889562 10.889562 0 0 1-2.232361-10.127293 10.889562 10.889562 0 0 1 7.241559-7.404903L1284.989489 212.836497a10.889562 10.889562 0 0 1 9.963949 1.851226c2.341256 1.851226 57.98692 45.681714 75.246876 62.94167a22.976977 22.976977 0 0 1 6.424842 23.575903c-6.370394 21.071303-40.128037 34.465465-54.447812 37.351199a20.799064 20.799064 0 0 1-3.702451 0.326687z" fill="#FFFFFF"/><path d="M1288.256357 223.236029s57.279098 45.137236 74.321264 62.124954-21.289094 38.113468-42.523741 42.523741a7.45935 7.45935 0 0 1-1.578987 0c-23.249216 0-96.209284-84.503004-96.209284-84.503004L1288.256357 223.236029m0-21.779125a21.289094 21.289094 0 0 0-6.370394 0.980061L1215.840767 222.691551a21.779125 21.779125 0 0 0-10.072845 35.064391c0.762269 0.871165 19.002286 21.779125 40.509172 43.55825 42.741532 42.741532 59.892593 48.621896 72.197799 48.621896a29.728505 29.728505 0 0 0 5.825916-0.544478c17.096613-3.430212 54.937842-18.893391 62.778327-44.864998a33.5943 33.5943 0 0 0-9.147232-34.411017c-17.695539-17.695539-73.831233-61.96161-76.226937-63.812835a21.779125 21.779125 0 0 0-13.44861-4.845856z"/><path d="M1142.989595 402.913809c-23.739246 0-79.983836-58.858085-103.069708-84.230765a10.889562 10.889562 0 0 1 4.301377-17.532196l57.769129-21.289094a11.434041 11.434041 0 0 1 3.811346-0.653374 10.889562 10.889562 0 0 1 7.459351 2.940182l39.964694 37.623438a10.399532 10.399532 0 0 1 1.687882 2.069017c16.334344 25.862711 22.160259 43.55825 18.457808 56.73462s-15.136492 18.838943-22.759185 22.65029a16.769926 16.769926 0 0 1-7.568246 1.687882z" fill="#FFFFFF"/><path d="M1105.801739 290.261286l39.964694 37.623438c29.728505 46.77067 16.987717 55.264529 0 63.758388a6.424842 6.424842 0 0 1-2.72239 0.544478c-21.779125 0-95.06588-80.63721-95.06588-80.63721l57.823576-21.289094m0-21.779125a22.486946 22.486946 0 0 0-7.513798 1.306747l-57.823576 21.289095a21.779125 21.779125 0 0 0-8.548307 35.118839c0.762269 0.871165 19.111182 20.962408 40.509173 41.434785 40.236933 38.494603 57.333546 46.335088 70.782155 46.335088a27.496145 27.496145 0 0 0 12.414101-2.831287c8.22162-4.138034 23.521455-11.760727 28.421758-29.510714 4.628064-16.769926-1.2523-36.371138-19.764556-65.337374a23.085872 23.085872 0 0 0-3.430212-4.192482l-39.964694-37.623438a21.779125 21.779125 0 0 0-14.973148-5.880363z"/><path d="M949.863206 462.044133c-18.240017 0-39.746903-13.503057-65.827405-41.380338a403.458287 403.458287 0 0 1-32.069761-39.093529 10.889562 10.889562 0 0 1-1.2523-10.127293 10.889562 10.889562 0 0 1 7.622694-6.697081l72.252246-17.695538a10.889562 10.889562 0 0 1 2.613495-0.326687 10.889562 10.889562 0 0 1 7.677142 3.212421c4.628064 4.628064 45.191684 46.226192 42.850428 79.657149a34.8466 34.8466 0 0 1-14.265327 26.026054 32.178657 32.178657 0 0 1-19.601212 6.424842z" fill="#FFFFFF"/><path d="M933.202175 357.613229s63.758388 63.758388 29.728506 89.294412a21.234647 21.234647 0 0 1-13.067475 4.246929c-35.82666 0-88.967725-75.845802-88.967725-75.845802l72.306694-17.695539m0-21.779125a20.744616 20.744616 0 0 0-5.172542 0.653374L855.722939 353.910778a21.779125 21.779125 0 0 0-12.631892 33.648748c13.993088 19.982347 63.050566 85.156378 106.772159 85.156378a43.013771 43.013771 0 0 0 26.13495-8.602755 45.355027 45.355027 0 0 0 18.566703-33.975434c2.667943-37.460095-37.841229-79.983836-46.008401-88.151008a21.779125 21.779125 0 0 0-15.354283-6.370394z"/><path d="M756.028995 512.353911c-33.975435 0-51.289839-59.293667-54.447812-71.16329A10.889562 10.889562 0 0 1 707.842682 428.50428l46.77067-21.289094a10.889562 10.889562 0 0 1 4.464721-0.980061 10.889562 10.889562 0 0 1 8.874993 4.573616c2.940182 4.138034 28.748445 41.380337 22.813633 71.163291a37.460095 37.460095 0 0 1-17.586643 25.154889 32.015313 32.015313 0 0 1-17.151061 5.444781z" fill="#FFFFFF"/><path d="M758.860281 417.124688s42.523741 59.511458 8.548307 80.800553a21.779125 21.779125 0 0 1-11.379593 3.539107c-27.223906 0-43.939384-63.050566-43.939384-63.050566l46.77067-21.289094m0-21.779125a21.779125 21.779125 0 0 0-8.983889 1.960121l-46.77067 21.289095a21.779125 21.779125 0 0 0-12.032967 25.37268c4.900303 18.566704 24.065933 79.276014 64.95624 79.276014a42.904876 42.904876 0 0 0 22.922529-6.860424 48.404105 48.404105 0 0 0 22.323603-32.287553c6.642633-33.5943-19.383421-72.197799-24.664859-79.602701a21.779125 21.779125 0 0 0-17.749987-9.147232zM2317.864482 739.510182h-1.415643a10.889562 10.889562 0 0 1-9.419472-12.19631 239.13479 239.13479 0 0 1 7.078216-34.356569 10.889562 10.889562 0 1 1 20.962408 5.934812 210.930824 210.930824 0 0 0-6.424842 31.253044 10.889562 10.889562 0 0 1-10.780667 9.365023z m22.105812-73.504546a10.889562 10.889562 0 0 1-4.682512-1.034508 10.889562 10.889562 0 0 1-5.172542-14.483118 334.146222 334.146222 0 0 1 21.779124-39.256873 10.889562 10.889562 0 0 1 18.294465 11.924071 302.729835 302.729835 0 0 0-20.581273 36.643378 10.889562 10.889562 0 0 1-9.637262 6.20705z m47.042909-73.068963a10.889562 10.889562 0 0 1-6.914872-2.450152 10.889562 10.889562 0 0 1-1.524539-15.299835c9.038337-10.889562 19.002286-22.214707 29.674058-33.213166a10.889562 10.889562 0 0 1 15.626522 15.19094c-10.236189 10.508428-19.819004 21.234647-28.421758 31.797522a10.889562 10.889562 0 0 1-8.439411 3.974691z m60.600415-62.560536a10.889562 10.889562 0 0 1-8.167172-3.648004 10.889562 10.889562 0 0 1 0.871165-15.354283c10.889562-9.528367 22.105812-19.056734 33.920987-28.421758a10.889562 10.889562 0 1 1 13.503057 17.042165c-11.488488 9.147232-22.595842 18.40336-32.668687 27.605041a10.889562 10.889562 0 0 1-7.45935 2.776839z m68.332004-54.447812a10.889562 10.889562 0 0 1-6.315946-19.764556c11.651832-8.276067 23.957037-16.334344 36.480034-24.719307a10.889562 10.889562 0 0 1 11.869623 18.294465c-12.305206 7.949381-24.338172 16.334344-35.717765 24.174829a10.889562 10.889562 0 0 1-6.315946 2.286808z m73.232307-47.369597a10.889562 10.889562 0 0 1-5.444781-20.254586c12.522997-7.404902 25.37268-14.700909 38.113468-21.779125a10.889562 10.889562 0 0 1 10.399532 19.16563c-12.740788 6.860424-25.37268 14.047535-37.623438 21.289095a10.889562 10.889562 0 0 1-5.444781 1.851225z m76.771415-41.598128a10.889562 10.889562 0 0 1-4.845855-20.635721c24.501515-12.141862 39.692455-18.512256 40.291381-18.784495a10.889562 10.889562 0 0 1 8.43941 20.091243s-15.245387 6.424842-39.093529 18.185569a10.889562 10.889562 0 0 1-4.791407 1.415643z"/></svg>