<?xml version="1.0" ?><svg viewBox="0 0 32 32" xmlns="http://www.w3.org/2000/svg"><title/><g data-name="chair, modern, desk, furniture, seat, sit, room, contemporary, executive, side" id="chair_modern_desk_furniture_seat_sit_room_contemporary_executive_side"><path d="M27,20H24V18h3a1,1,0,0,0,.74-.32,1.05,1.05,0,0,0,.26-.76L27,5a3,3,0,0,0-3-3H16a3,3,0,0,0-3,2.92L12.41,12H3a1,1,0,0,0,0,2H6v9a1,1,0,0,0,1,1h3.18A3,3,0,0,0,13,26h1v3a1,1,0,0,0,2,0V26h8v3a1,1,0,0,0,2,0V26h1a3,3,0,0,0,0-6Zm-5,0H18V18h4ZM15,5a1,1,0,0,1,1-1h8a1,1,0,0,1,1,1.08L25.91,16H14.09l.16-2H20a1,1,0,0,0,0-2H14.42ZM8,14h4.25L12,16.92a1.05,1.05,0,0,0,.26.76A1,1,0,0,0,13,18h3v2H13a3,3,0,0,0-2.82,2H8ZM27,24H13a1,1,0,0,1,0-2H27a1,1,0,0,1,0,2Z"/></g></svg>