<?xml version="1.0" ?><!DOCTYPE svg  PUBLIC '-//W3C//DTD SVG 1.1//EN'  'http://www.w3.org/Graphics/SVG/1.1/DTD/svg11.dtd'><svg class="icon" height="89.51px" version="1.1" viewBox="0 0 2288 1024" width="200px" xmlns="http://www.w3.org/2000/svg"><path d="M630.763816 1014.989088h-1.486801l-20.815206-3.514255a9.010912 9.010912 0 0 1-7.208729-6.442802 9.010912 9.010912 0 0 1-6.487856 6.307638 42.576558 42.576558 0 0 1-9.596621 1.126364c-11.624076 0-16.264696-5.812038-18.021824-9.281239l-0.315382-0.675818a9.010912 9.010912 0 0 1-9.010911 9.010911h-20.815206a9.010912 9.010912 0 0 1-8.69553-6.577965 9.010912 9.010912 0 0 1-7.208729 6.442802 55.101725 55.101725 0 0 1-9.010912 0.675818 32.574446 32.574446 0 0 1-12.480113-2.07251 16.760296 16.760296 0 0 1-7.479056-5.857092 9.010912 9.010912 0 0 1-4.505456 3.469201 47.44245 47.44245 0 0 1-13.516367 2.207673 21.806406 21.806406 0 0 1-19.688842-9.506512 9.010912 9.010912 0 0 1-4.505456 3.64942 32.484337 32.484337 0 0 1-11.173531 1.9824 25.320662 25.320662 0 0 1-17.436114-6.487856 9.371348 9.371348 0 0 1-2.478 5.496656 9.776839 9.776839 0 0 1-6.983457 3.108764 59.381908 59.381908 0 0 1-29.826118-12.344949 9.010912 9.010912 0 0 1-8.335093 5.496657 52.443506 52.443506 0 0 1-27.032735-7.479057 9.010912 9.010912 0 0 1-7.479056 4.009856 45.054558 45.054558 0 0 1-28.834918-9.010912 9.010912 9.010912 0 0 1-5.902147 2.207673 7.794439 7.794439 0 0 1-1.441746 0C273.30095 985.838789 14.687786 941.640268 10.497712 847.025695c-1.216473-11.75924-9.010912-101.327702 24.734953-133.586765 1.57691-11.128476 7.298838-26.627244 20.680042-32.304118 6.172474-16.670187 29.916227-74.790567 66.410419-88.036607 3.334037-1.126364 314.12038-104.166139 527.81415-128.720873 19.013024-12.209785 186.886308-119.935234 354.669482-226.354101C1365.558606 9.010912 1373.668427 9.010912 1379.029919 9.010912a9.010912 9.010912 0 0 1 6.577966 2.838437c4.280183 4.505456 103.625484 110.924322 122.86378 157.690954a461.629004 461.629004 0 0 0 67.041183 66.185146c37.665611 30.186554 95.921155 66.185146 159.808518 66.185146a173.324886 173.324886 0 0 0 21.130588-1.306582c124.981345-15.633932 173.279831-85.603661 178.596268-93.758536 3.874692-12.570222 35.773319-104.977121 135.974657-104.977121a183.777543 183.777543 0 0 1 30.051391 2.56811 9.010912 9.010912 0 0 1 6.217529 4.190074c1.57691 2.613164 38.476593 63.617036 36.043646 110.834213 9.010912 21.94157 83.260824 199.771911 86.639916 243.925379a9.010912 9.010912 0 0 1-6.12742 9.010911 42.666667 42.666667 0 0 1-9.461457 1.802183c7.929602 21.626188 20.094333 66.545583 15.904259 131.784583 5.992256 5.857093 17.075678 18.922914 17.075677 34.962337a9.010912 9.010912 0 0 1-3.243928 6.938402 9.281239 9.281239 0 0 1 3.018655 4.865892c28.114044 116.015488 28.114044 119.214361 28.114045 120.565998a9.010912 9.010912 0 0 1-9.010912 9.010912h-3.243928l0.630764 3.829637c6.577966 2.478001 14.958113 9.912003 15.093277 31.538191 5.046111 40.549102-3.108765 118.853925-69.87962 131.018655h-0.4956c-12.615276 1.621964-310.020415 39.017247-400.985569 39.017248-7.343893 0-13.065822-0.270327-17.526223-0.720873h-6.442802a9.010912 9.010912 0 0 1-8.335093-5.63182 9.010912 9.010912 0 0 1-9.010912 9.010912h-24.284406a9.010912 9.010912 0 0 1-8.69553-6.623021 9.010912 9.010912 0 0 1-8.69553 6.623021h-27.753608a9.010912 9.010912 0 0 1-8.69553-6.623021 9.010912 9.010912 0 0 1-8.695529 6.623021h-20.815206a9.010912 9.010912 0 0 1-9.010912-7.929603l-2.658219-22.797606v21.986624a9.010912 9.010912 0 0 1-9.010911 9.010912h-20.815206a9.010912 9.010912 0 0 1-8.69553-6.62302 9.010912 9.010912 0 0 1-8.69553 6.62302h-24.284407a9.010912 9.010912 0 0 1-8.380148-5.63182 9.010912 9.010912 0 0 1-9.010911 9.010912h-27.753608a9.010912 9.010912 0 0 0-13.876804 0h-24.329462a9.010912 9.010912 0 0 1-8.335093-5.63182 9.010912 9.010912 0 0 1-9.010911 9.010912h-24.329462A9.010912 9.010912 0 0 1 1441.745864 991.200282a9.010912 9.010912 0 0 1-8.650475 6.577965h-24.329462a9.010912 9.010912 0 0 0-13.876803 0h-24.329462a9.010912 9.010912 0 0 1-8.650475-6.577965 9.010912 9.010912 0 0 1-8.69553 6.577965h-20.86026a9.010912 9.010912 0 0 1-8.335094-5.63182 9.010912 9.010912 0 0 1-9.010911 9.010912h-21.040479a9.010912 9.010912 0 0 1-8.69553-6.577966 9.010912 9.010912 0 0 1-2.117564 3.739529 9.010912 9.010912 0 0 1-6.577965 2.838437H1252.516719a9.010912 9.010912 0 0 1-8.380147-5.63182 9.010912 9.010912 0 0 1-9.010912 9.010912h-20.815206a9.010912 9.010912 0 0 1-8.69553-6.577966 9.010912 9.010912 0 0 1-8.650475 6.577966h-24.329461a9.010912 9.010912 0 0 1-4.910947-1.441746 9.010912 9.010912 0 0 1-9.010912 8.380148h-24.329461a9.010912 9.010912 0 0 1-8.69553-6.577966 9.010912 9.010912 0 0 1-8.650475 6.577966h-24.329462a9.010912 9.010912 0 0 1-8.695529-6.577966 9.010912 9.010912 0 0 1-8.650476 6.577966h-24.329461a9.010912 9.010912 0 0 1-8.650475-6.577966 9.010912 9.010912 0 0 1-8.69553 6.577966h-20.86026a9.010912 9.010912 0 0 1-8.650476-6.577966 9.010912 9.010912 0 0 1-8.695529 6.577966h-24.284407a9.010912 9.010912 0 0 1-8.69553-6.577966 9.010912 9.010912 0 0 1-8.69553 6.577966h-24.284407a9.010912 9.010912 0 0 1-8.695529-6.577966 9.010912 9.010912 0 0 1-8.69553 6.577966H887.574798a9.010912 9.010912 0 0 1-8.69553-6.577966 9.010912 9.010912 0 0 1-8.69553 6.577966h-24.284407a9.010912 9.010912 0 0 1-8.69553-6.577966 9.010912 9.010912 0 0 1-8.695529 6.577966h-24.284407a9.010912 9.010912 0 0 1-8.69553-6.577966 9.010912 9.010912 0 0 1-8.69553 6.577966H765.92749a9.010912 9.010912 0 0 1-8.695529-6.577966 9.010912 9.010912 0 0 1-8.650476 6.577966h-17.391059a9.010912 9.010912 0 0 1-9.010912-7.794439l-2.883491-21.716297v23.969025a9.010912 9.010912 0 0 1-9.010912 9.010912h-20.860261a9.010912 9.010912 0 0 1-8.650475-6.577966 9.371348 9.371348 0 0 1-2.117564 3.739529 9.010912 9.010912 0 0 1-6.577966 2.838437h-20.589933a9.010912 9.010912 0 0 1-9.010911-7.884548l-2.883492-23.067934v21.94157a9.010912 9.010912 0 0 1-3.198874 6.893348 9.010912 9.010912 0 0 1-5.631819 2.162618z" fill="#FFFFFF"/><path d="M1379.029919 18.021823s104.166139 111.104541 121.647307 156.249208c0 0 105.697994 136.830693 234.734249 136.830694a176.073214 176.073214 0 0 0 22.211897-1.396692c138.903203-17.346005 185.804998-99.120028 185.804998-99.120028s26.401971-99.705737 127.684618-99.705737a171.207321 171.207321 0 0 1 28.56459 2.478001s38.206265 62.490672 34.737065 107.635339c0 0 83.350933 197.924674 86.820133 243.294615a37.079901 37.079901 0 0 1-10.813093 1.576909 31.538191 31.538191 0 0 1-10.002112-1.576909s27.753608 52.083069 20.815205 145.886659c0 0 17.346005 13.876804 17.346005 31.222809h-10.407603l3.469201 13.921859h6.938402s27.798662 114.573742 27.798663 118.042942h-13.876804l3.469201 20.860261a6.532911 6.532911 0 0 1 1.441746 0c3.55931 0 12.435058 2.207673 12.435058 24.41957 0 0 13.876804 107.680394-62.490672 121.647308 0 0-308.398451 38.927138-399.769096 38.927138a153.185498 153.185498 0 0 1-16.940514-0.720873h-6.983456L1780.105597 919.112988h-17.346005l3.469201 62.535727h-24.284407l-6.983457-59.066526h-10.407603v59.066526h-27.753608v-55.507216h-17.391059v55.552271h-20.815206l-6.938402-55.552271h-13.921858v55.552271h-20.815206l-3.469201-55.552271H1599.436818v55.552271h-24.284407l-3.469201-52.08307h-13.921858v55.552271h-27.753608v-55.552271h-13.876804v55.552271h-24.329462v-55.552271h-17.346005v59.021472h-24.329461V933.079901H1432.734952v55.552271h-24.329461V933.079901h-13.876804v55.552271h-24.329461v-52.08307h-17.210842v52.08307h-20.86026v-52.08307h-17.346005v55.552271h-20.815206l-3.469201-52.08307h-17.391059l3.469201 52.08307H1252.516719l-3.469201-48.613869h-13.921858V995.705737h-20.815206l-3.469201-52.083069h-13.876804V995.705737h-24.329461v-48.749032h-13.876804v55.552271h-24.329462v-55.552271h-17.346005v55.552271h-24.329461v-55.552271h-17.346005v55.552271h-24.329461v-55.552271h-17.346005v55.552271h-20.860261l-3.649419-55.552271h-13.876804v55.552271h-24.284407v-55.552271h-13.921858l-3.469201 55.552271h-24.284407l-3.469201-55.552271h-13.921859v55.552271H887.574798v-55.552271h-17.39106v55.552271h-24.284407l-3.379092-55.552271h-13.921858v55.552271h-24.284407v-55.552271h-17.39106v55.552271H765.92749l-3.288982-51.857797h-13.876804v52.08307h-17.39106L724.432242 950.651179h-13.876804v55.55227h-20.86026L682.756776 950.651179h-13.876804l3.469201 55.55227h-20.860261L644.55051 950.651179H630.763816v55.55227l-20.815206-3.4692-7.073566-52.08307h-10.407603v52.08307a34.69201 34.69201 0 0 1-7.388948 0.856036 10.452658 10.452658 0 0 1-9.957057-4.505456l-10.407603-52.083069h-13.921858l6.938402 55.55227h-20.815206l-10.407603-55.55227h-10.407603s0 55.55227 3.469201 55.55227a47.44245 47.44245 0 0 1-7.343893 0.58571c-5.992256 0-13.516367-1.261528-13.516368-7.524112l-6.938402-52.083069h-13.876804s3.469201 52.083069 6.938402 55.55227a38.611756 38.611756 0 0 1-10.858148 1.757128c-5.63182 0-11.714185-1.757128-13.516368-8.69553l-3.469201-52.083069h-13.831749s0 52.083069 3.469201 55.55227a23.563534 23.563534 0 0 1-7.839493 1.351637 16.850405 16.850405 0 0 1-16.489968-11.75924v-45.054558l-13.876804-3.469201s6.938402 62.490672 3.469201 62.490672-27.753608-6.938402-27.753608-17.346005V933.079901h-13.921859s-3.469201 52.083069 3.469201 59.021472c0 0-24.284407 0-27.753608-13.876804v-48.613869h-13.921858s0 55.55227 6.983456 59.021472c0 0-27.798662 0-27.798662-17.39106l-3.469201-48.613868H297.360084s-3.469201 52.128124 6.938402 59.066526c0 0-281.275607-45.054558-284.744808-135.434002 0 0-10.452658-100.696938 24.284407-128.4956 0 0 1.757128-26.041535 19.103133-29.510736 0 0 24.329461-72.94333 62.490672-86.820134 0 0 312.543471-104.166139 527.859205-128.4956C653.291095 473.072862 1361.683914 18.021823 1379.029919 18.021823m0-18.021823c-7.163675 0-11.083421 0-130.207673 73.799366-61.003872 37.75572-144.715241 90.379444-248.611053 156.474481-163.502992 103.625484-327.096093 208.647659-352.957409 225.272792-214.549806 25.095389-524.209785 127.774727-527.138332 128.810982h-0.450545c-38.161211 13.876804-62.355509 68.482929-70.555439 90.109116-13.200986 7.524111-19.553678 22.527279-21.896515 34.466737-15.048222 16.039423-23.833861 43.702922-26.176698 82.359733a397.786695 397.786695 0 0 0 0.856036 56.183034c1.802182 46.271031 52.894051 84.70257 155.798663 117.502288a1113.613516 1113.613516 0 0 0 143.678986 34.511791 21.265751 21.265751 0 0 0 2.883492 0 18.652587 18.652587 0 0 0 5.001056-0.720873 58.030271 58.030271 0 0 0 29.736008 7.659275 18.021823 18.021823 0 0 0 8.470257-2.117564 62.310454 62.310454 0 0 0 26.221753 5.586765 18.38226 18.38226 0 0 0 9.416403-2.613164 74.835621 74.835621 0 0 0 28.789863 9.551566 18.517423 18.517423 0 0 0 12.615276-5.001056 35.457937 35.457937 0 0 0 14.282295 2.883492 41.675466 41.675466 0 0 0 14.507568-2.613164 33.6107 33.6107 0 0 0 20.680042 6.487856 57.534671 57.534671 0 0 0 16.535023-2.658219l0.9912-0.360436a37.305174 37.305174 0 0 0 20.725097 5.316437 65.374164 65.374164 0 0 0 10.272439-0.810982 18.337205 18.337205 0 0 0 5.721929-1.9824 18.472369 18.472369 0 0 0 8.69553 2.207673h20.815206a18.021823 18.021823 0 0 0 10.587821-3.424146 31.267863 31.267863 0 0 0 16.760295 4.280183 52.894051 52.894051 0 0 0 11.75924-1.396691 18.021823 18.021823 0 0 0 4.505456-1.667019 18.742696 18.742696 0 0 0 5.721929 1.9824l20.815206 3.469201a22.031679 22.031679 0 0 0 2.973601 0.225273 18.021823 18.021823 0 0 0 10.407603-3.288983 18.021823 18.021823 0 0 0 10.407603 3.288983h20.86026a18.021823 18.021823 0 0 0 8.69553-2.207673 18.021823 18.021823 0 0 0 8.650475 2.207673h20.86026a18.021823 18.021823 0 0 0 12.795495-5.361492 18.021823 18.021823 0 0 0 8.019711 1.892291h17.39106a18.021823 18.021823 0 0 0 8.650475-2.207673 18.337205 18.337205 0 0 0 8.69553 2.207673h20.815206a18.021823 18.021823 0 0 0 8.695529-2.207673 18.021823 18.021823 0 0 0 8.69553 2.207673h24.284407a18.021823 18.021823 0 0 0 8.69553-2.207673 18.021823 18.021823 0 0 0 8.69553 2.207673h24.284406a18.021823 18.021823 0 0 0 8.69553-2.207673 18.021823 18.021823 0 0 0 8.69553 2.207673h24.284407a18.021823 18.021823 0 0 0 8.69553-2.207673 18.021823 18.021823 0 0 0 8.695529 2.207673h24.284407a18.021823 18.021823 0 0 0 8.69553-2.207673 18.021823 18.021823 0 0 0 8.69553 2.207673h24.284407a18.021823 18.021823 0 0 0 8.695529-2.207673 18.021823 18.021823 0 0 0 8.650476 2.207673h20.86026a18.337205 18.337205 0 0 0 8.69553-2.207673 18.021823 18.021823 0 0 0 8.650475 2.207673h24.329461a18.021823 18.021823 0 0 0 8.650476-2.207673 18.337205 18.337205 0 0 0 8.695529 2.207673h24.329462a18.021823 18.021823 0 0 0 8.650475-2.207673 18.337205 18.337205 0 0 0 8.69553 2.207673h24.329461a18.021823 18.021823 0 0 0 14.192186-6.938402h24.01408a18.021823 18.021823 0 0 0 8.650475-2.207673 18.337205 18.337205 0 0 0 8.69553 2.207673h20.815205a18.021823 18.021823 0 0 0 11.75924-4.505456 17.751496 17.751496 0 0 0 5.63182 0.901092h24.284407a18.021823 18.021823 0 0 0 8.69553-2.207674 18.021823 18.021823 0 0 0 8.695529 2.207674h20.815206a18.021823 18.021823 0 0 0 11.75924-4.505456 17.706441 17.706441 0 0 0 5.586765 0.901091h20.860261a18.021823 18.021823 0 0 0 8.695529-2.207673 18.021823 18.021823 0 0 0 8.650476 2.207673h24.329461a18.021823 18.021823 0 0 1 13.876804 0H1432.734952a17.526223 17.526223 0 0 0 8.650476-2.252728 18.021823 18.021823 0 0 0 8.695529 2.252728h24.329462a18.021823 18.021823 0 0 0 11.75924-4.505456 17.706441 17.706441 0 0 0 5.586765 0.901091h24.329461a18.021823 18.021823 0 0 0 6.938402-1.396691 17.661387 17.661387 0 0 0 6.938402 1.396691h27.753608a18.021823 18.021823 0 0 0 11.75924-4.505456 18.021823 18.021823 0 0 0 5.63182 0.901092h24.329461a17.706441 17.706441 0 0 0 8.69553-2.252728 17.706441 17.706441 0 0 0 8.69553 2.252728h20.815205a18.021823 18.021823 0 0 0 10.407603-3.334038 18.021823 18.021823 0 0 0 10.452658 3.334038h20.815206a17.706441 17.706441 0 0 0 8.69553-2.252728 17.706441 17.706441 0 0 0 8.695529 2.252728h27.753608a18.021823 18.021823 0 0 1 17.39106 0H1766.138684a18.021823 18.021823 0 0 0 11.759239-4.505456 17.706441 17.706441 0 0 0 5.586765 0.901091h5.992257c4.505456 0.450546 10.587821 0.720873 18.021823 0.720873 91.460753 0 389.361492-37.485392 402.021823-39.062302h0.946146c39.017247-7.073566 64.7434-34.737064 74.340021-79.971841a206.169659 206.169659 0 0 0 2.973601-60.373108c0-15.31855-4.05491-24.960225-9.010912-31.042591a18.021823 18.021823 0 0 0 5.541711-13.020767c0-2.613164 0-5.63182-28.294263-122.323126a20.815206 20.815206 0 0 0-0.856036-2.703273 18.472369 18.472369 0 0 0 1.351637-6.938402 58.570926 58.570926 0 0 0-16.850405-38.431538 344.667371 344.667371 0 0 0-13.516368-121.37698h0.540655a18.021823 18.021823 0 0 0 12.25484-18.472369c-3.424146-44.604013-72.763112-211.756424-86.594861-244.916579 1.306582-49.560014-36.043647-111.19465-37.530447-113.852869a18.021823 18.021823 0 0 0-12.435058-8.380147 192.022527 192.022527 0 0 0-31.538191-2.703274 141.876804 141.876804 0 0 0-115.925378 57.399507 179.317142 179.317142 0 0 0-28.159099 53.389652c-7.11862 10.948258-52.894051 73.754312-171.207322 88.577261a163.863428 163.863428 0 0 1-20.004223 1.216473c-110.789159 0-206.259768-112.321014-219.055263-128C1495.811334 116.82647 1402.86378 17.120732 1392.18585 5.676874A18.021823 18.021823 0 0 0 1379.029919 0z"/><path d="M630.763816 1014.989088h-1.486801l-20.815206-3.514255a9.010912 9.010912 0 0 1-7.208729-6.442802 9.010912 9.010912 0 0 1-6.487856 6.307638 42.576558 42.576558 0 0 1-9.596621 1.126364c-11.624076 0-16.264696-5.812038-18.021824-9.281239l-0.315382-0.675818a9.010912 9.010912 0 0 1-9.010911 9.010911h-20.815206a9.010912 9.010912 0 0 1-8.69553-6.577965 9.010912 9.010912 0 0 1-7.208729 6.442802 55.101725 55.101725 0 0 1-9.010912 0.675818c-11.533967 0-17.210841-3.829637-19.959169-7.929602a9.010912 9.010912 0 0 1-4.505456 3.469201 47.44245 47.44245 0 0 1-13.516367 2.207673 21.806406 21.806406 0 0 1-19.688842-9.506512 9.010912 9.010912 0 0 1-4.505456 3.64942 32.484337 32.484337 0 0 1-11.173531 1.9824 25.320662 25.320662 0 0 1-17.436114-6.487856 9.371348 9.371348 0 0 1-2.478 5.496656 9.776839 9.776839 0 0 1-6.983457 3.108764 59.381908 59.381908 0 0 1-29.826118-12.344949 9.010912 9.010912 0 0 1-8.335093 5.496657 52.443506 52.443506 0 0 1-27.032735-7.479057 9.010912 9.010912 0 0 1-7.479056 4.009856 45.054558 45.054558 0 0 1-28.834918-9.010912 9.010912 9.010912 0 0 1-5.902147 2.207673 7.794439 7.794439 0 0 1-1.441746 0C273.30095 985.838789 14.687786 941.640268 10.497712 847.025695c-1.216473-11.75924-9.010912-101.462865 24.780007-133.63182 1.351637-8.515312 6.352693-28.159099 23.563534-33.205209a7.974657 7.974657 0 0 1 2.523055-0.360437 9.010912 9.010912 0 0 1 4.505456 1.171419c13.831749 7.929602 46.586413 21.310806 124.215417 40.278775 150.572334 36.809574 332.818022 47.847941 341.828934 48.388596 117.637452-2.432946 344.397043-7.659275 363.184794-10.317494 6.307638-0.901091 26.041535-3.153819 53.344597-6.217529 78.169659-8.740584 223.650827-25.095389 272.489968-35.367828 62.535727-13.155931 313.714889-53.750088 385.306582-53.750088a63.7522 63.7522 0 0 1 18.787751 1.937346 34.646955 34.646955 0 0 0 6.577966 0.360436c32.799718 0 140.299894-14.82295 254.062654-30.54699 125.476945-17.346005 267.669131-36.989792 335.47624-40.143612h0.405491a9.010912 9.010912 0 0 1 9.010912 9.551566v1.351637c5.947202 5.857093 17.075678 18.922914 17.075678 34.962337a9.010912 9.010912 0 0 1-3.243929 6.938402 9.281239 9.281239 0 0 1 3.018656 4.865893c27.843717 115.474833 27.843717 118.673706 27.843717 120.025343a9.010912 9.010912 0 0 1-9.010912 9.010912h-3.243928l0.630764 3.829637c6.577966 2.478001 14.958113 9.912003 15.093277 31.538191 5.046111 40.549102-3.108765 118.853925-69.87962 131.018655h-0.4956c-12.615276 1.621964-309.975361 39.017247-400.985569 39.017248-7.343893 0-13.065822-0.270327-17.526223-0.720873h-6.442802a9.010912 9.010912 0 0 1-8.335093-5.63182 9.010912 9.010912 0 0 1-9.010912 9.010912h-24.284406a9.010912 9.010912 0 0 1-8.69553-6.623021 9.010912 9.010912 0 0 1-8.69553 6.623021h-27.753608a9.010912 9.010912 0 0 1-8.69553-6.623021 9.010912 9.010912 0 0 1-8.695529 6.623021h-20.815206a9.010912 9.010912 0 0 1-9.010912-7.929603l-2.658219-22.797606v21.986624a9.010912 9.010912 0 0 1-9.010911 9.010912h-20.815206a9.010912 9.010912 0 0 1-8.69553-6.62302 9.010912 9.010912 0 0 1-8.69553 6.62302h-24.284407a9.010912 9.010912 0 0 1-8.380148-5.63182 9.010912 9.010912 0 0 1-9.010911 9.010912h-27.753608a9.010912 9.010912 0 0 0-13.876804 0h-24.329462a9.010912 9.010912 0 0 1-8.335093-5.63182 9.010912 9.010912 0 0 1-9.010911 9.010912h-24.329462A9.010912 9.010912 0 0 1 1441.745864 991.200282a9.010912 9.010912 0 0 1-8.650475 6.577965h-24.329462a9.010912 9.010912 0 0 0-13.876803 0h-24.329462a9.010912 9.010912 0 0 1-8.650475-6.577965 9.010912 9.010912 0 0 1-8.69553 6.577965h-20.86026a9.010912 9.010912 0 0 1-8.335094-5.63182 9.010912 9.010912 0 0 1-9.010911 9.010912h-21.040479a9.010912 9.010912 0 0 1-8.69553-6.577966 9.010912 9.010912 0 0 1-2.117564 3.739529 9.010912 9.010912 0 0 1-6.577965 2.838437H1252.516719a9.010912 9.010912 0 0 1-8.380147-5.63182 9.010912 9.010912 0 0 1-9.010912 9.010912h-20.815206a9.010912 9.010912 0 0 1-8.69553-6.577966 9.010912 9.010912 0 0 1-8.650475 6.577966h-24.329461a9.010912 9.010912 0 0 1-4.910947-1.441746 9.010912 9.010912 0 0 1-9.010912 8.380148h-24.329461a9.010912 9.010912 0 0 1-8.69553-6.577966 9.010912 9.010912 0 0 1-8.650475 6.577966h-24.329462a9.010912 9.010912 0 0 1-8.695529-6.577966 9.010912 9.010912 0 0 1-8.650476 6.577966h-24.329461a9.010912 9.010912 0 0 1-8.650475-6.577966 9.010912 9.010912 0 0 1-8.69553 6.577966h-20.86026a9.010912 9.010912 0 0 1-8.650476-6.577966 9.010912 9.010912 0 0 1-8.695529 6.577966h-24.284407a9.010912 9.010912 0 0 1-8.69553-6.577966 9.010912 9.010912 0 0 1-8.69553 6.577966h-24.284407a9.010912 9.010912 0 0 1-8.695529-6.577966 9.010912 9.010912 0 0 1-8.69553 6.577966H887.574798a9.010912 9.010912 0 0 1-8.69553-6.577966 9.010912 9.010912 0 0 1-8.69553 6.577966h-24.284407a9.010912 9.010912 0 0 1-8.69553-6.577966 9.010912 9.010912 0 0 1-8.695529 6.577966h-24.284407a9.010912 9.010912 0 0 1-8.69553-6.577966 9.010912 9.010912 0 0 1-8.69553 6.577966H765.92749a9.010912 9.010912 0 0 1-8.695529-6.577966 9.010912 9.010912 0 0 1-8.650476 6.577966h-17.391059a9.010912 9.010912 0 0 1-9.010912-7.794439l-2.883491-21.716297v23.969025a9.010912 9.010912 0 0 1-9.010912 9.010912h-20.860261a9.010912 9.010912 0 0 1-8.650475-6.577966 9.371348 9.371348 0 0 1-2.117564 3.739529 9.010912 9.010912 0 0 1-6.577966 2.838437h-20.589933a9.010912 9.010912 0 0 1-9.010911-7.884548l-2.883492-23.067934v21.94157a9.010912 9.010912 0 0 1-3.198874 6.893348 9.010912 9.010912 0 0 1-5.631819 2.162618z" fill="#916876"/><path d="M2221.505104 604.497008c0 1.847237-0.225273 3.739528-0.360437 5.63182 0 0 17.346005 13.876804 17.346005 31.222809h-10.407603l3.469201 13.921858h6.938402s27.798662 114.573742 27.798663 118.042943h-13.876804l3.469201 20.86026a6.532911 6.532911 0 0 1 1.441746 0c3.55931 0 12.435058 2.207673 12.435058 24.419571 0 0 13.876804 107.63534-62.490673 121.647307 0 0-308.443506 38.927138-399.769095 38.927139a153.861316 153.861316 0 0 1-16.940514-0.720873h-6.983456L1780.105597 919.112988h-17.346005l3.469201 62.535727h-24.284407l-6.983457-59.066526h-10.407603v59.066526h-27.753608v-55.55227h-17.391059v55.597325h-20.815206l-6.938402-55.597325h-13.921858v55.597325h-20.815206l-3.469201-55.597325H1599.436818v55.597325h-24.284407l-3.469201-52.08307h-13.921858v55.552271h-27.753608v-55.552271h-13.876804v55.552271h-24.329462v-55.552271h-17.346005v59.021472h-24.329461V933.079901H1432.734952v55.552271h-24.329461V933.079901h-13.876804v55.552271h-24.329461v-52.08307h-17.210842v52.08307h-20.86026v-52.08307h-17.346005v55.552271h-20.815206l-3.469201-52.08307h-17.391059l3.469201 52.08307H1252.516719l-3.469201-48.613869h-13.921858V995.705737h-20.815206l-3.469201-52.083069h-13.876804V995.705737h-24.329461v-48.749032h-13.876804v55.552271h-24.329462v-55.552271h-17.346005v55.552271h-24.329461v-55.552271h-17.346005v55.552271h-24.329461v-55.552271h-17.346005v55.552271h-20.860261l-3.649419-55.552271h-13.876804v55.552271h-24.284407v-55.552271h-13.921858l-3.469201 55.552271h-24.284407l-3.469201-55.552271h-13.921859v55.552271H887.574798v-55.552271h-17.39106v55.552271h-24.284407l-3.379092-55.552271h-13.921858v55.552271h-24.284407v-55.552271h-17.39106v55.552271H765.92749l-3.288982-51.857797h-13.876804v52.08307h-17.39106L724.432242 950.651179h-13.876804v55.55227h-20.86026L682.756776 950.651179h-13.876804l3.469201 55.55227h-20.860261L644.55051 950.651179H630.763816v55.55227l-20.815206-3.4692-7.073566-52.08307h-10.407603v52.08307a34.69201 34.69201 0 0 1-7.388948 0.856036 10.452658 10.452658 0 0 1-9.957057-4.505456l-10.407603-52.083069h-13.921858l6.938402 55.55227h-20.815206l-10.407603-55.55227h-10.407603s0 55.55227 3.469201 55.55227a47.44245 47.44245 0 0 1-7.343893 0.58571c-5.992256 0-13.516367-1.261528-13.516368-7.524112l-6.938402-52.083069h-13.876804s3.469201 52.083069 6.938402 55.55227a38.611756 38.611756 0 0 1-10.858148 1.757128c-5.63182 0-11.714185-1.757128-13.516368-8.69553l-3.469201-52.083069h-13.831749s0 52.083069 3.469201 55.55227a23.563534 23.563534 0 0 1-7.839493 1.351637 16.850405 16.850405 0 0 1-16.489968-11.75924v-45.054558l-13.876804-3.469201s6.938402 62.490672 3.469201 62.490672-27.753608-6.938402-27.753608-17.346005V933.079901h-13.921859s-3.469201 52.083069 3.469201 59.021472c0 0-24.284407 0-27.753608-13.876804v-48.613869h-13.921858s0 55.55227 6.983456 59.021472c0 0-27.798662 0-27.798662-17.39106l-3.469201-48.613868H297.360084s-3.469201 52.128124 6.938402 59.066526c0 0-281.275607-45.054558-284.744808-135.434002 0 0-10.452658-100.696938 24.284407-128.4956 0 0 1.667019-24.374516 17.571278-29.060191 15.949314 9.010912 50.911651 22.527279 126.558254 41.224921C344.171771 768.135164 531.643787 778.542767 531.643787 778.542767s340.342133-6.938402 364.62654-10.407603 260.460401-27.798662 326.465329-41.675467c59.652235-12.570222 312.543471-53.56987 383.414291-53.569869a58.570926 58.570926 0 0 1 15.904259 1.441745 34.286519 34.286519 0 0 0 9.461457 0.856037c70.330165 0 461.403731-64.7434 589.944386-70.690602m0-18.021823h-0.856036c-68.167547 3.153819-210.585005 22.797606-336.197114 40.143611-113.492432 15.678986-220.767335 30.501936-252.891236 30.501936a35.007392 35.007392 0 0 1-4.505455 0 75.060894 75.060894 0 0 0-20.815206-2.117564c-72.087293 0-324.392819 40.549102-387.153819 54.06547-48.43365 10.227385-193.7346 26.49208-271.769096 35.277719-27.348117 3.06371-47.082013 5.271383-53.47976 6.217529-17.030623 2.387892-225.272791 7.434002-361.743049 10.227385-12.344949-0.765927-191.662091-11.894403-339.846532-48.118269-76.592749-18.742696-108.581485-31.538191-121.647308-39.332629a18.021823 18.021823 0 0 0-9.010911-2.387891 18.021823 18.021823 0 0 0-5.091166 0.720872c-20.319606 5.992256-27.032735 26.131644-29.375571 37.530447-15.093277 16.039423-23.92397 43.702922-26.266808 82.404788a397.786695 397.786695 0 0 0 0.856037 56.183034c2.027455 45.955649 53.119324 84.387188 156.023935 117.186906a1113.613516 1113.613516 0 0 0 143.678986 34.511791 21.265751 21.265751 0 0 0 2.883492 0 18.652587 18.652587 0 0 0 5.001056-0.720873 58.030271 58.030271 0 0 0 29.736008 7.659275 18.021823 18.021823 0 0 0 8.470257-2.117564 62.310454 62.310454 0 0 0 26.221753 5.586765 18.38226 18.38226 0 0 0 9.416403-2.613164 74.835621 74.835621 0 0 0 28.789863 9.551566 18.517423 18.517423 0 0 0 12.615276-5.001056 35.457937 35.457937 0 0 0 14.282295 2.883492 41.675466 41.675466 0 0 0 14.507568-2.613164 33.6107 33.6107 0 0 0 20.680042 6.487856 57.534671 57.534671 0 0 0 16.535023-2.658219l0.9912-0.360436a37.305174 37.305174 0 0 0 20.725097 5.316437 65.374164 65.374164 0 0 0 10.272439-0.810982 18.337205 18.337205 0 0 0 5.721929-1.9824 18.472369 18.472369 0 0 0 8.69553 2.207673h20.815206a18.021823 18.021823 0 0 0 10.587821-3.424146 31.267863 31.267863 0 0 0 16.760295 4.280183 52.894051 52.894051 0 0 0 11.75924-1.396691 18.021823 18.021823 0 0 0 4.505456-1.667019 18.742696 18.742696 0 0 0 5.721929 1.9824l20.815206 3.469201a22.031679 22.031679 0 0 0 2.973601 0.225273 18.021823 18.021823 0 0 0 10.407603-3.288983 18.021823 18.021823 0 0 0 10.407603 3.288983h20.86026a18.021823 18.021823 0 0 0 8.69553-2.207673 18.021823 18.021823 0 0 0 8.650475 2.207673h20.86026a18.021823 18.021823 0 0 0 12.795495-5.361492 18.021823 18.021823 0 0 0 8.019711 1.892291h17.39106a18.021823 18.021823 0 0 0 8.650475-2.207673 18.337205 18.337205 0 0 0 8.69553 2.207673h20.815206a18.021823 18.021823 0 0 0 8.695529-2.207673 18.021823 18.021823 0 0 0 8.69553 2.207673h24.284407a18.021823 18.021823 0 0 0 8.69553-2.207673 18.021823 18.021823 0 0 0 8.69553 2.207673h24.284406a18.021823 18.021823 0 0 0 8.69553-2.207673 18.021823 18.021823 0 0 0 8.69553 2.207673h24.284407a18.021823 18.021823 0 0 0 8.69553-2.207673 18.021823 18.021823 0 0 0 8.695529 2.207673h24.284407a18.021823 18.021823 0 0 0 8.69553-2.207673 18.021823 18.021823 0 0 0 8.69553 2.207673h24.284407a18.021823 18.021823 0 0 0 8.695529-2.207673 18.021823 18.021823 0 0 0 8.650476 2.207673h20.86026a18.337205 18.337205 0 0 0 8.69553-2.207673 18.021823 18.021823 0 0 0 8.650475 2.207673h24.329461a18.021823 18.021823 0 0 0 8.650476-2.207673 18.337205 18.337205 0 0 0 8.695529 2.207673h24.329462a18.021823 18.021823 0 0 0 8.650475-2.207673 18.337205 18.337205 0 0 0 8.69553 2.207673h24.329461a18.021823 18.021823 0 0 0 14.192186-6.938402h24.01408a18.021823 18.021823 0 0 0 8.650475-2.207673 18.337205 18.337205 0 0 0 8.69553 2.207673h20.815205a18.021823 18.021823 0 0 0 11.75924-4.505456 17.751496 17.751496 0 0 0 5.63182 0.901092h24.284407a18.021823 18.021823 0 0 0 8.69553-2.207674 18.021823 18.021823 0 0 0 8.695529 2.207674h20.815206a18.021823 18.021823 0 0 0 11.75924-4.505456 17.706441 17.706441 0 0 0 5.586765 0.901091h20.860261a17.706441 17.706441 0 0 0 8.695529-2.252728 17.526223 17.526223 0 0 0 8.650476 2.252728h24.329461a18.021823 18.021823 0 0 1 13.876804 0H1432.734952a17.526223 17.526223 0 0 0 8.650476-2.252728 18.021823 18.021823 0 0 0 8.695529 2.252728h24.329462a18.021823 18.021823 0 0 0 11.75924-4.505456 17.706441 17.706441 0 0 0 5.586765 0.901091h24.329461a18.021823 18.021823 0 0 0 6.938402-1.396691 17.661387 17.661387 0 0 0 6.938402 1.396691h27.753608a18.021823 18.021823 0 0 0 11.75924-4.505456 18.021823 18.021823 0 0 0 5.63182 0.901092h24.329461a17.706441 17.706441 0 0 0 8.69553-2.252728 17.706441 17.706441 0 0 0 8.69553 2.252728h20.815205a18.021823 18.021823 0 0 0 10.407603-3.334038 18.021823 18.021823 0 0 0 10.452658 3.334038h20.815206a17.706441 17.706441 0 0 0 8.69553-2.252728 17.706441 17.706441 0 0 0 8.695529 2.252728h27.753608a18.021823 18.021823 0 0 1 17.39106 0H1766.138684a18.021823 18.021823 0 0 0 11.759239-4.505456 17.706441 17.706441 0 0 0 5.586765 0.901091h5.992257c4.505456 0.450546 10.587821 0.720873 18.021823 0.720873 91.415699 0 389.361492-37.485392 402.021823-39.062302h0.946146c39.017247-7.073566 64.7434-34.737064 74.340021-79.971841a206.169659 206.169659 0 0 0 2.973601-60.373108c0-15.31855-4.05491-24.960225-9.010912-31.042591a18.021823 18.021823 0 0 0 5.541711-13.020767c0-2.613164 0-5.63182-28.294263-122.323126a20.815206 20.815206 0 0 0-0.856036-2.703273 18.021823 18.021823 0 0 0 1.351637-6.938402c0-17.120732-9.912003-30.907427-17.075678-38.656811a18.021823 18.021823 0 0 0-18.021823-16.219641z m0 36.043646z"/><path d="M2208.709609 474.784935a9.010912 9.010912 0 0 1-5.812038-2.432946 769.892291 769.892291 0 0 1-73.93453-77.178459L2122.069694 386.478001c-22.797606-29.330517-28.970081-37.215065-54.06547-37.215065a313.850053 313.850053 0 0 0-42.035903 4.099964 146.38226 146.38226 0 0 1-20.905315 1.486801c-66.680746 0-119.394579-43.29743-121.647307-45.054558a9.010912 9.010912 0 0 1 3.424146-15.633932c62.17529-16.715241 97.227737-87.811334 118.223161-130.297783 9.912003-20.094333 14.913059-29.961281 20.86026-34.737064 3.784583-2.973601 15.183386-12.074622 79.881732-12.705385a9.010912 9.010912 0 0 1 7.974657 4.775783c11.75924 22.166843 30.997536 64.022527 29.285463 98.534319 9.010912 21.94157 83.260824 199.771911 86.639915 243.925378a9.010912 9.010912 0 0 1-6.127419 9.010912 46.135868 46.135868 0 0 1-13.516368 1.9824z" fill="#FFFFFF"/><path d="M2106.210489 125.341781c10.768039 20.229497 30.682154 62.715945 28.114045 95.831045 0 0 83.350933 197.924674 86.820133 243.294615a38.071102 38.071102 0 0 1-10.813094 1.531855h-1.306582a767.639564 767.639564 0 0 1-72.94333-76.187258c-28.474481-36.043647-35.728265-49.560014-67.581837-49.560014a325.248856 325.248856 0 0 0-43.38754 4.190074 138.407603 138.407603 0 0 1-19.598732 1.396691c-64.157691 0-115.835269-43.072158-115.83527-43.072158 90.109117-24.284407 125.026399-152.780007 142.372404-166.701865 10.67793-8.560366 47.487504-10.542767 74.340021-10.768039m0-18.021824c-60.147835 0.585709-77.268567 8.154875-85.60366 14.687786s-13.516367 18.021823-23.383316 37.800775c-20.274551 41.089757-54.06547 109.888068-112.636396 125.567053a18.021823 18.021823 0 0 0-6.848292 31.267864c2.342837 1.892291 57.489616 47.217177 127.369236 47.217177a157.015136 157.015136 0 0 0 22.166842-1.57691 309.164379 309.164379 0 0 1 40.81943-4.009855c19.778951 0 23.518479 3.829637 46.766632 33.745864l7.028511 8.740584a773.766983 773.766983 0 0 0 74.880676 78.259768 18.021823 18.021823 0 0 0 11.624076 4.820838h1.937346a56.273143 56.273143 0 0 0 16.489968-2.432947 18.021823 18.021823 0 0 0 12.299894-18.472368c-3.424146-44.604013-72.763112-211.756424-86.594861-244.916579 0.9912-36.043647-18.38226-78.57515-30.366772-101.102429a18.021823 18.021823 0 0 0-15.949314-9.551566z"/><path d="M526.011968 672.529391c-55.372052 0-113.131996-3.964801-155.303063-6.848293-25.726153-1.757128-46.090813-3.153819-57.759943-3.153819-42.80183 0-124.485744-29.690954-185.444562-54.56107a9.010912 9.010912 0 0 1 0.630764-16.940514c52.713833-17.210841 324.88842-104.166139 522.002112-126.783527l23.743752-15.22844a8.740584 8.740584 0 0 1 4.865892-1.441746 9.010912 9.010912 0 0 1 7.569166 4.145019c43.973249 68.30271 54.06547 126.152763 30.456881 171.207321-17.706441 33.790919-78.304822 49.560014-190.760999 49.560015z" fill="#FFFFFF"/><path d="M678.74692 456.582893c31.177754 48.43365 57.489616 109.797958 30.05139 162.19641-18.652587 35.638156-98.579373 44.739176-182.786342 44.739176-88.216825 0-181.119324-10.002112-213.063006-10.002112-43.38754 0-131.874692-33.430482-182.020416-54.065469C173.595213 585.709257 454.735656 495.329813 653.291095 473.072862l25.50088-16.354805m0-18.021823a18.021823 18.021823 0 0 0-9.68673 2.838437l-21.986625 14.102077c-197.699402 23.112988-469.017951 109.752904-521.68673 126.963745a18.021823 18.021823 0 0 0-1.216473 33.835973c61.67969 25.185498 144.535023 55.236888 188.823654 55.236888 11.398803 0 31.538191 1.396691 57.12918 3.15382 42.30623 2.883492 100.246392 6.848293 155.933826 6.848292 116.150651 0 179.317142-17.30095 198.780711-54.380851 25.365716-48.43365 14.958113-109.077086-30.907427-180.218233a18.021823 18.021823 0 0 0-15.183386-8.290039z"/><path d="M588.277367 571.652235c-21.175642 0-37.575502-5.271383-48.794086-15.724041a38.972193 38.972193 0 0 1-14.32735-30.997536c0.810982-15.003168 11.488912-30.321718 31.853573-45.550158a9.010912 9.010912 0 0 1 3.784583-1.667019c32.259064-5.857093 62.310454-10.362548 89.343189-13.516367 19.013024-12.209785 186.886308-119.935234 354.669482-226.354101C1365.558606 9.010912 1373.668427 9.010912 1379.029919 9.010912a9.010912 9.010912 0 0 1 6.577966 2.838437c0.630764 0.675818 61.589581 65.82471 97.948609 116.466033a9.010912 9.010912 0 0 1 0.225273 10.227385l-31.222809 47.622668a8.740584 8.740584 0 0 1-2.56811 2.56811C1441.745864 194.185146 1249.272791 322.095037 1184.934882 325.654347c-37.620556 2.117564-134.172474 53.029215-204.682858 90.109117-45.460049 23.969025-81.368532 42.936994-98.759592 48.298486-41.540303 12.795495-91.911299 33.881028-109.167194 44.243576-20.86026 12.525167-119.349525 63.076382-184.183035 63.076382z" fill="#FFFFFF"/><path d="M1379.029919 18.021823s60.733545 64.833509 97.182682 115.564942l-31.222809 47.667723s-197.924674 131.919747-260.415346 135.434002-260.460401 124.846181-305.605069 138.903203c-43.29743 13.291095-93.758536 34.69201-111.104541 45.054558-13.74164 8.19993-114.033087 61.904963-179.587469 61.904963-17.481169 0-32.439282-3.829637-42.666667-13.291094-23.833861-22.121788-6.803238-45.054558 16.805351-62.761 31.538191-5.676874 61.950018-10.407603 90.829989-13.516367C653.291095 473.072862 1361.683914 18.021823 1379.029919 18.021823m0-18.021823c-7.163675 0-11.083421 0-130.207673 73.799366-61.003872 37.75572-144.715241 90.379444-248.611053 156.474481-163.502992 103.625484-327.096093 208.647659-352.957409 225.272792-26.672298 3.153819-56.183034 7.61422-87.856389 13.516367a18.021823 18.021823 0 0 0-7.569166 3.334037c-22.527279 16.895459-34.511792 34.511792-35.457937 52.263288-0.4956 9.641675 2.07251 24.059134 17.165787 38.116156 12.975713 12.029567 31.538191 18.021823 54.966561 18.021823 76.592749 0 187.742344-63.842309 188.823654-64.473072 14.868004-9.010912 63.076382-29.736008 107.184794-43.38754 18.021823-5.586765 54.425906-24.734952 100.336501-48.92925 65.82471-34.737064 165.305174-87.225625 200.94333-89.208026 65.509328-3.649419 248.746216-124.665963 269.426258-138.452657a17.120732 17.120732 0 0 0 5.091165-5.091165L1491.305878 143.453713a18.021823 18.021823 0 0 0-0.450545-20.36466C1454.180922 72.087293 1394.708905 8.380148 1392.18585 5.676874A18.021823 18.021823 0 0 0 1379.029919 0z"/><path d="M1069.955649 749.347413a9.010912 9.010912 0 0 1-9.010911-9.010912c0-19.103133-79.160859-113.222105-120.611053-138.137275-36.629356-21.94157-84.792679-121.151707-86.820133-125.341781a9.010912 9.010912 0 0 1 16.219641-7.839494c13.200986 27.348117 53.299542 101.778247 79.836677 117.727561 34.646955 20.770151 129.396691 120.701162 129.396691 153.590989a9.010912 9.010912 0 0 1-9.010912 9.010912z"/><path d="M1030.758184 743.400211a9.010912 9.010912 0 0 1-8.019712-4.505456 218.24428 218.24428 0 0 0-19.283351-28.699753 9.010912 9.010912 0 1 1 14.282295-10.993312 231.535375 231.535375 0 0 1 20.905315 31.222808 9.010912 9.010912 0 0 1-7.974656 13.246041z m-43.117213-57.759943a9.010912 9.010912 0 0 1-6.758183-3.06371c-7.794439-9.010912-15.994368-17.616332-24.284407-26.041535a9.010912 9.010912 0 0 1 12.840549-12.615276c8.515312 8.650475 16.940514 17.661387 24.960225 26.717353a9.010912 9.010912 0 0 1-0.765927 12.75044 9.010912 9.010912 0 0 1-5.992257 2.432946zM937.134812 634.503344a9.010912 9.010912 0 0 1-5.992257-2.252728 182.56107 182.56107 0 0 0-23.92397-18.607533c-1.351637-0.765927-2.703273-1.712073-4.099965-2.703273a9.010912 9.010912 0 1 1 10.632876-14.552622 31.538191 31.538191 0 0 0 2.703273 1.802182 195.221401 195.221401 0 0 1 26.627244 20.544879 9.010912 9.010912 0 0 1 0.810982 12.750439 9.010912 9.010912 0 0 1-6.758183 3.018656z m-53.434706-47.983105a9.010912 9.010912 0 0 1-7.163675-3.55931c-6.532911-8.605421-13.516367-18.87786-20.770152-30.54699a9.010912 9.010912 0 0 1 15.31855-9.506512c6.938402 11.218585 13.516367 20.995424 19.778951 29.150299a9.010912 9.010912 0 0 1-7.163674 14.462513z m-38.431539-61.048926a9.010912 9.010912 0 0 1-7.929602-4.505456c-10.092221-18.38226-16.670187-31.943682-16.940514-32.529391a9.010912 9.010912 0 1 1 16.219641-7.839493s6.668075 13.516367 16.535023 31.538191a9.010912 9.010912 0 0 1-7.884548 13.516367zM1601.284055 672.934882h-0.360437a9.010912 9.010912 0 0 1-8.650475-9.371348c3.288983-81.999296-191.797254-273.88666-234.283703-293.575502-46.856741-21.626188-75.556494-63.076382-76.592749-64.653291a9.010912 9.010912 0 0 1 14.868005-10.18233c0.270327 0.405491 27.032735 39.017247 69.429074 58.570926s248.656107 216.26188 244.871524 310.876452a9.010912 9.010912 0 0 1-9.281239 8.335093zM1630.975009 661.491024a9.010912 9.010912 0 0 1-8.605421-9.371348v-0.540655a9.010912 9.010912 0 1 1 18.021823 0.450546v0.810982a9.010912 9.010912 0 0 1-9.416402 8.650475z m-6.983457-35.773319a9.010912 9.010912 0 0 1-8.470257-5.902147 227.255192 227.255192 0 0 0-14.777895-31.538191 9.010912 9.010912 0 0 1 15.769096-8.740584 245.141851 245.141851 0 0 1 15.904259 33.881028 9.010912 9.010912 0 0 1-5.316438 11.579021 9.416403 9.416403 0 0 1-2.928546 0.720873z m-34.376628-63.076382a9.010912 9.010912 0 0 1-7.479056-3.964801c-6.217529-9.010912-13.24604-18.922914-20.815206-28.834917a9.010912 9.010912 0 0 1 14.327349-10.948258c7.794439 10.18233 15.003168 20.184442 21.44597 29.690954a9.010912 9.010912 0 0 1-7.479057 14.057022z m-43.657867-57.444561a9.010912 9.010912 0 0 1-6.938402-3.198874c-7.434002-9.010912-15.31855-18.021823-23.42837-27.032735a9.010912 9.010912 0 0 1 13.516368-12.074621c8.290039 9.010912 16.30975 18.472369 23.878915 27.528335a9.010912 9.010912 0 0 1-6.893347 14.777895z m-48.253432-53.659979a9.010912 9.010912 0 0 1-6.487856-2.793383 1118.569518 1118.569518 0 0 0-25.230553-25.365716 9.010912 9.010912 0 1 1 12.570222-12.930658c8.515312 8.335093 17.165787 16.985568 25.636044 25.816262a9.010912 9.010912 0 0 1-6.487857 15.273495zM1446.25132 400.985568a9.010912 9.010912 0 0 1-5.992256-2.297782c-9.821894-9.010912-18.922914-16.580077-27.032735-23.022879a9.010912 9.010912 0 0 1 11.17353-14.147132c8.470257 6.713129 18.021823 14.687786 27.978881 23.788807A9.010912 9.010912 0 0 1 1446.25132 400.985568z m-57.669835-43.117212a8.605421 8.605421 0 0 1-4.009855-0.946146 178.776487 178.776487 0 0 1-31.538191-20.634987 9.010912 9.010912 0 1 1 11.218585-14.102077 164.899683 164.899683 0 0 0 28.56459 18.607533 9.010912 9.010912 0 0 1-4.009856 17.075677z m-56.723688-44.018303a9.010912 9.010912 0 0 1-6.487857-2.793383 300.018303 300.018303 0 0 1-24.284407-28.294262 9.010912 9.010912 0 0 1 14.507568-10.677931 287.222809 287.222809 0 0 0 22.527279 26.492081 9.010912 9.010912 0 0 1-6.532911 15.273495z"/><path d="M1301.310806 603.731081c-102.49912 0-210.179514-41.630412-319.887364-123.719817a9.010912 9.010912 0 0 1-3.514255-8.650476 9.010912 9.010912 0 0 1 6.037311-7.11862l125.026399-41.675466a9.010912 9.010912 0 0 1 2.838437-0.450546 9.010912 9.010912 0 0 1 6.082365 2.342837c1.351637 1.261528 136.064766 122.638508 294.746921 122.638508a304.523759 304.523759 0 0 0 45.054558-3.334037 6.803238 6.803238 0 0 1 1.351637 0 9.010912 9.010912 0 0 1 5.316437 16.264695c-2.56811 1.847237-60.823654 43.702922-163.052446 43.702922z" fill="#FFFFFF"/><path d="M1111.631116 431.262232s136.650475 124.981345 300.829285 124.981344a313.895107 313.895107 0 0 0 46.45125-3.424146s-57.12918 42.035903-157.690954 42.035903c-79.836677 0-187.021471-26.582189-314.706089-121.917635l125.026399-41.675466m0-18.021824a17.661387 17.661387 0 0 0-5.676875 0.946146l-125.026399 41.675466a18.021823 18.021823 0 0 0-5.091165 31.538191c111.464977 83.305878 220.767335 125.521999 325.474129 125.521999 105.157339 0 165.75572-43.702922 168.278775-45.550158a18.021823 18.021823 0 0 0-10.67793-32.529391 18.021823 18.021823 0 0 0-2.703274 0 292.404083 292.404083 0 0 1-43.747976 3.243928c-155.032735 0-287.357973-119.079197-288.664555-120.250616a18.021823 18.021823 0 0 0-12.16473-4.505456z"/><path d="M1083.877508 672.934882a9.010912 9.010912 0 0 1-8.650475-11.533967l72.898275-250.007744a9.010912 9.010912 0 0 1 7.569166-6.442801c6.532911-1.396691 63.977473-19.598733 99.120028-30.862373a8.380148 8.380148 0 0 1 2.748328-0.450545 9.010912 9.010912 0 0 1 8.470257 11.218585l-62.490672 246.583597a9.010912 9.010912 0 0 1-6.037311 6.352693l-111.149595 34.737064a9.010912 9.010912 0 0 1-2.478001 0.405491z" fill="#FFFFFF"/><path d="M1257.472721 382.648363l-62.490672 246.538543-111.104541 34.737064 72.898275-250.007743c3.469201 0 100.696938-31.267863 100.696938-31.267864m0-18.021823a17.706441 17.706441 0 0 0-5.496656 0.856037c-42.441394 13.516367-90.559662 28.789863-97.94861 30.592045a18.021823 18.021823 0 0 0-14.552622 12.795494l-72.898275 250.007744a18.021823 18.021823 0 0 0 17.30095 23.067934 18.427314 18.427314 0 0 0 5.361492-0.810982l111.104541-34.737065a18.021823 18.021823 0 0 0 12.119676-12.75044L1275.043999 387.06371a18.021823 18.021823 0 0 0-17.481169-22.527279z m0 36.043647zM675.818374 525.516367a13.921859 13.921859 0 0 1-5.541711-1.171418l-90.109116-40.549102a13.516367 13.516367 0 1 1 11.083421-24.644844l74.114748 33.340373L675.818374 428.694122a13.516367 13.516367 0 0 1 18.337205-10.317494l70.149947 28.023935-4.505456-65.959873a13.516367 13.516367 0 0 1 18.337206-13.516368L847.025695 393.371348l0.856037-69.699402a13.516367 13.516367 0 0 1 20.094333-11.624076l77.178458 43.297431L928.1239 266.813094a13.516367 13.516367 0 0 1 18.967969-14.82295l102.769447 47.712778-18.021823-105.247449a13.516367 13.516367 0 0 1 19.37346-14.372404l102.409011 51.181979-27.032735-163.052447a13.516367 13.516367 0 0 1 21.761352-12.75044l157.690954 126.152763a13.516367 13.516367 0 1 1-16.89546 21.130588l-130.117564-104.076029L1184.934882 252.981345a13.516367 13.516367 0 0 1-19.37346 14.282295L1063.287575 216.26188l18.021823 104.301302a13.516367 13.516367 0 0 1-19.013023 14.552622l-102.409011-47.532559L977.683914 378.773671a13.516367 13.516367 0 0 1-19.914115 14.372404L874.869412 346.920099 874.05843 413.06019a13.516367 13.516367 0 0 1-18.337205 12.435058L788.454769 399.724041l4.505456 66.32031a13.516367 13.516367 0 0 1-18.472369 13.516367l-74.520239-29.826118-10.632876 64.473073a13.516367 13.516367 0 0 1-6.938402 9.731785 13.966913 13.966913 0 0 1-6.577965 1.576909zM1889.182682 292.854629c0.720873 0.720873-5.451602 9.010912-20.544878 19.418514a157.690954 157.690954 0 0 1-29.600845 15.498768 206.800422 206.800422 0 0 1-42.666667 11.579022 312.903907 312.903907 0 0 1-114.25836-4.505456A363.63534 363.63534 0 0 1 1553.571278 279.338261a355.255192 355.255192 0 0 1-55.597325-47.127068c-16.535023-16.985568-29.781063-34.917283-43.702922-50.100669a162.511792 162.511792 0 0 0-44.018303-36.043646 416.709609 416.709609 0 0 0-47.44245-19.553678 191.662091 191.662091 0 0 1-39.828229-19.328406 96.146427 96.146427 0 0 1-24.780007-23.067934 57.399507 57.399507 0 0 1-9.641676-19.103132c-1.216473-4.505456-1.126364-7.343893-0.585709-7.434003s1.757128 2.07251 3.964801 6.12742a74.610348 74.610348 0 0 0 11.533967 15.994369 100.291447 100.291447 0 0 0 24.689898 18.922914 198.780711 198.780711 0 0 0 38.74692 15.904259 378.86378 378.86378 0 0 1 49.965505 18.021823 141.696586 141.696586 0 0 1 25.951426 16.444914 216.982753 216.982753 0 0 1 23.42837 21.761352c15.003168 15.633932 28.519535 33.295319 44.288631 49.109468a352.957409 352.957409 0 0 0 53.074269 44.558958 365.61774 365.61774 0 0 0 122.007744 54.06547 323.491728 323.491728 0 0 0 108.851813 8.019712A201.303766 201.303766 0 0 0 1865.258712 306.370996c15.273495-8.335093 22.977825-14.642731 23.92397-13.516367zM2215.377684 655.408659c0-0.675818 9.010912-1.4868 26.537135-2.432946l0.360436 3.874692c-55.101725 10.047166-194.680746 32.1239-387.469201 61.409363l-154.176698 23.248152c-54.425906 8.290039-111.69025 16.580077-171.207322 24.91517-119.439634 16.670187-248.520943 33.565646-383.729672 46.045759-156.159099 14.552622-305.830341 20.770151-441.895108 17.255896a2478.766631 2478.766631 0 0 1-359.670538-33.655755 1851.291799 1851.291799 0 0 1-236.986976-55.912707l-36.404084-11.669131-26.311862-9.506511c-14.192186-5.271383-21.536079-8.290039-21.35586-9.010912s7.974657 1.306582 22.527279 5.451602l27.032735 7.839493 36.719465 10.047166a2180.280183 2180.280183 0 0 0 236.491376 50.190778 2629.429074 2629.429074 0 0 0 357.958465 29.645899c135.163675 2.56811 284.204153-4.145019 439.867653-18.652587 134.803238-12.390004 263.659275-28.879972 382.963745-45.054558 59.69729-8.019711 117.141851-15.904259 171.477649-23.653643l154.401971-21.581133c193.284055-26.807462 333.403731-45.36994 389.04611-51.407251l0.315382 3.829637c-17.30095-0.090109-26.49208-0.585709-26.49208-1.216473zM2274.309046 782.777895c0.315382 2.432946-35.773319 9.010912-94.614572 17.255896s-139.669131 18.021823-229.778247 26.311862-171.522703 14.192186-230.634284 17.075678-95.831045 3.108765-95.966209 0.630763 36.043647-7.208729 94.975009-13.516367 140.119676-13.876804 229.778247-22.302006 171.207321-16.084477 230.048574-21.040479 95.921155-6.938402 96.191482-4.415347z"/></svg>