<?xml version="1.0" ?><svg id="object" viewBox="0 0 32 32" xmlns="http://www.w3.org/2000/svg"><defs><style>.cls-1{fill:#c9c1f5;}.cls-2{fill:#afbdd6;}.cls-3{fill:#d6b5b0;}.cls-4{fill:#bf9e99;}.cls-5{fill:#ffc661;}.cls-6{fill:#e49f4e;}.cls-7{fill:#ff9797;}.cls-8{fill:#e47979;}</style></defs><title/><path class="cls-1" d="M2,17a1,1,0,0,1,1,1v5H8a1,1,0,0,1,1,1v6a1,1,0,0,1-2,0V25H3v5a1,1,0,0,1-2,0V18A1,1,0,0,1,2,17Z"/><path class="cls-2" d="M8.46,30.65v-6a1,1,0,0,0-1-1h-5v-5a1,1,0,0,0-1-1,1.11,1.11,0,0,0-.41.08A1,1,0,0,1,2,17a1,1,0,0,1,1,1v5H8a1,1,0,0,1,1,1v6a1,1,0,0,1-.6.91A.82.82,0,0,0,8.46,30.65Z"/><path class="cls-1" d="M16,31a1,1,0,0,1-1-1V16a1,1,0,0,1,2,0V30A1,1,0,0,1,16,31Z"/><rect class="cls-2" height="2" width="2" x="15" y="21.56"/><path class="cls-3" d="M18,31H14a1,1,0,0,1,0-2h4a1,1,0,0,1,0,2Z"/><path class="cls-4" d="M18,29H14a1,1,0,0,0-.87.53,1,1,0,0,1,.41-.09h4a1,1,0,0,1,1,1,1,1,0,0,1-.13.47A1,1,0,0,0,19,30,1,1,0,0,0,18,29Z"/><path class="cls-1" d="M30,17a1,1,0,0,0-1,1v5H24a1,1,0,0,0-1,1v6a1,1,0,0,0,2,0V25h4v5a1,1,0,0,0,2,0V18A1,1,0,0,0,30,17Z"/><path class="cls-2" d="M23.54,30.65v-6a1,1,0,0,1,1-1h5v-5a1,1,0,0,1,1-1,1.11,1.11,0,0,1,.41.08A1,1,0,0,0,30,17a1,1,0,0,0-1,1v5H24a1,1,0,0,0-1,1v6a1,1,0,0,0,.6.91A.82.82,0,0,1,23.54,30.65Z"/><path class="cls-3" d="M21,23H11a1,1,0,0,1,0-2H21a1,1,0,0,1,0,2Z"/><path class="cls-4" d="M21,21H11a1,1,0,0,0-.85.5H20a1,1,0,0,1,1,1,1,1,0,0,1-.15.5H21a1,1,0,0,0,0-2Z"/><path class="cls-5" d="M16,1A11,11,0,0,0,5.92,16.4a1,1,0,0,0,.92.6H25.16a1,1,0,0,0,.92-.6A11,11,0,0,0,16,1Z"/><path class="cls-6" d="M17,1.05l-.74,0c-3.28.16-5.84,4.92-5.84,11a19.29,19.29,0,0,0,.64,5H21.81a19.29,19.29,0,0,0,.63-5C22.44,6.19,20.1,1.57,17,1.05Z"/><path class="cls-6" d="M21.71,2.62a11,11,0,0,1,3.37,13.09,1,1,0,0,1-.92.6H5.89l0,.09a1,1,0,0,0,.92.6H25.16a1,1,0,0,0,.92-.6A11,11,0,0,0,21.71,2.62Z"/><path class="cls-7" d="M16,1c-3.36,0-6,4.83-6,11a19.29,19.29,0,0,0,.63,5H21.37A19.29,19.29,0,0,0,22,12C22,5.83,19.36,1,16,1Z"/><path class="cls-8" d="M10.48,16.31c0,.23.09.47.15.69H21.37c.06-.22.1-.46.15-.69Z"/></svg>