<?xml version="1.0" ?><svg enable-background="new 0 0 512 512" id="Layer_2" version="1.1" viewBox="0 0 512 512" xml:space="preserve" xmlns="http://www.w3.org/2000/svg" xmlns:xlink="http://www.w3.org/1999/xlink"><g><g><g><g><circle cx="254.291" cy="158.49" fill="none" r="25.336" stroke="#474747" stroke-linecap="round" stroke-linejoin="round" stroke-miterlimit="10" stroke-width="15"/><line fill="none" stroke="#474747" stroke-linecap="round" stroke-linejoin="round" stroke-miterlimit="10" stroke-width="15" x1="217.42" x2="230.779" y1="289.357" y2="466.045"/><line fill="none" stroke="#474747" stroke-linecap="round" stroke-linejoin="round" stroke-miterlimit="10" stroke-width="15" x1="294.152" x2="281.512" y1="289.357" y2="467.046"/><line fill="none" stroke="#474747" stroke-linecap="round" stroke-linejoin="round" stroke-miterlimit="10" stroke-width="15" x1="256.176" x2="256.176" y1="326.793" y2="467.046"/></g><path d="     M268.908,183.581l16.61,6.43c7.907,3.061,13.833,9.774,15.89,18l19.904,98.233c1.253,6.186-2.725,12.223-8.905,13.51h0     c-6.288,1.31-12.427-2.797-13.615-9.11l-15.917-83.705" fill="none" stroke="#474747" stroke-linecap="round" stroke-linejoin="round" stroke-miterlimit="10" stroke-width="15"/><path d="     M243.309,183.581l-16.61,6.43c-7.907,3.061-13.833,9.774-15.89,18l-19.904,98.233c-1.253,6.186,2.725,12.223,8.905,13.51h0     c6.288,1.31,12.427-2.797,13.615-9.11l15.917-83.705" fill="none" stroke="#474747" stroke-linecap="round" stroke-linejoin="round" stroke-miterlimit="10" stroke-width="15"/></g><path d="    M308.406,446.19c25.729,5.01,42.702,13.61,42.702,23.379c0,15.464-42.533,28-95,28s-95-12.536-95-28    c0-9.637,16.519-18.137,41.668-23.175" fill="none" stroke="#474747" stroke-linecap="round" stroke-linejoin="round" stroke-miterlimit="10" stroke-width="15"/></g><g><g><g><circle cx="85.084" cy="30.461" fill="none" r="16.307" stroke="#474747" stroke-linecap="round" stroke-linejoin="round" stroke-miterlimit="10" stroke-width="15"/></g></g><path d="    M121.769,220.636c18.456,3.225,30.631,8.76,30.631,15.048c0,9.953-30.51,18.022-68.146,18.022s-68.146-8.069-68.146-18.022    c0-6.203,11.85-11.674,29.889-14.916" fill="none" stroke="#474747" stroke-linecap="round" stroke-linejoin="round" stroke-miterlimit="10" stroke-width="15"/><path d="    M71.39,42.762l-8.006,5.782c-6.289,4.542-10.061,11.788-10.175,19.544l-0.692,47.073c-0.084,5.72,0.386,11.435,1.405,17.064    l17.468,96.536" fill="none" stroke="#474747" stroke-linecap="round" stroke-linejoin="round" stroke-miterlimit="10" stroke-width="15"/><path d="    M97.688,42.762l8.006,5.782c6.289,4.542,10.061,11.788,10.175,19.544l0.692,47.073c0.084,5.72-0.386,11.435-1.405,17.064    l-17.468,96.536" fill="none" stroke="#474747" stroke-linecap="round" stroke-linejoin="round" stroke-miterlimit="10" stroke-width="15"/></g><g><g><g><circle cx="431.084" cy="30.461" fill="none" r="16.307" stroke="#474747" stroke-linecap="round" stroke-linejoin="round" stroke-miterlimit="10" stroke-width="15"/></g></g><path d="    M467.769,220.636c18.456,3.225,30.631,8.76,30.631,15.048c0,9.953-30.51,18.022-68.146,18.022s-68.146-8.069-68.146-18.022    c0-6.203,11.85-11.674,29.889-14.916" fill="none" stroke="#474747" stroke-linecap="round" stroke-linejoin="round" stroke-miterlimit="10" stroke-width="15"/><path d="    M417.39,42.762l-8.006,5.782c-6.289,4.542-10.061,11.788-10.175,19.544l-0.692,47.073c-0.084,5.72,0.386,11.435,1.405,17.064    l17.468,96.536" fill="none" stroke="#474747" stroke-linecap="round" stroke-linejoin="round" stroke-miterlimit="10" stroke-width="15"/><path d="    M443.688,42.762l8.006,5.782c6.289,4.542,10.061,11.788,10.175,19.544l0.692,47.073c0.084,5.72-0.386,11.435-1.405,17.064    l-17.468,96.536" fill="none" stroke="#474747" stroke-linecap="round" stroke-linejoin="round" stroke-miterlimit="10" stroke-width="15"/></g></g></svg>