<svg xmlns="http://www.w3.org/2000/svg" width="87" height="59"><defs><filter id="a" width="109" height="81" x="-11" y="-11" filterUnits="userSpaceOnUse"><feOffset in="SourceGraphic" result="FeOffset1023Out"/><feGaussianBlur in="FeOffset1023Out" result="FeGaussianBlur1024Out" stdDeviation="1.6 1.6"/></filter><mask id="b" width="2" height="2" x="-1" y="-1"><path fill="#fff" d="M3 3h81v53H3z"/><path d="M25.774 56a1.014 1.014 0 01-.867-.497l-14.043-24.09a.999.999 0 111.088-1.471l19.636 4.391L42.603 12.83c.161-.317.503-.514.892-.514.388 0 .73.197.892.514l11.016 21.502 19.636-4.393a1.007 1.007 0 011.027.383.99.99 0 01.06 1.09L62.083 55.504a1 1 0 01-.866.496c-.217 0-.433-.072-.607-.202-.063-.047-6.49-4.763-17.115-4.763-9.08 0-17.122 4.773-17.203 4.822a1.005 1.005 0 01-.518.143zm.37-2.347c2.341-1.25 9.385-4.61 17.35-4.61 9 0 14.998 3.047 17.394 4.54l12.355-21.198-18.16 4.061a.999.999 0 01-1.112-.52L43.495 15.479 33.019 35.926a.996.996 0 01-1.112.52l-18.16-4.061zM6.676 30.162C4.649 30.162 3 28.521 3 26.504s1.65-3.657 3.676-3.657c2.028 0 3.677 1.64 3.677 3.657 0 2.017-1.65 3.658-3.677 3.658zm0-5.322a1.67 1.67 0 00-1.673 1.664c0 .919.75 1.666 1.673 1.666s1.674-.747 1.674-1.666a1.67 1.67 0 00-1.674-1.664zm73.638 5.322c-2.027 0-3.677-1.641-3.677-3.658s1.65-3.657 3.677-3.657 3.676 1.64 3.676 3.657c0 2.017-1.649 3.658-3.676 3.658zm0-5.322a1.67 1.67 0 00-1.674 1.664c0 .919.751 1.666 1.674 1.666a1.67 1.67 0 001.673-1.666 1.67 1.67 0 00-1.673-1.664zm-36.82-14.524c-2.026 0-3.675-1.642-3.675-3.66C39.819 4.64 41.468 3 43.495 3s3.677 1.64 3.677 3.657c0 2.017-1.65 3.659-3.677 3.659zm0-5.323a1.67 1.67 0 00-1.672 1.664c0 .918.75 1.665 1.673 1.665s1.673-.747 1.673-1.665a1.67 1.67 0 00-1.673-1.664z"/></mask></defs><g filter="url(#a)"><path fill="none" d="M25.774 56a1.014 1.014 0 01-.867-.497l-14.043-24.09a.999.999 0 111.088-1.471l19.636 4.391L42.603 12.83c.161-.317.503-.514.892-.514.388 0 .73.197.892.514l11.016 21.502 19.636-4.393a1.007 1.007 0 011.027.383.99.99 0 01.06 1.09L62.083 55.504a1 1 0 01-.866.496c-.217 0-.433-.072-.607-.202-.063-.047-6.49-4.763-17.115-4.763-9.08 0-17.122 4.773-17.203 4.822a1.005 1.005 0 01-.518.143zm.37-2.347c2.341-1.25 9.385-4.61 17.35-4.61 9 0 14.998 3.047 17.394 4.54l12.355-21.198-18.16 4.061a.999.999 0 01-1.112-.52L43.495 15.479 33.019 35.926a.996.996 0 01-1.112.52l-18.16-4.061zM6.676 30.162C4.649 30.162 3 28.521 3 26.504s1.65-3.657 3.676-3.657c2.028 0 3.677 1.64 3.677 3.657 0 2.017-1.65 3.658-3.677 3.658zm0-5.322a1.67 1.67 0 00-1.673 1.664c0 .919.75 1.666 1.673 1.666s1.674-.747 1.674-1.666a1.67 1.67 0 00-1.674-1.664zm73.638 5.322c-2.027 0-3.677-1.641-3.677-3.658s1.65-3.657 3.677-3.657 3.676 1.64 3.676 3.657c0 2.017-1.649 3.658-3.676 3.658zm0-5.322a1.67 1.67 0 00-1.674 1.664c0 .919.751 1.666 1.674 1.666a1.67 1.67 0 001.673-1.666 1.67 1.67 0 00-1.673-1.664zm-36.82-14.524c-2.026 0-3.675-1.642-3.675-3.66C39.819 4.64 41.468 3 43.495 3s3.677 1.64 3.677 3.657c0 2.017-1.65 3.659-3.677 3.659zm0-5.323a1.67 1.67 0 00-1.672 1.664c0 .918.75 1.665 1.673 1.665s1.673-.747 1.673-1.665a1.67 1.67 0 00-1.673-1.664z" mask="url(&quot;#b&quot;)"/><path fill="#09deed" fill-opacity=".6" d="M25.774 56a1.014 1.014 0 01-.867-.497l-14.043-24.09a.999.999 0 111.088-1.471l19.636 4.391L42.603 12.83c.161-.317.503-.514.892-.514.388 0 .73.197.892.514l11.016 21.502 19.636-4.393a1.007 1.007 0 011.027.383.99.99 0 01.06 1.09L62.083 55.504a1 1 0 01-.866.496c-.217 0-.433-.072-.607-.202-.063-.047-6.49-4.763-17.115-4.763-9.08 0-17.122 4.773-17.203 4.822a1.005 1.005 0 01-.518.143zm.37-2.347c2.341-1.25 9.385-4.61 17.35-4.61 9 0 14.998 3.047 17.394 4.54l12.355-21.198-18.16 4.061a.999.999 0 01-1.112-.52L43.495 15.479 33.019 35.926a.996.996 0 01-1.112.52l-18.16-4.061zM6.676 30.162C4.649 30.162 3 28.521 3 26.504s1.65-3.657 3.676-3.657c2.028 0 3.677 1.64 3.677 3.657 0 2.017-1.65 3.658-3.677 3.658zm0-5.322a1.67 1.67 0 00-1.673 1.664c0 .919.75 1.666 1.673 1.666s1.674-.747 1.674-1.666a1.67 1.67 0 00-1.674-1.664zm73.638 5.322c-2.027 0-3.677-1.641-3.677-3.658s1.65-3.657 3.677-3.657 3.676 1.64 3.676 3.657c0 2.017-1.649 3.658-3.676 3.658zm0-5.322a1.67 1.67 0 00-1.674 1.664c0 .919.751 1.666 1.674 1.666a1.67 1.67 0 001.673-1.666 1.67 1.67 0 00-1.673-1.664zm-36.82-14.524c-2.026 0-3.675-1.642-3.675-3.66C39.819 4.64 41.468 3 43.495 3s3.677 1.64 3.677 3.657c0 2.017-1.65 3.659-3.677 3.659zm0-5.323a1.67 1.67 0 00-1.672 1.664c0 .918.75 1.665 1.673 1.665s1.673-.747 1.673-1.665a1.67 1.67 0 00-1.673-1.664z"/></g><g filter="url(#a)"><path fill="none" d="M25.774 56a1.014 1.014 0 01-.867-.497l-14.043-24.09a.999.999 0 111.088-1.471l19.636 4.391L42.603 12.83c.161-.317.503-.514.892-.514.388 0 .73.197.892.514l11.016 21.502 19.636-4.393a1.007 1.007 0 011.027.383.99.99 0 01.06 1.09L62.083 55.504a1 1 0 01-.866.496c-.217 0-.433-.072-.607-.202-.063-.047-6.49-4.763-17.115-4.763-9.08 0-17.122 4.773-17.203 4.822a1.005 1.005 0 01-.518.143zm.37-2.347c2.341-1.25 9.385-4.61 17.35-4.61 9 0 14.998 3.047 17.394 4.54l12.355-21.198-18.16 4.061a.999.999 0 01-1.112-.52L43.495 15.479 33.019 35.926a.996.996 0 01-1.112.52l-18.16-4.061zM6.676 30.162C4.649 30.162 3 28.521 3 26.504s1.65-3.657 3.676-3.657c2.028 0 3.677 1.64 3.677 3.657 0 2.017-1.65 3.658-3.677 3.658zm0-5.322a1.67 1.67 0 00-1.673 1.664c0 .919.75 1.666 1.673 1.666s1.674-.747 1.674-1.666a1.67 1.67 0 00-1.674-1.664zm73.638 5.322c-2.027 0-3.677-1.641-3.677-3.658s1.65-3.657 3.677-3.657 3.676 1.64 3.676 3.657c0 2.017-1.649 3.658-3.676 3.658zm0-5.322a1.67 1.67 0 00-1.674 1.664c0 .919.751 1.666 1.674 1.666a1.67 1.67 0 001.673-1.666 1.67 1.67 0 00-1.673-1.664zm-36.82-14.524c-2.026 0-3.675-1.642-3.675-3.66C39.819 4.64 41.468 3 43.495 3s3.677 1.64 3.677 3.657c0 2.017-1.65 3.659-3.677 3.659zm0-5.323a1.67 1.67 0 00-1.672 1.664c0 .918.75 1.665 1.673 1.665s1.673-.747 1.673-1.665a1.67 1.67 0 00-1.673-1.664z" mask="url(&quot;#b&quot;)"/><path fill="#09deed" fill-opacity=".6" d="M25.774 56a1.014 1.014 0 01-.867-.497l-14.043-24.09a.999.999 0 111.088-1.471l19.636 4.391L42.603 12.83c.161-.317.503-.514.892-.514.388 0 .73.197.892.514l11.016 21.502 19.636-4.393a1.007 1.007 0 011.027.383.99.99 0 01.06 1.09L62.083 55.504a1 1 0 01-.866.496c-.217 0-.433-.072-.607-.202-.063-.047-6.49-4.763-17.115-4.763-9.08 0-17.122 4.773-17.203 4.822a1.005 1.005 0 01-.518.143zm.37-2.347c2.341-1.25 9.385-4.61 17.35-4.61 9 0 14.998 3.047 17.394 4.54l12.355-21.198-18.16 4.061a.999.999 0 01-1.112-.52L43.495 15.479 33.019 35.926a.996.996 0 01-1.112.52l-18.16-4.061zM6.676 30.162C4.649 30.162 3 28.521 3 26.504s1.65-3.657 3.676-3.657c2.028 0 3.677 1.64 3.677 3.657 0 2.017-1.65 3.658-3.677 3.658zm0-5.322a1.67 1.67 0 00-1.673 1.664c0 .919.75 1.666 1.673 1.666s1.674-.747 1.674-1.666a1.67 1.67 0 00-1.674-1.664zm73.638 5.322c-2.027 0-3.677-1.641-3.677-3.658s1.65-3.657 3.677-3.657 3.676 1.64 3.676 3.657c0 2.017-1.649 3.658-3.676 3.658zm0-5.322a1.67 1.67 0 00-1.674 1.664c0 .919.751 1.666 1.674 1.666a1.67 1.67 0 001.673-1.666 1.67 1.67 0 00-1.673-1.664zm-36.82-14.524c-2.026 0-3.675-1.642-3.675-3.66C39.819 4.64 41.468 3 43.495 3s3.677 1.64 3.677 3.657c0 2.017-1.65 3.659-3.677 3.659zm0-5.323a1.67 1.67 0 00-1.672 1.664c0 .918.75 1.665 1.673 1.665s1.673-.747 1.673-1.665a1.67 1.67 0 00-1.673-1.664z"/></g><path fill="#00e5fa" d="M25.774 56a1.014 1.014 0 01-.867-.497l-14.043-24.09a.999.999 0 111.088-1.471l19.636 4.391L42.603 12.83c.161-.317.503-.514.892-.514.388 0 .73.197.892.514l11.016 21.502 19.636-4.393a1.007 1.007 0 011.027.383.99.99 0 01.06 1.09L62.083 55.504a1 1 0 01-.866.496c-.217 0-.433-.072-.607-.202-.063-.047-6.49-4.763-17.115-4.763-9.08 0-17.122 4.773-17.203 4.822a1.005 1.005 0 01-.518.143zm.37-2.347c2.341-1.25 9.385-4.61 17.35-4.61 9 0 14.998 3.047 17.394 4.54l12.355-21.198-18.16 4.061a.999.999 0 01-1.112-.52L43.495 15.479 33.019 35.926a.996.996 0 01-1.112.52l-18.16-4.061zM6.676 30.162C4.649 30.162 3 28.521 3 26.504s1.65-3.657 3.676-3.657c2.028 0 3.677 1.64 3.677 3.657 0 2.017-1.65 3.658-3.677 3.658zm0-5.322a1.67 1.67 0 00-1.673 1.664c0 .919.75 1.666 1.673 1.666s1.674-.747 1.674-1.666a1.67 1.67 0 00-1.674-1.664zm73.638 5.322c-2.027 0-3.677-1.641-3.677-3.658s1.65-3.657 3.677-3.657 3.676 1.64 3.676 3.657c0 2.017-1.649 3.658-3.676 3.658zm0-5.322a1.67 1.67 0 00-1.674 1.664c0 .919.751 1.666 1.674 1.666a1.67 1.67 0 001.673-1.666 1.67 1.67 0 00-1.673-1.664zm-36.82-14.524c-2.026 0-3.675-1.642-3.675-3.66C39.819 4.64 41.468 3 43.495 3s3.677 1.64 3.677 3.657c0 2.017-1.65 3.659-3.677 3.659zm0-5.323a1.67 1.67 0 00-1.672 1.664c0 .918.75 1.665 1.673 1.665s1.673-.747 1.673-1.665a1.67 1.67 0 00-1.673-1.664z"/></svg>