<?xml version="1.0" ?><!DOCTYPE svg  PUBLIC '-//W3C//DTD SVG 1.1//EN'  'http://www.w3.org/Graphics/SVG/1.1/DTD/svg11.dtd'><svg enable-background="new 0 0 48 48" height="48px" version="1.1" viewBox="0 0 48 48" width="48px" xml:space="preserve" xmlns="http://www.w3.org/2000/svg" xmlns:xlink="http://www.w3.org/1999/xlink"><g id="Layer_3"><g><path d="M45.006,26.879C39.059,31.066,31.821,33.547,24,33.547c-7.826,0-15.06-2.48-21.007-6.666l-2.97,21.002    h47.955L45.006,26.879z" fill="#241F20"/><path d="M24,29.432c7.708,0,14.784-2.703,20.352-7.193l-0.271-1.921c0-0.04,0.005-0.076,0.005-0.113    c0-1.968-0.295-3.862-0.826-5.658l-0.029-0.231h-0.025C40.682,6.095,33.042,0.118,24,0.118c-9.043,0-16.688,5.978-19.204,14.198    H4.769l-0.033,0.229c-0.526,1.796-0.821,3.692-0.821,5.66c0,0.037,0.006,0.074,0.006,0.113l-0.271,1.921    C9.216,26.73,16.288,29.432,24,29.432z M28.796,21.631c0,1.323-1.072,2.398-2.399,2.398h-4.795c-1.325,0-2.397-1.075-2.397-2.398    v-0.099c0-1.323,1.072-2.398,2.397-2.398h4.795c1.327,0,2.399,1.075,2.399,2.398V21.631z M24.002,4.838    c6.397,0,11.873,3.914,14.186,9.478H9.811C12.122,8.752,17.603,4.838,24.002,4.838z" fill="#241F20"/></g></g></svg>