<?xml version="1.0" ?><svg style="enable-background:new 0 0 24 24;" version="1.1" viewBox="0 0 24 24" xml:space="preserve" xmlns="http://www.w3.org/2000/svg" xmlns:xlink="http://www.w3.org/1999/xlink"><style type="text/css">
	.st0{opacity:0.2;fill:none;stroke:#000000;stroke-width:5.000000e-02;stroke-miterlimit:10;}
</style><g id="Layer_1"/><g id="Layer_2"><path d="M19.7,4.9C19,3.7,17.7,3,16.3,3h-2.4H10H7.7C6.3,3,5,3.7,4.3,4.9L2.8,7.3c-0.6,1-0.6,2.3,0.2,3.4l8.2,9.9c0,0,0,0,0.1,0   c0.1,0.1,0.1,0.1,0.2,0.2c0,0,0.1,0,0.1,0.1C11.7,21,11.9,21,12,21c0,0,0,0,0,0c0.1,0,0.3,0,0.4-0.1c0,0,0.1,0,0.1-0.1   c0.1,0,0.2-0.1,0.2-0.2c0,0,0,0,0.1,0l8.2-9.9c0,0,0,0,0,0c0.7-1,0.8-2.3,0.1-3.3L19.7,4.9z M8.2,10l1.6,5.8L5,10H8.2z M10.3,10   h3.5L12,16.3L10.3,10z M15.9,10H19l-4.7,5.7L15.9,10z M18,6l1.2,2h-3.3l-0.7-3h1.1C17,5,17.6,5.4,18,6z M13.1,5l0.7,3h-3.6l0.6-3   H13.1z M6,6c0.4-0.6,1-1,1.7-1h1.1L8.2,8H4.8L6,6z"/></g></svg>