<?xml version="1.0" ?><svg id="Exclusive_deal" viewBox="0 0 512 512" xmlns="http://www.w3.org/2000/svg"><path d="M228.2588,453.47l2.04-18.38H90.209a10.0033,10.0033,0,0,1-10-10V88.15a10.0033,10.0033,0,0,1,10-10h211.14a10.0036,10.0036,0,0,1,10,10V246.62a55.7907,55.7907,0,0,1,15.24-9.14V60.61a32.7,32.7,0,0,0-32.7-32.7H97.6689a32.7,32.7,0,0,0-32.7,32.7V453.17a32.7,32.7,0,0,0,32.7,32.7h139.5A45.4386,45.4386,0,0,1,228.2588,453.47Zm-9.6,12.18h-45.76v-12h45.76Z"/><path d="M453.917,454.3008,439.8076,327.4414A20.4882,20.4882,0,0,0,419.4238,309.2H391.39V289.85a44.3651,44.3651,0,0,0-43.5429-44.3064c-24.7925-.4248-45.084,20.2966-45.084,45.0925V309.2H274.7285a20.4883,20.4883,0,0,0-20.3838,18.2422l-14.164,127.35a33.3819,33.3819,0,0,0,33.1777,37.0737h146.94a33.8255,33.8255,0,0,0,33.6182-37.5649ZM314.7627,289.85a32.3513,32.3513,0,0,1,31.7559-32.3081c18.0766-.3076,32.871,14.873,32.871,32.9524V309.2H314.7627ZM436.5635,472.5947a21.8536,21.8536,0,0,1-16.2647,7.271h-146.94a21.3834,21.3834,0,0,1-21.252-23.747l14.1641-127.35a8.5018,8.5018,0,0,1,8.458-7.5689h28.0342V345h12V321.2H379.39V345h12V321.2h28.0342a8.5017,8.5017,0,0,1,8.458,7.5684l14.1094,126.8593A21.8513,21.8513,0,0,1,436.5635,472.5947Z"/><path d="M271.4355,207.5312c5.4034-4.3466,11.5274-9.2734,11.5274-16.6816s-6.124-12.335-11.5274-16.6816c-2.5683-2.0664-6.0859-4.8955-6.6181-6.5352-.5977-1.84.5644-6.18,1.4971-9.667,1.7578-6.5635,3.749-14.0019-.4649-19.792-4.249-5.8379-11.9834-6.2343-18.8076-6.5849-3.3838-.1729-8.0176-.4112-9.5283-1.51-1.4629-1.0654-3.0967-5.3555-4.2891-8.4883-2.4492-6.4316-5.2246-13.7217-12.17-15.9765-6.7168-2.1788-13.1152,1.9755-18.76,5.6406-3.0752,1.9971-6.9023,4.4834-8.9326,4.4834s-5.8574-2.4863-8.9316-4.4834c-5.6436-3.666-12.045-7.8194-18.76-5.6406-6.9453,2.2548-9.7207,9.5449-12.17,15.9765-1.1924,3.1319-2.8252,7.4219-4.2881,8.4863-1.5117,1.1-6.1455,1.3379-9.5293,1.5108-6.8242.3506-14.5586.7471-18.8086,6.585-4.2129,5.79-2.2217,13.2285-.4648,19.7919.9335,3.4864,2.0957,7.8262,1.499,9.6661-.5332,1.64-4.0508,4.47-6.6192,6.5361-5.4043,4.3467-11.5283,9.2744-11.5283,16.6826s6.124,12.335,11.5274,16.6816c2.5683,2.0665,6.0859,4.8956,6.6181,6.5362.5987,1.84-.5635,6.18-1.497,9.667-1.7569,6.5625-3.7481,14.001.4648,19.791,4.249,5.8379,11.9834,6.2344,18.8076,6.585,3.3838.1738,8.0176.4121,9.5293,1.5117,1.4629,1.0644,3.0967,5.3545,4.2891,8.4873.0483.1269.0981.2558.1465.3835l-22.2354,30.3118a10.66,10.66,0,0,0,9.8281,16.9941l11.6133-1.4414,6.3584,11.1572a10.6606,10.6606,0,0,0,19.4346-2.0869l13.2256-42.1611,15.6015,42.33a10.6571,10.6571,0,0,0,8.9785,7.2392,10.4679,10.4679,0,0,0,1.1426.0616,10.6591,10.6591,0,0,0,9.2588-5.3829l6.3594-11.1572,11.6113,1.4414a10.6605,10.6605,0,0,0,9.8291-16.9951L232.65,261.6045c.1934-.5015.3848-1.0012.5728-1.4951,1.1933-3.1328,2.8271-7.4229,4.29-8.4873,1.5117-1.1,6.1455-1.3379,9.5293-1.5108,6.8242-.3506,14.5586-.747,18.8076-6.5849,4.2129-5.79,2.2217-13.2285.4649-19.791-.9336-3.4874-2.0958-7.8272-1.4971-9.668C265.35,212.4277,268.8672,209.5977,271.4355,207.5312ZM168.1162,308.9043l-5.28-9.2676a10.6175,10.6175,0,0,0-10.5752-5.2978l-9.417,1.1689,17.0494-23.2412a13.2857,13.2857,0,0,0,5.7768,3.8184c4.7061,1.5288,9.2525-.0557,13.4946-2.4ZM243.167,295.501l-9.36-1.1621A10.6362,10.6362,0,0,0,223.23,299.64l-5.3731,9.4268-13.8208-37.4978c4.0933,2.6113,8.5391,5.1209,13.1871,5.1209a12.3082,12.3082,0,0,0,3.831-.6045,13.0342,13.0342,0,0,0,5.1177-3.1368Zm20.7471-97.3194c-4.3623,3.51-8.8741,7.1387-10.5108,12.18-1.6943,5.2188-.1621,10.9424,1.3194,16.4776.7363,2.749,2.2666,8.4677,1.4238,9.6269-.8789,1.2071-6.85,1.5137-9.7188,1.6612-5.6933.2919-11.581.5937-15.9756,3.7919-4.3476,3.1641-6.43,8.6319-8.4433,13.92-1.1113,2.9189-3.18,8.3515-4.66,8.832-1.3486.3721-6.1875-2.7764-8.5175-4.29-4.8584-3.1563-9.8838-6.42-15.4688-6.42s-10.61,3.2637-15.4687,6.42c-2.3311,1.5146-7.1788,4.6728-8.5186,4.29-1.48-.4805-3.5479-5.9131-4.6592-8.8311-2.0137-5.288-4.0957-10.7568-8.4433-13.9209-4.3946-3.1982-10.2813-3.5-15.9747-3.7929-2.87-.1475-8.8408-.4531-9.72-1.6612-.8428-1.1591.6875-6.8779,1.4239-9.6269,1.4814-5.5352,3.0136-11.2588,1.3193-16.4766-1.6377-5.042-6.1485-8.6709-10.5108-12.1806-2.6367-2.12-7.0488-5.67-7.0488-7.3311s4.4131-5.2109,7.05-7.332c4.3623-3.51,8.8731-7.1387,10.5108-12.1807,1.6943-5.2178.1621-10.9414-1.32-16.4756-.7354-2.749-2.2676-8.4687-1.4249-9.6269.88-1.208,6.8506-1.5147,9.7207-1.6621,5.6934-.292,11.58-.5938,15.9756-3.792,4.3477-3.1641,6.43-8.6319,8.4424-13.92,1.1113-2.919,3.18-8.3516,4.66-8.8321a.9434.9434,0,0,1,.2529-.0312c1.6133,0,6.0625,2.8906,8.2647,4.3213,4.8593,3.1562,9.8837,6.42,15.4687,6.42s10.61-3.2637,15.4688-6.42c2.332-1.5147,7.1728-4.6739,8.5185-4.29,1.48.48,3.5488,5.9141,4.66,8.833,2.0127,5.2871,4.0947,10.7549,8.4423,13.92,4.3956,3.1983,10.2823,3.5,15.9756,3.792,2.8692.1475,8.84.4541,9.7188,1.6622.8437,1.1582-.6875,6.8789-1.4238,9.6279-1.4815,5.5342-3.0137,11.2568-1.3194,16.4746,1.6377,5.042,6.1485,8.6709,10.5108,12.1807,2.6367,2.12,7.0488,5.67,7.0488,7.331S266.55,196.0605,263.9141,198.1816Z"/><path d="M193.3623,142.6418a48.2083,48.2083,0,1,0,48.209,48.2078A48.2621,48.2621,0,0,0,193.3623,142.6418ZM167.9658,173.35a6.9554,6.9554,0,1,1,6.9551,6.9554A6.9555,6.9555,0,0,1,167.9658,173.35Zm12.0254,36.0784-7.3369-7.55,33.458-32.5173,7.3364,7.55Zm29.8218,4.5256a6.9554,6.9554,0,1,1,6.9556-6.9553A6.9551,6.9551,0,0,1,209.813,213.9543Z"/></svg>