<?xml version="1.0" ?><svg xmlns="http://www.w3.org/2000/svg" xmlns:xlink="http://www.w3.org/1999/xlink" version="1.1" id="design" viewBox="0 0 100 100" style="enable-background:new 0 0 100 100;" xml:space="preserve"><style type="text/css">
	.st0{fill:#48EDE5;}
	.st1{fill:#333333;}
</style><g><path class="st0" d="M41.4,39V26.7c0-1.8-1.4-3.2-3.2-3.2h-16c-1.8,0-3.2,1.4-3.2,3.2v13.4c0,1.8,1.4,3.2,3.2,3.2h15.9h8L41.4,39z"/><g><path class="st1" d="M65.4,46.3c0.1-0.4,0.1-0.7,0.1-1.1v-2.8c2.6-2.4,4.3-6.1,4.3-10.3c0-7.2-5-13.1-11.2-13.1S47.4,24.8,47.4,32    c0,4.2,1.7,7.9,4.3,10.3v2.8c0,0.4,0,0.8,0.1,1.1c-7.5,0.8-15.6,3.3-15.6,7.9v4.4h-16c-0.6,0-1.1,0.5-1.1,1.1V80    c0,0.6,0.5,1.1,1.1,1.1h17.1h7.3h28h7.3c0.6,0,1.1-0.5,1.1-1.1V54.1C81,49.5,72.9,47.1,65.4,46.3z M63.3,45.1    c0,0.5-0.1,1.1-0.3,1.5c0,0-0.1,0.1-0.1,0.1c-0.4,1-1.2,1.8-2.1,2.3c-0.1,0-0.2,0-0.3,0.1c-0.5,0.2-1,0.4-1.5,0.4    c-0.1,0-0.3,0-0.4,0c-0.2,0-0.3,0-0.5,0c-0.5-0.1-1-0.2-1.4-0.4c-0.1-0.1-0.2-0.1-0.3-0.1c-0.9-0.5-1.7-1.3-2.1-2.3    c0-0.1-0.1-0.1-0.1-0.1c-0.2-0.5-0.3-1-0.3-1.5v-1.1c2.9,1.5,6.4,1.5,9.3,0V45.1z M58.6,52c0.5,0,1-0.1,1.4-0.1l2.4,16.1l-3.7,3.5    L55,67.9l2.2-16C57.6,51.9,58.1,52,58.6,52z M49.6,32c0-6,4-10.9,9-10.9c5,0,9,4.9,9,10.9s-4,10.9-9,10.9    C53.6,42.9,49.6,38,49.6,32z M21.3,78.9V60.8h22.2v18.1h-6.2H21.3z M78.8,78.9h-5.1V59.7c0-0.6-0.5-1.1-1.1-1.1s-1.1,0.5-1.1,1.1    v19.2H45.7V59.7c0-0.6-0.5-1.1-1.1-1.1h-6.2v-4.4c0-2.2,5.3-4.8,14.1-5.7c0.6,1.1,1.5,2,2.5,2.6l-2.3,17.1c0,0.4,0.1,0.7,0.3,1    l4.9,4.7c0.2,0.2,0.5,0.3,0.8,0.3s0.6-0.1,0.8-0.3l4.9-4.7c0.3-0.2,0.4-0.6,0.3-1L62.2,51c1.1-0.6,1.9-1.5,2.5-2.6    c8.9,0.9,14.1,3.5,14.1,5.7V78.9z"/><path class="st1" d="M26.3,38.1c0.2,0.2,0.5,0.3,0.8,0.3s0.6-0.1,0.8-0.3c0.4-0.4,0.4-1.1,0-1.6l-3.1-3.1l3.2-3.2    c0.4-0.4,0.4-1.1,0-1.6c-0.4-0.4-1.1-0.4-1.6,0l-3.6,3.6c-0.2,0-0.3,0.1-0.5,0.3c-0.4,0.4-0.4,1.1,0,1.6L26.3,38.1z"/><path class="st1" d="M35.5,33.5l-3.1,3.1c-0.4,0.4-0.4,1.1,0,1.6c0.2,0.2,0.5,0.3,0.8,0.3s0.6-0.1,0.8-0.3l3.9-3.9c0,0,0,0,0,0    s0,0,0,0l0.1-0.1c0.4-0.4,0.4-1.1,0-1.6c-0.1-0.1-0.3-0.2-0.5-0.3l-3.6-3.6c-0.4-0.4-1.1-0.4-1.6,0c-0.4,0.4-0.4,1.1,0,1.6    L35.5,33.5z"/><path class="st1" d="M32.1,66.1c-2.1,0-3.8,1.7-3.8,3.8s1.7,3.8,3.8,3.8s3.8-1.7,3.8-3.8S34.2,66.1,32.1,66.1z M32.1,71.4    c-0.9,0-1.6-0.7-1.6-1.6s0.7-1.6,1.6-1.6s1.6,0.7,1.6,1.6S32.9,71.4,32.1,71.4z"/></g></g></svg>