<?xml version="1.0" ?><svg xmlns="http://www.w3.org/2000/svg" xmlns:xlink="http://www.w3.org/1999/xlink" version="1.1" id="design" viewBox="0 0 100 100" style="enable-background:new 0 0 100 100;" xml:space="preserve"><style type="text/css">
	.st0{fill:#48EDE5;}
	.st1{fill:#333333;}
</style><g><path class="st0" d="M81.7,38.3L76.4,33c-0.2-0.2-0.5-0.3-0.8-0.3h-21c-0.6,0-1.2,0.5-1.2,1.2v10.6c0,0.6,0.5,1.2,1.2,1.2h21   c0.4,0,0.7-0.2,0.9-0.4l5.2-5.2C82.1,39.5,82.1,38.7,81.7,38.3z"/><path class="st1" d="M52.3,18h-1.9c-0.1,0-0.1,0-0.2,0c-1.9,0-3.4,1.5-3.4,3.4v2.7H30.4c-0.4,0-0.7,0.2-0.9,0.4l-5.2,5.2   c-0.5,0.5-0.5,1.2,0,1.6l5.3,5.3c0.2,0.2,0.5,0.3,0.8,0.3h16.5v5.7H24.5c-0.3,0-0.6,0.1-0.8,0.3l-5.3,5.3c-0.5,0.5-0.5,1.2,0,1.6   l5.2,5.2c0.2,0.3,0.5,0.4,0.9,0.4h22.4v25.2c0,0.6,0.5,1.2,1.2,1.2h6.5c0.6,0,1.2-0.5,1.2-1.2V21.4C55.7,19.5,54.2,18,52.3,18z    M30.9,34.7l-4.1-4.1l4.2-4.2h16v8.3H30.9z M25,53.3l-4.2-4.2l4.1-4.1h22v8.3H25z M53.4,79.7h-4.2V54.5V43.9v-8V25.2v-3.9   c0-0.5,0.4-1,0.9-1c0,0,0.1,0,0.1,0h2.1c0.6,0,1,0.5,1,1V79.7z"/></g></svg>