<svg version="1.1" id="svg7952" xmlns="http://www.w3.org/2000/svg" x="0" y="0" viewBox="0 0 170.3 59.9" xml:space="preserve"><style>.mir_st0{fill:#4db45e}</style><g id="g5"><path id="path7" class="mir_st0" d="M47.5 6.8s-6.4 0-8.1 6.1c-1.6 5.6-5.9 21-6.1 21.4h-1.2S27.6 18.6 26 12.9c-1.6-6.1-8-6.1-8-6.1H3.5V53H18V25.6h1.2l8.5 27.5h10.1l8.5-27.4h1.2v27.4H62V6.8H47.5z"/></g><g id="g9"><path id="path11" class="mir_st0" d="M100.6 6.8s-4.3.4-6.3 4.8L84.1 34.3h-1.2V6.8H68.3V53H82s4.5-.4 6.5-4.8l10.1-22.6h1.2v27.5h14.5V6.8h-13.7z"/></g><g id="g13"><path id="path15" class="mir_st0" d="M120.8 27.8V53h14.5V38.3H151c6.9 0 12.7-4.4 14.8-10.5h-45z"/></g><g id="g17"><linearGradient id="path24_1_" gradientUnits="userSpaceOnUse" x1="118.769" y1="43.569" x2="166.84" y2="43.569" gradientTransform="matrix(1 0 0 -1 0 59.89)"><stop offset=".3" stop-color="#00b4e6"/><stop offset="1" stop-color="#088ccb"/></linearGradient><path id="path24" d="M151.1 6.8h-32.3c1.6 8.8 8.2 15.9 16.8 18.2 1.9.5 4 .8 6.1.8h24.9c.2-1 .3-2.1.3-3.2-.1-8.7-7.1-15.8-15.8-15.8z" fill="url(#path24_1_)"/></g></svg>