<?xml version="1.0" ?><!DOCTYPE svg  PUBLIC '-//W3C//DTD SVG 1.1//EN'  'http://www.w3.org/Graphics/SVG/1.1/DTD/svg11.dtd'><svg class="icon" height="91.55px" version="1.1" viewBox="0 0 2237 1024" width="200px" xmlns="http://www.w3.org/2000/svg"><path d="M846.749326 1015.191528c-35.233887 0-44.350656-0.968932-48.006171-1.673609a8.808472 8.808472 0 0 1-7.046778-7.619329c-1.012974-8.324006-5.108914-18.409706-8.808472-18.409706-1.365313 0-8.808472 1.101059-23.870958 22.461603a8.808472 8.808472 0 0 1-7.178905 3.743601 9.689319 9.689319 0 0 1-1.585525 0c-7.927625-1.409355-77.822849-14.269724-92.488954-21.536714a8.808472 8.808472 0 0 1-4.404236-5.285083c0-0.220212-8.015709-24.487552-24.663721-24.487551-6.782523 0-14.75419 3.787643-23.606704 11.274844a8.235921 8.235921 0 0 1-2.906796 1.629567 190.967669 190.967669 0 0 1-51.969984 9.292938 51.133179 51.133179 0 0 1-28.407321-6.826566 288.213198 288.213198 0 0 1-26.425416-21.624798c-9.425065-8.235921-23.430535-20.523739-28.803703-22.02118-4.139982 2.24616-11.01059 11.715268-14.93036 19.510765a8.808472 8.808472 0 0 1-7.531243 4.84466h-0.308296a8.808472 8.808472 0 0 1-7.575286-4.404236c-13.961428-23.210323-32.635388-44.350656-39.1977-44.350656-1.277228 0.836805-2.158076 5.549337-2.598499 7.795498-1.057017 5.769549-3.259135 17.616944-15.106529 17.616943-5.549337 0-11.671225-2.950838-20.611824-9.865488-17.616944-13.565047-31.490287-25.896907-40.739182-34.397083-3.259135 8.808472-9.557192 16.515885-20.787994 16.515885a33.119854 33.119854 0 0 1-17.352689-5.857634 196.428922 196.428922 0 0 1-42.677046-39.197699 22.857984 22.857984 0 0 1-1.585525 2.025948 18.409706 18.409706 0 0 1-14.269725 6.209973 33.296023 33.296023 0 0 1-13.212707-3.038923c-14.00547-5.989761-21.756925-19.995231-27.966898-31.226033a96.89319 96.89319 0 0 0-6.606354-10.790378c-2.818711 7.66337-8.808472 16.119503-19.730977 16.119504-11.671225 0-24.223298-10.349954-39.638123-32.635388a8.808472 8.808472 0 0 1-0.792763-1.409356 30.829651 30.829651 0 0 0-2.510414-4.404236c-0.484466 1.49744-1.012974 3.523389-1.585525 6.209973a8.808472 8.808472 0 0 1-8.808472 7.09082c-9.645277 0-27.350305-7.222947-34.132828-32.635388-1.321271 1.233186-2.069991 2.290203-2.069991 3.038923a8.808472 8.808472 0 0 1-6.033804 8.324005 10.173785 10.173785 0 0 1-3.435304 0.572551c-15.987376 0-20.127358-25.192229-21.536713-38.316852l-1.453398-0.660636a8.808472 8.808472 0 0 1-7.531243 4.404236h-1.365314a8.808472 8.808472 0 0 1-7.443158-8.808472c0-15.370783-2.069991-35.233887-5.41721-40.122589a8.808472 8.808472 0 0 1-1.057017-7.66337 226.686022 226.686022 0 0 0 9.865488-40.210674c-2.862753-6.562312-5.989761-22.241391 13.212708-45.892138a33.824532 33.824532 0 0 1 3.479347-20.964163c5.285083-10.0857 15.50291-17.616944 30.389227-22.02118 6.694439-18.718003 35.233887-85.089838 106.494425-91.564064 48.446595-4.404236 162.340136-18.938214 237.828739-28.539449 52.058068-6.650396 72.0533-9.160811 77.250298-9.557192a32.283049 32.283049 0 0 0 3.038923-2.290203 61.659303 61.659303 0 0 1 41.399817-15.062487c26.425415-10.217827 390.039132-153.575706 514.679009-288.081071a7.971667 7.971667 0 0 1 1.453398-1.277228c29.904762-20.567782 123.847114-84.737499 147.850199-96.14447C1202.259249 35.865631 1228.112114 8.823622 1248.107345 8.823622a22.681815 22.681815 0 0 1 4.404236 0.396382c18.277579 3.655516 89.450031 83.151974 119.178623 117.152675a164.674381 164.674381 0 0 1 13.961428 20.655866C1398.379874 157.20233 1514.475533 246.652362 1616.521679 246.652362a144.370853 144.370853 0 0 0 48.446595-7.795498c8.235921-8.808472 50.164247-52.850831 67.869275-75.752858 13.212708-16.956308 22.417561-31.270075 31.35816-45.099375 6.606354-10.173785 12.816327-19.775019 19.863104-29.200084C1787.18582 84.003929 1819.116531 39.653274 1853.249359 39.653274c17.616944 0 32.018795 11.230802 42.588961 33.384108 5.241041 9.997616 129.924959 247.870397 129.220282 356.963321l24.003086 5.329125a8.808472 8.808472 0 0 1 6.077845 4.888702c6.958693 14.974402 38.625149 84.957711 39.638123 120.147556 9.821446 1.277228 22.990111 4.976787 26.425416 15.855249 9.777404 32.635388 22.902027 63.024616 28.891787 67.076513l0.92489 0.352339c9.645277 4.404236 56.902728 26.117119 63.509082 52.630619 9.469107 12.199733 47.653833 74.87201-60.822498 183.304298-79.628585 79.628585-178.811978 96.320639-248.002524 96.32064a458.833297 458.833297 0 0 1-113.717372-14.357809 8.808472 8.808472 0 0 1-6.209972-6.121888c-4.404236-15.635037-14.18164-33.163896-20.34757-33.163897a4.404236 4.404236 0 0 0-1.893822 0.528509c-12.552072 6.254015-13.212708 34.088786-12.463987 43.337681a8.808472 8.808472 0 0 1-6.650396 9.292938 451.698435 451.698435 0 0 1-99.976156 10.217827c-74.035206 0-141.5081-15.326741-200.524861-45.583841a8.808472 8.808472 0 0 1-4.404236-9.821447s3.127007-14.842275-4.844659-25.456483c-5.41721-7.222947-15.062487-11.318886-28.715618-12.243776-27.658602-1.849779-46.508731-2.686584-58.003787-3.082965a41.091521 41.091521 0 0 1-0.880847 25.676695c-11.186759 31.270075-58.179956 55.096991-139.746406 70.776071a10.173785 10.173785 0 0 1-1.629567 0 8.808472 8.808472 0 0 1-8.191879-5.505295c-2.950838-7.311032-9.865488-17.616944-14.401851-17.616943-2.774669 0-8.279964 4.712532-14.445894 18.013325a8.808472 8.808472 0 0 1-6.033803 4.844659c-4.976787 1.145101-122.569885 27.966898-157.803773 27.966898a8.808472 8.808472 0 0 1-8.103794-5.373168c-1.805737-4.184024-8.808472-16.207588-17.616944-16.207588-6.3421 0-14.401851 6.3421-22.59373 17.881198a8.808472 8.808472 0 0 1-6.958693 3.655516c-0.528508 0.132127-59.060804 1.629567-102.794866 1.629567z" fill="#BBC0BA"/><path d="M1248.107345 17.632094a12.243776 12.243776 0 0 1 2.554457 0.264254c17.308647 3.435304 114.289922 114.24588 114.289921 114.24588a177.446665 177.446665 0 0 1 13.741216 20.787993S1504.34579 255.460833 1616.521679 255.460833a151.5938 151.5938 0 0 0 53.071042-8.808471s49.767866-51.969984 69.895224-77.954976c23.298408-30.080931 35.233887-52.850831 51.309349-74.431587 0 0 31.666456-45.671926 62.36398-45.671926 12.419945 0 24.663721 7.443159 34.617295 28.363279 0 0 135.077915 256.282488 128.119222 360.178413l31.18199 6.91465s45.011291 96.89319 38.096641 124.683919c0 0 24.223298 0 27.702644 10.393997 0 0 20.787994 69.234589 34.617294 72.713934 0 0 55.405288 24.26734 58.884634 48.446596 0 0 55.405288 58.884634-58.884634 173.130513-73.022231 73.066274-164.454169 93.766183-241.748509 93.766183a450.641418 450.641418 0 0 1-111.471211-14.093555s-11.318886-39.638123-28.803703-39.638123a12.596115 12.596115 0 0 0-5.813591 1.453397c-20.787994 10.393997-17.352689 51.969984-17.35269 51.969984a444.827827 444.827827 0 0 1-97.818079 9.953573c-55.361245 0-127.194333-9.072726-196.517007-44.614909 0 0 10.393997-45.011291-41.575987-48.446595s-72.713935-3.435304-72.713935-3.435304 51.925941 62.319938-128.119222 96.89319c0 0-9.248895-23.078196-22.59373-23.078197-6.650396 0-14.357809 5.769549-22.461604 23.078197 0 0-121.204572 27.702644-155.821866 27.702644 0 0-9.248895-21.536714-25.632653-21.536714-8.235921 0-18.233537 5.373168-29.772635 21.536714 0 0-58.488253 1.541483-102.618697 1.541482a384.886176 384.886176 0 0 1-46.288519-1.541482s-3.082965-26.161161-17.616944-26.161162c-7.178905 0-17.220562 6.562312-31.049863 26.161162 0 0-76.193281-13.829301-90.066624-20.743952 0 0-9.557192-30.829651-33.03177-30.829651-8.059752 0-17.616944 3.611473-29.288168 13.212708a185.814713 185.814713 0 0 1-49.195316 8.808472 43.11747 43.11747 0 0 1-23.518619-5.373168c-19.819062-13.212708-49.019146-45.275545-60.734414-45.275545a5.064871 5.064871 0 0 0-1.629567 0.264254c-10.349954 3.479346-20.743951 24.223298-20.743951 24.223297s-29.200084-48.446595-46.772985-48.446595a7.575286 7.575286 0 0 0-1.717652 0c-13.212708 2.598499-6.298057 25.324356-15.987377 25.324357-3.082965 0-7.751455-2.24616-15.194614-8.01571a609.942631 609.942631 0 0 1-51.925941-45.055333s0 25.324356-15.018444 25.324356a24.619679 24.619679 0 0 1-12.6842-4.404235c-27.702644-17.308647-51.969984-51.925941-51.969984-51.925942s2.466372 19.642892-11.230801 19.642892a25.060102 25.060102 0 0 1-9.557192-2.334245c-21.052248-8.808472-26.425415-44.042359-38.801319-44.042359a10.129743 10.129743 0 0 0-6.209972 2.598499s-2.466372 14.974402-12.728242 14.974402c-6.782523 0-17.044393-6.650396-32.283049-28.803702 0 0-5.725507-12.904411-11.671225-12.904412-3.259135 0-6.650396 4.007855-9.116769 16.339716 0 0-24.223298 0-27.702644-38.052599 0 0-17.308647 6.91465-17.308647 17.308647a2.290203 2.290203 0 0 1-0.660635 0c-2.378287 0-10.26187-2.510414-13.212708-34.749421a23.694789 23.694789 0 0 0-11.274844-4.404236 5.945718 5.945718 0 0 0-6.033803 4.404236s0-34.617294-6.91465-45.011291c0 0 10.393997-31.137948 10.393996-45.011291 0 0-10.393997-13.873343 13.829301-41.575987 0 0-10.349954-27.702644 31.18199-38.096641 0 0 24.26734-83.107932 100.416579-90.022582s308.296514-38.096641 315.167122-38.09664 13.829301-17.308647 45.011291-17.308647c0 0 387.881057-148.907216 519.699838-290.899782 0 0 135.166-92.97342 148.995301-96.452767v-0.528508S1230.446359 17.632094 1248.107345 17.632094m0-17.616943c-22.373518 0-48.138299 25.412441-57.563364 35.630268-24.619679 12.463988-91.784276 57.69549-147.277649 95.836174a18.057367 18.057367 0 0 0-2.950838 2.554456c-121.424784 131.026018-474.512377 271.433059-510.010518 285.306403a69.807139 69.807139 0 0 0-45.099376 16.956308l-0.792762 0.616593c-7.178905 0.74872-25.060102 2.99488-74.872011 9.381022C334.096266 455.89761 220.378895 470.387546 171.9323 474.791782c-71.568834 6.518269-102.882951 69.102461-112.352058 93.369801a54.260186 54.260186 0 0 0-31.490287 25.01606 42.104495 42.104495 0 0 0-4.712533 22.373519c-17.616944 23.166281-16.163546 40.386843-13.212707 49.679781a236.859807 236.859807 0 0 1-9.248896 36.334946 17.616944 17.616944 0 0 0 1.893822 15.150571c2.158076 4.404236 4.095939 21.008205 4.095939 35.233888a17.616944 17.616944 0 0 0 14.798233 17.352689 15.67908 15.67908 0 0 0 2.862753 0.220212h1.981906c4.404236 23.122239 14.137597 34.837506 28.495407 34.837506a19.59885 19.59885 0 0 0 6.254015-1.012974 19.819062 19.819062 0 0 0 3.259134-1.453398 43.645978 43.645978 0 0 0 36.158777 23.122239 17.616944 17.616944 0 0 0 11.274844-4.051898c15.150572 20.259485 28.231152 29.420296 41.796199 29.420296a26.953924 26.953924 0 0 0 19.554807-8.147836c6.430184 11.539098 15.282699 26.425415 31.270075 33.340066a41.796199 41.796199 0 0 0 16.471843 3.7436 27.966898 27.966898 0 0 0 15.194613-4.404236 190.483203 190.483203 0 0 0 38.669192 33.912617 41.223648 41.223648 0 0 0 22.021179 7.222947 28.18711 28.18711 0 0 0 23.078196-11.406971c8.808472 7.751455 19.995231 17.264605 33.075812 27.394347 10.570166 8.235921 18.321621 11.75931 25.984992 11.75931a22.417561 22.417561 0 0 0 20.435655-13.212708 36.070692 36.070692 0 0 0 2.422329-7.266989 196.869345 196.869345 0 0 1 26.425416 35.013676 17.616944 17.616944 0 0 0 15.106529 8.544217h0.660635a17.616944 17.616944 0 0 0 15.062487-9.733361 76.105197 76.105197 0 0 1 8.279964-12.6842c5.901676 4.095939 15.150572 12.155691 21.756925 17.925241a292.661476 292.661476 0 0 0 27.570517 22.329476 58.708465 58.708465 0 0 0 33.296023 8.324006 202.594852 202.594852 0 0 0 54.788695-9.733362 17.000351 17.000351 0 0 0 5.769549-3.259134c9.469107-8.015709 15.282699-9.204853 17.92524-9.204853 8.808472 0 15.282699 15.326741 16.251631 18.321621a17.308647 17.308647 0 0 0 8.808472 10.482081c14.93036 7.487201 76.281366 19.026299 94.735114 22.373519a19.334596 19.334596 0 0 0 3.17105 0.308296 17.616944 17.616944 0 0 0 14.401851-7.487201 83.680482 83.680482 0 0 1 14.401852-16.648011 40.034504 40.034504 0 0 1 2.202118 8.808471 17.616944 17.616944 0 0 0 14.00547 15.150572c4.404236 0.880847 14.00547 1.849779 49.767866 1.849779 44.042359 0 102.48657-1.49744 103.05912-1.541483a17.616944 17.616944 0 0 0 13.873343-7.355074c8.324006-11.627183 13.961428-14.18164 15.414826-14.181639 2.202118 0 7.178905 5.769549 9.51315 11.01059a17.616944 17.616944 0 0 0 16.163545 10.526123c35.586226 0 147.145522-25.236272 159.741637-28.143067a17.616944 17.616944 0 0 0 12.067606-9.689319 54.788695 54.788695 0 0 1 6.606354-11.274844 45.275545 45.275545 0 0 1 6.077846 10.349954 17.616944 17.616944 0 0 0 16.339715 11.054633 17.220562 17.220562 0 0 0 3.347219-0.308297c86.014727-16.515885 133.888772-41.531945 146.35276-76.413493a50.340416 50.340416 0 0 0 2.950838-19.466723c11.318886 0.484466 26.777754 1.321271 47.081282 2.686584 10.878463 0.704678 18.365664 3.611473 22.021179 8.808472a26.425415 26.425415 0 0 1 3.303177 18.497791 17.352689 17.352689 0 0 0 9.160811 19.42268c60.29399 30.829651 129.132197 46.552774 204.532715 46.552774a462.841152 462.841152 0 0 0 102.178274-10.482082 17.616944 17.616944 0 0 0 13.212707-18.585875c-0.92489-11.891437 1.277228-27.086051 5.505295-32.811558a81.566449 81.566449 0 0 1 11.93548 25.280314 17.616944 17.616944 0 0 0 12.50803 12.199734 464.823058 464.823058 0 0 0 115.919489 14.666105c70.864156 0 172.469878-17.17652 254.212497-98.919138 109.136966-109.136966 74.87201-176.169436 62.672277-193.389999-8.808472-28.539449-52.850831-50.076162-67.516937-56.594432-5.681464-6.738481-17.220562-34.793464-25.368399-61.879514v-0.528508c-4.139982-12.375903-16.075461-17.969283-26.821797-20.479697-4.404236-37.436005-30.477313-96.452766-39.638123-116.403956a17.616944 17.616944 0 0 0-12.155691-9.777403l-16.868223-4.007855c-4.404236-113.409075-122.878182-340.227224-130.145172-353.96844-15.062487-31.490287-35.674311-38.008556-50.340416-38.008556-38.27281 0-72.0533 46.420647-76.633705 52.850831-7.134862 9.557192-13.212708 19.202469-20.039273 29.420296-8.808472 13.697174-18.013325 27.834771-30.829652 44.482782-16.603969 21.448629-55.008907 62.143769-65.799284 73.55074A137.41216 137.41216 0 0 1 1616.521679 237.84389c-96.584894 0-206.999088-83.284101-224.39582-96.89319a168.77032 168.77032 0 0 0-13.873343-20.34757c-0.264254-0.264254-24.751806-28.275195-51.089137-56.286135C1270.480863 3.890878 1261.011756 1.997057 1254.097106 0.587701a30.036889 30.036889 0 0 0-5.989761-0.57255z"/><path d="M724.267525 826.646189a8.808472 8.808472 0 0 1-6.870608-3.259135l-169.695209-211.403324a8.808472 8.808472 0 0 1-1.849779-6.650396 8.808472 8.808472 0 0 1 3.479346-5.945718c2.290203-1.67361 232.05919-171.324777 435.446805-236.771723l37.832386-12.375903c90.903429-29.948804 176.786029-58.179956 273.591135-58.179956 126.225401 0 247.606143 49.2834 382.023423 155.117189a8.808472 8.808472 0 0 1-1.761695 14.930359l-559.33796 256.987166-1.321271 0.484466-389.422539 106.626551a8.808472 8.808472 0 0 1-2.114034 0.440424z" fill="#E9E8E3"/><path d="M1296.201601 301.000633c108.960796 0 229.020267 37.215793 376.606213 153.223367l-559.117749 256.987166-389.42254 106.626551-169.695209-211.403324s228.579844-169.69521 432.892347-235.494494c102.134231-32.899642 199.820183-70.115436 308.736938-70.115436m0-17.616943c-98.258503 0-188.853636 29.816677-276.409846 58.62038-12.552072 4.139982-25.148187 8.279964-37.788344 12.33186-204.708885 66.063539-428.532154 231.134301-438.001261 238.137036a17.616944 17.616944 0 0 0-3.215093 25.148187l169.69521 211.403324a17.616944 17.616944 0 0 0 13.741216 6.562311 16.692054 16.692054 0 0 0 4.624448-0.616593l389.422539-106.626551a20.34757 20.34757 0 0 0 2.730626-1.012974l559.337961-256.943124a17.616944 17.616944 0 0 0 3.523389-29.860719c-136.09089-107.111017-259.189283-157.01101-387.57276-157.01101zM315.598475 556.5344h-0.924889c-165.863524-17.616944-172.469878-24.26734-174.980293-26.777754-5.769549-5.769549-4.404236-15.370783 4.756575-36.731327a8.808472 8.808472 0 0 1 5.461252-4.932745 110.105898 110.105898 0 0 1 22.902027-4.404236c48.446595-4.404236 162.340136-18.938214 237.828739-28.539448 52.058068-6.650396 72.0533-9.160811 77.250298-9.557192a32.283049 32.283049 0 0 0 3.038923-2.290203 61.659303 61.659303 0 0 1 41.399817-15.062487l7.134863-2.774668a8.324006 8.324006 0 0 1 3.215092-0.616593 8.808472 8.808472 0 0 1 6.16593 15.106529 26.425415 26.425415 0 0 1-7.795498 5.152956 64.03759 64.03759 0 0 0-19.158426 11.230801 8.808472 8.808472 0 0 1-0.352339 4.404236 8.808472 8.808472 0 0 1-7.311031 5.813592c-1.849779 0-183.172172 20.832036-216.644365 30.829651-2.114033 0.616593-4.66849 1.717652-5.020829 3.347219-1.629567 7.443159 14.00547 27.306263 29.067957 40.474928a8.808472 8.808472 0 0 1 2.290203 10.129743 8.808472 8.808472 0 0 1-8.324006 5.196998z"/><path d="M542.460667 433.524091a17.969283 17.969283 0 0 1-5.196998 3.391262c-31.18199 13.829301-24.26734 20.787994-24.26734 20.787993s-183.52451 20.787994-218.141805 31.181991 20.743951 58.884634 20.743951 58.884634-162.736517-17.308647-169.69521-24.223298c-2.730626-2.774669 1.057017-14.18164 6.606354-26.997966a104.072095 104.072095 0 0 1 21.09629-4.404236c76.193281-6.91465 308.296514-38.096641 315.167122-38.09664s13.829301-17.308647 45.011291-17.308647l8.808472-3.391262m0-17.616944a20.743951 20.743951 0 0 0-2.334245 0 18.806087 18.806087 0 0 0-4.404236 1.233186l-5.285083 2.069991a69.851182 69.851182 0 0 0-45.143418 16.956308l-0.792763 0.616593c-7.178905 0.74872-25.060102 2.99488-74.87201 9.381023-75.664773 9.909531-189.382144 24.399467-237.828739 28.803703a120.852233 120.852233 0 0 0-24.707764 4.844659 17.616944 17.616944 0 0 0-10.966547 9.821446c-7.83954 18.145452-14.00547 35.233887-2.862753 46.508732 5.152956 5.152956 8.58826 8.808472 97.685952 19.730977 41.26769 5.152956 82.183042 9.51315 82.579423 9.557191h1.849779a17.616944 17.616944 0 0 0 11.627183-30.829651 119.222666 119.222666 0 0 1-24.927975-29.420296c31.974753-8.324006 163.397152-24.26734 212.680552-29.860719a17.616944 17.616944 0 0 0 14.666106-11.671225 15.723122 15.723122 0 0 0 0.74872-3.082966 88.877481 88.877481 0 0 1 14.00547-7.443158 33.868574 33.868574 0 0 0 9.997616-6.518269 17.616944 17.616944 0 0 0 5.681464-12.948454 17.616944 17.616944 0 0 0-16.692054-17.616944z m0 35.233888z"/><path d="M658.468241 843.998878a11.935479 11.935479 0 0 1-1.761694 0C468.425461 805.19756 110.272997 732.043201 93.492858 729.708956c-4.095939 0-10.129743-1.981906-71.87713-50.648713a8.808472 8.808472 0 0 1-3.215092-8.456133c0.440424-2.598499 0.74872-4.800617 0.880847-6.562311-2.862753-6.562312-5.945718-22.285434 13.212708-45.892138a33.824532 33.824532 0 0 1 3.479346-20.964163c5.285083-10.0857 15.50291-17.616944 30.389228-22.02118 5.813591-16.119503 28.054983-67.95736 80.289221-85.970685a9.557192 9.557192 0 0 1 2.906795-0.484466 8.808472 8.808472 0 0 1 7.531244 4.404236c8.544218 14.137597 30.036889 22.857984 62.231853 25.236272 45.36363 3.347219 165.819482 12.287818 277.114524 44.835122 141.948523 41.575987 221.180727 106.494424 235.450452 192.993617a8.808472 8.808472 0 0 1-1.893822 7.046778L665.206722 840.827828a8.808472 8.808472 0 0 1-6.738481 3.17105z" fill="#C8C8C8"/><path d="M149.514739 497.693809c8.059752 13.212708 26.909881 26.425415 69.146504 29.464338 93.501928 6.958693 472.222174 34.969633 504.505223 230.473665l-64.698225 77.778806s-557.576266-114.510134-564.490917-114.510133c-4.404236 0-40.034504-27.570517-66.900343-48.798934a62.452065 62.452065 0 0 0 1.101059-10.085701S17.784043 648.142507 42.00734 620.439863c0 0-10.349954-27.702644 31.181991-38.09664 0 0 19.026299-65.138649 76.325408-84.869626m0-17.616944a17.616944 17.616944 0 0 0-5.769549 0.968932C91.907333 498.706783 67.728078 547.461674 59.580242 568.161583a54.260186 54.260186 0 0 0-31.490287 25.01606 42.104495 42.104495 0 0 0-4.712533 22.373519 65.446946 65.446946 0 0 0-14.930359 35.233887A37.347921 37.347921 0 0 0 10.296842 665.054773c0 1.012974-0.308297 2.24616-0.572551 3.831685a17.616944 17.616944 0 0 0 6.430185 16.912266C78.95888 735.522548 86.093742 738.341259 92.656053 738.473386c22.02118 3.567431 346.525282 69.763097 562.156672 113.937583a16.383758 16.383758 0 0 0 3.567431 0.396381 17.616944 17.616944 0 0 0 13.521004-6.386142l64.698226-77.734764a17.616944 17.616944 0 0 0 3.831685-14.137597c-14.842275-90.110667-96.188512-157.407391-241.660424-199.996353-112.219931-32.811558-233.424503-41.796199-278.876218-45.18746-28.847745-2.114033-48.446595-9.557192-55.405288-21.008206a17.616944 17.616944 0 0 0-14.974402-8.279963zM1278.364445 802.422891a8.808472 8.808472 0 0 1-3.611473-0.792762l-232.015148-103.851883a8.808472 8.808472 0 0 1-5.196998-8.412091 8.808472 8.808472 0 0 1 5.813591-7.927624l806.944104-287.464478a8.456133 8.456133 0 0 1 2.950838-0.484466 8.808472 8.808472 0 0 1 7.134862 13.917385l-205.54569 287.420436a8.808472 8.808472 0 0 1-4.756575 3.391262l-369.339223 103.851882a8.808472 8.808472 0 0 1-2.378288 0.352339z"/><path d="M1853.249359 402.298059l-205.54569 287.420435-369.339224 103.895925-232.015147-103.895925 806.900061-287.420435m0-17.616944a17.616944 17.616944 0 0 0-5.945719 1.012974l-806.900061 287.420436a17.616944 17.616944 0 0 0-1.277228 32.67943l232.015148 103.895926a17.881198 17.881198 0 0 0 7.222946 1.541482 17.616944 17.616944 0 0 0 4.756575-0.660635l369.339224-103.895925a17.616944 17.616944 0 0 0 9.557192-6.694439L1867.563126 412.515886a17.616944 17.616944 0 0 0-14.313767-27.834771z m0 35.233887zM1975.55499 278.318818a8.456133 8.456133 0 0 1-3.963812-0.92489L1810.308059 196.884496a8.808472 8.808472 0 0 1-4.404236-10.834421c1.012974-2.906796 25.500526-71.260537 35.85048-95.439792 4.932744-11.495056 16.780139-22.637773 35.233888-33.031769a8.808472 8.808472 0 0 1 4.404235-1.145101 8.808472 8.808472 0 0 1 7.222947 3.7436 96.496809 96.496809 0 0 1 7.355074 12.772284 2105.224766 2105.224766 0 0 1 88.084719 193.434042 8.808472 8.808472 0 0 1-2.290203 9.645276 8.808472 8.808472 0 0 1-6.209973 2.290203z"/><path d="M1881.260299 65.241884a80.949856 80.949856 0 0 1 6.606354 11.495056 2072.765547 2072.765547 0 0 1 87.688337 192.773406l-161.459288-80.509432s25.280314-70.467775 35.674311-94.955327c4.976787-11.539098 18.585876-21.536714 31.490286-28.803703m0-17.616943a17.616944 17.616944 0 0 0-8.808471 2.24616c-20.1714 11.406971-33.296023 23.959043-39.021531 37.259836-10.482081 24.443509-35.013675 93.017462-36.070692 95.924258a17.616944 17.616944 0 0 0 8.808472 21.712883l161.459289 80.509433a17.264605 17.264605 0 0 0 7.883582 1.849779 17.616944 17.616944 0 0 0 16.4278-23.915001 2120.99193 2120.99193 0 0 0-88.348973-194.358931 104.204222 104.204222 0 0 0-7.927624-13.741216 17.616944 17.616944 0 0 0-14.445894-7.487201z"/><path d="M1870.558006 397.233187a8.808472 8.808472 0 0 1-4.932744-1.49744L1695.797925 281.445825a8.808472 8.808472 0 0 1 4.404236-16.075461c38.801318-2.598499 88.084718-70.467775 103.851883-96.232554a8.808472 8.808472 0 0 1 5.901676-4.09594 51.793814 51.793814 0 0 1 8.808472-0.74872c42.104495 0 109.885686 49.327442 159.301213 90.72726a9.204853 9.204853 0 0 1 2.554457 3.523389c10.482081 26.821797 19.246511 51.70573 26.073076 74.035205a8.808472 8.808472 0 0 1-5.020829 10.702294l-127.722841 53.291254a9.116768 9.116768 0 0 1-3.391262 0.660635z" fill="#E9E8E3"/><path d="M1819.116531 173.101622c41.708114 0 114.730345 56.065923 153.619748 88.657269 9.645277 24.663721 18.629918 49.591696 25.896907 73.418612l-127.722841 53.247213-170.047549-114.289922c51.925941-3.435304 110.810576-100.416579 110.810576-100.416579a38.052598 38.052598 0 0 1 7.443159-0.616593m0-17.616944a57.255067 57.255067 0 0 0-10.482082 0.92489 17.616944 17.616944 0 0 0-11.803352 8.147836c-20.964163 34.485167-65.843327 89.934497-96.89319 92.004488a17.616944 17.616944 0 0 0-8.808472 32.194965l169.69521 114.510134a17.616944 17.616944 0 0 0 9.865488 2.99488 17.616944 17.616944 0 0 0 6.782523-1.365313l127.722842-53.247212a17.616944 17.616944 0 0 0 10.0857-21.404587c-6.870608-22.549688-15.723122-47.653833-26.425415-74.87201a17.616944 17.616944 0 0 0-5.108914-7.09082C1933.318368 205.957222 1863.643356 155.484678 1819.116531 155.484678z"/><path d="M1745.874087 709.097132a7.971667 7.971667 0 0 1-1.761694 0l-117.769268-24.26734a8.808472 8.808472 0 0 1-6.870608-10.173785c16.736096-92.136615 113.805456-188.193 171.7652-245.580194 15.546953-15.370783 27.878813-27.526474 34.35304-35.498141 22.02118-26.997966 102.090188-58.840592 165.335017-80.773687a7.971667 7.971667 0 0 1 2.862753-0.484466 8.808472 8.808472 0 0 1 3.91977 0.92489 8.808472 8.808472 0 0 1 4.404236 5.152956c15.326741 46.993197 22.990111 84.56133 22.813942 111.867592l24.003086 5.329125a8.808472 8.808472 0 0 1 6.121887 4.888702l3.611474 8.103794a8.808472 8.808472 0 0 1-0.74872 8.544218l-34.749422 50.912967a8.059752 8.059752 0 0 1-2.114033 2.114033l-270.111788 197.397854a8.544218 8.544218 0 0 1-5.064872 1.541482z" fill="#C8C8C8"/><path d="M1993.832569 320.775652c14.622063 44.747037 24.135213 86.587278 22.02118 116.139701l31.18199 6.91465 3.611474 7.971667-34.793464 50.912968-269.979662 197.574023-117.725225-24.223298C1648.892813 561.599272 1801.499587 436.915353 1832.329238 398.818712c22.02118-26.777754 110.678448-60.426117 161.371204-78.04306m0-17.616944a17.616944 17.616944 0 0 0-5.769549 0.968932c-93.501928 32.459219-150.448699 60.558244-169.254786 83.680483-6.16593 7.575286-18.938214 20.1714-33.736447 34.793463-58.708465 58.135914-157.01101 155.381443-174.275615 250.248685a17.616944 17.616944 0 0 0 13.785258 20.391612l117.725226 24.26734a19.59885 19.59885 0 0 0 3.567431 0.352339 17.616944 17.616944 0 0 0 10.393997-3.391262l270.111789-197.397853a18.321621 18.321621 0 0 0 4.184024-4.404236l34.749421-50.912967a17.616944 17.616944 0 0 0 1.541483-17.088436c-2.290203-5.152956-3.699558-8.235921-3.699559-8.235921a17.616944 17.616944 0 0 0-12.155691-9.777404l-17.088435-3.831685c-0.968932-27.526474-8.808472-62.892489-23.166281-107.507399a17.616944 17.616944 0 0 0-16.780139-12.155691z"/><path d="M807.375457 719.31496a8.808472 8.808472 0 0 1-6.694439-3.127008l-148.42275-174.804123a8.808472 8.808472 0 0 1 1.981906-13.212708c22.637773-14.445894 45.451715-28.451364 67.781191-41.620029a9.116768 9.116768 0 0 1 4.404236-1.189144 8.808472 8.808472 0 0 1 6.91465 3.303177l69.278631 86.587278-33.163896-107.771653a8.808472 8.808472 0 0 1 4.184024-10.305912c30.036889-16.515885 59.54527-31.622414 87.732379-44.923206a8.808472 8.808472 0 0 1 9.733362 1.453398l72.757977 66.548004-32.679431-80.773686a8.808472 8.808472 0 0 1 4.800618-11.451014c23.826916-9.821446 46.949155-18.365664 68.750122-25.368398 12.728242-4.095939 25.368399-8.279964 37.964514-12.419946l5.681464-1.893821a9.557192 9.557192 0 0 1 2.730626-0.440424 8.808472 8.808472 0 0 1 5.725507 2.114033c21.09629 17.881198 48.446595 41.44386 70.027351 60.073778l-34.220913-65.226734a8.808472 8.808472 0 0 1 5.152956-12.50803 1009.450871 1009.450871 0 0 1 120.499895-30.829651 6.386142 6.386142 0 0 1 1.541482 0 8.808472 8.808472 0 0 1 5.285083 1.761694c169.51904 126.57774 257.691843 204.973139 261.963952 232.98408a8.808472 8.808472 0 0 1-6.386142 9.821446l-76.193281 20.787994a8.191879 8.191879 0 0 1-2.290203 0.308296 8.808472 8.808472 0 0 1-6.254015-2.598499c-33.516235-33.516235-117.681184-113.541202-166.436075-144.943404l90.374921 165.687355a8.808472 8.808472 0 0 1-5.769549 12.816327l-90.022582 20.743951a7.619328 7.619328 0 0 1-1.981906 0 8.808472 8.808472 0 0 1-6.033803-2.378288l-153.135283-144.458937 77.250298 183.128129a8.808472 8.808472 0 0 1-4.932744 11.627183l-79.628586 31.137947a8.191879 8.191879 0 0 1-3.215092 0.616593A8.808472 8.808472 0 0 1 1026.354067 695.884425l-143.93043-149.744021 34.000701 110.105897a8.808472 8.808472 0 0 1-4.404236 10.438039l-100.416578 51.925942a8.368048 8.368048 0 0 1-4.228067 0.704678z" fill="#ACB0B3"/><path d="M1199.880961 310.073359c79.672628 59.501227 253.243565 192.597236 258.572691 227.258573l-76.193281 20.787993s-145.339785-145.339785-193.786381-159.301213l103.895926 190.483204-90.022582 20.787993-183.70068-173.174556 93.501928 221.621151-79.672628 31.18199-169.695209-176.60986 45.011291 145.339785-100.416579 51.969984-148.42275-174.804123c20.435655-13.212708 43.161512-27.086051 67.516936-41.44386l98.214461 122.746055-46.772985-152.034224c28.01094-15.370783 57.255067-30.565397 87.291956-44.658952l101.297426 92.797251L919.375176 396.396383c22.7699-9.381022 45.583842-17.92524 68.089487-25.148187q22.02118-7.09082 43.690021-14.313767c41.091521 34.837506 105.217196 90.507048 105.217196 90.507048l-55.889754-106.582509a991.789885 991.789885 0 0 1 119.398835-30.829652m0-17.616943a19.290553 19.290553 0 0 0-3.127007 0.308296 1006.455991 1006.455991 0 0 0-121.512869 31.314118 17.616944 17.616944 0 0 0-10.349954 24.972017l12.728242 24.26734c-12.243776-10.526124-24.443509-20.964163-35.233888-29.948804a17.616944 17.616944 0 0 0-11.406971-4.184024 18.189494 18.189494 0 0 0-5.505295 0.880847l-5.373167 1.805737c-12.684199 4.139982-25.412441 8.368048-38.228768 12.463987-22.02118 7.09082-45.36363 15.723122-69.366716 25.676696a17.616944 17.616944 0 0 0-9.469107 22.902026l18.10141 44.747037-44.042359-40.298758a17.616944 17.616944 0 0 0-11.891437-4.404236 17.616944 17.616944 0 0 0-7.531244 1.673609c-28.363279 13.212708-58.047829 28.583491-88.084718 45.143418a17.616944 17.616944 0 0 0-8.324006 20.655867l19.554807 63.553124-40.739182-50.692755a17.616944 17.616944 0 0 0-13.785258-6.606354 17.837155 17.837155 0 0 0-8.808472 2.42233c-22.417561 13.212708-45.319588 27.26222-68.045445 41.796198a17.616944 17.616944 0 0 0-3.963812 26.425416l148.42275 174.804123a17.616944 17.616944 0 0 0 13.43292 6.209973 17.881198 17.881198 0 0 0 8.103794-1.981906l100.416579-51.925942a17.616944 17.616944 0 0 0 8.808471-20.876078l-23.034153-74.387544 118.209691 122.966266a17.616944 17.616944 0 0 0 12.6842 5.41721 18.233537 18.233537 0 0 0 6.430184-1.189143l79.628586-31.181991a17.616944 17.616944 0 0 0 9.821446-23.254365l-60.998668-144.591065 122.746055 115.74332a17.220562 17.220562 0 0 0 16.031419 4.404236l90.022582-20.787994a17.616944 17.616944 0 0 0 12.111649-9.909531 17.616944 17.616944 0 0 0-0.572551-15.67908l-71.745003-131.598569a1736.370008 1736.370008 0 0 1 133.888772 121.116488 17.616944 17.616944 0 0 0 12.463987 5.152956 18.541833 18.541833 0 0 0 4.624448-0.616593l76.193281-20.787994a17.616944 17.616944 0 0 0 12.772284-19.686934c-2.202118-14.445894-16.736096-39.638123-107.507398-115.126727-53.291255-44.482783-115.302896-91.740234-157.891858-123.318605a17.616944 17.616944 0 0 0-10.570166-3.523389z"/><path d="M545.895971 514.826286m-13.080581 0a13.080581 13.080581 0 1 0 26.161162 0 13.080581 13.080581 0 1 0-26.161162 0Z"/><path d="M545.895971 506.193984a8.808472 8.808472 0 1 1-8.808472 8.808472 8.808472 8.808472 0 0 1 8.808472-8.808472m0-8.808472a17.616944 17.616944 0 1 0 17.616944 17.616944 17.616944 17.616944 0 0 0-17.616944-17.616944z"/><path d="M944.171024 320.907779m-13.08058 0a13.080581 13.080581 0 1 0 26.161161 0 13.080581 13.080581 0 1 0-26.161161 0Z"/><path d="M944.171024 312.231434a8.808472 8.808472 0 1 1-8.808471 8.808472 8.808472 8.808472 0 0 1 8.808471-8.808472m0-8.808471a17.616944 17.616944 0 1 0 17.616944 17.616943 17.616944 17.616944 0 0 0-17.616944-17.616943z"/><path d="M1068.854943 255.108495m-13.080581 0a13.080581 13.080581 0 1 0 26.161162 0 13.080581 13.080581 0 1 0-26.161162 0Z"/><path d="M1068.854943 246.652362a8.808472 8.808472 0 1 1-8.808472 8.808471 8.808472 8.808472 0 0 1 8.808472-8.808471m0-8.808472a17.616944 17.616944 0 1 0 17.616944 17.616943 17.616944 17.616944 0 0 0-17.616944-17.616943z"/><path d="M819.487106 393.621714m-13.080581 0a13.080581 13.080581 0 1 0 26.161161 0 13.080581 13.080581 0 1 0-26.161161 0Z"/><path d="M819.354979 384.945369a8.808472 8.808472 0 1 1-8.808472 8.808472 8.808472 8.808472 0 0 1 8.808472-8.808472m0-8.808472a17.616944 17.616944 0 1 0 17.616943 17.616944 17.616944 17.616944 0 0 0-17.616943-17.616944zM680.973886 469.022233a13.212708 13.212708 0 1 1 13.212708-13.212708 13.212708 13.212708 0 0 1-13.212708 13.212708z"/><path d="M680.973886 447.30935a8.808472 8.808472 0 1 1-8.808471 8.808472 8.808472 8.808472 0 0 1 8.808471-8.808472m0-8.808472a17.616944 17.616944 0 1 0 17.616944 17.616944 17.616944 17.616944 0 0 0-17.616944-17.616944z"/><path d="M846.749326 1015.191528c-35.233887 0-44.350656-0.968932-48.006171-1.673609a8.808472 8.808472 0 0 1-7.046778-7.619329c-1.012974-8.324006-5.108914-18.409706-8.808472-18.409706-1.365313 0-8.808472 1.101059-23.870958 22.461603a8.808472 8.808472 0 0 1-7.178905 3.743601 9.689319 9.689319 0 0 1-1.585525 0c-7.927625-1.409355-77.822849-14.269724-92.488954-21.536714a8.808472 8.808472 0 0 1-4.404236-5.285083c0-0.220212-8.015709-24.487552-24.663721-24.487551-6.782523 0-14.75419 3.787643-23.606704 11.274844a8.235921 8.235921 0 0 1-2.906796 1.629567 190.967669 190.967669 0 0 1-51.969984 9.292938 51.133179 51.133179 0 0 1-28.407321-6.826566 288.213198 288.213198 0 0 1-26.425416-21.624798c-9.425065-8.235921-23.430535-20.523739-28.803703-22.02118-4.139982 2.24616-11.01059 11.715268-14.93036 19.510765a8.808472 8.808472 0 0 1-7.531243 4.84466h-0.308296a8.808472 8.808472 0 0 1-7.575286-4.404236c-13.961428-23.210323-32.635388-44.350656-39.1977-44.350656-1.277228 0.836805-2.158076 5.549337-2.598499 7.795498-1.057017 5.769549-3.259135 17.616944-15.106529 17.616943-5.549337 0-11.715268-2.950838-20.611824-9.865488-17.616944-13.565047-31.490287-25.94095-40.739182-34.397083-5.41721 14.842275-16.207588 16.515885-20.787994 16.515885a33.119854 33.119854 0 0 1-17.352689-5.857634 196.428922 196.428922 0 0 1-42.677046-39.197699 22.857984 22.857984 0 0 1-1.585525 2.025948 18.409706 18.409706 0 0 1-14.269725 6.209973 33.296023 33.296023 0 0 1-13.212707-3.038923c-14.00547-5.989761-21.756925-19.995231-27.966898-31.226033a104.160179 104.160179 0 0 0-6.562312-10.790378c-2.862753 7.66337-8.808472 16.119503-19.775019 16.119504-11.671225 0-24.223298-10.349954-39.638123-32.635388a8.808472 8.808472 0 0 1-0.792763-1.409356 30.829651 30.829651 0 0 0-2.510414-4.404236c-0.484466 1.49744-1.012974 3.523389-1.585525 6.209973a8.808472 8.808472 0 0 1-8.808472 7.09082c-9.645277 0-27.350305-7.222947-34.132828-32.635388-1.321271 1.233186-2.069991 2.290203-2.069991 3.038923a8.808472 8.808472 0 0 1-6.033804 8.324005 9.953573 9.953573 0 0 1-3.435304 0.572551c-15.987376 0-20.127358-25.192229-21.536713-38.316852l-1.453398-0.660636a8.808472 8.808472 0 0 1-7.531243 4.404236h-1.365314a8.808472 8.808472 0 0 1-7.443158-8.808472c0-15.370783-2.069991-35.233887-5.41721-40.122589a8.808472 8.808472 0 0 1-1.057017-7.66337 226.686022 226.686022 0 0 0 9.865488-40.210674c-2.862753-6.562312-5.989761-22.241391 13.212708-45.892138a34.308998 34.308998 0 0 1 3.347219-19.863104c4.404236-9.953573 13.917385-17.616944 27.570517-22.329476a8.808472 8.808472 0 0 1 2.950838-0.484466 8.808472 8.808472 0 0 1 8.500176 11.098674c-13.829301 51.089137-14.93036 67.384809-14.666106 72.273511 29.640508 10.922505 295.392103 66.503962 436.503821 72.229469a234.525562 234.525562 0 0 1 147.497861 59.325058c9.116768-3.038923 36.423031-14.269724 93.061505-52.850831a519.083245 519.083245 0 0 0 47.169366-38.052598c40.386843-35.233887 82.139-71.700961 143.313837-71.700961 27.614559 0 56.550389 7.355074 88.393015 22.505646 79.936882 37.964514 151.725927 55.229118 199.247632 66.680131 32.8556 7.927625 54.524441 13.212708 65.7112 21.360545 70.776071-23.34245 181.146223-60.734413 190.527246-66.724174l3.171049-2.069991c24.047128-15.943334 54.260186-34.220913 74.387545-34.220913a29.288169 29.288169 0 0 1 4.888702 0.396381c3.479346 0.572551 10.349954 1.805737 19.554807 3.523389 39.638123 7.266989 133.051967 24.355425 163.441195 24.355424h3.215092c20.435655-12.331861 218.80244-133.404306 276.277719-229.768987a8.808472 8.808472 0 0 1 7.531243-4.404236 9.601234 9.601234 0 0 1 1.937864 0l23.694789 5.285083a8.808472 8.808472 0 0 1 6.077846 4.888702c6.958693 14.974402 38.625149 84.957711 39.638123 120.147555 9.821446 1.277228 22.990111 4.976787 26.425416 15.85525 9.777404 32.635388 22.902027 63.024616 28.891787 67.076513l0.92489 0.352339c9.645277 4.404236 56.902728 26.117119 63.509082 52.630619 9.469107 12.199733 47.653833 74.87201-60.822498 183.304298-79.628585 79.584543-178.811978 96.320639-248.002525 96.32064a458.833297 458.833297 0 0 1-113.717371-14.357809 8.808472 8.808472 0 0 1-6.209972-6.121888c-4.404236-15.635037-14.18164-33.163896-20.34757-33.163897a4.404236 4.404236 0 0 0-1.893822 0.528509c-12.596115 6.298057-13.212708 34.088786-12.463987 43.337681a8.808472 8.808472 0 0 1-6.650397 9.292938 451.698435 451.698435 0 0 1-99.976155 10.217827c-74.035206 0-141.5081-15.326741-200.524861-45.583842a8.808472 8.808472 0 0 1-4.404236-9.821446s3.127007-14.842275-4.844659-25.456483c-5.41721-7.222947-15.062487-11.318886-28.715618-12.243776-27.658602-1.849779-46.508731-2.686584-58.003787-3.082965a41.091521 41.091521 0 0 1-0.880848 25.676695c-11.186759 31.270075-58.179956 55.096991-139.746405 70.776071a10.173785 10.173785 0 0 1-1.629567 0 8.808472 8.808472 0 0 1-8.191879-5.505295c-2.950838-7.311032-9.865488-17.616944-14.401852-17.616943-2.774669 0-8.279964 4.712532-14.445893 18.013325a8.808472 8.808472 0 0 1-6.033804 4.844659c-4.976787 1.145101-122.569885 27.966898-157.803772 27.966898a8.808472 8.808472 0 0 1-8.103794-5.373168c-1.805737-4.184024-8.808472-16.207588-17.616944-16.207588-6.3421 0-14.401851 6.3421-22.59373 17.881198a8.808472 8.808472 0 0 1-6.958693 3.655516c-0.74872 0.396381-59.281015 1.893821-103.015078 1.893821z" fill="#FFFFFF"/><path d="M2023.429035 438.588963l23.738831 5.24104s45.011291 96.89319 38.096641 124.683919c0 0 24.223298 0 27.702644 10.393997 0 0 20.787994 69.234589 34.617294 72.713935 0 0 55.405288 24.26734 58.884634 48.446595 0 0 55.405288 58.884634-58.884634 173.130513-73.022231 73.066274-164.454169 93.766183-241.748509 93.766183a450.641418 450.641418 0 0 1-111.471211-14.093555s-11.318886-39.638123-28.803703-39.638123a12.596115 12.596115 0 0 0-5.813591 1.453398c-20.787994 10.393997-17.352689 51.969984-17.35269 51.969983a444.827827 444.827827 0 0 1-97.862122 9.953574c-55.317203 0-127.150291-9.072726-196.472964-44.61491 0 0 10.393997-45.011291-41.575987-48.446595s-72.713935-3.435304-72.713935-3.435304 51.925941 62.319938-128.119222 96.89319c0 0-9.248895-23.078196-22.593731-23.078196-6.650396 0-14.357809 5.769549-22.461603 23.078196 0 0-121.204572 27.702644-155.821866 27.702644 0 0-9.248895-21.536714-25.632653-21.536714-8.235921 0-18.233537 5.41721-29.772635 21.536714 0 0-58.488253 1.541483-102.618697 1.541482a384.886176 384.886176 0 0 1-46.288519-1.541482s-3.082965-26.161161-17.616944-26.161162c-7.178905 0-17.220562 6.562312-31.049863 26.161162 0 0-76.193281-13.829301-90.066625-20.743951 0 0-9.557192-30.829651-33.031769-30.829652-8.059752 0-17.616944 3.611473-29.288169 13.212708a185.814713 185.814713 0 0 1-49.195315 8.808472 43.11747 43.11747 0 0 1-23.51862-5.373168c-19.819062-13.212708-49.019146-45.275545-60.734413-45.275545a5.064871 5.064871 0 0 0-1.629567 0.264254c-10.349954 3.479346-20.743951 24.223298-20.743951 24.223297s-29.200084-48.446595-46.772986-48.446595a7.355074 7.355074 0 0 0-1.717652 0c-13.212708 2.598499-6.298057 25.324356-15.987376 25.324357-3.082965 0-7.751455-2.24616-15.194614-8.015709a609.942631 609.942631 0 0 1-51.925941-45.055334s0 25.324356-15.018445 25.324357a24.619679 24.619679 0 0 1-12.684199-4.404236c-27.702644-17.308647-51.969984-51.925941-51.969984-51.925942s2.466372 19.642892-11.230801 19.642893a25.060102 25.060102 0 0 1-9.557192-2.334246c-21.052248-8.808472-26.425415-44.042359-38.801319-44.042359a10.129743 10.129743 0 0 0-6.209972 2.5985s-2.466372 14.974402-12.728242 14.974402c-6.782523 0-17.044393-6.650396-32.283049-28.803703 0 0-5.725507-12.904411-11.671226-12.904411-3.259135 0-6.650396 4.007855-9.116768 16.383757 0 0-24.223298 0-27.702644-38.09664 0 0-17.308647 6.91465-17.308647 17.308647a2.290203 2.290203 0 0 1-0.660635 0c-2.378287 0-10.26187-2.510414-13.212708-34.749422a23.694789 23.694789 0 0 0-11.274844-4.404236 5.945718 5.945718 0 0 0-6.033803 4.404236s0-34.617294-6.914651-45.011291c0 0 10.393997-31.137948 10.393997-45.011291 0 0-10.393997-13.873343 13.829301-41.575987 0 0-8.808472-24.179255 23.694789-35.806438-9.733361 35.894523-18.806087 75.356476-13.212708 80.861772 8.808472 8.808472 301.778245 68.970334 443.286345 74.87201A224.924328 224.924328 0 0 1 638.781306 798.459079l2.290203 2.069991s24.223298-3.435304 100.416579-55.405288c58.444211-39.858335 104.644645-108.212076 185.506416-108.212076 24.575636 0 52.366365 6.298057 84.605372 21.624798 138.513219 65.799285 249.367837 69.278631 266.676485 90.066624 0 0 183.744722-60.426117 197.397853-69.27863 9.909531-6.430184 50.824882-34.881548 72.757978-34.881549a21.712883 21.712883 0 0 1 3.435304 0.264254c19.554807 3.259135 146.528929 28.01094 184.4494 28.010941a54.832737 54.832737 0 0 0 5.98976-0.308297s218.846482-129.616663 281.034294-233.820884m0-17.616944a17.616944 17.616944 0 0 0-15.106529 8.808472c-54.920822 92.048531-242.893611 208.276316-271.300932 225.540921h-0.616593c-29.596465 0-122.305631-17.000351-161.85567-24.223298l-19.686935-3.567431a42.544919 42.544919 0 0 0-6.342099-0.484466c-22.329476 0-52.586577 18.057367-79.276247 35.674311l-2.906796 1.937864c-10.83442 5.945718-101.297426 37.039624-184.581527 64.478014-12.948454-7.66337-33.648362-12.640157-64.962479-20.171401-47.169367-11.362929-118.429904-28.539449-197.529981-66.063538-33.075812-15.67908-63.200785-23.34245-92.180658-23.342451-64.478014 0-107.507399 37.568132-149.127428 73.859036a507.456062 507.456062 0 0 1-46.288519 37.436006c-48.446595 33.119854-74.87201 45.583842-86.234939 50.120204a243.598288 243.598288 0 0 0-149.039343-58.091871c-134.064941-5.41721-379.689178-55.933796-427.739392-69.763097 0.880847-8.235921 3.91977-26.205204 14.049512-63.641209a17.616944 17.616944 0 0 0-17.00035-22.241391 17.220562 17.220562 0 0 0-5.901676 1.057016c-15.943334 5.681464-26.909881 14.710148-32.591346 26.909882a42.324707 42.324707 0 0 0-3.875728 20.611824C5.848564 638.629358 7.213877 655.893963 10.340884 665.054773a236.859807 236.859807 0 0 1-9.248895 36.334946 17.616944 17.616944 0 0 0 1.893821 15.150572c2.158076 4.404236 4.095939 21.052248 4.09594 35.233887a17.616944 17.616944 0 0 0 14.798232 17.396732 15.67908 15.67908 0 0 0 2.862754 0.220212 14.93036 14.93036 0 0 0 1.981906 0c4.404236 23.122239 14.137597 34.837506 28.495406 34.837506a19.59885 19.59885 0 0 0 6.254015-1.012974 19.819062 19.819062 0 0 0 3.259135-1.453398 43.734063 43.734063 0 0 0 36.158776 23.166281 17.616944 17.616944 0 0 0 11.274844-4.09594c15.150572 20.259485 28.231152 29.420296 41.796199 29.420296a26.953924 26.953924 0 0 0 19.554808-8.147836c6.430184 11.539098 15.282699 26.425415 31.270075 33.340066a41.796199 41.796199 0 0 0 16.471842 3.7436 27.966898 27.966898 0 0 0 15.194614-4.404236 190.483203 190.483203 0 0 0 38.669191 33.912617 41.223648 41.223648 0 0 0 22.02118 7.222947 28.671576 28.671576 0 0 0 23.078196-11.406971c8.808472 7.751455 19.995231 17.264605 33.075812 27.394347 10.570166 8.235921 18.321621 11.75931 25.984991 11.75931a22.417561 22.417561 0 0 0 20.435655-13.212708 36.070692 36.070692 0 0 0 2.42233-7.266989 194.799354 194.799354 0 0 1 26.425415 35.013675 17.616944 17.616944 0 0 0 15.106529 8.544218h0.660636a17.616944 17.616944 0 0 0 15.062487-9.733361 76.105197 76.105197 0 0 1 8.279963-12.6842c5.901676 4.095939 15.150572 12.155691 21.756926 17.925241a292.661476 292.661476 0 0 0 27.570516 22.329476 58.708465 58.708465 0 0 0 33.296024 8.324005 202.594852 202.594852 0 0 0 54.788695-9.733361 17.000351 17.000351 0 0 0 5.769549-3.259134c9.469107-8.015709 15.282699-9.204853 17.92524-9.204854 8.500175 0 15.018444 14.533979 16.25163 18.409707a17.308647 17.308647 0 0 0 8.808472 10.393996c14.93036 7.487201 76.281366 19.026299 94.735115 22.373519a19.334596 19.334596 0 0 0 3.171049 0.308296 17.616944 17.616944 0 0 0 14.401852-7.487201 83.680482 83.680482 0 0 1 14.401851-16.648012 38.625149 38.625149 0 0 1 2.158076 8.544218 17.616944 17.616944 0 0 0 14.049512 15.238656c4.404236 0.880847 14.00547 1.849779 49.767866 1.849779 44.042359 0 102.48657-1.49744 103.059121-1.541482a17.616944 17.616944 0 0 0 13.873343-7.355074c8.324006-11.627183 13.961428-14.18164 15.458868-14.18164 2.158076 0 7.134862 5.769549 9.469107 11.01059a17.616944 17.616944 0 0 0 16.163546 10.526124c35.586226 0 147.145522-25.236272 159.741636-28.143068a17.616944 17.616944 0 0 0 12.067607-9.689319 54.788695 54.788695 0 0 1 6.606354-11.274843 47.213409 47.213409 0 0 1 6.121887 10.393996 17.616944 17.616944 0 0 0 16.339716 11.01059 16.780139 16.780139 0 0 0 3.303177-0.308296c86.014727-16.515885 133.888772-41.531945 146.352759-76.413494a50.340416 50.340416 0 0 0 2.950838-19.466722c11.318886 0.484466 26.777754 1.321271 47.081282 2.686584 10.878463 0.704678 18.365664 3.611473 22.02118 8.808471a26.425415 26.425415 0 0 1 3.303176 18.497791 17.352689 17.352689 0 0 0 9.160811 19.422681c60.29399 30.829651 129.132197 46.552774 204.532716 46.552773a462.444771 462.444771 0 0 0 102.178273-10.482081 17.616944 17.616944 0 0 0 13.212708-18.585876c-0.92489-11.891437 1.277228-27.130093 5.549337-32.811557a84.164948 84.164948 0 0 1 11.935479 25.280314 17.616944 17.616944 0 0 0 12.463988 12.199733 464.823058 464.823058 0 0 0 115.919489 14.666106c70.864156 0 172.469878-17.17652 254.212497-98.919139 109.136966-109.136966 74.87201-176.169436 62.672277-193.389999-8.808472-28.539449-52.850831-50.076162-67.516937-56.594431-5.681464-6.738481-17.220562-34.793464-25.368398-61.879515v-0.528508c-4.139982-12.375903-16.075461-17.969283-26.821797-20.479697-4.404236-37.436005-30.477313-96.452766-39.638123-116.403955a17.616944 17.616944 0 0 0-12.155691-9.777404l-23.738832-5.285083a18.938214 18.938214 0 0 0-3.831685-0.440423z"/><path d="M2085.264507 568.513922s-128.119223 187.003857-571.405567 169.69521c0 0-20.787994-3.479346-27.702644 38.09664s-27.702644 103.895925-27.702644 103.895925S1946.839372 997.926923 2206.689291 700.288661" fill="#FFFFFF"/><path d="M945.360168 900.813522a721.105546 721.105546 0 0 1-195.988498-26.073077 8.808472 8.808472 0 0 1-6.033803-10.129743c20.655866-103.323374 145.824251-160.093975 183.52451-160.093975a25.456484 25.456484 0 0 1 7.795498 1.057017c30.345185 9.425065 280.814082 106.846763 291.472333 110.986745a8.808472 8.808472 0 0 1 1.145101 15.899291c-80.377305 45.36363-175.244547 68.353741-281.871098 68.353742z" fill="#FFFFFF"/><path d="M926.862377 713.501368a19.070341 19.070341 0 0 1 5.196999 0.616593c30.389228 9.469107 290.67957 110.854618 290.67957 110.854618-92.797251 52.366365-193.301914 67.252682-277.466863 67.252683a718.330877 718.330877 0 0 1-193.389998-25.720738c19.554807-97.862122 141.287888-153.003156 174.892208-153.003156m0-17.616943c-39.638123 0-170.576057 59.281015-192.156813 167.360964a17.616944 17.616944 0 0 0 12.023564 20.259485 729.253382 729.253382 0 0 0 198.631039 26.425416c108.212076 0 204.532716-23.430535 286.275335-69.542885a17.616944 17.616944 0 0 0-2.246161-31.754541c-10.658251-4.139982-261.435444-101.693807-292.044883-111.206957a34.749421 34.749421 0 0 0-10.438039-1.453398zM1011.511792 225.467987a8.808472 8.808472 0 0 1-6.430185-2.774669c-1.409355-1.541483-34.793464-37.52409-43.425766-73.903078a8.808472 8.808472 0 1 1 17.132478-4.09594c7.531243 31.798583 38.845361 65.623115 39.153657 66.063539a8.808472 8.808472 0 0 1-6.430184 14.842275z"/><path d="M1021.245153 197.104708c-16.515885 0-49.635739-1.67361-74.387545-13.873344a8.808472 8.808472 0 0 1 7.795498-15.855249c29.332211 14.445894 75.312434 11.891437 75.7969 11.847395a8.808472 8.808472 0 0 1 1.057017 17.616943c-0.74872 0.044042-4.360194 0.264254-10.26187 0.264255zM954.256725 265.10611a8.808472 8.808472 0 0 1-6.430185-2.774669c-1.409355-1.541483-34.793464-37.52409-43.425766-73.903078a8.808472 8.808472 0 1 1 17.132478-4.09594c7.531243 31.798583 38.845361 65.623115 39.153657 66.063539a8.808472 8.808472 0 0 1-6.430184 14.842275z"/><path d="M963.990086 236.742831c-16.515885 0-49.635739-1.67361-74.387544-13.873343a8.808472 8.808472 0 0 1 7.795497-15.85525c29.332211 14.445894 75.312434 11.891437 75.7969 11.847395a8.808472 8.808472 0 0 1 1.057017 17.616944c-0.74872 0.044042-4.360194 0.264254-10.26187 0.264254zM892.597422 309.148469a8.808472 8.808472 0 0 1-6.430184-2.774668c-1.409355-1.541483-34.793464-37.52409-43.425767-73.903079a8.808472 8.808472 0 1 1 17.132478-4.095939c7.531243 31.798583 38.845361 65.623115 39.153657 66.063538a8.808472 8.808472 0 0 1-6.430184 14.842275z"/><path d="M902.330783 280.78519c-16.515885 0-49.635739-1.67361-74.387544-13.873343a8.808472 8.808472 0 0 1 7.795497-15.855249c29.332211 14.445894 75.312434 11.891437 75.7969 11.847394a8.808472 8.808472 0 0 1 1.057017 17.616944c-0.74872 0.044042-4.360194 0.264254-10.26187 0.264254zM830.938119 344.382356a8.808472 8.808472 0 0 1-6.430184-2.774668c-1.409355-1.541483-34.793464-37.52409-43.425766-73.903079a8.808472 8.808472 0 1 1 17.132477-4.095939c7.531243 31.798583 38.845361 65.623115 39.153658 66.063539a8.808472 8.808472 0 0 1-6.430185 14.842275z"/><path d="M840.671481 316.019077c-16.515885 0-49.635739-1.67361-74.387545-13.873343a8.808472 8.808472 0 0 1 7.795498-15.855249c29.332211 14.445894 75.312434 11.891437 75.7969 11.847394a8.808472 8.808472 0 0 1 1.057016 17.616944c-0.74872 0.044042-4.360194 0.264254-10.261869 0.264254zM760.470345 379.616244a8.808472 8.808472 0 0 1-6.430185-2.774669c-1.409355-1.541483-34.793464-37.52409-43.425766-73.903078a8.808472 8.808472 0 0 1 17.132478-4.09594c7.531243 31.798583 38.845361 65.623115 39.153657 66.063539a8.808472 8.808472 0 0 1-6.430184 14.842275z"/><path d="M770.203706 351.252965c-16.515885 0-49.635739-1.67361-74.387545-13.873344a8.808472 8.808472 0 0 1 7.795498-15.855249c29.332211 14.445894 75.312434 11.891437 75.7969 11.847395a8.808472 8.808472 0 0 1 1.057017 17.616943c-0.74872 0.044042-4.360194 0.264254-10.26187 0.264255zM694.406806 410.445895a8.808472 8.808472 0 0 1-6.430185-2.774668c-1.409355-1.541483-34.793464-37.52409-43.425766-73.903079a8.808472 8.808472 0 0 1 17.132478-4.095939c7.531243 31.798583 38.845361 65.623115 39.153657 66.063538a8.808472 8.808472 0 0 1-6.430184 14.842275z"/><path d="M704.140167 382.082616c-16.515885 0-49.635739-1.67361-74.387544-13.873343a8.808472 8.808472 0 0 1 7.795497-15.85525c29.332211 14.445894 75.312434 11.891437 75.7969 11.847395a8.808472 8.808472 0 0 1 1.057017 17.616944c-0.74872 0.044042-4.360194 0.264254-10.26187 0.264254zM615.13056 445.679782a8.808472 8.808472 0 0 1-6.430185-2.774668c-1.409355-1.541483-34.793464-37.52409-43.425766-73.903079a8.808472 8.808472 0 0 1 17.132478-4.095939c7.531243 31.798583 38.845361 65.623115 39.153657 66.063539a8.808472 8.808472 0 0 1-6.430184 14.842275z"/><path d="M624.863921 417.316503c-16.515885 0-49.635739-1.67361-74.387545-13.873343a8.808472 8.808472 0 0 1 7.795498-15.855249c29.332211 14.445894 75.312434 11.891437 75.7969 11.847394a8.808472 8.808472 0 0 1 1.057017 17.616944c-0.74872 0.044042-4.360194 0.264254-10.26187 0.264254zM1075.681509 156.541695a141.860439 141.860439 0 0 1-19.951189-1.365313l-3.699558-0.528509a8.808472 8.808472 0 0 1-3.655516-15.987376c38.228768-26.425415 124.816046-85.221965 147.718073-96.056385 6.16593-6.782523 32.018795-33.780489 52.014026-33.78049a22.681815 22.681815 0 0 1 4.404236 0.396382c4.404236 0.92489 11.539098 4.404236 31.666456 23.650746a8.808472 8.808472 0 0 1 0 12.6842c-51.661687 50.604671-129.74879 110.986745-208.452486 110.986745z"/><path d="M1248.107345 17.632094a12.243776 12.243776 0 0 1 2.554457 0.264254c4.404236 0.880847 14.798233 9.381022 27.306262 21.360545-46.684901 45.760011-124.816046 108.476331-202.286555 108.47633a134.285153 134.285153 0 0 1-18.762045-1.277228l-3.567431-0.528509c2.378287-1.629567 135.166-92.929378 148.907216-96.364681v-0.528509S1230.446359 17.632094 1248.107345 17.632094m0-17.616943c-22.329476 0-48.094256 25.412441-57.519321 35.586226-19.642892 9.953573-68.970334 42.060453-147.189564 95.792131a17.616944 17.616944 0 0 0 7.311031 31.974753h0.880847l2.906796 0.396381a153.26741 153.26741 0 0 0 21.184375 1.453398c81.654534 0 161.767585-61.659303 214.618416-113.541202a17.616944 17.616944 0 0 0 0-25.280314c-20.611824-19.730977-29.067957-24.531594-36.02665-25.94095a30.036889 30.036889 0 0 0-6.16593-0.440423z"/></svg>