<?xml version="1.0" ?><svg style="enable-background:new 0 0 128 128;" version="1.1" viewBox="0 0 128 128" xml:space="preserve" xmlns="http://www.w3.org/2000/svg" xmlns:xlink="http://www.w3.org/1999/xlink"><style type="text/css">
	.st0{fill:none;stroke:#000000;stroke-width:8;stroke-miterlimit:10;}
	.st1{display:none;}
	.st2{display:inline;opacity:0.25;fill:#F45EFD;}
</style><g id="_x31_2_3D_Printing"/><g id="_x31_1_VR_Gear"/><g id="_x31_0_Virtual_reality"/><g id="_x39__Augmented_reality"/><g id="_x38__Teleport"/><g id="_x37__Glassess"><g><path d="M101.9,32H88v8h10.1l9.6,12H28.3l9.6-12H48v-8H34.1L16,54.6V64H8v20h8v8c0,4.4,3.6,8,8,8h39.1l3.8-15.1    C67,84.3,67.5,84,68,84c0.5,0,1,0.3,1.1,0.9l3.8,15.1H112c4.4,0,8-3.6,8-8V54.6L101.9,32z M16,72h22c1.1,0,2,0.9,2,2s-0.9,2-2,2    H16V72z M79.1,92l-2.3-9.1c-1-4.1-4.7-6.9-8.9-6.9c-4.2,0-7.8,2.8-8.9,6.9L56.9,92H24v-8h14c5.5,0,10-4.5,10-10s-4.5-10-10-10H24    v-4h88v32H79.1z"/><path d="M84,84h8c0-6.6,5.4-12,12-12v-8C93,64,84,73,84,84z"/><path d="M96,84h8l0-8C99.6,76,96,79.6,96,84z"/></g></g><g id="_x36__Folding_phone"/><g id="_x35__Drone"/><g id="_x34__Retina_scan"/><g id="_x33__Smartwatch"/><g id="_x32__Bionic_Arm"/><g id="_x31__Chip"/><g class="st1" id="Guide"><path class="st2" d="M120,8v112H8V8H120 M128,0H0v128h128V0L128,0z"/></g></svg>