<?xml version="1.0" ?><svg id="object" viewBox="0 0 32 32" xmlns="http://www.w3.org/2000/svg"><defs><style>.cls-1{fill:#798bc6;}.cls-2{fill:#667dba;}.cls-3{fill:#ff9797;}.cls-4{fill:#e47979;}.cls-5{fill:#ffc661;}.cls-6{fill:#e49f4e;}.cls-7{fill:#d6b5b0;}.cls-8{fill:#bf9e99;}</style></defs><title/><rect class="cls-1" height="11.97" rx="0.98" ry="0.98" width="5.97" x="13.02" y="5.02"/><path class="cls-2" d="M18,5H15.83a1,1,0,0,1,1,1V16a1,1,0,0,1-1,1H18a1,1,0,0,0,1-1V6A1,1,0,0,0,18,5Z"/><path class="cls-3" d="M16,9A13,13,0,0,0,3,22v4a1,1,0,0,0,1,1H28a1,1,0,0,0,1-1V22A13,13,0,0,0,16,9Z"/><path class="cls-4" d="M16,9A12.93,12.93,0,0,0,6.7,13,13,13,0,0,1,27.23,23.5V27H28a1,1,0,0,0,1-1V22A13,13,0,0,0,16,9Z"/><rect class="cls-5" height="5.97" rx="0.98" ry="0.98" width="11.97" x="10.02" y="1"/><path class="cls-6" d="M21,1h-.64V4.78a1,1,0,0,1-1,1H10V6a1,1,0,0,0,1,1H21a1,1,0,0,0,1-1V2A1,1,0,0,0,21,1Z"/><path class="cls-7" d="M30,25H2a1,1,0,0,0-1,1v4a1,1,0,0,0,1,1H30a1,1,0,0,0,1-1V26A1,1,0,0,0,30,25Z"/><path class="cls-8" d="M30,25h-.6v3.68a1,1,0,0,1-1,1H1V30a1,1,0,0,0,1,1H30a1,1,0,0,0,1-1V26A1,1,0,0,0,30,25Z"/></svg>