<?xml version="1.0" ?><svg id="object" viewBox="0 0 32 32" xmlns="http://www.w3.org/2000/svg"><defs><style>.cls-1{fill:#c9c1f5;}.cls-2{fill:#eef5fd;}.cls-3{fill:#d7e2f2;}.cls-4{fill:#afbdd6;}.cls-5{fill:#ff9797;}.cls-6{fill:#e47979;}.cls-7{fill:#ffd599;}.cls-8{fill:#e4ab7b;}</style></defs><title/><rect class="cls-1" height="9" rx="1" ry="1" width="5" x="13.5" y="8"/><path class="cls-2" d="M28.75,19.34A1,1,0,0,0,28,19H4a1,1,0,0,0-.75.34,1,1,0,0,0-.24.79A12.89,12.89,0,0,0,16,31,12.89,12.89,0,0,0,29,20.13,1,1,0,0,0,28.75,19.34Z"/><path class="cls-3" d="M28.75,19.34a1,1,0,0,0-.69-.33A12.9,12.9,0,0,1,15.13,29.59,13.32,13.32,0,0,1,4.32,24.17,13.2,13.2,0,0,0,16,31,12.89,12.89,0,0,0,29,20.13,1,1,0,0,0,28.75,19.34Z"/><path class="cls-4" d="M18.5,11V9a1,1,0,0,0-1-1h-3a1,1,0,0,0-1,1v2Z"/><path class="cls-5" d="M16,1a4,4,0,0,0-4,4V9a1,1,0,0,0,1,1h6a1,1,0,0,0,1-1V5A4,4,0,0,0,16,1Z"/><path class="cls-6" d="M16,1a4,4,0,0,0-2.3.73A4,4,0,0,1,19,5.5v4a1,1,0,0,1-.15.5H19a1,1,0,0,0,1-1V5A4,4,0,0,0,16,1Z"/><path class="cls-5" d="M8,11a3,3,0,0,0-3,3v2a1,1,0,0,0,1,1h4a1,1,0,0,0,1-1V14A3,3,0,0,0,8,11Z"/><path class="cls-5" d="M8,11a3,3,0,0,0-3,3v2a1,1,0,0,0,1,1h4a1,1,0,0,0,1-1V14A3,3,0,0,0,8,11Z"/><path class="cls-6" d="M8,11a2.94,2.94,0,0,0-1.91.71,2.93,2.93,0,0,1,1.08-.21,3,3,0,0,1,3,3v2A1.08,1.08,0,0,1,10,17a1,1,0,0,0,1-1V14A3,3,0,0,0,8,11Z"/><path class="cls-5" d="M24,11a3,3,0,0,0-3,3v2a1,1,0,0,0,1,1h4a1,1,0,0,0,1-1V14A3,3,0,0,0,24,11Z"/><path class="cls-6" d="M24,11a2.94,2.94,0,0,0-1.91.71,2.93,2.93,0,0,1,1.08-.21,3,3,0,0,1,3,3v2A1.08,1.08,0,0,1,26,17a1,1,0,0,0,1-1V14A3,3,0,0,0,24,11Z"/><rect class="cls-7" height="6" rx="1" ry="1" width="30" x="1" y="15"/><path class="cls-8" d="M30,15H2a1,1,0,0,0-1,1v.22H28.78a1,1,0,0,1,1,1V21H30a1,1,0,0,0,1-1V16A1,1,0,0,0,30,15Z"/></svg>