<?xml version="1.0" ?><svg id="object" viewBox="0 0 32 32" xmlns="http://www.w3.org/2000/svg"><defs><style>.cls-1{fill:#ffd599;}.cls-2{fill:#e4ab7b;}.cls-3{fill:#eef5fd;}.cls-4{fill:#d7e2f2;}.cls-5{fill:#ff9797;}.cls-6{fill:#e47979;}</style></defs><title/><path class="cls-1" d="M27,1.86A1,1,0,0,0,26,1H6a1,1,0,0,0-1,.86l-4,28a1,1,0,0,0,.23.8A1,1,0,0,0,2,31H7a1,1,0,0,0,1-.76L8.78,27H23.22L24,30.24A1,1,0,0,0,25,31h5a1,1,0,0,0,.76-.34,1,1,0,0,0,.23-.8Z"/><path class="cls-2" d="M27,1.86A1,1,0,0,0,26,1H6a1,1,0,0,0-1,.86l-.1.72H24.33a1,1,0,0,1,1,.86L29.26,31H30a1,1,0,0,0,.76-.34,1,1,0,0,0,.23-.8Z"/><circle class="cls-2" cx="16.34" cy="14.4" r="7"/><circle class="cls-3" cx="16" cy="14" r="7"/><path class="cls-4" d="M23,14a7,7,0,0,0-1.49-4.31,7,7,0,0,0-10.67,9A7,7,0,0,0,23,14Zm-11.66.4a5,5,0,0,1,5-5,4.94,4.94,0,0,1,2.76.84l-6.92,6.92A4.94,4.94,0,0,1,11.34,14.4Zm9.17-2.75a5,5,0,0,1-6.92,6.92Z"/><path class="cls-5" d="M16,7a7,7,0,1,0,7,7A7,7,0,0,0,16,7Zm0,2a5,5,0,0,1,2.75.83l-6.92,6.92A5,5,0,0,1,16,9Zm0,10a5,5,0,0,1-2.75-.83l6.92-6.92A5,5,0,0,1,16,19Z"/><path class="cls-6" d="M19.25,7.81A7,7,0,0,1,12,19.74,7,7,0,1,0,19.25,7.81Z"/></svg>