<?xml version="1.0" ?><svg id="object" viewBox="0 0 32 32" xmlns="http://www.w3.org/2000/svg"><defs><style>.cls-1{fill:#d6b5b0;}.cls-2{fill:#bf9e99;}.cls-3{fill:#798bc6;}.cls-4{fill:#667dba;}.cls-5{fill:#c9c1f5;}.cls-6{fill:#afbdd6;}.cls-7{fill:#ffd599;}.cls-8{fill:#e4ab7b;}.cls-9{fill:#eef5fd;}.cls-10{fill:#d7e2f2;}</style></defs><title/><rect class="cls-1" height="30" rx="1" ry="1" width="16" x="5" y="1"/><path class="cls-2" d="M21,13.5H17.56a5,5,0,1,0-4.22,7.67A4.94,4.94,0,0,0,17,19.5h4Z"/><path class="cls-2" d="M20,1h-.42V28.79a1,1,0,0,1-1,1H5V30a1,1,0,0,0,1,1H20a1,1,0,0,0,1-1V2A1,1,0,0,0,20,1Z"/><path class="cls-3" d="M24,13H12a1,1,0,0,0-1,1v4a1,1,0,0,0,1,1H24a3,3,0,0,0,0-6Z"/><path class="cls-4" d="M25.09,13.21a3,3,0,0,1-1.71,5.46h-12a.5.5,0,0,1-.13,0A1,1,0,0,0,12,19H24a3,3,0,0,0,1.09-5.79Z"/><path class="cls-4" d="M11,14v4a1,1,0,0,0,1,1h5.47a4.92,4.92,0,0,0,1.05-3,5,5,0,0,0-1-3H12A1,1,0,0,0,11,14Z"/><rect class="cls-2" height="5" rx="1" ry="1" width="8" x="9.48" y="4.96"/><rect class="cls-5" height="5" rx="1" ry="1" width="8" x="9" y="4.67"/><path class="cls-6" d="M16.17,4.7a1,1,0,0,1,.17.53v3a1,1,0,0,1-1,1h-6a1,1,0,0,1-.17,0,1,1,0,0,0,.83.48h6a1,1,0,0,0,1-1v-3A1,1,0,0,0,16.17,4.7Z"/><circle class="cls-7" cx="13" cy="15.67" r="5"/><path class="cls-8" d="M16.31,12a4.93,4.93,0,0,1,1,3A5,5,0,0,1,9,18.68a5,5,0,0,0,9-3A4.94,4.94,0,0,0,16.31,12Z"/><path class="cls-9" d="M5,22v8a1,1,0,0,0,1,1H20a1,1,0,0,0,1-1V22Z"/><path class="cls-10" d="M19.58,28.79a1,1,0,0,1-1,1H5V30a1,1,0,0,0,1,1H20a1,1,0,0,0,1-1V22H19.58Z"/><path class="cls-5" d="M5,25v5a1,1,0,0,0,1,1H20a1,1,0,0,0,1-1V25Z"/><path class="cls-6" d="M19.58,28.79a1,1,0,0,1-1,1H5V30a1,1,0,0,0,1,1H20a1,1,0,0,0,1-1V25H19.58Z"/></svg>