<?xml version="1.0" ?><svg viewBox="0 0 512 512" xmlns="http://www.w3.org/2000/svg"><g id="Dental_Handpieces"><path d="M404.3867,382.1123,322.998,265.8779l-62.8418-87.9843L220.1909,119.231l1.2818-.8975a15.9831,15.9831,0,0,0,3.9209-22.2349l-21.6714-30.95a15.9653,15.9653,0,0,0-22.2349-3.9209h-.0005L132.019,95.8662a8,8,0,0,0-3.4106,6.6773l.4363,28.1914-23.0218,16.12A8,8,0,1,0,115.2,159.9609l23.0222-16.12,26.3421,10.0517a7.9993,7.9993,0,0,0,7.4409-.9209l6.893-4.8267,38.0511,55.8526a7.9833,7.9833,0,0,0,.7268,2.208l9.2148,18.3432c16.1011,32.3745,12.3306,47.876,3.2217,85.3272l-.0439.1811a7.9984,7.9984,0,0,0,1.22,6.479l87.7573,125.3311a27.6754,27.6754,0,0,0,38.5107,6.79l40.04-28.0361A27.6831,27.6831,0,0,0,404.3867,382.1123ZM182.3862,129.0742a8.0028,8.0028,0,0,0-6.0283,1.3164l-10.0547,7.0406-21.2788-8.12-.352-22.7729,45.9633-32.1841,21.66,30.8726-7.752,5.4277a8,8,0,0,0-2.0229,11.0576l40.0142,58.7344L227.9058,190.69l-.4483.314L187.5581,132.44A8.0006,8.0006,0,0,0,182.3862,129.0742Z"/></g></svg>