<?xml version="1.0" ?><svg id="object" viewBox="0 0 32 32" xmlns="http://www.w3.org/2000/svg"><defs><style>.cls-1{fill:#d6b5b0;}.cls-2{fill:#bf9e99;}.cls-3{fill:#eef5fd;}.cls-4{fill:#d7e2f2;}.cls-5{fill:#ffd599;}.cls-6{fill:#e4ab7b;}.cls-7{fill:#96d7ff;}.cls-8{fill:#86c3ef;}</style></defs><title/><path class="cls-1" d="M25.89,5.55,24.17,2.11A2,2,0,0,0,22.38,1H9.62A2,2,0,0,0,7.83,2.11L6.11,5.55A1,1,0,0,0,7,7H25a1,1,0,0,0,.89-1.45Z"/><path class="cls-2" d="M25.89,5.55,24.17,2.11A2,2,0,0,0,22.38,1H9.62A2,2,0,0,0,7.83,2.11l-.1.19a2,2,0,0,1,1-.3H21.55a2,2,0,0,1,1.79,1.11l1.72,3.44a.94.94,0,0,1,.1.43,1,1,0,0,0,.69-.45A1,1,0,0,0,25.89,5.55Z"/><path class="cls-3" d="M24.73,9.32A1,1,0,0,0,24,9H8a1,1,0,0,0-.73.32,1,1,0,0,0-.27.76L8.53,29.16a2,2,0,0,0,2,1.84h11a2,2,0,0,0,2-1.84L25,10.08A1,1,0,0,0,24.73,9.32Z"/><path class="cls-4" d="M24.73,9.32A1,1,0,0,0,24,9h-.54L22,27.66a2,2,0,0,1-2,1.84H9a1.61,1.61,0,0,1-.44-.06A2,2,0,0,0,10.52,31h11a2,2,0,0,0,2-1.84L25,10.08A1,1,0,0,0,24.73,9.32Z"/><polygon class="cls-5" points="8.36 27 23.64 27 24.76 13 7.24 13 8.36 27"/><polygon class="cls-6" points="23.14 13 22.02 27 23.64 27 24.47 16.67 24.76 13 23.14 13"/><rect class="cls-7" height="6" rx="1" ry="1" width="22" x="5" y="5"/><path class="cls-8" d="M26,5H6A1,1,0,0,0,5,6H24.79a1,1,0,0,1,1,1v4H26a1,1,0,0,0,1-1V6A1,1,0,0,0,26,5Z"/><path class="cls-6" d="M17.59,16.43A3.77,3.77,0,0,0,12.94,19a3.77,3.77,0,0,0,1.92,5,3.19,3.19,0,0,0,1.06.18,4,4,0,0,0,3.59-2.74A3.77,3.77,0,0,0,17.59,16.43Z"/><path class="cls-1" d="M17.37,16.24a3.78,3.78,0,0,0-4.66,2.56,3.79,3.79,0,0,0,1.92,5,3,3,0,0,0,1.06.19,4,4,0,0,0,3.6-2.75A3.79,3.79,0,0,0,17.37,16.24Z"/><path class="cls-2" d="M17.75,16.43a4,4,0,0,1,.76,4.2,4,4,0,0,1-3.6,2.75,3.23,3.23,0,0,1-1.06-.18c-.13-.05-.25-.13-.38-.19a3.12,3.12,0,0,0,2.22.94,4,4,0,0,0,3.6-2.75A3.85,3.85,0,0,0,17.75,16.43Z"/></svg>