<?xml version="1.0" ?><svg id="object" viewBox="0 0 32 32" xmlns="http://www.w3.org/2000/svg"><defs><style>.cls-1{fill:#d6b5b0;}.cls-2{fill:#bf9e99;}.cls-3{fill:#eef5fd;}.cls-4{fill:#d7e2f2;}.cls-5{fill:#798bc6;}.cls-6{fill:#667dba;}.cls-7{fill:#ff9797;}.cls-8{fill:#e47979;}.cls-9{fill:#ffd599;}.cls-10{fill:#e4ab7b;}</style></defs><title/><circle class="cls-1" cx="6" cy="28" r="3"/><circle class="cls-1" cx="26" cy="28" r="3"/><path class="cls-2" d="M9,28a3,3,0,0,1-5.54,1.6A3,3,0,0,0,8,27a3,3,0,0,0-.46-1.6A3,3,0,0,1,9,28Z"/><path class="cls-2" d="M29,28a3,3,0,0,1-5.54,1.6,3,3,0,0,0,4-4.2A3,3,0,0,1,29,28Z"/><path class="cls-3" d="M16,1A13,13,0,0,0,3,14v8a1,1,0,0,0,1,1H28a1,1,0,0,0,1-1V14A13,13,0,0,0,16,1Z"/><path class="cls-4" d="M19,13.13H14a1,1,0,0,1-1-1v-4a1,1,0,0,1,1-1h5a1,1,0,0,1,1,1v4A1,1,0,0,1,19,13.13Zm-4-2h3v-2H15Z"/><rect class="cls-4" height="12" rx="1" ry="1" width="14" x="9.48" y="11.13"/><path class="cls-4" d="M16,1A13,13,0,0,0,8.21,3.61,13,13,0,0,1,27.75,14.83v8a1,1,0,0,1,0,.17H28a1,1,0,0,0,1-1V14A13,13,0,0,0,16,1Z"/><path class="cls-5" d="M18.5,13h-5a1,1,0,0,1-1-1V8a1,1,0,0,1,1-1h5a1,1,0,0,1,1,1v4A1,1,0,0,1,18.5,13Zm-4-2h3V9h-3Z"/><path class="cls-6" d="M18.5,7h-5a1,1,0,0,0-.92.61,1,1,0,0,1,.3-.06h5a1,1,0,0,1,1,1v4a.86.86,0,0,1-.09.39A1,1,0,0,0,19.5,12V8A1,1,0,0,0,18.5,7Z"/><rect class="cls-7" height="12" rx="1" ry="1" width="14" x="9" y="11"/><path class="cls-8" d="M22,11H10a1,1,0,0,0-1,.78H21a1,1,0,0,1,1,1v10A1.43,1.43,0,0,1,22,23h0a1,1,0,0,0,1-1V12A1,1,0,0,0,22,11Z"/><rect class="cls-9" height="6" rx="1" ry="1" width="30" x="1" y="21"/><path class="cls-10" d="M30,21H2a1,1,0,0,0-1,.84H29a1,1,0,0,1,1,1v4A.76.76,0,0,1,30,27h0a1,1,0,0,0,1-1V22A1,1,0,0,0,30,21Z"/></svg>