<?xml version="1.0" ?><svg id="object" viewBox="0 0 32 32" xmlns="http://www.w3.org/2000/svg"><defs><style>.cls-1{fill:#ffd599;}.cls-2{fill:#e4ab7b;}.cls-3{fill:#c9c1f5;}.cls-4{fill:#afbdd6;}.cls-5{fill:#eef5fd;}.cls-6{fill:#d7e2f2;}.cls-7{fill:#ff9797;}</style></defs><title/><rect class="cls-1" height="22" rx="3" ry="3" width="30" x="1" y="5"/><path class="cls-2" d="M28,5H4A3,3,0,0,0,1.41,6.52a3,3,0,0,1,1.3-.31h24a3,3,0,0,1,3,3v16a3,3,0,0,1-.41,1.48A3,3,0,0,0,31,24V8A3,3,0,0,0,28,5Z"/><path class="cls-2" d="M24.56,19h-16a3,3,0,0,0-3,3v5h22V22A3,3,0,0,0,24.56,19Z"/><path class="cls-3" d="M24,19H8a3,3,0,0,0-3,3v5H27V22A3,3,0,0,0,24,19Z"/><path class="cls-4" d="M24,19H8a3,3,0,0,0-2.62,1.56A3,3,0,0,1,7,20.08H23a3,3,0,0,1,3,3V27h1V22A3,3,0,0,0,24,19Z"/><path class="cls-2" d="M24.46,9.35h-6a3,3,0,0,0,0,6h6a3,3,0,0,0,0-6Z"/><path class="cls-5" d="M24,9H18a3,3,0,0,0,0,6h6a3,3,0,0,0,0-6Z"/><path class="cls-6" d="M25.38,9.35a3,3,0,0,1-2.09,5.15h-6a2.87,2.87,0,0,1-1.37-.35A3,3,0,0,0,18,15h6a3,3,0,0,0,1.38-5.65Z"/><rect class="cls-7" height="6" width="2" x="20" y="9"/><rect class="cls-7" height="0.5" width="2" x="20" y="14.5"/></svg>