<?xml version="1.0" ?><svg id="object" viewBox="0 0 32 32" xmlns="http://www.w3.org/2000/svg"><defs><style>.cls-1{fill:#798bc6;}.cls-2{fill:#667dba;}.cls-3{fill:#ffd599;}.cls-4{fill:#e4ab7b;}.cls-5{fill:#ff9797;}.cls-6{fill:#e47979;}.cls-7{fill:#91e085;}.cls-8{fill:#84bf6f;}.cls-9{fill:#ffc661;}.cls-10{fill:#e49f4e;}</style></defs><title/><path class="cls-1" d="M23,11H9a1,1,0,0,1-1-1V4A1,1,0,0,1,9,3H23a1,1,0,0,1,1,1v6A1,1,0,0,1,23,11ZM10,9H22V5H10Z"/><rect class="cls-2" height="1.97" width="9.97" x="11.64" y="3.02"/><rect class="cls-3" height="22" rx="0.98" ry="0.98" width="22" x="5" y="9"/><path class="cls-4" d="M22.46,13h-12a1,1,0,0,0-1,1V26.4a1,1,0,0,0,1,1h12a1,1,0,0,0,1-1V14A1,1,0,0,0,22.46,13Z"/><path class="cls-4" d="M26,9h-.1V28.77a1,1,0,0,1-1,1H5V30a1,1,0,0,0,1,1H26a1,1,0,0,0,1-1V10A1,1,0,0,0,26,9Z"/><rect class="cls-5" height="13.97" rx="0.98" ry="0.98" width="13.97" x="9.02" y="13.02"/><path class="cls-6" d="M22,13h0V25a1,1,0,0,1-1,1H9v0a1,1,0,0,0,1,1H22a1,1,0,0,0,1-1V14A1,1,0,0,0,22,13Z"/><rect class="cls-7" height="13.97" width="5.97" x="13.02" y="13.02"/><rect class="cls-8" height="1" width="5.97" x="13.02" y="25.98"/><rect class="cls-9" height="5.97" rx="0.98" ry="0.98" width="9.97" x="11.02" y="1"/><path class="cls-10" d="M20.16,1a1.85,1.85,0,0,1,0,.23v4a1,1,0,0,1-1,1h-8a.9.9,0,0,1-.16,0A1,1,0,0,0,12,7h8a1,1,0,0,0,1-1V2A1,1,0,0,0,20.16,1Z"/></svg>