<?xml version="1.0" ?><svg data-name="027_APPLIANCES" id="_027_APPLIANCES" viewBox="0 0 24 24" xmlns="http://www.w3.org/2000/svg"><defs><style>.cls-1{fill:#333;}</style></defs><path class="cls-1" d="M18,22H6a3,3,0,0,1-3-3V14.14a1,1,0,0,1,2,0V19a1,1,0,0,0,1,1H18a1,1,0,0,0,1-1V5a1,1,0,0,0-1-1H6A1,1,0,0,0,5,5v5.64a1,1,0,0,1-2,0V5A3,3,0,0,1,6,2H18a3,3,0,0,1,3,3V19A3,3,0,0,1,18,22Z"/><path class="cls-1" d="M15,7a1,1,0,0,1,1-1h0a1,1,0,0,1,1,1h0a1,1,0,0,1-1,1h0A1,1,0,0,1,15,7ZM11,7a1,1,0,0,1,1-1h0a1,1,0,0,1,1,1h0a1,1,0,0,1-1,1h0A1,1,0,0,1,11,7ZM7,7A1,1,0,0,1,8,6H8A1,1,0,0,1,9,7H9A1,1,0,0,1,8,8H8A1,1,0,0,1,7,7Z"/><path class="cls-1" d="M20,12H4a1,1,0,0,1,0-2H20a1,1,0,0,1,0,2Z"/><path class="cls-1" d="M15,16H9a1,1,0,0,1,0-2h6a1,1,0,0,1,0,2Z"/></svg>