<?xml version="1.0" ?><svg data-name="Layer 1" id="Layer_1" viewBox="0 0 512 512" xmlns="http://www.w3.org/2000/svg"><path d="M431.06,126.83a5.48,5.48,0,0,0-5.9-2.47c-1.68.39-116.06,28.24-176.57,100.13-32.41-102.58-160.94-121-162.27-121.16A5.44,5.44,0,0,0,82.23,113c10.18,8.05,9.58,26.92,8.89,48.77-1,30.44-2.18,68.32,26.77,94.55,30.39,27.53,62.65,33,83.57,33a111.76,111.76,0,0,0,14.23-.89c-4.49,19.34-5.18,40.58-.38,64a4.6,4.6,0,0,0,.65,1.19c-11.77,29.06-13.3,47.55-13.41,49.27a5.43,5.43,0,0,0,5.06,5.78H208a5.45,5.45,0,0,0,5.43-5.06c0-.4,1.54-17.9,13-46a211.72,211.72,0,0,0,23.47,1.27c31.36,0,80.48-6.61,115-42.69,33.53-35,43.77-91,51.25-131.89,4.29-23.49,8-43.77,14.35-51.14A5.44,5.44,0,0,0,431.06,126.83Zm-247.68,39.3a5.44,5.44,0,0,0-5.44,5.44v13.2c-23.25-25.84-45.1-37.71-46.74-38.57a5.44,5.44,0,0,0-5.06,9.63c.39.21,22.15,12,45.07,38H128.67a5.44,5.44,0,1,0,0,10.88H180.1a208,208,0,0,1,36,72.64c-14.24,2-54.46,3.9-90.9-29.12C100,225.4,101.05,191.78,102,162.11c.56-17.63,1.07-33.55-3.89-45.39,33.59,7.79,120.91,35.79,142.13,118.45a157,157,0,0,0-16.65,29.32,219.24,219.24,0,0,0-34.76-66.67V171.57A5.45,5.45,0,0,0,183.38,166.13Zm222.09,16.25c-7.64,41.73-17.13,93.66-48.42,126.33-39.65,41.41-102.48,40.44-126,38.39a328.47,328.47,0,0,1,25.08-44.73h46.83a5.44,5.44,0,0,0,0-10.88H263.58a444.76,444.76,0,0,1,43.18-51.36h25.48a5.44,5.44,0,1,0,0-10.88H317.69c8.77-8.5,18.21-17.1,28.51-25.8a5.44,5.44,0,0,0-7-8.32c-10.59,8.94-20.28,17.77-29.3,26.48V209.32a5.44,5.44,0,0,0-10.88,0v23.09a464.82,464.82,0,0,0-40.56,47.26V259.41a5.44,5.44,0,1,0-10.88,0v35.64a342.06,342.06,0,0,0-23.78,41c-14-127.2,146.06-184.21,191.84-197.83C411.53,149.21,408.73,164.51,405.47,182.38Z"/></svg>