<svg xmlns="http://www.w3.org/2000/svg" viewBox="0 0 65.51 65.51" width="19"><defs><style>.cls-1{fill:#1d1d1b;}</style></defs><title>symbol-black</title><g id="Layer_2" data-name="Layer 2"><g id="Vrstva_1" data-name="Vrstva 1"><path class="cls-1" d="M32.76,0A32.76,32.76,0,1,0,65.51,32.75,32.76,32.76,0,0,0,32.76,0ZM2.66,31.66A30.11,30.11,0,0,1,57.05,15L34.92,45.48A1.84,1.84,0,0,1,31.64,44l7.08-32.46a.82.82,0,0,0-.83-1,35.13,35.13,0,0,0-19.49,7c-10,7.81-9.59,14.94-6.37,17,4.59,3,11.39-2.51,13.58-4.5a.13.13,0,0,0-.15-.21,48.48,48.48,0,0,1-5.87,2.56c-5.17,1.72-9-3.27-1.32-11.16a27.44,27.44,0,0,1,13.2-7.52.81.81,0,0,1,1,1L22.42,61A30.13,30.13,0,0,1,2.66,31.66Zm30.1,31.21a30.21,30.21,0,0,1-6.42-.69L58.73,17.53a30.1,30.1,0,0,1-26,45.34Z"/></g></g></svg>