<svg width="231" height="248" viewBox="0 0 231 248" fill="none" xmlns="http://www.w3.org/2000/svg">
<path d="M114.127 235.754C175.187 235.754 224.685 187.969 224.685 129.022C224.685 70.0749 175.187 22.2891 114.127 22.2891C53.0671 22.2891 3.56836 70.0749 3.56836 129.022C3.56836 187.969 53.0671 235.754 114.127 235.754Z" fill="#DC382E"/>
<g filter="url(#filter0_d_7397_12569)">
<path fill-rule="evenodd" clip-rule="evenodd" d="M114.015 26.6719H114.182C115.235 26.6719 116.067 27.5036 116.067 28.557C116.067 29.6105 115.235 30.4422 114.182 30.4422H114.015C112.962 30.4422 112.13 29.6105 112.13 28.557C112.13 27.5036 112.962 26.6719 114.015 26.6719ZM126.38 29.2778C126.546 28.2244 127.489 27.5036 128.487 27.6699H128.653C129.706 27.8362 130.427 28.7788 130.261 29.8323C130.094 30.8857 129.152 31.6065 128.098 31.4402H127.932C126.934 31.2739 126.213 30.3313 126.38 29.2778ZM101.817 29.2778C101.984 30.3313 101.263 31.2739 100.209 31.3847H100.043C98.9895 31.5511 98.0469 30.8303 97.8806 29.7768C97.7143 28.7234 98.4351 27.7808 99.4885 27.6144H99.6549C100.708 27.559 101.706 28.2798 101.817 29.2778ZM140.352 32.0501C140.629 31.0521 141.683 30.4976 142.681 30.7748L142.847 30.8303C143.845 31.1075 144.399 32.161 144.122 33.159C143.845 34.157 142.791 34.7115 141.793 34.4343L141.627 34.3788C140.629 34.1016 140.075 33.0481 140.352 32.0501ZM87.845 32.0501C88.1222 33.0481 87.5677 34.1016 86.5697 34.3788L86.4034 34.4343C85.4054 34.7115 84.3519 34.157 84.0747 33.159C83.7974 32.161 84.3519 31.1075 85.3499 30.8303L85.5162 30.7748C86.5143 30.4422 87.5677 31.0521 87.845 32.0501ZM153.825 36.763C154.269 35.8204 155.378 35.3768 156.32 35.8204L156.487 35.8758C157.429 36.3194 157.873 37.4283 157.429 38.3709C156.986 39.3135 155.877 39.757 154.934 39.3135L154.768 39.258C153.77 38.8145 153.382 37.7055 153.825 36.763ZM74.3717 36.763C74.8153 37.7055 74.3717 38.8145 73.4291 39.258L73.2628 39.3135C72.3202 39.757 71.2113 39.3135 70.7677 38.3709C70.3242 37.4283 70.7677 36.3194 71.7103 35.8758L71.8766 35.8204C72.8192 35.3768 73.9836 35.8204 74.3717 36.763ZM166.467 43.361C167.021 42.4739 168.186 42.2521 169.073 42.8065L169.239 42.9174C170.126 43.4719 170.348 44.6362 169.793 45.5234C169.239 46.4105 168.075 46.6323 167.188 46.0778L167.021 45.9669C166.134 45.357 165.857 44.1927 166.467 43.361ZM61.7301 43.361C62.2846 44.2481 62.0628 45.4125 61.1757 45.9669L61.0093 46.0778C60.1222 46.6323 58.9578 46.4105 58.4034 45.5234C57.8489 44.6362 58.0707 43.4719 58.9578 42.9174L59.1242 42.8065C60.0113 42.1966 61.1757 42.4739 61.7301 43.361ZM177.999 51.6778C178.665 50.9016 179.885 50.7907 180.661 51.5115L180.772 51.6224C181.548 52.2877 181.659 53.5075 180.938 54.2838C180.273 55.06 179.053 55.1709 178.277 54.4501L178.166 54.3392C177.445 53.6184 177.334 52.4541 177.999 51.6778ZM50.1974 51.6778C50.8628 52.4541 50.8073 53.6739 50.0311 54.3392L49.9202 54.4501C49.144 55.1154 47.9242 55.06 47.2588 54.2838C46.5935 53.5075 46.6489 52.2877 47.4252 51.6224L47.536 51.5115C48.3123 50.7907 49.4766 50.8461 50.1974 51.6778ZM188.312 61.5471C189.089 60.8818 190.308 60.9372 190.974 61.7135L191.085 61.8244C191.75 62.6006 191.694 63.8204 190.918 64.4857C190.142 65.1511 188.922 65.0956 188.257 64.3194L188.146 64.2085C187.425 63.4323 187.481 62.2125 188.312 61.5471ZM39.8846 61.5471C40.6608 62.2125 40.7717 63.4323 40.0509 64.2085L39.94 64.3194C39.2747 65.0956 38.0549 65.2065 37.2786 64.4857C36.5024 63.8204 36.3915 62.6006 37.1123 61.8244L37.2232 61.7135C37.944 60.9372 39.1083 60.8818 39.8846 61.5471ZM197.073 72.7471C197.96 72.1927 199.124 72.4144 199.679 73.3016L199.79 73.4679C200.344 74.355 200.122 75.5194 199.235 76.0739C198.348 76.6283 197.184 76.4065 196.629 75.5194L196.518 75.3531C195.908 74.5214 196.186 73.357 197.073 72.7471ZM31.1242 72.7471C32.0113 73.3016 32.2331 74.4659 31.6786 75.3531L31.5677 75.5194C31.0133 76.4065 29.8489 76.6283 28.9618 76.0739C28.0747 75.5194 27.8529 74.355 28.4073 73.4679L28.5182 73.3016C29.0727 72.4699 30.237 72.1927 31.1242 72.7471ZM204.17 85.1669C205.112 84.7234 206.221 85.1669 206.665 86.1095C206.665 86.1649 206.72 86.2204 206.72 86.2758C207.164 87.2184 206.72 88.3273 205.778 88.7709C204.835 89.2145 203.726 88.7709 203.283 87.8283L203.227 87.662C202.784 86.7194 203.227 85.555 204.17 85.1669ZM24.0271 85.1669C24.9697 85.6105 25.4133 86.7194 24.9697 87.662L24.9143 87.8283C24.4707 88.7709 23.3618 89.2145 22.4192 88.7709C21.4766 88.3273 21.0331 87.2184 21.4766 86.2758L21.5321 86.1095C21.9756 85.1115 23.0846 84.7234 24.0271 85.1669ZM209.382 98.4184C210.38 98.1412 211.433 98.6956 211.71 99.6937C211.71 99.7491 211.766 99.8046 211.766 99.86C212.043 100.858 211.489 101.911 210.491 102.189C209.492 102.466 208.439 101.911 208.162 100.913C208.162 100.858 208.106 100.803 208.106 100.747C207.829 99.7491 208.384 98.6956 209.382 98.4184ZM18.8153 98.4184C19.8133 98.6956 20.3677 99.7491 20.0905 100.747L20.0351 100.913C19.7578 101.911 18.7044 102.466 17.7063 102.189C16.7083 101.911 16.1539 100.858 16.4311 99.86L16.4865 99.6937C16.7638 98.6956 17.8172 98.0857 18.8153 98.4184ZM212.708 112.28C213.762 112.113 214.704 112.834 214.871 113.888V114.054C215.037 115.108 214.316 116.05 213.263 116.161C212.209 116.327 211.267 115.607 211.156 114.553V114.387C210.934 113.389 211.655 112.391 212.708 112.28ZM15.4885 112.28C16.542 112.446 17.2628 113.389 17.0964 114.442V114.609C16.9301 115.662 15.9875 116.383 14.9895 116.216C13.936 116.05 13.2153 115.108 13.3816 114.11V113.943C13.5479 112.834 14.4905 112.113 15.4885 112.28ZM213.984 126.474C215.037 126.474 215.869 127.306 215.869 128.359V128.525C215.869 129.579 215.037 130.41 213.984 130.41C212.93 130.41 212.098 129.579 212.098 128.525V128.359C212.098 127.306 212.93 126.474 213.984 126.474ZM14.2133 126.474C15.2667 126.474 16.0984 127.306 16.0984 128.359V128.525C16.0984 129.579 15.2667 130.41 14.2133 130.41C13.1598 130.41 12.3281 129.579 12.3281 128.525V128.359C12.3281 127.306 13.1598 126.474 14.2133 126.474ZM213.263 140.723C214.316 140.89 215.037 141.832 214.871 142.83V142.997C214.704 144.05 213.762 144.771 212.708 144.605C211.655 144.438 210.934 143.496 211.1 142.442V142.276C211.267 141.278 212.209 140.557 213.263 140.723ZM14.9341 140.723C15.9875 140.557 16.9301 141.278 17.041 142.331V142.498C17.2073 143.551 16.4865 144.494 15.4331 144.66C14.3796 144.826 13.437 144.106 13.2707 143.052V142.886C13.2153 141.777 13.936 140.834 14.9341 140.723ZM210.491 154.696C211.489 154.973 212.043 156.026 211.766 157.024L211.71 157.191C211.433 158.189 210.38 158.743 209.382 158.466C208.384 158.189 207.829 157.135 208.106 156.137L208.162 155.971C208.439 154.973 209.492 154.418 210.491 154.696ZM17.7063 154.696C18.7044 154.418 19.7578 154.973 20.0351 155.971L20.0905 156.137C20.3677 157.135 19.8133 158.189 18.8153 158.466C17.8172 158.743 16.7638 158.189 16.4865 157.191L16.4311 157.024C16.0984 156.026 16.7083 154.973 17.7063 154.696ZM205.778 168.113C206.72 168.557 207.164 169.666 206.72 170.609L206.665 170.775C206.221 171.717 205.112 172.161 204.17 171.717C203.227 171.274 202.784 170.165 203.227 169.222L203.283 169.056C203.726 168.113 204.835 167.725 205.778 168.113ZM22.4192 168.113C23.3618 167.67 24.4707 168.113 24.9143 169.056L24.9697 169.222C25.4133 170.165 24.9697 171.274 24.0271 171.717C23.0846 172.161 21.9756 171.717 21.5321 170.775L21.4766 170.609C21.0331 169.666 21.4766 168.557 22.4192 168.113ZM199.18 180.755C200.067 181.309 200.289 182.474 199.734 183.361C199.679 183.416 199.679 183.472 199.623 183.527C199.069 184.414 197.904 184.636 197.017 184.082C196.13 183.527 195.908 182.363 196.463 181.476L196.574 181.309C197.128 180.478 198.292 180.201 199.18 180.755ZM29.0172 180.755C29.9044 180.201 31.0687 180.422 31.6232 181.309L31.7341 181.476C32.2885 182.363 32.0667 183.527 31.1796 184.082C30.2925 184.636 29.1281 184.414 28.5737 183.527L28.4628 183.361C27.8529 182.529 28.1301 181.365 29.0172 180.755ZM37.3341 192.343C38.1103 191.678 39.3301 191.733 39.9955 192.51L40.1063 192.62C40.7717 193.397 40.7162 194.616 39.94 195.282C39.1638 195.947 37.944 195.892 37.2786 195.115L37.1677 195.005C36.4469 194.228 36.5578 193.008 37.3341 192.343ZM190.863 192.343C191.639 193.008 191.75 194.228 191.029 195.005L190.918 195.115C190.253 195.892 189.033 196.003 188.257 195.282C187.481 194.616 187.37 193.397 188.09 192.62L188.201 192.51C188.867 191.733 190.087 191.678 190.863 192.343ZM47.2034 202.601C47.8687 201.824 49.0885 201.713 49.8648 202.434L49.9756 202.545C50.7519 203.21 50.8628 204.43 50.142 205.207C49.4766 205.983 48.2568 206.094 47.4806 205.373L47.3697 205.262C46.5935 204.597 46.538 203.432 47.2034 202.601ZM180.993 202.601C181.659 203.377 181.603 204.597 180.827 205.262L180.716 205.373C179.94 206.038 178.72 205.983 178.055 205.207C177.39 204.43 177.445 203.21 178.221 202.545L178.332 202.434C179.108 201.769 180.328 201.824 180.993 202.601ZM58.4588 211.416C59.0133 210.529 60.1776 210.308 61.0648 210.862L61.2311 210.973C62.1182 211.527 62.34 212.692 61.7855 213.579C61.2311 214.466 60.0667 214.688 59.1796 214.133C59.1242 214.078 59.0687 214.078 59.0133 214.022C58.1261 213.412 57.8489 212.248 58.4588 211.416ZM169.738 211.416C170.292 212.304 170.071 213.468 169.184 214.022C169.128 214.078 169.073 214.078 169.017 214.133C168.13 214.688 166.966 214.466 166.411 213.579C165.857 212.692 166.079 211.527 166.966 210.973L167.132 210.862C168.019 210.252 169.184 210.529 169.738 211.416ZM157.374 218.458C157.817 219.401 157.374 220.51 156.431 220.953C156.376 220.953 156.32 221.009 156.265 221.009C155.322 221.452 154.213 221.008 153.77 220.066C153.326 219.123 153.77 218.014 154.712 217.571L154.879 217.515C155.821 217.127 156.93 217.515 157.374 218.458ZM70.8232 218.458C71.2667 217.515 72.3757 217.072 73.3182 217.515L73.4846 217.571C74.4271 218.014 74.8707 219.123 74.4271 220.066C73.9836 221.008 72.8747 221.452 71.9321 221.009L71.7657 220.953C70.7677 220.565 70.3796 219.401 70.8232 218.458ZM144.122 223.725C144.399 224.723 143.845 225.777 142.847 226.054C142.792 226.054 142.736 226.109 142.681 226.109C141.683 226.387 140.629 225.832 140.352 224.834C140.075 223.836 140.629 222.783 141.627 222.506C141.683 222.506 141.738 222.45 141.793 222.45C142.791 222.173 143.845 222.727 144.122 223.725ZM84.0747 223.725C84.3519 222.727 85.4054 222.173 86.4034 222.45L86.5697 222.506C87.5677 222.783 88.1222 223.836 87.845 224.834C87.5677 225.832 86.5143 226.387 85.5162 226.109L85.3499 226.054C84.3519 225.777 83.742 224.723 84.0747 223.725ZM130.261 226.997C130.427 228.05 129.706 228.993 128.653 229.159H128.487C127.433 229.325 126.491 228.605 126.38 227.551C126.213 226.498 126.934 225.555 127.988 225.444H128.154C129.152 225.278 130.15 225.999 130.261 226.997ZM97.9361 226.997C98.1024 225.943 99.045 225.222 100.098 225.389H100.265C101.318 225.555 102.039 226.498 101.873 227.496C101.706 228.549 100.764 229.27 99.7657 229.104H99.5994C98.4905 228.993 97.7697 228.05 97.9361 226.997ZM112.13 228.327C112.13 227.274 112.962 226.442 114.015 226.442H114.182C115.235 226.442 116.067 227.274 116.067 228.327C116.067 229.381 115.235 230.212 114.182 230.212H114.015C112.962 230.212 112.13 229.325 112.13 228.327Z" fill="#F4FBE9"/>
</g>
<path d="M116.954 132.96C128.284 132.96 137.469 121.342 137.469 107.011C137.469 92.68 128.284 81.0625 116.954 81.0625C105.624 81.0625 96.4395 92.68 96.4395 107.011C96.4395 121.342 105.624 132.96 116.954 132.96Z" fill="#ECCAA3"/>
<path d="M169.918 50.2968C171.47 49.5699 180.896 44.845 183.668 38.1471C187.494 28.8532 185.221 -2.04007 174.52 1.75019C162.322 6.05968 170.694 32.4358 152.397 33.1627C149.736 33.2665 152.12 36.226 156.223 39.8605C160.27 43.4431 165.981 47.6488 169.918 50.2968Z" fill="white"/>
<path d="M66.5665 50.2968C65.0141 49.5699 55.5883 44.845 52.8161 38.1471C48.9903 28.8532 51.2636 -2.04007 61.9646 1.75019C74.1626 6.05968 65.7903 32.4358 84.0873 33.1627C86.7487 33.2665 84.3646 36.226 80.2616 39.8605C76.2141 43.4431 70.5032 47.6488 66.5665 50.2968Z" fill="white"/>
<path fill-rule="evenodd" clip-rule="evenodd" d="M186.88 28.063C186.721 32.256 186.138 36.1194 185.09 38.6667L185.089 38.6691C183.553 42.3804 180.241 45.4315 177.27 47.5942C174.268 49.78 171.43 51.1907 170.598 51.5798C170.094 51.8159 169.492 51.7722 169.033 51.4663C165.135 48.8701 159.519 44.7162 155.414 41.1084C155.195 40.9925 155.014 40.8297 154.882 40.6369C152.968 38.921 151.329 37.2585 150.475 35.9341C150.245 35.5766 150.04 35.1974 149.909 34.8122C149.782 34.439 149.685 33.9509 149.81 33.4335C149.95 32.8554 150.332 32.3915 150.864 32.1026C151.34 31.8435 151.869 31.7601 152.332 31.742C156.424 31.5792 158.897 30.0247 160.608 27.74C162.396 25.3522 163.397 22.1054 164.256 18.4953C164.45 17.6806 164.637 16.8439 164.826 15.9993C165.448 13.2175 166.089 10.3485 167.058 7.88635C168.337 4.63609 170.324 1.71206 173.98 0.420189L174.518 1.75614L173.979 0.420616C173.979 0.420474 173.98 0.420332 173.98 0.420189C175.686 -0.183647 177.334 -0.116759 178.817 0.571025C180.244 1.2326 181.384 2.40448 182.297 3.78565C184.115 6.53596 185.322 10.5561 186.046 14.8239C186.777 19.1274 187.041 23.8344 186.88 28.063ZM156.443 38.0764C156.554 38.0304 156.664 37.9872 156.77 37.9464C157.314 37.739 157.957 37.5315 158.61 37.3208L158.683 37.2972C160.078 36.8473 161.63 36.341 163.106 35.621C166.014 34.2034 168.392 32.0929 168.392 28.1842C168.392 22.5192 169.071 17.5293 170.114 13.8211C170.634 11.9724 171.259 10.3911 171.969 9.19116C172.632 8.07031 173.553 6.96523 174.828 6.60628C175.536 6.40718 176.267 6.46507 176.938 6.77422C177.571 7.06564 178.074 7.54331 178.477 8.07891C179.274 9.13545 179.913 10.7271 180.43 12.7876C181.473 16.9484 182.142 23.5642 182.142 33.1686C182.142 36.1837 180.837 39.4072 178.969 42.3052C180.37 40.8848 181.551 39.3129 182.245 37.6384C183.109 35.5386 183.677 32.0556 183.833 27.9613C183.987 23.902 183.732 19.38 183.034 15.2722C182.331 11.1287 181.202 7.55532 179.704 5.28872C178.959 4.16143 178.195 3.469 177.464 3.13028C176.791 2.81793 176.027 2.74839 175.058 3.09167L175.057 3.09209C172.614 3.95497 171.073 5.944 169.919 8.87402C169.035 11.12 168.459 13.6952 167.847 16.4282C167.65 17.3098 167.449 18.2078 167.233 19.1164C166.373 22.7299 165.274 26.4828 163.105 29.3796C160.962 32.2407 157.823 34.206 153.15 34.5558C153.741 35.4321 154.89 36.6499 156.443 38.0764ZM169.811 47.8614C172.044 46.2053 174.264 43.9095 175.979 41.4007C177.909 38.5775 179.093 35.6427 179.093 33.1686C179.093 23.64 178.424 17.2819 177.461 13.4403C176.974 11.4997 176.444 10.333 175.986 9.72556C175.829 9.51797 175.711 9.4162 175.646 9.36977C175.637 9.37464 175.628 9.38029 175.618 9.38682C175.557 9.42519 175.473 9.48887 175.369 9.59001C175.158 9.79613 174.908 10.1157 174.636 10.575C174.092 11.4949 173.546 12.8309 173.063 14.5486C172.1 17.9731 171.441 22.7119 171.441 28.1842C171.441 33.5694 167.97 36.4693 164.515 38.154C162.81 38.9852 161.053 39.553 159.677 39.9971L159.657 40.0035C159.528 40.0453 159.402 40.0856 159.282 40.1248C159.489 40.2731 159.699 40.426 159.911 40.582C160.894 41.3044 161.987 42.1494 163.097 43.0079C163.277 43.1466 163.457 43.2857 163.637 43.4247C165.899 45.1713 168.121 46.8579 169.811 47.8614ZM152.799 33.8941C152.798 33.8897 152.798 33.8876 152.798 33.8877C152.798 33.8877 152.799 33.8899 152.799 33.8941Z" fill="black"/>
<path fill-rule="evenodd" clip-rule="evenodd" d="M49.6042 28.0552C49.7637 32.2482 50.3461 36.1115 51.3946 38.6588L51.3957 38.6613C52.9318 42.3726 56.2437 45.4237 59.2141 47.5864C62.2161 49.7722 65.0548 51.1829 65.886 51.572C66.3902 51.8081 66.9923 51.7644 67.4516 51.4585C71.3495 48.8623 76.9653 44.7084 81.0708 41.1006C81.289 40.9847 81.4702 40.8219 81.6022 40.6291C83.5167 38.9131 85.1549 37.2507 86.009 35.9263C86.2396 35.5688 86.444 35.1896 86.5754 34.8044C86.7028 34.4312 86.7993 33.9431 86.674 33.4257C86.5339 32.8476 86.1524 32.3837 85.6208 32.0948C85.1439 31.8357 84.6152 31.7523 84.1521 31.7342C80.0606 31.5714 77.5876 30.0169 75.8767 27.7322C74.0886 25.3444 73.0874 22.0976 72.2284 18.4875C72.0346 17.6728 71.8475 16.8361 71.6587 15.9915C71.0368 13.2097 70.3954 10.3407 69.4263 7.87854C68.1469 4.62828 66.1608 1.70424 62.5041 0.412377L61.9659 1.74833L62.5053 0.412803C62.5049 0.412661 62.5045 0.412519 62.5041 0.412377C60.7985 -0.19146 59.1505 -0.124572 57.667 0.563212C56.24 1.22479 55.1005 2.39667 54.1875 3.77784C52.3694 6.52814 51.1626 10.5483 50.4382 14.8161C49.7078 19.1196 49.4433 23.8265 49.6042 28.0552ZM80.0417 38.0686C79.9306 38.0226 79.8207 37.9794 79.714 37.9386C79.1704 37.7311 78.5275 37.5237 77.8744 37.313L77.8011 37.2894C76.4068 36.8395 74.8544 36.3331 73.378 35.6132C70.4707 34.1956 68.0926 32.0851 68.0926 28.1764C68.0926 22.5114 67.4134 17.5215 66.3703 13.8133C65.8503 11.9646 65.2256 10.3833 64.5158 9.18334C63.8528 8.0625 62.9317 6.95741 61.6562 6.59847C60.9487 6.39937 60.2173 6.45726 59.5463 6.7664C58.9137 7.05783 58.4106 7.5355 58.007 8.0711C57.2107 9.12763 56.5711 10.7192 56.0545 12.7798C55.0113 16.9406 54.3421 23.5564 54.3421 33.1608C54.3421 36.1759 55.6478 39.3994 57.5154 42.2973C56.1139 40.877 54.933 39.3051 54.2397 37.6306C53.3756 35.5308 52.8076 32.0477 52.6518 27.9535C52.4974 23.8942 52.7527 19.3722 53.45 15.2644C54.1533 11.1209 55.2822 7.54751 56.7804 5.28091C57.5256 4.15362 58.2894 3.46119 59.02 3.12247C59.6938 2.81012 60.4573 2.74058 61.4265 3.08385L61.4277 3.08428C63.87 3.94716 65.4116 5.93618 66.5649 8.8662C67.449 11.1122 68.0255 13.6874 68.6373 16.4204C68.8346 17.302 69.0357 18.1999 69.2519 19.1086C70.1117 22.7221 71.2105 26.4749 73.3799 29.3718C75.5224 32.2328 78.6612 34.1982 83.3339 34.548C82.7431 35.4243 81.594 36.6421 80.0417 38.0686ZM66.6734 47.8536C64.4404 46.1975 62.2206 43.9017 60.5055 41.3928C58.5755 38.5697 57.3917 35.6349 57.3917 33.1608C57.3917 23.6322 58.0601 17.2741 59.0233 13.4325C59.5099 11.4919 60.0408 10.3251 60.4985 9.71775C60.655 9.51016 60.7729 9.40839 60.8384 9.36196C60.8469 9.36683 60.8563 9.37248 60.8667 9.37901C60.9276 9.41738 61.0114 9.48106 61.1151 9.5822C61.3262 9.78832 61.5765 10.1079 61.8482 10.5672C62.3924 11.4871 62.9382 12.8231 63.4214 14.5408C64.3847 17.9653 65.0431 22.7041 65.0431 28.1764C65.0431 33.5616 68.5145 36.4615 71.9696 38.1462C73.6744 38.9774 75.4314 39.5452 76.8076 39.9893L76.8274 39.9957C76.9568 40.0374 77.0819 40.0778 77.2029 40.117C76.9954 40.2653 76.7851 40.4182 76.573 40.5742C75.5908 41.2966 74.4976 42.1416 73.3869 43.0001C73.2074 43.1388 73.0274 43.2779 72.8474 43.4169C70.5852 45.1635 68.3632 46.8501 66.6734 47.8536ZM83.685 33.8863C83.6859 33.8819 83.6862 33.8798 83.6861 33.8798C83.686 33.8799 83.6855 33.8821 83.685 33.8863Z" fill="black"/>
<path d="M180.673 33.5842C180.673 39.2956 175.351 46.4607 170.028 49.9914C166.202 48.0703 159.105 41.6839 156.277 40.2301C158.329 38.5687 170.028 37.8418 170.028 28.5478C170.028 6.32543 180.673 -4.68191 180.673 33.5842Z" fill="#ECCAA3"/>
<path d="M55.811 33.5764C55.811 39.2877 61.1338 46.4529 66.4565 49.9836C70.2823 48.0625 77.3793 41.6761 80.207 40.2223C78.1555 38.5608 66.4565 37.8339 66.4565 28.54C66.4565 6.31762 55.811 -4.68972 55.811 33.5764Z" fill="#ECCAA3"/>
<path d="M169.861 50.2968C171.414 49.5699 180.839 44.845 183.612 38.1471C187.437 28.8532 185.164 -2.04007 174.463 1.75019C162.265 6.05968 170.637 32.4358 152.34 33.1627C149.679 33.2665 152.063 36.226 156.166 39.8605C160.214 43.4431 165.925 47.6488 169.861 50.2968Z" fill="white"/>
<path d="M66.6232 50.2968C65.0707 49.5699 55.645 44.845 52.8727 38.1471C49.0469 28.8532 51.3202 -2.04007 62.0212 1.75019C74.2192 6.05968 65.847 32.4358 84.144 33.1627C86.8054 33.2665 84.4212 36.226 80.3182 39.8605C76.2707 43.4431 70.5598 47.6488 66.6232 50.2968Z" fill="white"/>
<path d="M180.673 32.3711C180.673 37.8081 175.606 44.6291 170.486 47.9901C166.845 46.1613 160.088 40.0817 157.396 38.6978C159.349 37.1161 170.486 36.4241 170.486 27.5766C170.539 6.42163 180.673 -4.05699 180.673 32.3711Z" fill="#ECCAA3"/>
<path d="M55.8109 32.3632C55.8109 37.8003 60.878 44.6213 65.9979 47.9823C69.6399 46.1535 76.396 40.0739 79.0879 38.69C77.1349 37.1083 65.9979 36.4163 65.9979 27.5688C65.9451 6.41382 55.8109 -4.0648 55.8109 32.3632Z" fill="#ECCAA3"/>
<path fill-rule="evenodd" clip-rule="evenodd" d="M186.826 28.063C186.666 32.256 186.084 36.1194 185.035 38.6667L185.034 38.6691C183.498 42.3804 180.186 45.4315 177.216 47.5942C174.214 49.78 171.375 51.1907 170.544 51.5798C170.04 51.8159 169.438 51.7722 168.978 51.4663C165.07 48.8632 159.419 44.6926 155.303 41.0772C155.13 40.9756 154.981 40.8434 154.866 40.69C152.923 38.9558 151.257 37.272 150.396 35.9323C150.166 35.5741 149.962 35.1935 149.832 34.8063C149.706 34.4307 149.612 33.9395 149.743 33.4201C149.89 32.841 150.278 32.3822 150.808 32.0982C151.285 31.8429 151.813 31.76 152.278 31.742C156.369 31.5791 158.842 30.0246 160.553 27.74C162.341 25.3522 163.342 22.1054 164.201 18.4953C164.395 17.6806 164.582 16.8439 164.771 15.9993C165.393 13.2175 166.034 10.3485 167.004 7.88635C168.283 4.63609 170.269 1.71206 173.926 0.42019L174.464 1.75614L173.925 0.420616C173.925 0.420474 173.925 0.420332 173.926 0.42019C175.631 -0.183647 177.279 -0.116759 178.763 0.571025C180.19 1.2326 181.329 2.40448 182.242 3.78565C184.06 6.53596 185.267 10.5561 185.992 14.8239C186.722 19.1274 186.987 23.8344 186.826 28.063ZM156.373 38.0828C156.489 38.0343 156.604 37.989 156.716 37.9464C157.259 37.739 157.902 37.5315 158.555 37.3208L158.629 37.2972C160.023 36.8473 161.575 36.341 163.052 35.621C165.959 34.2034 168.337 32.0929 168.337 28.1842C168.337 22.5198 169.013 17.5304 170.05 13.8229C170.568 11.9745 171.189 10.3935 171.895 9.1939C172.554 8.07448 173.47 6.96708 174.744 6.60687C175.451 6.4067 176.183 6.46507 176.853 6.77552C177.485 7.06786 177.986 7.54644 178.387 8.08177C179.179 9.13806 179.815 10.7291 180.329 12.7892C181.367 16.9493 182.032 23.5644 182.032 33.1686C182.032 36.212 180.714 39.47 178.828 42.3926C180.267 40.9495 181.483 39.3474 182.19 37.6384C183.054 35.5386 183.622 32.0556 183.778 27.9613C183.932 23.902 183.677 19.38 182.98 15.2722C182.277 11.1287 181.148 7.55532 179.649 5.28872C178.904 4.16143 178.14 3.469 177.41 3.13028C176.736 2.81793 175.973 2.74839 175.003 3.09167L175.002 3.09209C172.56 3.95497 171.018 5.944 169.865 8.87402C168.981 11.12 168.404 13.6952 167.793 16.4282C167.595 17.3098 167.394 18.2078 167.178 19.1164C166.318 22.7299 165.219 26.4828 163.05 29.3796C160.904 32.2453 157.759 34.2123 153.073 34.5575C153.663 35.4337 154.814 36.6532 156.373 38.0828ZM169.756 47.8613C171.985 46.2065 174.191 43.9124 175.894 41.4044C177.81 38.5827 178.983 35.6464 178.983 33.1686C178.983 23.6398 178.318 17.281 177.359 13.4387C176.875 11.4976 176.347 10.3303 175.891 9.72271C175.741 9.52217 175.627 9.42075 175.561 9.37269C175.506 9.40532 175.416 9.46864 175.295 9.58733C175.085 9.79325 174.836 10.1128 174.566 10.5722C174.024 11.4924 173.481 12.8288 173 14.5468C172.042 17.972 171.387 22.7114 171.387 28.1842C171.387 33.5694 167.915 36.4693 164.46 38.154C162.755 38.9852 160.998 39.553 159.622 39.9971L159.602 40.0035C159.473 40.0452 159.348 40.0856 159.227 40.1248C159.434 40.2731 159.645 40.426 159.857 40.582C160.839 41.3044 161.932 42.1494 163.043 43.0078C163.222 43.1466 163.402 43.2857 163.582 43.4247C165.844 45.1712 168.066 46.8577 169.756 47.8613ZM152.727 33.9025C152.726 33.8982 152.726 33.8961 152.726 33.8961C152.726 33.8962 152.727 33.8983 152.727 33.9025Z" fill="black"/>
<path fill-rule="evenodd" clip-rule="evenodd" d="M49.6588 28.0552C49.8183 32.2482 50.4006 36.1115 51.4492 38.6588L51.4502 38.6613C52.9863 42.3726 56.2982 45.4237 59.2687 47.5864C62.2707 49.7722 65.1094 51.1829 65.9405 51.572C66.4447 51.8081 67.0469 51.7644 67.5062 51.4585C71.4144 48.8554 77.0652 44.6848 81.1812 41.0694C81.3549 40.9678 81.5029 40.8356 81.6186 40.6822C83.5611 38.948 85.227 37.2642 86.0881 35.9245C86.3183 35.5663 86.5224 35.1857 86.6526 34.7985C86.7788 34.4229 86.8726 33.9317 86.7411 33.4123C86.5945 32.8331 86.2066 32.3744 85.6762 32.0904C85.1995 31.8351 84.6715 31.7522 84.2064 31.7342C80.115 31.5713 77.6421 30.0168 75.9312 27.7322C74.1431 25.3444 73.142 22.0976 72.283 18.4875C72.0891 17.6727 71.9021 16.8361 71.7133 15.9915C71.0914 13.2097 70.45 10.3407 69.4808 7.87854C68.2015 4.62828 66.2153 1.70424 62.5587 0.412377L62.0204 1.74833L62.5599 0.412803C62.5595 0.412661 62.5591 0.412519 62.5587 0.412377C60.853 -0.19146 59.2051 -0.124572 57.7215 0.563212C56.2945 1.22479 55.155 2.39667 54.242 3.77784C52.424 6.52814 51.2172 10.5483 50.4928 14.8161C49.7623 19.1196 49.4979 23.8265 49.6588 28.0552ZM80.1115 38.0749C79.9952 38.0265 79.8802 37.9812 79.7686 37.9386C79.225 37.7311 78.5821 37.5237 77.929 37.313L77.8557 37.2894C76.4614 36.8395 74.909 36.3331 73.4326 35.6132C70.5253 34.1956 68.1472 32.0851 68.1472 28.1764C68.1472 22.5119 67.4716 17.5226 66.434 13.8151C65.9168 11.9667 65.2955 10.3857 64.5895 9.18609C63.9308 8.06667 63.0139 6.95926 61.7406 6.59906C61.033 6.39889 60.3013 6.45725 59.6309 6.7677C58.9997 7.06004 58.4986 7.53863 58.0973 8.07395C57.3053 9.13025 56.6693 10.7213 56.1554 12.7814C55.1178 16.9415 54.4521 23.5566 54.4521 33.1608C54.4521 36.2042 55.7705 39.4622 57.6567 42.3848C56.2173 40.9416 55.0018 39.3395 54.2942 37.6306C53.4302 35.5308 52.8622 32.0477 52.7064 27.9535C52.5519 23.8942 52.8073 19.3722 53.5045 15.2644C54.2078 11.1209 55.3367 7.54751 56.835 5.28091C57.5802 4.15362 58.344 3.46119 59.0746 3.12247C59.7483 2.81012 60.5119 2.74058 61.481 3.08385L61.4822 3.08428C63.9246 3.94716 65.4662 5.93618 66.6195 8.8662C67.5035 11.1122 68.08 13.6874 68.6918 16.4204C68.8892 17.302 69.0902 18.1999 69.3064 19.1086C70.1662 22.7221 71.2651 26.4749 73.4344 29.3718C75.5804 32.2374 78.7259 34.2045 83.411 34.5497C82.8219 35.4259 81.6701 36.6453 80.1115 38.0749ZM66.7282 47.8535C64.4996 46.1987 62.293 43.9045 60.5904 41.3966C58.6747 38.5749 57.5017 35.6385 57.5017 33.1608C57.5017 23.6319 58.1667 17.2732 59.1251 13.4309C59.6092 11.4898 60.1375 10.3225 60.5931 9.7149C60.7435 9.51436 60.8578 9.41293 60.9234 9.36487C60.9787 9.39751 61.0685 9.46082 61.1894 9.57952C61.3993 9.78544 61.6483 10.105 61.9187 10.5644C62.4602 11.4846 63.0033 12.821 63.4841 14.539C64.4426 17.9642 65.0977 22.7036 65.0977 28.1764C65.0977 33.5616 68.5691 36.4615 72.0242 38.1462C73.7289 38.9774 75.4859 39.5452 76.8622 39.9893L76.8819 39.9957C77.0113 40.0374 77.1365 40.0778 77.2574 40.117C77.05 40.2653 76.8396 40.4182 76.6276 40.5742C75.6454 41.2966 74.5522 42.1416 73.4416 43C73.262 43.1388 73.082 43.2779 72.902 43.4169C70.6399 45.1634 68.418 46.8499 66.7282 47.8535ZM83.7572 33.8947C83.7581 33.8904 83.7584 33.8883 83.7583 33.8883C83.7582 33.8883 83.7577 33.8905 83.7572 33.8947Z" fill="black"/>
<path fill-rule="evenodd" clip-rule="evenodd" d="M93.7104 4.87632C94.1728 5.93901 94.0672 7.29616 93.6583 8.8019C93.1876 10.568 93.751 12.1709 94.78 13.5468C95.5173 14.5325 96.4557 15.3437 97.287 15.9158C97.3722 15.7926 97.4686 15.6741 97.5769 15.5612C98.1506 14.9634 98.9061 14.6813 99.6188 14.5666C100.981 14.3475 102.614 14.6673 104.105 15.134C105.876 15.6881 107.798 16.5653 109.435 17.5225C109.448 17.0872 109.518 16.6709 109.644 16.2752C109.956 15.2944 110.58 14.5564 111.312 14.0274C112.714 13.014 114.539 12.7369 115.744 12.7369C116.548 12.7369 117.214 13.3218 117.266 14.0734C117.394 15.9511 118.042 18.5419 119.454 20.3418C120.142 21.2187 120.974 21.8621 121.975 22.1935C122.968 22.522 124.27 22.5915 125.997 22.094C131.521 20.5045 136.039 21.9195 139.604 24.5659C142.544 26.7486 144.853 29.7743 146.664 32.6191C146.951 32.511 147.248 32.4305 147.537 32.3704C148.718 32.1245 150.186 32.1341 151.588 32.414C152.987 32.693 154.487 33.2744 155.604 34.3145C156.326 34.9879 156.854 35.8244 157.091 36.8075C159.495 36.3467 161.623 36.3947 163.488 36.9063C165.838 37.5512 167.626 38.8944 168.942 40.6102C171.517 43.9688 172.326 48.8026 172.326 53.1058C172.326 59.1352 171.303 62.7154 170.058 64.7002C169.655 65.3419 169.189 65.8785 168.672 66.2607C170.551 68.998 172.092 71.3403 173.251 73.371C174.657 75.8356 175.581 77.9748 175.804 79.9062C176.037 81.9305 175.494 83.6724 174.141 85.2326C172.938 86.621 171.132 87.8186 168.849 89.0055C171.969 93.7216 174.009 97.3067 174.377 100.764C174.743 104.197 173.461 107.29 170.727 111.006C172.55 111.958 173.857 113.2 174.688 114.611C175.759 116.428 175.977 118.417 175.636 120.211C175.298 121.993 174.398 123.646 173.135 124.825C172.703 125.229 172.215 125.587 171.682 125.873C171.949 126.258 172.175 126.672 172.363 127.103C173.013 128.599 173.261 130.417 173.156 132.315C172.974 135.589 171.726 139.334 169.258 142.491C172.494 145.705 173.597 148.625 173.267 151.525C173.028 153.628 172.025 155.602 170.934 157.453C173.735 157.855 175.811 158.991 176.927 160.985C178.274 163.391 177.908 166.552 176.74 169.858C176.589 170.287 176.229 170.624 175.771 170.766L175.293 169.41C175.771 170.766 175.771 170.766 175.771 170.766L175.769 170.766L175.753 170.771L175.706 170.786C175.664 170.798 175.604 170.817 175.524 170.841C175.365 170.888 175.13 170.958 174.824 171.047C174.212 171.225 173.313 171.479 172.16 171.79C169.853 172.411 166.526 173.254 162.429 174.149C154.24 175.939 142.958 177.94 130.603 178.778L130.601 178.778C118.096 179.615 102.365 179.391 89.7954 178.963C83.5031 178.748 77.9891 178.481 74.0477 178.268C72.0769 178.162 70.4988 178.069 69.4128 178.002C68.8698 177.969 68.4498 177.942 68.1651 177.924L67.8413 177.903L67.7372 177.896L67.7318 177.896L67.7303 177.895C67.7303 177.895 67.7298 177.895 67.839 176.471C67.5378 177.871 67.5368 177.871 67.5368 177.871L67.5354 177.87L67.5316 177.87L67.5201 177.868L67.4816 177.86C67.4678 177.857 67.4516 177.854 67.433 177.85C67.4081 177.845 67.3791 177.839 67.3461 177.832C67.231 177.808 67.0676 177.773 66.8662 177.726C66.4641 177.632 65.9053 177.491 65.272 177.3C64.0366 176.927 62.3914 176.327 61.0908 175.449C59.8279 174.596 58.4564 173.159 58.8818 171.155C59.2057 169.629 60.5186 168.209 62.6796 166.818C62.6168 166.704 62.5528 166.584 62.4885 166.459C62.0115 165.531 61.4557 164.185 61.3947 162.783C61.331 161.316 61.8205 159.692 63.5355 158.574C64.4169 158 65.5483 157.61 66.9511 157.409C64.4104 154.612 63.8531 151.381 64.2633 148.608C64.5282 146.817 65.193 145.209 65.9748 144.005C66.2648 143.558 66.5834 143.148 66.9211 142.797C65.2241 141.013 63.6056 138.46 63.2203 135.475C62.8098 132.295 63.8259 128.84 67.1808 125.533C65.3754 125.133 63.9527 124.33 62.9291 123.201C61.4472 121.567 60.9944 119.463 61.1627 117.504C61.331 115.545 62.1262 113.588 63.348 112.092C63.7848 111.558 64.296 111.061 64.8723 110.643C63.6083 109.418 62.8522 107.8 62.4545 106.1C61.8592 103.556 62.0064 100.627 62.557 97.9195C63.1085 95.2083 64.0903 92.594 65.2771 90.6642C65.7485 89.8977 66.2801 89.1933 66.8684 88.629C64.401 86.9837 62.8356 84.8997 62.0175 82.6423C60.9613 79.7277 61.1902 76.6381 62.1299 73.9946C63.0633 71.369 64.7527 69.0319 66.8212 67.6788C67.5243 67.2189 68.296 66.8575 69.114 66.6526C65.1598 60.5301 64.0571 52.9181 66.2669 46.6728C67.5187 43.1351 69.8459 40.0115 73.3443 37.8943C76.0102 36.281 79.2889 35.2925 83.1672 35.106C83.1638 34.8598 83.2086 34.6306 83.2752 34.4302C83.3731 34.1355 83.5461 33.8408 83.6329 33.6929C83.6447 33.6728 83.6549 33.6554 83.6631 33.641C83.8485 33.3179 83.904 33.1686 83.8711 32.9303C83.8294 32.6292 83.6003 31.976 82.543 30.8308L82.537 30.8243C81.9533 30.1844 81.5074 29.6577 81.1841 29.2279C80.8863 28.832 80.6045 28.4058 80.4696 27.9909C80.4045 27.7907 80.308 27.4023 80.4466 26.9606C80.5544 26.6171 80.7674 26.3505 81.0261 26.1627C80.346 25.2719 79.81 24.3582 79.4029 23.43C78.2039 20.6967 78.1774 17.9619 78.7096 15.5269C79.2396 13.1021 80.3288 10.9435 81.4143 9.29427C82.4789 7.67682 83.6202 6.42951 84.3548 5.88241C85.3737 5.12192 86.4674 4.44013 87.5275 3.94241C88.5541 3.46042 89.695 3.08114 90.7662 3.08598C91.3226 3.0885 91.9258 3.19528 92.4791 3.5058C93.0493 3.82582 93.4613 4.30386 93.7104 4.87632ZM99.853 17.4598C99.853 17.4598 99.8517 17.4628 99.8475 17.4675C99.8506 17.462 99.853 17.4598 99.853 17.4598ZM90.9223 5.96069L90.9213 5.96031L90.9223 5.96069ZM67.839 176.471L67.5378 177.871C67.6012 177.883 67.6659 177.891 67.7303 177.895L67.839 176.471Z" fill="white"/>
<path fill-rule="evenodd" clip-rule="evenodd" d="M93.6721 4.4788C94.1487 5.55975 94.355 7.28626 93.9337 8.81785C93.4487 10.6143 93.3964 11.4425 94.4568 12.842C95.2166 13.8446 95.7903 14.6479 96.6468 15.2298C96.7346 15.1045 96.834 14.984 96.9456 14.8692C97.5368 14.2611 98.3152 13.9742 99.0497 13.8575C100.453 13.6346 102.136 13.9599 103.673 14.4346C105.498 14.9982 107.478 15.8905 109.164 16.8641C109.178 16.4214 109.25 15.9979 109.38 15.5954C109.702 14.5978 110.345 13.8471 111.099 13.309C112.544 12.2782 114.424 11.9963 115.666 11.9963C116.495 11.9963 117.181 12.5913 117.234 13.3558C117.367 15.2657 118.034 17.901 119.489 19.7318C120.198 20.6237 121.055 21.2782 122.087 21.6154C123.11 21.9495 124.452 22.0202 126.231 21.5141C131.923 19.8973 136.58 21.3367 140.253 24.0284C143.283 26.2487 145.662 29.3263 147.528 32.2199C147.824 32.11 148.13 32.0282 148.427 31.967C149.645 31.7168 151.157 31.7266 152.603 32.0113C154.043 32.2951 155.589 32.8865 156.74 33.9445C157.485 34.6294 158.028 35.4803 158.273 36.4802C160.75 36.0116 162.943 36.0604 164.864 36.5808C167.286 37.2368 169.129 38.603 170.485 40.3482C173.138 43.7645 173.972 48.6813 173.972 53.0584C173.972 59.1913 172.918 62.833 171.634 64.8519C171.219 65.5046 170.74 66.0505 170.206 66.4392C172.143 69.2235 173.731 71.6061 174.925 73.6716C176.374 76.1785 177.326 78.3545 177.555 80.3189C177.796 82.378 177.237 84.1498 175.843 85.7368C174.602 87.1491 172.742 88.3672 170.389 89.5746C173.604 94.3717 175.706 98.0182 176.085 101.535C176.462 105.027 175.142 108.173 172.324 111.952C174.203 112.921 175.549 114.184 176.406 115.619C177.509 117.468 177.734 119.491 177.383 121.316C177.035 123.128 176.107 124.81 174.805 126.009C174.36 126.42 173.857 126.784 173.308 127.075C173.584 127.467 173.817 127.888 174.01 128.326C174.679 129.848 174.935 131.698 174.827 133.627C174.64 136.958 173.353 140.768 170.81 143.979C174.145 147.248 175.281 150.217 174.942 153.167C174.695 155.306 173.47 155.975 172.344 157.859C175.231 158.267 177.37 159.423 178.52 161.451C179.909 163.898 179.724 168.452 178.52 171.815C178.364 172.252 177.994 172.594 177.522 172.738L177.029 171.359C177.522 172.738 177.522 172.738 177.522 172.738L177.52 172.739L177.503 172.744L177.454 172.759C177.412 172.772 177.349 172.79 177.267 172.815C177.103 172.863 176.862 172.934 176.546 173.025C175.915 173.205 174.989 173.465 173.801 173.78C171.424 174.412 167.995 175.27 163.773 176.18C155.335 178.001 143.709 180.036 130.977 180.888L130.976 180.889C118.09 181.739 101.88 181.512 88.9271 181.076C82.4431 180.858 76.7611 180.587 72.6996 180.37C70.6687 180.262 69.0426 180.167 67.9235 180.099C67.364 180.065 66.9312 180.038 66.6379 180.02L66.3041 179.998L66.1969 179.991L66.1913 179.991L66.1898 179.991C66.1898 179.991 66.1892 179.991 66.3018 178.542C65.9914 179.966 65.9903 179.966 65.9903 179.966L65.9889 179.965L65.985 179.965L65.9731 179.962L65.9335 179.955C65.9193 179.952 65.9025 179.949 65.8834 179.945C65.8578 179.94 65.8278 179.934 65.7938 179.927C65.6752 179.902 65.5069 179.866 65.2993 179.818C64.885 179.723 64.3092 179.579 63.6566 179.385C62.3835 179.005 60.6882 178.395 59.3481 177.502C58.0466 176.635 56.6333 175.173 57.0717 173.134C57.0717 170.248 58.4246 168.804 60.6514 167.389C60.5867 167.273 60.5208 167.151 60.4545 167.024C59.963 166.08 59.3902 164.711 59.3274 163.285C59.2617 161.792 59.7662 160.14 61.5334 159.003C62.4416 158.419 63.6076 158.023 65.053 157.818C62.435 154.974 62.1945 153.021 62.6172 150.2C62.8901 148.379 63.5752 146.743 64.3807 145.518C64.6797 145.064 65.0079 144.646 65.3559 144.289C63.6072 142.475 61.9394 139.879 61.5424 136.842C61.1194 133.607 62.1665 130.093 65.6235 126.73C63.7632 126.323 62.2971 125.505 61.2423 124.357C59.7153 122.695 59.2486 120.555 59.4221 118.562C59.5955 116.57 60.415 114.579 61.674 113.058C62.1241 112.514 62.6508 112.008 63.2447 111.584C61.9422 110.337 61.1631 108.692 60.7533 106.963C60.1398 104.374 60.2915 101.395 60.8589 98.6415C61.4272 95.8838 62.4389 93.2246 63.6618 91.2617C64.1476 90.4821 64.6954 89.7656 65.3016 89.1916C62.7591 87.518 61.1459 85.3982 60.303 83.1021C59.2146 80.1374 59.4504 76.9948 60.4188 74.3058C61.3805 71.6352 63.1215 69.258 65.2529 67.8817C65.9775 67.4138 66.7727 67.0462 67.6156 66.8379C63.5409 60.6102 62.4046 52.8675 64.6818 46.5149C65.9717 42.9165 68.3698 39.7392 71.9748 37.5857C74.7219 35.9447 78.1004 34.9393 82.0969 34.7495C82.0935 34.4991 82.1396 34.266 82.2083 34.0621C82.3091 33.7624 82.4874 33.4626 82.5768 33.3122C82.589 33.2917 82.5995 33.274 82.608 33.2594C82.799 32.9307 82.8562 32.7788 82.8222 32.5365C82.7793 32.2302 82.5432 31.5658 81.4537 30.4009L81.4476 30.3944C80.8461 29.7435 80.3866 29.2077 80.0534 28.7705C79.7465 28.3678 79.4561 27.9343 79.3171 27.5123C79.2501 27.3087 79.1507 26.9135 79.2935 26.4642C79.4045 26.1149 79.624 25.8437 79.8906 25.6527C79.1898 24.7466 78.6374 23.8172 78.2179 22.8731C76.9825 20.0928 76.9551 17.3111 77.5035 14.8343C78.0497 12.3678 79.172 10.1722 80.2906 8.49462C81.3876 6.8494 82.5637 5.58067 83.3207 5.02418C84.3707 4.25063 85.4977 3.55713 86.5901 3.05087C87.6479 2.5606 88.8236 2.17481 89.9274 2.17973C90.5008 2.18229 91.1224 2.29091 91.6925 2.60676C92.2801 2.93228 93.4154 3.89652 93.6721 4.4788ZM85.2137 30.2724C85.4059 30.3911 85.602 30.5089 85.8021 30.6259C86.5356 31.0545 87.5061 30.8523 87.9698 30.1743C88.4335 29.4963 88.2148 28.5992 87.4813 28.1706C83.9773 26.123 82.0723 23.902 81.1247 21.7695C80.1747 19.6316 80.1307 17.4555 80.5821 15.4168C81.0359 13.3677 81.9846 11.4901 82.9657 10.0187C83.968 8.5156 84.9197 7.55991 85.2769 7.29748L85.2786 7.29625C86.1995 6.61769 87.1433 6.04391 87.9985 5.64754C88.8886 5.23503 90.2486 5.56079 90.6231 5.56246C90.6886 5.56275 90.7331 5.56774 90.7609 5.57258L90.762 5.57498C90.8475 5.76892 91.8452 6.39646 91.4674 7.76808C90.6966 10.6183 90.7672 12.5734 92.1774 14.4346C93.572 16.2751 94.7624 17.6658 96.1001 18.3595C96.1423 18.3814 96.1852 18.4013 96.2286 18.4193C96.5365 19.9412 97.3186 21.0062 97.8361 21.711C97.9688 21.8916 98.0841 22.0486 98.1696 22.1836C98.423 22.5838 98.4626 22.7824 98.4278 23.0032C98.3811 23.3 98.1526 23.8717 97.2532 24.8865C96.7032 25.507 96.8016 26.4221 97.4728 26.9304C98.1441 27.4388 99.1341 27.3479 99.684 26.7274C100.727 25.5505 101.37 24.485 101.537 23.4218C101.717 22.2826 101.314 21.3987 100.882 20.7162C100.681 20.3994 100.485 20.1249 100.302 19.8689C99.6987 19.0234 99.2399 18.3808 99.2399 17.0928C99.2399 16.9152 99.2702 16.8361 99.2841 16.8104C99.3035 16.7969 99.3811 16.7522 99.5819 16.7203C100.194 16.623 101.264 16.7533 102.677 17.1896C105.457 18.0482 108.569 19.7688 109.927 21.0245C110.042 21.131 110.171 21.2175 110.308 21.284C111.513 24.2975 112.93 26.4902 113.683 27.3852C114.216 28.0184 115.203 28.1324 115.888 27.64C116.573 27.1475 116.696 26.235 116.164 25.6018C115.502 24.8158 113.701 22.0308 112.492 18.1198C112.24 17.3053 112.28 16.7695 112.391 16.4266C112.499 16.0922 112.71 15.8296 113.019 15.6085C113.364 15.3628 113.812 15.1851 114.283 15.0693C114.627 17.0938 115.424 19.523 116.957 21.4515C117.948 22.6985 119.283 23.7802 121.04 24.3541C122.806 24.931 124.849 24.9462 127.155 24.2904C131.69 23.0027 135.29 24.0982 138.301 26.3047C141.39 28.5683 143.824 31.9878 145.774 35.2273C146.122 35.8054 146.849 36.0931 147.542 35.9269C148.086 35.7964 148.501 35.4121 148.654 34.9327C148.751 34.8939 148.899 34.8459 149.109 34.8026C149.827 34.655 150.879 34.6419 151.948 34.8523C153.021 35.0636 153.939 35.4658 154.524 36.0038C155.053 36.4903 155.382 37.1439 155.244 38.1402C155.177 38.6285 155.382 39.1149 155.789 39.4327C156.195 39.7504 156.748 39.8563 157.258 39.7139C160.12 38.9139 162.309 38.9156 163.981 39.3683C165.635 39.8165 166.924 40.7443 167.932 42.0424C170.006 44.7128 170.83 48.8798 170.83 53.0584C170.83 58.9669 169.798 62.0061 168.925 63.3804C168.759 63.6418 168.611 63.8241 168.492 63.9495C168.259 63.8693 168.003 63.8393 167.744 63.8704C167.387 63.828 167.012 63.8981 166.687 64.0938C165.96 64.5314 165.754 65.4311 166.227 66.1033C168.786 69.737 170.765 72.6395 172.153 75.0406C173.552 77.4602 174.268 79.2353 174.431 80.631C174.583 81.9322 174.26 82.9297 173.403 83.9058C172.479 84.9581 170.894 86.0263 168.398 87.2704C168.079 87.4295 167.844 87.6758 167.708 87.9601C167.64 87.9879 167.574 88.0205 167.509 88.0579C166.774 88.4842 166.552 89.3806 167.013 90.0601C170.71 95.5062 172.637 98.8478 172.958 101.824C173.263 104.645 172.128 107.387 168.684 111.658C168.39 112.022 168.298 112.492 168.434 112.929C168.571 113.365 168.92 113.718 169.379 113.881C171.641 114.687 172.949 115.842 173.654 117.023C174.366 118.216 174.531 119.55 174.289 120.808C174.045 122.078 173.397 123.205 172.587 123.952C171.776 124.699 170.921 124.974 170.171 124.873C169.367 124.765 168.607 125.24 168.417 125.969C168.226 126.699 168.668 127.442 169.436 127.684C170.041 127.875 170.647 128.395 171.099 129.421C171.55 130.447 171.78 131.848 171.689 133.477C171.506 136.736 170.055 140.579 167.182 143.501C166.598 144.094 166.645 145.013 167.287 145.552C167.624 145.835 168.056 145.958 168.476 145.925C171.416 148.787 172.034 150.976 171.817 152.86C171.584 154.879 170.209 155.461 168.722 157.877C168.611 158.056 168.499 158.239 168.385 158.425C168.109 158.875 168.112 159.426 168.394 159.872C168.675 160.319 169.192 160.594 169.751 160.594C173.43 160.594 175.052 161.592 175.737 162.8C176.448 164.053 176.675 167.39 175.774 170.205C175.724 170.219 175.671 170.234 175.615 170.25C175.004 170.425 174.099 170.679 172.933 170.988C170.6 171.608 167.222 172.453 163.059 173.352C154.729 175.149 143.273 177.153 130.752 177.991C118.042 178.83 101.971 178.609 89.0414 178.173C82.5844 177.956 76.9252 177.686 72.8807 177.47C70.8586 177.362 69.2405 177.268 68.1287 177.201C67.5728 177.167 67.1435 177.14 66.8535 177.122L66.5246 177.101L66.5219 177.1C66.5086 177.098 66.494 177.095 66.4781 177.091C66.3823 177.072 66.2394 177.041 66.0592 177C65.6979 176.916 65.1922 176.79 64.6209 176.62C63.4461 176.27 62.124 175.771 61.1859 175.146C60.2091 174.495 60.0833 174.029 60.1538 173.701C60.2678 173.171 60.6696 170.715 63.5759 169.106C63.9489 168.899 64.2126 168.559 64.3043 168.166C64.3961 167.774 64.3077 167.363 64.0601 167.033L64.0524 167.022C64.0436 167.01 64.0289 166.99 64.0091 166.962C63.9694 166.905 63.9095 166.818 63.8359 166.705C63.688 166.479 63.4883 166.153 63.2863 165.765C62.8673 164.96 62.5045 164.011 62.4673 163.166C62.433 162.388 62.6641 161.815 63.3287 161.387C64.1135 160.883 63.6931 159.152 66.9057 159.33C67.6142 159.369 68.2632 158.964 68.4891 158.342C68.715 157.72 68.4617 157.036 67.8711 156.672C63.7279 154.118 65.3149 153.368 65.7299 150.599C65.9427 149.179 66.4788 147.92 67.0659 147.027C67.3602 146.579 67.6444 146.259 67.8711 146.063C67.9817 145.967 68.0533 145.922 68.0851 145.904C68.417 145.845 68.7071 145.692 68.9262 145.478C68.9422 145.463 68.9577 145.447 68.973 145.431C68.9825 145.421 68.9919 145.41 69.0011 145.4C69.1305 145.254 69.2293 145.086 69.29 144.903C69.3527 144.714 69.3745 144.511 69.347 144.302C69.301 143.954 69.1252 143.649 68.8698 143.425C68.8521 143.409 68.8339 143.394 68.8154 143.379C67.0378 141.95 65.0442 139.415 64.6622 136.494C64.2978 133.707 65.3581 130.247 70.3415 126.724C71.0308 126.237 71.1623 125.326 70.6352 124.688C70.2321 124.201 69.5605 124.015 68.9585 124.173C68.8223 124.137 68.6786 124.118 68.5301 124.118C65.9313 124.118 64.4578 123.369 63.6375 122.477C62.7898 121.554 62.428 120.248 62.5545 118.795C62.681 117.341 63.2899 115.886 64.1699 114.823C65.0602 113.747 66.0717 113.239 66.9874 113.239C67.8552 113.239 68.5587 112.589 68.5587 111.786C68.5587 110.984 67.8552 110.334 66.9874 110.334C66.8666 110.334 66.7469 110.338 66.6284 110.345C65.2223 109.659 64.2879 108.303 63.8229 106.341C63.3294 104.259 63.4277 101.7 63.9459 99.1851C64.4632 96.6747 65.3726 94.3364 66.385 92.7114C66.8949 91.893 67.3861 91.3281 67.8006 91.0036C68.1331 90.7434 68.2999 90.722 68.3296 90.7209C69.1007 90.8394 69.8494 90.4157 70.0853 89.7261C70.3219 89.0345 69.9702 88.2876 69.2615 87.9763C65.8953 86.498 64.0926 84.3856 63.2788 82.1686C62.4513 79.9147 62.6047 77.4327 63.4004 75.2233C64.2027 72.9955 65.6005 71.2005 67.0525 70.263C67.7686 69.8006 68.4403 69.5818 69.026 69.5552C69.5852 69.5298 70.166 69.6729 70.7677 70.1036C71.4539 70.5946 72.4408 70.4785 72.972 69.8443C73.5032 69.21 73.3776 68.2978 72.6915 67.8067C72.3637 67.5722 72.0248 67.3738 71.6773 67.211C66.9331 61.3939 65.4714 53.5472 67.6647 47.4286C68.7602 44.3726 70.7543 41.7734 73.6805 40.0254C76.6049 38.2784 80.5799 37.3106 85.7682 37.7113C86.5365 37.7706 87.238 37.3058 87.4239 36.6141C87.6098 35.9224 87.2252 35.2082 86.5161 34.9282C86.047 34.7431 85.7098 34.5915 85.4703 34.4688C85.7404 33.9806 86.0851 33.2086 85.9387 32.1634C85.8543 31.5614 85.6177 30.9369 85.2137 30.2724ZM99.291 16.8003C99.291 16.8003 99.2897 16.8034 99.2854 16.8082C99.2886 16.8026 99.291 16.8003 99.291 16.8003ZM90.7991 5.58179L90.7981 5.5814L90.7991 5.58179ZM66.3018 178.542L65.9914 179.966C66.0567 179.978 66.1234 179.986 66.1898 179.991L66.3018 178.542Z" fill="black"/>
<path fill-rule="evenodd" clip-rule="evenodd" d="M107.696 85.6122C107.696 84.8167 108.341 84.1719 109.137 84.1719C111.103 84.1719 112.731 84.8913 114.006 86.1396C115.246 87.3524 116.1 89.009 116.701 90.8388C117.899 94.485 118.229 99.2524 118.229 103.909C118.229 104.475 118.232 105.028 118.236 105.567C118.246 107.176 118.256 108.663 118.167 109.993C118.048 111.801 117.742 113.485 116.941 115.052C115.322 118.215 111.921 120.438 105.589 122.781C104.843 123.057 104.014 122.676 103.738 121.93C103.462 121.184 103.843 120.355 104.589 120.079C110.843 117.765 113.292 115.857 114.376 113.739C114.926 112.665 115.186 111.421 115.293 109.803C115.374 108.586 115.365 107.25 115.355 105.678C115.352 105.12 115.348 104.532 115.348 103.909C115.348 99.3067 115.012 94.9256 113.964 91.7381C113.443 90.1511 112.779 88.9696 111.991 88.1985C111.24 87.4629 110.33 87.0526 109.137 87.0526C108.341 87.0526 107.696 86.4077 107.696 85.6122Z" fill="black"/>
<path fill-rule="evenodd" clip-rule="evenodd" d="M120.166 91.7381C119.119 94.9256 118.783 99.3067 118.783 103.909C118.783 104.532 118.779 105.12 118.776 105.678C118.766 107.25 118.757 108.586 118.838 109.803C118.945 111.421 119.205 112.665 119.754 113.739C120.838 115.857 123.287 117.765 129.541 120.079C130.288 120.355 130.669 121.184 130.392 121.93C130.116 122.676 129.288 123.057 128.542 122.781C122.21 120.438 118.809 118.215 117.19 115.052C116.388 113.485 116.083 111.801 115.963 109.993C115.875 108.663 115.885 107.176 115.895 105.567C115.899 105.028 115.902 104.475 115.902 103.909C115.902 99.2524 116.232 94.4851 117.43 90.8388C118.031 89.009 118.885 87.3524 120.125 86.1396C121.4 84.8913 123.027 84.1719 124.994 84.1719C125.79 84.1719 126.434 84.8167 126.434 85.6122C126.434 86.4077 125.79 87.0526 124.994 87.0526C123.8 87.0526 122.891 87.4629 122.139 88.1985C121.351 88.9696 120.688 90.1511 120.166 91.7381Z" fill="black"/>
<path fill-rule="evenodd" clip-rule="evenodd" d="M107.64 83.9464C108.416 83.0038 110.135 81.1187 116.788 81.0078C123.441 81.1187 125.16 83.0593 125.937 83.9464C125.992 84.0019 125.992 84.0573 126.047 84.0573C128.099 86.386 127.6 89.491 126.325 90.489C125.493 91.1543 123.996 91.7642 122.721 90.489C121.667 89.4355 120.669 89.99 120.392 90.7662C120.392 91.0989 120.447 91.5979 120.503 92.0969C120.558 92.6514 120.669 93.3167 120.669 93.8712C120.669 94.9246 119.893 96.1999 118.618 96.9761C118.063 97.3088 117.564 97.6415 116.843 97.6415C116.123 97.6415 115.679 97.3088 115.069 96.9761C113.794 96.2553 113.018 94.9246 113.018 93.8712C113.018 93.3167 113.073 92.7068 113.184 92.0969C113.24 91.5979 113.295 91.0989 113.295 90.7662C113.018 89.99 112.02 89.491 110.966 90.489C109.691 91.7642 108.194 91.1543 107.362 90.489C106.087 89.4355 105.533 86.386 107.64 84.0573C107.529 84.0573 107.584 84.0019 107.64 83.9464Z" fill="black"/>
<path d="M116.9 132.96C128.23 132.96 137.414 121.342 137.414 107.011C137.414 92.68 128.23 81.0625 116.9 81.0625C105.57 81.0625 96.3848 92.68 96.3848 107.011C96.3848 121.342 105.57 132.96 116.9 132.96Z" fill="#ECCAA3"/>
<path fill-rule="evenodd" clip-rule="evenodd" d="M116.734 81.0078C110.08 81.1187 108.362 83.0038 107.585 83.9464C107.53 84.0019 107.474 84.0573 107.585 84.0573C105.478 86.386 106.033 89.4355 107.308 90.489C108.14 91.1543 109.637 91.7642 110.912 90.489C111.966 89.491 112.964 89.99 113.241 90.7662C113.241 91.0989 113.185 91.5979 113.13 92.0969C113.019 92.7068 112.964 93.3167 112.964 93.8712C112.964 94.9085 113.716 96.2145 114.957 96.9425C115.199 99.1066 115.293 101.476 115.293 103.907C115.293 104.53 115.297 105.118 115.3 105.676V105.676C115.31 107.248 115.319 108.583 115.238 109.801C115.131 111.418 114.871 112.663 114.322 113.737C113.238 115.854 110.789 117.763 104.535 120.077C103.789 120.353 103.408 121.181 103.684 121.927C103.96 122.674 104.788 123.055 105.534 122.778C111.867 120.435 115.267 118.213 116.886 115.049C116.929 114.965 116.971 114.881 117.011 114.796C117.051 114.881 117.093 114.965 117.136 115.049C118.755 118.213 122.155 120.435 128.488 122.778C129.234 123.055 130.062 122.674 130.338 121.927C130.614 121.181 130.233 120.353 129.487 120.077C123.233 117.763 120.784 115.854 119.7 113.737C119.151 112.663 118.891 111.418 118.784 109.801C118.703 108.583 118.711 107.248 118.721 105.676V105.676C118.725 105.118 118.729 104.53 118.729 103.907C118.729 101.344 118.833 98.8504 119.106 96.5929C120.055 95.8199 120.615 94.7656 120.615 93.8712C120.615 93.4835 120.561 93.0415 120.509 92.6212C120.487 92.4405 120.465 92.2637 120.449 92.0969C120.408 91.7326 120.368 91.3683 120.349 91.0687C120.466 90.7624 120.589 90.4737 120.719 90.2027C121.171 89.8063 121.904 89.7267 122.667 90.489C123.942 91.7642 125.439 91.1543 126.27 90.489C127.546 89.491 128.045 86.386 125.993 84.0573C125.959 84.0573 125.946 84.0361 125.928 84.0069C125.917 83.9888 125.904 83.9676 125.882 83.9464C125.106 83.0593 123.387 81.1187 116.734 81.0078Z" fill="black"/>
<path fill-rule="evenodd" clip-rule="evenodd" d="M46.9824 140.945V178.87H63.5352V215.623H133.563V201.817H129.571V191.504H135.836V215.623H157.682V191.504H165.721V178.87H181.272V144.993H177.279V141.001H147.394V144.993H145.176V141.001H83.1329V144.993H79.1408V165.064H68.828V140.945H46.9824Z" fill="black"/>
<path d="M80.0277 173.939H51.8613V145.828H63.893V169.947H79.9722V173.939H80.0277Z" fill="#FFCE00"/>
<path d="M84.0198 173.939V149.82H88.0118V145.828H108.083V149.82H112.075V173.939H104.036V161.907H95.996V173.939H84.0198ZM96.1069 157.86H104.146V150.43H96.1069V157.86Z" fill="#FFCE00"/>
<path d="M136.249 173.939H128.21V149.82H124.218V173.939H116.178V145.828H140.297V149.82H144.289V173.939H140.297V149.82H136.249V173.939Z" fill="#FFCE00"/>
<path d="M148.337 173.939V149.82H152.329V145.828H172.4V149.82H176.392V173.939H168.352V161.907H160.313V173.939H148.337ZM160.368 157.86H168.408V150.43H160.368V157.86Z" fill="#FFCE00"/>
<path d="M67.9404 210.719V182.608H92.0592V186.601H96.0513V194.64H92.0592V198.632H96.0513V206.672H92.0592V210.664H67.9404V210.719ZM80.0276 198.688V206.727H88.0672V198.688H80.0276ZM80.0276 194.64H88.0672V186.601H80.0276V194.64Z" fill="#FFCE00"/>
<path d="M128.21 210.719H100.099V182.608H128.21V186.601H112.13V194.64H124.162V198.632H112.13V206.672H128.21V210.719Z" fill="#FFCE00"/>
<path d="M160.369 182.608V186.601H152.329V210.719H140.297V186.601H132.258V182.608H160.369Z" fill="#FFCE00"/>
<g clip-path="url(#clip0_7397_12569)">
<path d="M61.334 61.6562V75.4473V75.7607H65.3895V80.6712H69.5464V85.2682H73.7033V89.6563H100.165V85.2682H104.424V80.6712H108.581V75.6563H112.737V66.6712H120.342V75.6563H124.498V80.6712H128.655V85.2682H133.015V89.6563H159.376V85.2682H163.533V80.6712H167.69V75.7607H171.745V75.4473V61.6562H61.334Z" fill="black"/>
<path d="M78.7726 75.9691V71.4766H74.6157H70.3574V75.9691H74.6157V80.4616H78.7726V84.9542H83.0309V80.4616V76.1781V75.9691H78.7726Z" fill="#393939"/>
<path d="M154.813 75.9691V71.4766H154.915H159.071H163.33V75.9691H159.071V80.4616H154.813V84.9542H150.656V80.4616V76.1781V75.9691H154.813Z" fill="#393939"/>
</g>
<g filter="url(#filter1_i_7397_12569)">
<path d="M149.619 223.586C149.619 229.129 145.126 233.622 139.583 233.622C134.04 233.622 129.547 229.129 129.547 223.586C129.547 218.043 134.04 213.55 139.583 213.55C145.126 213.55 149.619 218.043 149.619 223.586Z" fill="black"/>
<path d="M137.583 233.297C137.583 238.84 133.089 243.333 127.547 243.333C122.004 243.333 117.511 238.84 117.511 233.297C117.511 227.755 122.004 223.261 127.547 223.261C133.089 223.261 137.583 227.755 137.583 233.297Z" fill="black"/>
<path d="M125.453 223.586C125.453 229.129 120.959 233.622 115.417 233.622C109.874 233.622 105.381 229.129 105.381 223.586C105.381 218.043 109.874 213.55 115.417 213.55C120.959 213.55 125.453 218.043 125.453 223.586Z" fill="black"/>
<path d="M113.398 233.166C113.398 238.709 108.905 243.202 103.362 243.202C97.8194 243.202 93.3261 238.709 93.3261 233.166C93.3261 227.624 97.8194 223.13 103.362 223.13C108.905 223.13 113.398 227.624 113.398 233.166Z" fill="black"/>
<path d="M137.581 233.3C137.581 238.843 133.088 243.336 127.545 243.336C122.003 243.336 117.509 238.843 117.509 233.3C117.509 227.757 122.003 223.264 127.545 223.264C133.088 223.264 137.581 227.757 137.581 233.3Z" fill="black"/>
<path d="M149.629 223.575C149.629 229.118 145.135 233.611 139.593 233.611C134.05 233.611 129.557 229.118 129.557 223.575C129.557 218.032 134.05 213.539 139.593 213.539C145.135 213.539 149.629 218.032 149.629 223.575Z" fill="black"/>
<path d="M149.629 223.575C149.629 229.118 145.135 233.611 139.593 233.611C134.05 233.611 129.557 229.118 129.557 223.575C129.557 218.032 134.05 213.539 139.593 213.539C145.135 213.539 149.629 218.032 149.629 223.575Z" fill="black"/>
<path d="M103.175 223.571C103.175 230.127 98.9067 235.445 92.3508 235.445C85.7949 235.445 80.9844 231.596 80.9844 225.04C80.9844 218.484 84.7488 213.56 91.3047 213.56C97.8606 213.56 103.175 217.015 103.175 223.571Z" fill="black"/>
<path d="M113.387 233.169C113.387 238.712 108.894 243.205 103.351 243.205C97.8081 243.205 93.3148 238.712 93.3148 233.169C93.3148 227.627 97.8081 223.133 103.351 223.133C108.894 223.133 113.387 227.627 113.387 233.169Z" fill="black"/>
<path d="M125.446 223.596C125.446 229.139 120.953 233.632 115.41 233.632C109.867 233.632 105.374 229.139 105.374 223.596C105.374 218.053 109.867 213.56 115.41 213.56C120.953 213.56 125.446 218.053 125.446 223.596Z" fill="black"/>
</g>
<path d="M149.402 223.586C149.402 226.046 148.498 228.295 147.003 230.017C145.203 232.086 142.55 233.394 139.593 233.394C138.98 233.394 138.381 233.338 137.8 233.231C137.769 228.364 134.347 224.302 129.778 223.288C129.845 220.939 130.737 218.798 132.174 217.142C133.975 215.074 136.626 213.767 139.583 213.767C145.006 213.767 149.402 218.163 149.402 223.586ZM137.363 233.14C133.064 232.142 129.848 228.32 129.775 223.735C134.074 224.733 137.29 228.555 137.363 233.14ZM129.33 223.643C129.357 228.517 132.784 232.586 137.36 233.597C137.319 234.978 136.993 236.287 136.438 237.468C134.87 240.805 131.478 243.116 127.547 243.116C122.22 243.116 117.884 238.875 117.732 233.585C120.266 232.998 122.44 231.472 123.868 229.394C124.991 227.762 125.655 225.788 125.67 223.66C126.277 223.543 126.904 223.481 127.545 223.481C128.155 223.481 128.751 223.537 129.33 223.643ZM123.51 229.148C122.159 231.109 120.114 232.555 117.729 233.131C117.753 231.702 118.082 230.347 118.654 229.129C119.904 226.47 122.311 224.462 125.228 223.756C125.196 225.756 124.566 227.61 123.51 229.148ZM125.225 223.308C122.134 224.024 119.579 226.136 118.261 228.945C117.649 230.246 117.303 231.696 117.293 233.226C116.685 233.343 116.058 233.405 115.417 233.405C114.801 233.405 114.199 233.348 113.615 233.24C113.615 233.215 113.615 233.191 113.615 233.166C113.615 228.275 110.19 224.183 105.607 223.16C105.688 221.262 106.308 219.504 107.317 218.034C109.088 215.463 112.052 213.777 115.41 213.777C120.737 213.777 125.072 218.018 125.225 223.308ZM113.17 233.147C108.837 232.132 105.608 228.248 105.598 223.609C109.931 224.623 113.159 228.507 113.17 233.147ZM105.157 223.596C105.157 228.486 108.58 232.576 113.16 233.602C112.97 238.007 109.876 241.66 105.744 242.694C104.981 242.884 104.184 242.985 103.362 242.985C98.7682 242.985 94.9112 239.831 93.8394 235.569C99.6879 234.826 103.392 229.713 103.392 223.571C103.392 223.497 103.392 223.424 103.39 223.35C103.994 223.353 104.584 223.41 105.157 223.516C105.157 223.543 105.157 223.569 105.157 223.596ZM100.866 223.219C96.4041 224.33 93.0977 228.363 93.0977 233.169C93.0977 233.861 93.1661 234.536 93.2966 235.189C92.987 235.215 92.6717 235.228 92.3508 235.228C89.1141 235.228 86.3272 234.278 84.3527 232.538C82.3813 230.801 81.2015 228.261 81.2015 225.04C81.2015 221.802 82.131 218.986 83.8508 216.983C85.5672 214.984 88.0855 213.777 91.3047 213.777C94.5473 213.777 97.4638 214.632 99.5645 216.278C101.516 217.807 102.776 220.028 102.94 222.922C102.228 222.951 101.534 223.052 100.866 223.219ZM93.7423 235.143C93.6118 234.505 93.5432 233.844 93.5432 233.166C93.5432 228.568 96.7041 224.708 100.972 223.641C101.611 223.482 102.274 223.385 102.956 223.358C102.957 223.429 102.958 223.5 102.958 223.571C102.958 229.554 99.3616 234.449 93.7423 235.143Z" stroke="url(#paint0_linear_7397_12569)" stroke-width="0.434257"/>
<path fill-rule="evenodd" clip-rule="evenodd" d="M130.651 220.709C131.08 219.686 131.678 218.748 132.41 217.927L132.411 217.926C134.294 215.809 137.071 214.469 140.168 214.466C140.171 214.466 140.175 214.466 140.178 214.466C145.856 214.466 150.458 218.957 150.458 224.497C150.458 224.501 150.458 224.505 150.458 224.508C150.455 227.022 149.505 229.32 147.937 231.079C146.423 232.781 144.331 233.981 141.959 234.388L141.958 234.388C141.38 234.487 140.785 234.539 140.178 234.54C140.175 234.54 140.171 234.54 140.168 234.54C139.466 234.54 138.781 234.471 138.118 234.34C138.11 234.976 138.042 235.597 137.918 236.199C137.789 236.827 137.599 237.435 137.356 238.015C137.29 238.172 137.22 238.327 137.146 238.48C135.504 241.888 131.954 244.248 127.839 244.249H127.837C123.533 244.249 119.847 241.668 118.315 238.005C118.314 238.002 118.313 238 118.312 237.997C117.839 236.863 117.572 235.626 117.558 234.329C117.434 234.355 117.309 234.379 117.184 234.4C117.18 234.401 117.176 234.401 117.172 234.402C116.601 234.499 116.013 234.549 115.414 234.549C115.411 234.549 115.409 234.549 115.407 234.549C114.832 234.549 114.268 234.503 113.719 234.415L113.717 234.415C113.592 234.394 113.467 234.372 113.342 234.347C113.308 235.641 113.023 236.874 112.533 238.001C112.531 238.004 112.53 238.008 112.528 238.011C111.279 240.874 108.705 243.054 105.557 243.819C104.759 244.013 103.925 244.117 103.066 244.118C103.062 244.118 103.058 244.118 103.054 244.118C99.5792 244.118 96.5071 242.436 94.6463 239.861C93.8838 238.805 93.3248 237.6 93.0247 236.299C92.6215 236.341 92.8451 235.062 92.4229 235.062C91.4903 235.062 90.4002 234.655 89.545 234.51C91.1593 234.04 91.1716 232.239 89.545 234.51C84.2485 233.605 80.1433 231.6 80.1433 225.962C80.1433 219.409 83.9993 214.487 90.7147 214.487C95.7979 214.487 100.153 216.466 101.969 220.269L101.971 220.274C101.982 220.297 101.993 220.32 102.004 220.343L102.005 220.345C102.512 221.435 102.813 222.673 102.866 224.055C102.928 224.054 102.991 224.053 103.054 224.053C103.058 224.053 103.062 224.053 103.066 224.053C103.773 224.053 104.463 224.123 105.13 224.255C105.164 222.959 105.45 221.725 105.942 220.596L105.944 220.591C105.989 220.489 106.035 220.387 106.083 220.286C106.326 219.778 106.611 219.293 106.934 218.836C108.785 216.205 111.889 214.479 115.407 214.477C115.409 214.477 115.411 214.477 115.414 214.477C119.72 214.477 123.408 217.061 124.938 220.726L124.939 220.729C125.413 221.864 125.68 223.104 125.693 224.403C125.811 224.378 125.929 224.356 126.048 224.335C126.629 224.236 127.227 224.184 127.837 224.184H127.839C127.886 224.184 127.934 224.184 127.981 224.185C128.507 224.192 129.023 224.237 129.527 224.318C129.529 224.319 129.531 224.319 129.534 224.319C129.653 224.339 129.771 224.36 129.889 224.383C129.905 223.085 130.174 221.846 130.65 220.711L130.651 220.709ZM141.348 238.24C148.595 237.655 154.29 231.731 154.29 224.508C154.29 216.898 147.967 210.729 140.168 210.729C134.836 210.729 130.241 210.231 127.837 214.487C125.434 210.231 120.746 210.729 115.414 210.729C110.733 210.729 105.635 211.064 103.066 214.487C102.396 213.635 103.946 215.16 103.066 214.487C100.143 210.77 94.6981 211.143 90.7147 211.143C86.3174 211.143 76.3788 213.631 76.7195 225.962C76.9703 235.045 86.2078 238.201 89.7512 238.451C91.7863 244.249 97.4475 247.866 103.054 247.866C104.239 247.866 105.39 247.724 106.49 247.456C110.324 246.524 113.539 244.063 115.414 240.774C117.803 245.076 122.471 247.997 127.837 247.997C133.489 247.997 138.365 244.758 140.622 240.078C140.907 239.487 141.15 238.873 141.348 238.24Z" fill="black"/>
<circle cx="139.631" cy="223.918" r="9.99611" stroke="#FF040E" stroke-width="3.91938"/>
<circle cx="127.643" cy="233.59" r="9.99611" stroke="#05D632" stroke-width="3.91938"/>
<circle cx="115.561" cy="223.918" r="9.99611" stroke="white" stroke-width="3.91938"/>
<circle cx="103.555" cy="233.457" r="9.99611" stroke="#F9C900" stroke-width="3.91938"/>
<circle cx="91.4902" cy="223.918" r="9.99611" stroke="#00C2FF" stroke-width="3.91938"/>
<g clip-path="url(#clip1_7397_12569)">
<circle cx="127.641" cy="233.598" r="9.99611" stroke="#05D632" stroke-width="3.91938"/>
</g>
<g clip-path="url(#clip2_7397_12569)">
<circle cx="139.639" cy="223.902" r="9.99611" stroke="#FF040E" stroke-width="3.91938"/>
<circle cx="139.639" cy="223.902" r="9.99611" stroke="#FF040E" stroke-width="3.91938"/>
</g>
<g clip-path="url(#clip3_7397_12569)">
<mask id="mask0_7397_12569" style="mask-type:alpha" maskUnits="userSpaceOnUse" x="79" y="212" width="25" height="24">
<circle cx="91.5463" cy="223.917" r="11.8705" fill="#D9D9D9"/>
</mask>
<g mask="url(#mask0_7397_12569)">
<circle cx="91.4931" cy="223.919" r="10.036" stroke="#00C2FF" stroke-width="3.91938"/>
</g>
</g>
<g clip-path="url(#clip4_7397_12569)">
<circle cx="103.543" cy="233.457" r="9.99611" stroke="#F9C900" stroke-width="3.91938"/>
</g>
<g clip-path="url(#clip5_7397_12569)">
<circle cx="115.553" cy="223.926" r="9.99611" stroke="white" stroke-width="3.91938"/>
</g>
<defs>
<filter id="filter0_d_7397_12569" x="9.55585" y="23.8996" width="209.086" height="209.084" filterUnits="userSpaceOnUse" color-interpolation-filters="sRGB">
<feFlood flood-opacity="0" result="BackgroundImageFix"/>
<feColorMatrix in="SourceAlpha" type="matrix" values="0 0 0 0 0 0 0 0 0 0 0 0 0 0 0 0 0 0 127 0" result="hardAlpha"/>
<feOffset/>
<feGaussianBlur stdDeviation="1.38614"/>
<feComposite in2="hardAlpha" operator="out"/>
<feColorMatrix type="matrix" values="0 0 0 0 0.956863 0 0 0 0 0.984314 0 0 0 0 0.913725 0 0 0 1 0"/>
<feBlend mode="normal" in2="BackgroundImageFix" result="effect1_dropShadow_7397_12569"/>
<feBlend mode="normal" in="SourceGraphic" in2="effect1_dropShadow_7397_12569" result="shape"/>
</filter>
<filter id="filter1_i_7397_12569" x="80.9844" y="213.539" width="68.6445" height="31.5339" filterUnits="userSpaceOnUse" color-interpolation-filters="sRGB">
<feFlood flood-opacity="0" result="BackgroundImageFix"/>
<feBlend mode="normal" in="SourceGraphic" in2="BackgroundImageFix" result="shape"/>
<feColorMatrix in="SourceAlpha" type="matrix" values="0 0 0 0 0 0 0 0 0 0 0 0 0 0 0 0 0 0 127 0" result="hardAlpha"/>
<feOffset dy="1.73703"/>
<feGaussianBlur stdDeviation="1.30277"/>
<feComposite in2="hardAlpha" operator="arithmetic" k2="-1" k3="1"/>
<feColorMatrix type="matrix" values="0 0 0 0 1 0 0 0 0 1 0 0 0 0 1 0 0 0 0.6 0"/>
<feBlend mode="normal" in2="shape" result="effect1_innerShadow_7397_12569"/>
</filter>
<linearGradient id="paint0_linear_7397_12569" x1="115.307" y1="213.539" x2="115.307" y2="238.991" gradientUnits="userSpaceOnUse">
<stop stop-color="white" stop-opacity="0.53"/>
<stop offset="1" stop-color="white" stop-opacity="0"/>
</linearGradient>
<clipPath id="clip0_7397_12569">
<rect width="111" height="28" fill="white" transform="translate(61.0391 61.6562)"/>
</clipPath>
<clipPath id="clip1_7397_12569">
<rect width="14.7576" height="10.0141" fill="white" transform="translate(113.93 228.461)"/>
</clipPath>
<clipPath id="clip2_7397_12569">
<rect width="19.5502" height="7.80135" fill="white" transform="translate(125.939 229.727)"/>
</clipPath>
<clipPath id="clip3_7397_12569">
<rect width="12.9359" height="8.12253" fill="white" transform="translate(91.3496 220.32)"/>
</clipPath>
<clipPath id="clip4_7397_12569">
<rect width="13.6136" height="10.2554" fill="white" transform="translate(89.7539 229.727)"/>
</clipPath>
<clipPath id="clip5_7397_12569">
<rect width="13.9478" height="12.7116" fill="white" transform="translate(101.764 229.727)"/>
</clipPath>
</defs>
</svg>
