<svg width="151" height="56" viewBox="0 0 151 56" fill="none" xmlns="http://www.w3.org/2000/svg">
<g id="uuid-a42240ab-ad34-4134-b7f3-4f7aa4257bc9" clip-path="url(#clip0_1221_194)">
<path id="Vector" d="M138.84 23.512C138.905 23.6832 139.105 23.8264 139.46 23.9042L148.662 26.8242C148.899 26.8678 149.08 26.7931 149.108 26.4693L149.473 23.375C149.442 22.7462 149.22 22.2917 148.799 21.8807L141.163 14.4749L140.037 18.5529C140.667 18.8362 140.817 19.5273 140.536 20.0752L138.843 23.5057L138.84 23.512ZM130.256 20.1125C130.112 20.2277 130.037 20.4612 130.072 20.8223L130.106 30.4602C130.137 30.6999 130.265 30.8462 130.58 30.7746L133.642 30.1707C134.231 29.9466 134.599 29.5979 134.858 29.0718L139.579 19.546L135.344 19.7265C135.267 20.4114 134.655 20.7663 134.044 20.6698L130.253 20.1125H130.256ZM130.77 10.9042C130.617 10.8046 130.371 10.8046 130.037 10.9509L120.87 13.9706C120.652 14.0733 120.552 14.2414 120.717 14.5185L122.242 17.2392C122.638 17.7311 123.084 17.9677 123.664 18.0548L134.2 19.5802L132.713 15.6174C132.036 15.7574 131.509 15.2843 131.412 14.6772L130.77 10.9074V10.9042ZM144.761 16.4392C144.945 16.4298 145.089 16.268 145.276 15.9598L150.929 8.15857C151.044 7.95 151.048 7.7601 150.751 7.63247L147.923 6.30944C147.3 6.13511 146.804 6.18492 146.295 6.4682L136.872 11.3899L140.358 13.5036C140.764 12.9402 141.497 13.2546 141.958 13.7153L144.764 16.4392H144.761ZM139.785 8.61307C139.832 8.43563 139.757 8.20215 139.517 7.93132L133.823 0.145672C133.658 -0.0286565 133.467 -0.0753517 133.255 0.167463L131.129 2.4493C130.783 2.9754 130.692 3.47348 130.789 4.0525L132.563 14.5309L135.884 11.9035C135.544 11.3027 135.834 10.6583 136.383 10.3813L139.782 8.61307H139.785Z" fill="#9D071F" style="fill:#9D071F;fill:color(display-p3 0.6157 0.0275 0.1216);fill-opacity:1;"/>
<path id="Vector_2" d="M119.454 25.617L107.717 42.3681H112.718L114.362 39.9088H119.401V42.3681H123.548V25.617H119.454ZM119.401 36.3693H116.722L119.401 32.45V36.3693Z" fill="#9D071F" style="fill:#9D071F;fill:color(display-p3 0.6157 0.0275 0.1216);fill-opacity:1;"/>
<path id="Vector_3" d="M107.675 42.3677H110.055V39.0212L107.675 42.3677ZM109.453 38.1153L110.058 37.1783V25.6165H106.057L97.3918 38.4328L98.9633 42.5731L100.825 39.787H105.923V42.3677H106.41L109.453 38.1153ZM105.923 36.2942H103.182L105.923 32.3593V36.2942ZM97.3076 38.4297C95.5833 38.3145 94.1271 37.2374 93.4941 35.737C93.2353 35.1828 93.0918 34.5665 93.0918 33.919C93.0918 31.4939 95.1031 29.5265 97.582 29.5265C98.8386 29.5265 99.9736 30.0308 100.787 30.8433L103.241 27.2602C102.371 26.5754 101.42 25.9465 100.323 25.6197C99.5059 25.3768 98.639 25.2461 97.741 25.2461C92.8268 25.2461 88.8418 29.1529 88.8418 33.975C88.8418 38.797 92.8268 42.7039 97.741 42.7039C98.1401 42.6914 98.5112 42.6821 98.9633 42.5794L97.3918 38.439C97.3637 38.439 97.3076 38.4328 97.3076 38.4328V38.4297Z" fill="#9D071F" style="fill:#9D071F;fill:color(display-p3 0.6157 0.0275 0.1216);fill-opacity:1;"/>
<path id="Vector_4" d="M5.40145 48.2179C5.13952 47.8412 4.70921 47.6264 4.11676 47.6264C2.91315 47.6264 1.88728 48.6039 1.69707 49.9487C1.50686 51.2935 2.25834 52.271 3.41206 52.271C4.0544 52.271 4.61567 51.9846 5.01168 51.4959L6.19969 52.4827C5.47628 53.3388 4.40052 53.7372 3.41206 53.7372C1.15763 53.7372 -0.276723 52.2617 0.0475657 49.9487C0.371854 47.6357 2.22404 46.1602 4.47847 46.1602C5.28607 46.1602 6.26518 46.4341 6.7672 47.2186L5.40145 48.2179Z" fill="#7B7E85" style="fill:#7B7E85;fill:color(display-p3 0.4824 0.4941 0.5216);fill-opacity:1;"/>
<path id="Vector_5" d="M9.33489 45.8516L8.85157 49.2728H8.8734C9.06984 48.8868 9.62799 48.4789 10.3732 48.4789C11.9261 48.4789 12.0664 49.4969 11.8793 50.823L11.4958 53.5532H9.96475L10.3046 51.1281C10.3857 50.5584 10.4793 49.8238 9.69347 49.8238C8.9077 49.8238 8.68631 50.4464 8.59588 51.0877L8.24977 53.5532H6.71875L7.80387 45.8516H9.33489Z" fill="#7B7E85" style="fill:#7B7E85;fill:color(display-p3 0.4824 0.4941 0.5216);fill-opacity:1;"/>
<path id="Vector_6" d="M13.295 48.6039H14.826L14.1306 53.5567H12.5996L13.295 48.6039ZM14.405 46.1602C14.8946 46.1602 15.2376 46.5586 15.169 47.0474C15.1004 47.5361 14.6451 47.9315 14.1556 47.9315C13.666 47.9315 13.3261 47.5361 13.3947 47.0474C13.4633 46.5586 13.9155 46.1602 14.4081 46.1602H14.405Z" fill="#7B7E85" style="fill:#7B7E85;fill:color(display-p3 0.4824 0.4941 0.5216);fill-opacity:1;"/>
<path id="Vector_7" d="M15.9309 48.6038H17.3995L17.306 49.2762H17.3278C17.5866 48.8902 18.1448 48.4824 18.8869 48.4824C19.5823 48.4824 20.1123 48.7688 20.2932 49.3696C20.7391 48.7377 21.2536 48.4824 21.9895 48.4824C23.3365 48.4824 23.6109 49.4288 23.4425 50.6335L23.0309 53.5566H21.4999L21.9053 50.674C21.9708 50.2164 21.8492 49.8272 21.3503 49.8272C20.6455 49.8272 20.3524 50.3284 20.2651 50.9386L19.8972 53.5566H18.3662L18.7341 50.9386C18.784 50.5713 18.9119 49.8272 18.2071 49.8272C17.412 49.8272 17.2 50.4498 17.1096 51.0911L16.7634 53.5566H15.2324L15.9309 48.6038Z" fill="#7B7E85" style="fill:#7B7E85;fill:color(display-p3 0.4824 0.4941 0.5216);fill-opacity:1;"/>
<path id="Vector_8" d="M28.9268 52.6967C28.3499 53.3193 27.4924 53.6741 26.6973 53.6741C25.1663 53.6741 24.0843 52.6562 24.3088 51.0779C24.5302 49.4996 25.8991 48.4785 27.4301 48.4785C28.8582 48.4785 29.6128 49.4965 29.3914 51.0779L29.3259 51.5573H25.7743C25.8149 52.1394 26.2015 52.513 26.7909 52.513C27.2929 52.513 27.6639 52.2577 27.9664 51.9122L28.9268 52.6967ZM27.9383 50.5175C28.0194 50.0101 27.6826 49.5805 27.1307 49.5805C26.4572 49.5805 26.0238 50.0381 25.9178 50.5175H27.9383Z" fill="#7B7E85" style="fill:#7B7E85;fill:color(display-p3 0.4824 0.4941 0.5216);fill-opacity:1;"/>
<path id="Vector_9" d="M33.2673 50.0599C33.0833 49.786 32.8058 49.6428 32.4379 49.6428C32.1822 49.6428 31.861 49.7549 31.8205 50.0506C31.7176 50.7853 34.3867 50.1627 34.1217 52.046C33.9439 53.3099 32.6686 53.6772 31.6053 53.6772C30.9131 53.6772 30.171 53.506 29.75 53.0048L30.8226 51.9744C31.0596 52.32 31.3683 52.513 31.8298 52.513C32.1759 52.513 32.5376 52.4227 32.5719 52.1581C32.6842 51.3643 30.0088 52.0367 30.2738 50.1502C30.4391 48.9891 31.5523 48.4785 32.5906 48.4785C33.2423 48.4785 33.9439 48.6435 34.3337 49.1323L33.2642 50.0599H33.2673Z" fill="#7B7E85" style="fill:#7B7E85;fill:color(display-p3 0.4824 0.4941 0.5216);fill-opacity:1;"/>
<path id="Vector_10" d="M41.2991 46.3398H42.615L44.7416 53.5527H42.9455L42.537 52.0242H39.7338L38.9137 53.5527H37.1582L41.296 46.3398H41.2991ZM41.6172 48.438L40.426 50.6794H42.1909L41.6203 48.438H41.6172Z" fill="#7B7E85" style="fill:#7B7E85;fill:color(display-p3 0.4824 0.4941 0.5216);fill-opacity:1;"/>
<path id="Vector_11" d="M45.0859 48.6035H46.7386L47.5212 51.9656H47.5399L49.177 48.6035H50.7173L48.0607 53.5532H46.4392L45.0859 48.6035Z" fill="#7B7E85" style="fill:#7B7E85;fill:color(display-p3 0.4824 0.4941 0.5216);fill-opacity:1;"/>
<path id="Vector_12" d="M51.3008 48.6039H52.8318L52.1365 53.5567H50.6055L51.3039 48.6039H51.3008ZM52.4109 46.1602C52.9004 46.1602 53.2434 46.5586 53.1748 47.0474C53.1062 47.5361 52.651 47.9315 52.1614 47.9315C51.6719 47.9315 51.3289 47.5361 51.3975 47.0474C51.4661 46.5586 51.9213 46.1602 52.4109 46.1602Z" fill="#7B7E85" style="fill:#7B7E85;fill:color(display-p3 0.4824 0.4941 0.5216);fill-opacity:1;"/>
<path id="Vector_13" d="M56.4346 52.934H56.4159C56.0043 53.4632 55.362 53.678 54.7384 53.678C53.8091 53.678 53.0483 53.1488 53.1886 52.1496C53.4287 50.4374 55.5179 50.4094 56.7901 50.4094C56.8649 49.8677 56.4658 49.5222 55.9357 49.5222C55.4368 49.5222 54.9847 49.7463 54.6074 50.1136L53.9089 49.2762C54.545 48.747 55.3963 48.4824 56.2039 48.4824C57.9906 48.4824 58.3429 49.3883 58.1091 51.0413L57.7536 53.5566H56.3442L56.4315 52.934H56.4346ZM56.2756 51.3837C55.8079 51.3837 54.7602 51.4242 54.6635 52.0966C54.6136 52.464 54.9753 52.6383 55.3121 52.6383C55.9139 52.6383 56.5188 52.3239 56.6061 51.7106L56.6529 51.3837H56.2756Z" fill="#7B7E85" style="fill:#7B7E85;fill:color(display-p3 0.4824 0.4941 0.5216);fill-opacity:1;"/>
<path id="Vector_14" d="M62.6181 49.8264H61.271L61.0372 51.4763C60.9624 52.0055 60.9686 52.3946 61.6328 52.3946C61.7949 52.3946 62.1254 52.3728 62.2751 52.2514L62.0974 53.5246C61.7419 53.646 61.3615 53.6772 61.0029 53.6772C59.9801 53.6772 59.2567 53.26 59.4064 52.1798L59.7369 49.8264H58.7578L58.9293 48.603H59.9084L60.1142 47.1367H61.6452L61.4394 48.603H62.7865L62.615 49.8264H62.6181Z" fill="#7B7E85" style="fill:#7B7E85;fill:color(display-p3 0.4824 0.4941 0.5216);fill-opacity:1;"/>
<path id="Vector_15" d="M63.586 48.6039H65.117L64.4216 53.5567H62.8906L63.5891 48.6039H63.586ZM64.696 46.1602C65.1856 46.1602 65.5286 46.5586 65.46 47.0474C65.3914 47.5361 64.9361 47.9315 64.4466 47.9315C63.957 47.9315 63.614 47.5361 63.6826 47.0474C63.7512 46.5586 64.2065 46.1602 64.696 46.1602Z" fill="#7B7E85" style="fill:#7B7E85;fill:color(display-p3 0.4824 0.4941 0.5216);fill-opacity:1;"/>
<path id="Vector_16" d="M68.8051 48.4824C70.3361 48.4824 71.4181 49.5004 71.1936 51.0818C70.9722 52.6601 69.6033 53.678 68.0723 53.678C66.5413 53.678 65.4593 52.6601 65.6838 51.0818C65.9052 49.5035 67.2741 48.4824 68.8051 48.4824ZM68.2656 52.3332C69.0296 52.3332 69.5628 51.8227 69.6657 51.0818C69.7717 50.3378 69.3819 49.8272 68.618 49.8272C67.854 49.8272 67.3208 50.3378 67.2179 51.0818C67.1119 51.8258 67.4986 52.3332 68.2656 52.3332Z" fill="#7B7E85" style="fill:#7B7E85;fill:color(display-p3 0.4824 0.4941 0.5216);fill-opacity:1;"/>
<path id="Vector_17" d="M72.4434 48.6038H73.912L73.8185 49.2762H73.8403C74.0991 48.8902 74.6573 48.4824 75.4025 48.4824C76.9554 48.4824 77.0957 49.5004 76.9086 50.8265L76.5251 53.5566H74.994L75.3339 51.1316C75.415 50.5619 75.5085 49.8272 74.7228 49.8272C73.937 49.8272 73.7156 50.4498 73.6252 51.0911L73.2791 53.5566H71.748L72.4465 48.6038H72.4434Z" fill="#7B7E85" style="fill:#7B7E85;fill:color(display-p3 0.4824 0.4941 0.5216);fill-opacity:1;"/>
<path id="Vector_18" d="M84.2112 46.3398H85.5271L87.6537 53.5527H85.8576L85.4491 52.0242H82.6428L81.8258 53.5527H80.0703L84.2081 46.3398H84.2112ZM84.5293 48.438L83.335 50.6794H85.0999L84.5293 48.438Z" fill="#7B7E85" style="fill:#7B7E85;fill:color(display-p3 0.4824 0.4941 0.5216);fill-opacity:1;"/>
<path id="Vector_19" d="M92.0129 50.2039C91.8913 49.9891 91.6294 49.8272 91.3113 49.8272C90.5443 49.8272 90.0142 50.3378 89.9082 51.0818C89.8053 51.8258 90.1919 52.3332 90.9559 52.3332C91.2926 52.3332 91.5608 52.162 91.7635 51.9565L92.6241 53.015C92.0753 53.5037 91.3488 53.678 90.7657 53.678C89.2347 53.678 88.1527 52.6601 88.3772 51.0818C88.5985 49.5035 89.9674 48.4824 91.4984 48.4824C92.0815 48.4824 92.7613 48.6567 93.1729 49.1455L92.0129 50.2039Z" fill="#7B7E85" style="fill:#7B7E85;fill:color(display-p3 0.4824 0.4941 0.5216);fill-opacity:1;"/>
<path id="Vector_20" d="M96.3038 52.934H96.2851C95.8735 53.4632 95.2311 53.678 94.6075 53.678C93.6783 53.678 92.9174 53.1488 93.0578 52.1496C93.2979 50.4374 95.3839 50.4094 96.6592 50.4094C96.7341 49.8677 96.335 49.5222 95.8049 49.5222C95.306 49.5222 94.8569 49.7463 94.4765 50.1136L93.7781 49.2762C94.4142 48.747 95.2685 48.4824 96.0761 48.4824C97.8628 48.4824 98.2152 49.3883 97.9813 51.0413L97.629 53.5566H96.2196L96.3069 52.934H96.3038ZM96.1447 51.3837C95.6739 51.3837 94.6293 51.4242 94.5327 52.0966C94.4828 52.464 94.8445 52.6383 95.1812 52.6383C95.783 52.6383 96.3911 52.3239 96.4753 51.7106L96.522 51.3837H96.1447Z" fill="#7B7E85" style="fill:#7B7E85;fill:color(display-p3 0.4824 0.4941 0.5216);fill-opacity:1;"/>
<path id="Vector_21" d="M103.788 53.5539H102.379L102.472 52.9033H102.451C102.167 53.2613 101.515 53.6785 100.82 53.6785C99.3512 53.6785 98.528 52.62 98.74 51.1227C98.9334 49.7467 99.9686 48.4829 101.378 48.4829C102.011 48.4829 102.578 48.6572 102.856 49.1366H102.878L103.339 45.8555H104.87L103.788 53.5571V53.5539ZM101.68 49.8246C100.913 49.8246 100.383 50.3351 100.28 51.0791C100.178 51.8231 100.561 52.3305 101.328 52.3305C102.095 52.3305 102.625 51.82 102.728 51.0791C102.834 50.3351 102.444 49.8246 101.68 49.8246Z" fill="#7B7E85" style="fill:#7B7E85;fill:color(display-p3 0.4824 0.4941 0.5216);fill-opacity:1;"/>
<path id="Vector_22" d="M109.827 52.6967C109.25 53.3193 108.393 53.6741 107.598 53.6741C106.067 53.6741 104.985 52.6562 105.209 51.0779C105.431 49.4996 106.799 48.4785 108.33 48.4785C109.759 48.4785 110.513 49.4965 110.292 51.0779L110.223 51.5573H106.672C106.712 52.1394 107.099 52.513 107.691 52.513C108.19 52.513 108.564 52.2577 108.867 51.9122L109.827 52.6967ZM108.839 50.5175C108.923 50.0101 108.583 49.5805 108.034 49.5805C107.361 49.5805 106.93 50.0381 106.821 50.5175H108.842H108.839Z" fill="#7B7E85" style="fill:#7B7E85;fill:color(display-p3 0.4824 0.4941 0.5216);fill-opacity:1;"/>
<path id="Vector_23" d="M111.568 48.6038H113.036L112.943 49.2762H112.965C113.223 48.8902 113.782 48.4824 114.527 48.4824C115.219 48.4824 115.752 48.7688 115.933 49.3696C116.379 48.7377 116.893 48.4824 117.629 48.4824C118.976 48.4824 119.251 49.4288 119.082 50.6335L118.671 53.5566H117.14L117.545 50.674C117.611 50.2164 117.492 49.8272 116.99 49.8272C116.285 49.8272 115.992 50.3284 115.905 50.9386L115.534 53.5566H114.003L114.371 50.9386C114.424 50.5713 114.549 49.8272 113.844 49.8272C113.049 49.8272 112.837 50.4498 112.746 51.0911L112.4 53.5566H110.869L111.568 48.6038Z" fill="#7B7E85" style="fill:#7B7E85;fill:color(display-p3 0.4824 0.4941 0.5216);fill-opacity:1;"/>
<path id="Vector_24" d="M122.494 54.3594C121.939 55.4085 121.621 56 120.161 56C119.775 56 119.394 55.9377 119.045 55.8163L119.425 54.5649C119.647 54.6676 119.865 54.7174 120.118 54.7174C120.81 54.7174 120.966 54.4217 121.256 53.8832L121.408 53.5968L119.937 48.6035H121.589L122.403 51.8753H122.422L123.975 48.6035H125.546L122.49 54.3594H122.494Z" fill="#7B7E85" style="fill:#7B7E85;fill:color(display-p3 0.4824 0.4941 0.5216);fill-opacity:1;"/>
</g>
<defs>
<clipPath id="clip0_1221_194">
<rect width="151" height="56" fill="white" style="fill:white;fill:white;fill-opacity:1;"/>
</clipPath>
</defs>
</svg>
