<svg width="97" height="28" viewBox="0 0 97 28" fill="none" xmlns="http://www.w3.org/2000/svg">
<g clip-path="url(#clip0_10174_181355)">
<path d="M26.0838 3.13991C26.0838 3.9729 25.7394 4.76988 25.1259 5.36041C24.5124 5.94855 23.6782 6.27982 22.81 6.27982C21.9419 6.27982 21.1101 5.94855 20.4941 5.36041C19.8806 4.77228 19.5363 3.9729 19.5363 3.13991C19.5363 2.30692 19.8806 1.50994 20.4941 0.919412C21.1077 0.331279 21.9394 0 22.81 0C23.6782 0 24.5099 0.331279 25.1259 0.919412C25.737 1.50754 26.0838 2.30692 26.0838 3.13991Z" fill="#FF2400"/>
<path d="M26.0839 8.14526H19.5363V23.2426H26.0839V8.14526Z" fill="#FF2400"/>
<path d="M57.9274 14.5261V8.14526H47.5045V14.5261H57.9274Z" fill="#FF2400"/>
<path d="M8.8248 17.4788C13.6992 17.4788 17.6496 13.5658 17.6496 8.74063C17.6496 3.91542 13.6992 0.00244141 8.8248 0.00244141C3.95042 0.00244141 0 3.91542 0 8.74063V23.2427H6.38519V17.1403V8.75503C6.38519 8.75023 6.38519 8.74543 6.38519 8.74063C6.38519 7.40589 7.47889 6.32322 8.82722 6.32322C10.1756 6.32322 11.2693 7.40589 11.2693 8.74063C11.2693 10.0754 10.1756 11.158 8.82722 11.158C8.63322 11.158 8.44406 11.1364 8.26461 11.0932V17.462C8.44649 17.4716 8.63564 17.4788 8.8248 17.4788Z" fill="#FF2400"/>
<path d="M88.1753 17.4788C93.0496 17.4788 97.0001 13.5658 97.0001 8.74063C97.0001 3.91542 93.0496 0.00244141 88.1753 0.00244141C83.3009 0.00244141 79.3505 3.91542 79.3505 8.74063V23.2427H85.7356V17.4788V8.74063C85.7356 7.40589 86.8294 6.32322 88.1777 6.32322C89.526 6.32322 90.6197 7.40589 90.6197 8.74063C90.6197 10.0754 89.526 11.158 88.1777 11.158C87.9837 11.158 87.7945 11.1364 87.6151 11.0932V17.462C87.7994 17.4716 87.9861 17.4788 88.1753 17.4788Z" fill="#FF2400"/>
<path d="M45.6203 8.73819V23.2402H39.2351V8.92304C39.2351 8.28208 38.978 7.66753 38.5197 7.21381C38.0613 6.7601 37.4405 6.50563 36.793 6.50563C36.1455 6.50563 35.5247 6.7601 35.0664 7.21381C34.6081 7.66753 34.351 8.28208 34.351 8.92304C34.351 8.93024 34.351 8.93504 34.351 8.94224V17.1379V23.2402H27.9658V8.73819C27.9658 3.91298 31.9162 0 36.7906 0C41.6674 0 45.6203 3.91298 45.6203 8.73819Z" fill="#FF2400"/>
<path d="M59.8141 14.5045V0.312134H66.1993V6.10238V14.286C66.1993 14.2956 66.1993 14.3076 66.1993 14.3172C66.1993 14.9582 66.4563 15.5727 66.9147 16.0265C67.373 16.4802 67.9938 16.7346 68.6413 16.7346C69.2888 16.7346 69.9096 16.4802 70.368 16.0265C70.8263 15.5727 71.0833 14.9582 71.0833 14.3172V0.312134H77.4685V14.5045C77.4685 19.3297 73.5157 23.2427 68.6437 23.2427C63.7645 23.2427 59.8141 19.3297 59.8141 14.5045Z" fill="#FF2400"/>
<path d="M0 25.6666H97V26C97 27.1045 96.1046 28 95 28H2C0.895431 28 0 27.1045 0 26V25.6666Z" fill="#00CFA6"/>
</g>
<defs>
<clipPath id="clip0_10174_181355">
<rect width="97" height="28" fill="white"/>
</clipPath>
</defs>
</svg>
