<svg width="90" height="15" viewBox="0 0 6958 1154" fill="none" xmlns="http://www.w3.org/2000/svg">
<path d="M6004 235L6004 0L6957.19 -4.5029e-06L6957.19 235L6601.9 235L6601.9 947.05L6351.34 947.05L6351.34 235L6004 235Z" fill="white"/>
<path d="M5958.87 0L4930 3.8147e-06V34.9414C4930.7 35.4542 4931.4 35.9704 4932.09 36.4901C4997.59 85.4577 5037.24 162.205 5037.24 269.259C5037.24 340.758 5011.94 414.792 4955.43 473.732C5011.82 533.451 5037.24 607.27 5037.24 677.791C5037.24 784.846 4997.59 861.593 4932.09 910.56C4931.4 911.08 4930.7 911.596 4930 912.109V947.05H5958.87V712.277H5180.27V587.596H5958.87V366.087H5180.27V234.773H5958.87V0Z" fill="white"/>
<path d="M5007.24 269.259C5007.24 342.211 4978.08 417.816 4911.81 473.525C4978.08 530.56 5007.24 606.165 5007.24 677.791C5007.24 875.425 4862.77 947.05 4695.77 947.05L3802.46 947.05L3802.46 0L4695.77 -4.22005e-06C4862.77 -5.00896e-06 5007.24 71.6257 5007.24 269.259ZM4052.96 387.309L4669.26 387.309C4723.6 387.309 4756.74 362.107 4756.74 310.378C4756.74 263.954 4722.28 234.773 4674.56 234.773L4052.96 234.773L4052.96 387.309ZM4669.26 561.068L4052.96 561.068L4052.96 712.277L4674.56 712.277C4722.28 712.277 4756.74 684.423 4756.74 636.672C4756.74 584.943 4723.6 561.068 4669.26 561.068Z" fill="white"/>
<path d="M3729.61 382.428C3695.08 368.125 3657.22 360.231 3617.52 360.231C3577.64 360.231 3539.62 368.197 3504.96 382.626L3617.24 653.439L3729.61 382.428Z" fill="#8BFF90"/>
<path d="M3504.96 382.626C3433.4 412.421 3376.18 469.771 3346.56 541.427L3617.24 653.439L3504.96 382.626Z" fill="#75FF79"/>
<path d="M3617.24 653.439L3346.56 541.427C3332.32 575.899 3324.46 613.681 3324.46 653.3C3324.46 693.01 3332.35 730.875 3346.66 765.411L3617.24 653.439Z" fill="#48FF4F"/>
<path d="M3505.06 924.014L3617.24 653.439L3346.66 765.411C3376.32 836.989 3433.53 894.264 3505.06 924.014Z" fill="#05E10D"/>
<path d="M3617.52 946.368C3657.19 946.368 3695.01 938.49 3729.51 924.212L3617.24 653.439L3505.06 924.014C3539.69 938.417 3577.68 946.368 3617.52 946.368Z" fill="#02B90A"/>
<path d="M3888.3 765.608L3617.24 653.439L3729.51 924.212C3801.2 894.546 3858.55 837.253 3888.3 765.608Z" fill="#09880F"/>
<path d="M3888.4 541.23L3617.24 653.439L3888.3 765.608C3902.66 731.019 3910.59 693.085 3910.59 653.3C3910.59 613.605 3902.7 575.754 3888.4 541.23Z" fill="#D8FFD9"/>
<path d="M3729.61 382.428L3617.24 653.439L3888.4 541.23C3858.69 469.506 3801.33 412.139 3729.61 382.428Z" fill="#BCFEBE"/>
<path d="M3547.29 483.452L3687.88 483.452L3787.29 582.862L3787.29 723.45L3687.88 822.861L3547.29 822.861L3447.88 723.45L3447.88 582.862L3547.29 483.452Z" fill="#007505"/>
<path opacity="0.22" d="M3550.69 491.664L3594.87 483.555L3547.33 483.275L3510.42 520.188L3550.69 491.664Z" fill="#BCFEBE"/>
<path d="M3787.29 723.45L3787.29 582.862L3687.88 483.452L3661.59 483.452L3761 582.862L3761 723.45L3661.59 822.861L3687.88 822.861L3787.29 723.45Z" fill="#035E07"/>
<path d="M3731.1 676.017C3731.1 713.202 3701.19 743.456 3663.91 744.402L3663.74 744.402C3663.22 744.421 3662.67 744.421 3662.13 744.421C3653.2 744.421 3644.66 742.742 3636.82 739.653C3630.3 737.123 3624.29 733.609 3618.93 729.304C3618.83 729.246 3618.71 729.15 3618.62 729.072C3618.21 728.763 3617.82 728.455 3617.44 728.126C3617.23 728.3 3617.01 728.474 3616.8 728.648C3616.72 728.725 3616.65 728.783 3616.57 728.821C3616.42 728.976 3616.28 729.092 3616.13 729.188C3615.84 729.42 3615.55 729.652 3615.26 729.864C3614.76 730.289 3614.23 730.675 3613.71 731.042C3602.26 739.459 3588.09 744.421 3572.76 744.421C3571.78 744.421 3570.81 744.402 3569.85 744.344C3533.11 742.838 3503.8 712.835 3503.8 676.017C3503.8 658.062 3510.77 641.728 3522.18 629.526L3525.91 625.819L3616.57 535.869L3617.44 535L3636.78 554.191L3708.99 625.819L3712.72 629.526C3724.13 641.728 3731.1 658.062 3731.1 676.017Z" fill="#0F1923"/>
<path d="M3652.13 772.03L3582.61 772.03C3599.6 763.825 3612.25 748.07 3616.13 729.188C3616.74 726.176 3617.15 723.087 3617.28 719.94C3617.36 718.917 3617.38 717.874 3617.38 716.832C3617.38 719.709 3617.57 722.547 3617.98 725.327C3618.15 726.582 3618.37 727.837 3618.62 729.072C3622.46 748.012 3635.1 763.805 3652.13 772.03Z" fill="#0F1923"/>
<path d="M3617.52 946.368C3779.38 946.368 3910.59 815.157 3910.59 653.3C3910.59 491.442 3779.38 360.231 3617.52 360.231C3613.12 360.231 3608.74 360.328 3604.38 360.521C3760.14 367.395 3884.31 495.847 3884.31 653.3C3884.31 810.753 3760.14 939.205 3604.38 946.079C3608.74 946.271 3613.12 946.368 3617.52 946.368Z" fill="black" fill-opacity="0.15"/>
<path fill-rule="evenodd" clip-rule="evenodd" d="M3185.21 0.000123978V675.138L2602.04 0.000125885L2230.93 0.000127792V169.07C2278.01 242.468 2307.43 341.363 2307.43 473.525C2307.43 606.058 2278.02 705.12 2230.93 778.563V947.05H2481.43V271.912L3064.6 947.05H3435.71V0.00012207L3185.21 0.000123978Z" fill="white"/>
<path fill-rule="evenodd" clip-rule="evenodd" d="M855.06 0.00012207V486.789C855.06 607.492 821.918 709.625 688.025 709.625H430.844C296.951 709.625 265.135 594.228 265.135 473.525H0C2.06151e-06 909.911 330.093 947.05 499.779 947.05H619.09C754.069 947.05 987.327 923.913 1079.63 699.584C1056.2 638.013 1042.65 563.479 1042.65 473.525C1042.65 341.629 1071.95 242.865 1118.87 169.512V0.00012207H855.06Z" fill="white"/>
<path d="M1777.76 0.000118739C1948.74 0.000117932 2277.43 38.4657 2277.43 473.525C2277.43 909.911 1948.74 947.05 1777.76 947.05L1572.33 947.05C1401.35 947.05 1072.65 909.911 1072.65 473.525C1072.65 38.4657 1401.35 0.000120518 1572.33 0.00011971L1777.76 0.000118739ZM1846.68 709.625C1980.55 709.625 2013.68 594.228 2013.68 473.525C2013.68 354.149 1980.55 238.752 1846.68 238.752L1503.41 238.752C1369.54 238.752 1336.41 354.149 1336.41 473.525C1336.41 594.228 1369.54 709.625 1503.41 709.625L1846.68 709.625Z" fill="white"/>
</svg>
