<?xml version="1.0" ?><svg xmlns="http://www.w3.org/2000/svg" xmlns:xlink="http://www.w3.org/1999/xlink" version="1.1" viewBox="0 0 512 512" style="enable-background:new 0 0 512 512;" xml:space="preserve"><g id="_x34_5_x2C__piano_x2C__organ_x2C__music_and_multimedia_x2C__music_instrument_x2C__musical_instrument_x2C__keyboard"><g><path style="fill:#DC5461;" d="M426,221h-32.5v-20c0-5.522-4.478-10-10-10H341c-5.522,0-10,4.478-10,10v50h-22.5v-20    c0-5.522-4.478-10-10-10H256c-5.522,0-10,4.478-10,10v20h-22.5v-40c0-5.522-4.478-10-10-10H171c-5.522,0-10,4.478-10,10v20h-32.5    c-5.522,0-10,4.478-10,10v20H86c-5.522,0-10,4.478-10,10v40c0,5.522,4.478,10,10,10c41.067,0,298.753,0,340,0    c5.522,0,10-4.478,10-10v-80C436,225.478,431.522,221,426,221z M96,281h22.5v20H96V281z M138.5,251H161v50h-22.5    C138.5,277.711,138.5,272.6,138.5,251z M181,221h22.5c0,9.679,0,70.257,0,80H181C181,294.209,181,231.769,181,221z M223.5,271H246    v30h-22.5V271z M266,241h22.5c0,5.264,0,44.868,0,60H266C266,291.9,266,256.772,266,241z M308.5,271H331v30h-22.5V271z M351,211    h22.5c0,11.27,0,80.349,0,90H351C351,267.323,351,244.053,351,211z M416,301h-22.5v-60H416V301z"/><g><path style="fill:#283954;" d="M471,176c5.522,0,10-4.478,10-10V71h20c5.522,0,10-4.478,10-10V11c0-5.522-4.478-10-10-10H11     C5.478,1,1,5.478,1,11v50c0,5.522,4.478,10,10,10h20v230H11c-5.522,0-10,4.478-10,10v50c0,5.522,4.478,10,10,10h20v130     c0,5.522,4.478,10,10,10h50c5.522,0,10-4.478,10-10v-44c0-5.522-4.478-10-10-10s-10,4.478-10,10v34H51V371h30v46     c0,5.522,4.478,10,10,10s10-4.478,10-10v-46h310v130c0,5.522,4.478,10,10,10h50c5.522,0,10-4.478,10-10V371h20     c5.522,0,10-4.478,10-10v-50c0-5.522-4.478-10-10-10h-20v-95c0-5.522-4.478-10-10-10s-10,4.478-10,10v95H51V71h410v95     C461,171.522,465.478,176,471,176z M461,491h-30V371h30V491z M491,351c-27.23,0-444.518,0-470,0v-30h470V351z M21,21h470v30H21     V21z"/><path style="fill:#283954;" d="M206,91c-5.522,0-10,4.478-10,10v70c0,5.522,4.478,10,10,10c27.101,0,84.039,0,100,0     c5.522,0,10-4.478,10-10v-70c0-5.522-4.478-10-10-10C278.899,91,221.961,91,206,91z M216,111h30v50h-30V111z M296,161h-30v-50h30     V161z"/><path style="fill:#283954;" d="M291,431c-5.522,0-10,4.478-10,10v60c0,5.522,4.478,10,10,10s10-4.478,10-10v-60     C301,435.478,296.522,431,291,431z"/><path style="fill:#283954;" d="M221,431c-5.522,0-10,4.478-10,10v60c0,5.522,4.478,10,10,10s10-4.478,10-10v-60     C231,435.478,226.522,431,221,431z"/></g><path style="fill:#DC5461;" d="M311,391H201c-5.522,0-10,4.478-10,10v40c0,5.522,4.478,10,10,10h110c5.522,0,10-4.478,10-10v-40    C321,395.478,316.522,391,311,391z M301,431h-90v-20h90V431z"/></g></g><g id="Layer_1"/></svg>