<?xml version="1.0" ?><svg xmlns="http://www.w3.org/2000/svg" xmlns:xlink="http://www.w3.org/1999/xlink" version="1.1" viewBox="0 0 512 512" style="enable-background:new 0 0 512 512;" xml:space="preserve"><g id="_x34_8_x2C__ocarina_x2C__mesoamerican_x2C__cultures_x2C__music_and_multimedia_x2C__musical_instrument_x2C__music"><g><g><path style="fill:#DC5461;" d="M225.6,431H126.4c-5.522,0-10,4.478-10,10s4.478,10,10,10H225.6c5.522,0,10-4.478,10-10     S231.122,431,225.6,431z"/><path style="fill:#DC5461;" d="M181,101c16.542,0,30-13.458,30-30s-13.458-30-30-30s-30,13.458-30,30S164.458,101,181,101z      M181,61c5.514,0,10,4.486,10,10s-4.486,10-10,10s-10-4.486-10-10S175.486,61,181,61z"/><path style="fill:#DC5461;" d="M141,171c0-16.542-13.458-30-30-30s-30,13.458-30,30s13.458,30,30,30S141,187.542,141,171z      M111,181c-5.514,0-10-4.486-10-10s4.486-10,10-10s10,4.486,10,10S116.514,181,111,181z"/><path style="fill:#DC5461;" d="M251,171c-22.056,0-40,17.944-40,40s17.944,40,40,40s40-17.944,40-40S273.056,171,251,171z      M251,231c-11.028,0-20-8.972-20-20s8.972-20,20-20s20,8.972,20,20S262.028,231,251,231z"/><path style="fill:#DC5461;" d="M311,61c-22.056,0-40,17.944-40,40s17.944,40,40,40s40-17.944,40-40S333.056,61,311,61z M311,121     c-11.028,0-20-8.972-20-20s8.972-20,20-20s20,8.972,20,20S322.028,121,311,121z"/><path style="fill:#DC5461;" d="M421,131c-16.542,0-30,13.458-30,30s13.458,30,30,30s30-13.458,30-30S437.542,131,421,131z      M421,171c-5.514,0-10-4.486-10-10s4.486-10,10-10s10,4.486,10,10S426.514,171,421,171z"/></g><g><path style="fill:#283954;" d="M332.589,268.783C294.69,277.294,255.518,281,217.89,281C115.291,281,21,253.559,21,151     c0-41.629,15.667-73.684,46.567-95.272c4.527-3.163,5.633-9.397,2.47-13.925c-3.163-4.528-9.397-5.634-13.925-2.47     C19.543,64.884,1,102.454,1,151c0,59.463,28.261,103.499,84.38,127.811v30.939c0,14.465,9.877,26.661,23.238,30.206l8.97,116.94     C119.914,487.235,145.572,511,176,511s56.086-23.765,58.412-54.104l8.97-116.94c13.361-3.545,23.238-15.741,23.238-30.206     v-10.788c24.16-2.036,47.694-5.59,70.082-10.604c4.607-0.893,8.083-4.948,8.083-9.817     C344.785,272.105,338.802,267.384,332.589,268.783z M214.471,455.367C212.938,475.349,196.04,491,176,491     s-36.938-15.651-38.471-35.633L128.756,341h94.487L214.471,455.367z M235.38,321H116.62c-6.198,0-11.24-5.047-11.24-11.25     v-23.495c43.535,13.821,95.838,16.259,141.24,14.038v9.457C246.62,315.953,241.578,321,235.38,321z"/><path style="fill:#283954;" d="M422.513,43.041C367.689,15.931,295.02,1,217.89,1c-49.643,0-91.419,6.323-124.168,18.794     c-5.161,1.966-7.752,7.743-5.787,12.904s7.743,7.747,12.904,5.787C131.307,26.883,170.688,21,217.89,21     c74.115,0,143.637,14.194,195.758,39.969C463.529,85.636,491,117.609,491,151c0,20.679-10.949,41.436-31.664,60.026     c-21.15,18.981-51.947,35.401-89.062,47.484c-5.252,1.71-8.123,7.353-6.413,12.604c1.707,5.243,7.346,8.126,12.604,6.413     C460.707,250.103,511,202.802,511,151C511,109.6,479.574,71.259,422.513,43.041z"/></g></g></g><g id="Layer_1"/></svg>