<?xml version="1.0" ?><svg xmlns="http://www.w3.org/2000/svg" xmlns:xlink="http://www.w3.org/1999/xlink" version="1.1" viewBox="0 0 512 512" style="enable-background:new 0 0 512 512;" xml:space="preserve"><g id="_x32_6_x2C__trumpet_x2C__music_and_multimedia_x2C__wind_instrument_x2C__musical_instrument_x2C__orchestra_x2C__music"><g><g><path style="fill:#DC5461;" d="M204.198,345.285c-3.906-3.904-10.236-3.904-14.143,0c-3.905,3.905-3.905,10.237,0,14.143     l52.476,52.476c3.907,3.905,10.236,3.904,14.143,0c3.905-3.905,3.905-10.237,0-14.143L204.198,345.285z"/><path style="fill:#DC5461;" d="M241.68,307.803c-3.906-3.904-10.236-3.904-14.143,0c-3.905,3.905-3.905,10.237,0,14.143     l52.476,52.476c3.907,3.905,10.236,3.904,14.143,0c3.905-3.905,3.905-10.237,0-14.143L241.68,307.803z"/><path style="fill:#DC5461;" d="M114.24,255.327c-3.906-3.904-10.236-3.904-14.143,0c-3.905,3.905-3.905,10.237,0,14.143     l52.476,52.476c3.907,3.905,10.236,3.904,14.143,0c3.905-3.905,3.905-10.237,0-14.143L114.24,255.327z"/><path style="fill:#DC5461;" d="M190.055,284.463c3.907,3.905,10.236,3.904,14.143,0c3.905-3.905,3.905-10.237,0-14.143     l-52.476-52.476c-3.906-3.904-10.236-3.904-14.143,0c-3.905,3.905-3.905,10.237,0,14.143L190.055,284.463z"/><g><path style="fill:#283954;" d="M461.99,216.831c-0.325-5.512-5.022-9.697-10.571-9.394      c-47.544,2.804-91.875,15.145-131.469,34.504c-21.696-11.8-48.06-15.614-73.595-8.796      c34.475-51.276,54.559-110.698,58.209-172.563c0.325-5.513-3.88-10.246-9.394-10.571c-5.506-0.326-10.245,3.881-10.571,9.394      c-4.731,80.188-38.761,155.134-94.857,211.23L47.621,412.754c-3.905,3.905-3.905,10.237,0,14.143      c3.907,3.905,10.236,3.904,14.143,0c2.226-2.226,41.806-41.808,153.678-153.675c31.66-31.66,82.113-31.191,113.299,0.002      c31.302,31.282,31.307,81.988-0.002,113.295l-27.13,27.13c-3.905,3.905-3.905,10.237,0,14.143      c3.907,3.905,10.236,3.904,14.143,0l27.13-27.13c40.502-40.502,39.011-106.897-4.093-145.451      c36.068-16.122,74.354-25.48,113.808-27.808C458.11,227.077,462.315,222.345,461.99,216.831z"/><path style="fill:#283954;" d="M273.34,441.918l-4.571,4.57c-31.305,31.307-81.987,31.311-113.298,0      c-6.616-6.616-11.904-14.177-15.822-22.512l26.087-26.087c3.84,22.312,23.162,39.055,46.384,39.055      c12.582,0,24.412-4.899,33.309-13.797l59.972-59.972c18.408-18.406,18.412-48.206,0-66.618      c-18.367-18.365-48.25-18.365-66.617,0C115.947,419.393,393.547,141.794,85.104,450.236c-3.905,3.905-3.905,10.237,0,14.143      c3.907,3.905,10.236,3.904,14.143,0l25.544-25.544c16.957,30.237,49.476,51.117,87.33,51.117      c26.742,0,51.883-10.413,70.79-29.32l4.57-4.569c3.905-3.905,3.906-10.237,0.002-14.143      C283.578,438.015,277.245,438.015,273.34,441.918z M252.925,310.7c10.569-10.569,27.763-10.569,38.332,0      c10.593,10.591,10.595,27.74,0,38.333l-59.972,59.972c-10.591,10.593-27.74,10.595-38.333,0      c-10.568-10.568-10.568-27.764,0-38.332L252.925,310.7z"/><path style="fill:#283954;" d="M91.75,291.959l82.461-82.461c3.905-3.905,3.905-10.237,0-14.143      c-3.906-3.904-10.236-3.904-14.143,0l-82.461,82.461c-3.905,3.905-3.905,10.237,0,14.143      C81.515,295.864,87.844,295.863,91.75,291.959z"/></g><path style="fill:#DC5461;" d="M54.268,405.257c-12.166-12.166-31.963-12.166-44.129,0s-12.166,31.963,0,44.129l52.476,52.476     c12.164,12.164,31.963,12.166,44.129,0c12.166-12.166,12.166-31.963,0-44.129L54.268,405.257z M92.601,487.719     c-4.367,4.369-11.477,4.369-15.844,0l-52.476-52.476c-4.368-4.368-4.368-11.476,0-15.844c4.366-4.368,11.476-4.369,15.844,0     l52.476,52.476C96.969,476.243,96.969,483.351,92.601,487.719z"/><path style="fill:#DC5461;" d="M500.312,176.619l-89.66-89.66c-3.906-3.904-10.236-3.904-14.143,0     c-3.905,3.905-3.905,10.237,0,14.143l89.66,89.66c6.435,6.434,6.435,16.903,0.008,23.33c-6.41,6.396-16.849,6.503-23.355,0.007     L297.906,49.183c-6.436-6.442-6.438-16.918-0.004-23.352c6.435-6.437,16.904-6.435,23.337,0l47,47     c3.906,3.904,10.236,3.904,14.143,0c3.905-3.905,3.905-10.237,0-14.143l-47-47c-14.233-14.232-37.391-14.231-51.622,0.001     c-14.227,14.228-14.229,37.388,0,51.632l164.927,164.927c6.901,6.888,16.069,10.682,25.814,10.682     c9.737,0,18.901-3.793,25.812-10.688C514.543,214.009,514.543,190.852,500.312,176.619z"/></g></g></g><g id="Layer_1"/></svg>