<?xml version="1.0" ?><svg xmlns="http://www.w3.org/2000/svg" xmlns:xlink="http://www.w3.org/1999/xlink" version="1.1" viewBox="0 0 512 512" style="enable-background:new 0 0 512 512;" xml:space="preserve"><g id="_x30_2_x2C__xylophone_x2C__music_and_multimedia_x2C__percussion_instrument_x2C__musical_instrument_x2C__percussion_x2C__orchestra"><g><g><path style="fill:#283954;" d="M351,51c0-16.542-13.458-30-30-30H201c-5.522,0-10,4.477-10,10s4.478,10,10,10h120     c5.514,0,10,4.486,10,10c0,5.521-4.478,10-10,10H99.994c1.294-6.352,1.388-13.189,0-20H161c5.522,0,10-4.477,10-10     s-4.478-10-10-10H90.973C81.842,8.864,67.323,1,51,1C23.43,1,1,23.43,1,51s22.43,50,50,50c16.323,0,30.842-7.864,39.973-20H321     C337.575,81,351,67.576,351,51z M51,81c-16.542,0-30-13.458-30-30s13.458-30,30-30s30,13.458,30,30S67.542,81,51,81z"/><path style="fill:#283954;" d="M511,131c0-27.57-22.43-50-50-50c-16.323,0-30.842,7.864-39.973,20H191c-16.575,0-30,13.424-30,30     c0,16.542,13.458,30,30,30h105c5.522,0,10-4.477,10-10s-4.478-10-10-10H191c-5.514,0-10-4.486-10-10c0-5.521,4.478-10,10-10     h221.006c-1.294,6.352-1.388,13.189,0,20H336c-5.522,0-10,4.477-10,10s4.478,10,10,10h85.027c9.131,12.136,23.65,20,39.973,20     C488.57,181,511,158.57,511,131z M431,131c0-16.542,13.458-30,30-30s30,13.458,30,30s-13.458,30-30,30S431,147.542,431,131z"/><path style="fill:#283954;" d="M338.887,276.185c52.297,11.225,50.152,11.037,52.123,11.037c4.606,0,8.751-3.203,9.765-7.889     c1.167-5.398-2.264-10.721-7.661-11.888l-50-10.81c-5.402-1.161-10.72,2.264-11.888,7.661     C330.059,269.695,333.489,275.018,338.887,276.185z"/><path style="fill:#283954;" d="M388.887,379.075l-50,10.81c-5.398,1.167-8.828,6.489-7.661,11.888     c1.163,5.376,6.461,8.83,11.888,7.661l50-10.811c5.398-1.167,8.828-6.489,7.661-11.888     C399.607,381.338,394.28,377.913,388.887,379.075z"/><path style="fill:#283954;" d="M173.113,219.886l-50-10.81c-5.402-1.165-10.72,2.264-11.888,7.661     c-1.167,5.399,2.263,10.72,7.661,11.887l50,10.81c5.419,1.173,10.725-2.285,11.888-7.661     C181.941,226.375,178.512,221.053,173.113,219.886z"/><path style="fill:#283954;" d="M168.887,426.636l-50,10.81c-5.397,1.167-8.828,6.489-7.661,11.888     c1.163,5.376,6.462,8.83,11.888,7.661l50-10.81c5.397-1.167,8.828-6.489,7.661-11.888     C179.606,428.899,174.284,425.475,168.887,426.636z"/><path style="fill:#283954;" d="M58.887,215.654c5.403,1.172,10.721-2.263,11.888-7.661c1.167-5.398-2.263-10.72-7.661-11.888     l-50-10.81C6.881,183.946,1,188.707,1,195.07V471c0,6.366,5.883,11.119,12.113,9.774l50-10.81     c5.398-1.167,8.828-6.489,7.661-11.888c-1.168-5.397-6.491-8.822-11.888-7.661L21,458.607V207.463L58.887,215.654z"/><path style="fill:#283954;" d="M283.113,243.667l-50-10.811c-5.391-1.169-10.72,2.263-11.888,7.661     c-1.167,5.398,2.263,10.721,7.661,11.888c52.293,11.225,50.15,11.038,52.123,11.038c4.606,0,8.751-3.203,9.765-7.889     C291.941,250.155,288.512,244.833,283.113,243.667z"/><path style="fill:#283954;" d="M278.887,402.855l-50,10.81c-5.398,1.167-8.828,6.489-7.661,11.888     c1.163,5.376,6.461,8.83,11.888,7.661l50-10.81c5.398-1.167,8.828-6.489,7.661-11.888     C289.607,405.118,284.286,401.693,278.887,402.855z"/><path style="fill:#283954;" d="M503.113,291.226l-50-10.81c-5.398-1.162-10.72,2.264-11.888,7.661     c-1.167,5.398,2.263,10.721,7.661,11.888L491,309.069v47.932l-42.113,9.104c-5.398,1.167-8.828,6.489-7.661,11.888     c1.163,5.376,6.462,8.83,11.888,7.661l50-10.81c4.602-0.995,7.887-5.065,7.887-9.774V301     C511,296.291,507.715,292.221,503.113,291.226z"/></g><g><path style="fill:#DC5461;" d="M451,235.839h-60c-5.522,0-10,4.477-10,10V420.23c0,5.522,4.478,10,10,10h60     c5.522,0,10-4.478,10-10V245.839C461,240.316,456.522,235.839,451,235.839z M441,410.23h-40V255.839h40V410.23z"/><path style="fill:#DC5461;" d="M341,208.916h-60c-5.522,0-10,4.477-10,10v228.237c0,5.523,4.478,10,10,10h60     c5.522,0,10-4.477,10-10V218.916C351,213.393,346.522,208.916,341,208.916z M331,437.153h-40V228.916h40V437.153z"/><path style="fill:#DC5461;" d="M231,181.993h-60c-5.522,0-10,4.477-10,10v282.084c0,5.523,4.478,10,10,10h60     c5.522,0,10-4.477,10-10V191.993C241,186.47,236.522,181.993,231,181.993z M221,464.077h-40V201.993h40V464.077z"/><path style="fill:#DC5461;" d="M121,155.07H61c-5.522,0-10,4.477-10,10V501c0,5.522,4.478,10,10,10h60c5.522,0,10-4.478,10-10     V165.07C131,159.547,126.522,155.07,121,155.07z M111,491H71V175.07h40V491z"/></g></g></g><g id="Layer_1"/></svg>