<?xml version="1.0" ?><svg xmlns="http://www.w3.org/2000/svg" xmlns:xlink="http://www.w3.org/1999/xlink" version="1.1" viewBox="0 0 512 512" style="enable-background:new 0 0 512 512;" xml:space="preserve"><g id="_x30_7_x2C__flute_x2C__music_and_multimedia_x2C__orchestra_x2C__instrument_x2C__musical_x2C__music"><g><g><path style="fill:#283954;" d="M156.425,397.759L99.21,454.974c-3.905,3.905-3.905,10.237,0,14.142     c3.907,3.906,10.236,3.905,14.143,0l57.215-57.215c3.905-3.905,3.905-10.237,0-14.143     C166.661,393.855,160.331,393.855,156.425,397.759z"/><path style="fill:#283954;" d="M114.26,341.451c-3.906-3.904-10.236-3.904-14.143,0l-57.215,57.216     c-3.905,3.905-3.905,10.237,0,14.143c3.907,3.905,10.236,3.904,14.143,0l57.215-57.216     C118.165,351.688,118.165,345.356,114.26,341.451z"/><path style="fill:#283954;" d="M231.203,322.744l-39.95,39.95c-3.905,3.905-3.905,10.237,0,14.143     c3.907,3.905,10.236,3.904,14.143,0l39.95-39.95c3.905-3.905,3.905-10.237,0-14.143     C241.439,318.839,235.109,318.839,231.203,322.744z"/><path style="fill:#283954;" d="M370.563,183.394l-111.08,111.08c-3.905,3.905-3.905,10.237,0,14.142     c3.907,3.906,10.236,3.905,14.143,0l111.08-111.08c3.905-3.905,3.905-10.237,0-14.143     C380.8,179.49,374.47,179.49,370.563,183.394z"/><path style="fill:#283954;" d="M277.796,192.287l50.83-50.83c3.905-3.905,3.905-10.237,0-14.143     c-3.906-3.904-10.236-3.904-14.143,0l-50.83,50.83c-3.905,3.905-3.905,10.237,0,14.143     C267.561,196.192,273.889,196.191,277.796,192.287z"/><path style="fill:#283954;" d="M235.373,206.424l-100.14,100.14c-3.905,3.905-3.905,10.237,0,14.143     c3.907,3.906,10.236,3.904,14.143,0l100.14-100.14c3.905-3.905,3.905-10.237,0-14.143     C245.609,202.52,239.279,202.52,235.373,206.424z"/><path style="fill:#283954;" d="M460.917,1.943c-17.387,3.769-34.251,9.382-50.128,16.685     c-0.465,0.348-36.217,14.402-49.983,55.97l-3.78,11.418c-1.736,5.242,1.107,10.9,6.351,12.636     c5.242,1.738,10.9-1.106,12.636-6.351l3.78-11.416c10.948-33.059,39.031-43.844,39.358-44.089     c14.556-6.694,30.033-11.845,46.005-15.308c14.978-3.244,28.475,10.19,25.352,25.145c-5.493,26.301-15.009,45.716-15.248,46.327     c-8.527,18.48-24.595,32.769-44.081,39.2l-11.5,3.795c-5.244,1.731-8.093,7.385-6.362,12.63c1.737,5.263,7.405,8.089,12.63,6.362     l11.5-3.795c24.73-8.162,45.132-26.318,55.97-49.805c0.305-0.78,10.664-21.876,16.67-50.626     C516.155,21.651,490.044-4.379,460.917,1.943z"/><circle style="fill:#283954;" cx="206.484" cy="305.57" r="10"/><circle style="fill:#283954;" cx="242.259" cy="269.767" r="10"/><circle style="fill:#283954;" cx="278.036" cy="233.99" r="10"/><circle style="fill:#283954;" cx="313.818" cy="198.209" r="10"/></g><g><path style="fill:#DC5461;" d="M61.272,402.062c-13.765-13.763-36.158-13.762-49.921,0.001c-13.762,13.763-13.762,36.156,0,49.92     l48.685,48.684c13.795,13.795,36.124,13.796,49.92,0c13.763-13.763,13.763-36.157,0-49.92L61.272,402.062z M95.813,486.525     c-5.981,5.979-15.655,5.979-21.635-0.001l-48.685-48.683c-5.965-5.966-5.964-15.672,0.001-21.638     c5.981-5.979,15.655-5.979,21.635,0.001l48.684,48.685C101.778,470.854,101.778,480.559,95.813,486.525z"/><path style="fill:#DC5461;" d="M153.434,309.901c-13.765-13.763-36.158-13.761-49.921,0c-13.795,13.795-13.796,36.123,0,49.92     l48.684,48.685c13.766,13.764,36.157,13.762,49.921,0c13.763-13.764,13.763-36.157,0-49.921L153.434,309.901z M187.976,394.363     c-5.965,5.964-15.671,5.965-21.636,0l-48.685-48.684c-5.979-5.981-5.979-15.655,0.001-21.635c5.966-5.965,15.672-5.963,21.636,0     l48.684,48.684C193.94,378.692,193.94,388.398,187.976,394.363z"/><path style="fill:#DC5461;" d="M429.208,137.708l-54.905-54.896c-12.049-12.047-31.652-12.046-43.701,0.001L315.56,97.856     c-12.341,12.339-12.354,32.323-0.008,44.669l53.936,53.936c12.317,12.315,32.358,12.318,44.676,0l15.047-15.048     C441.288,169.335,441.289,149.787,429.208,137.708z M415.068,167.27C415.067,167.27,415.067,167.27,415.068,167.27     l-15.048,15.048c-4.52,4.519-11.871,4.519-16.391,0l-53.936-53.935c-4.523-4.523-4.526-11.853,0.007-16.384l15.043-15.043     c4.248-4.25,11.167-4.252,15.418-0.001l54.905,54.897C419.32,156.104,419.338,162.998,415.068,167.27z"/></g></g></g><g id="Layer_1"/></svg>