<?xml version="1.0" ?><svg xmlns="http://www.w3.org/2000/svg" xmlns:xlink="http://www.w3.org/1999/xlink" version="1.1" viewBox="0 0 512 512" style="enable-background:new 0 0 512 512;" xml:space="preserve"><g id="_x33_2_x2C__saxophone_x2C__music_and_multimedia_x2C__wind_instrument_x2C__musical_instrument_x2C__orchestra_x2C__music"><g><g><path style="fill:#283954;" d="M445.998,289.926c-3.788-4.021-10.117-4.208-14.136-0.421     c-34.96,32.94-30.512,74.742-30.853,76.498c0,68.925-56.075,125-125,125c-69.085,0-125-55.905-125-125v-48.32     c0-5.522-4.478-10-10-10s-10,4.478-10,10v48.32c0,80.14,64.851,145,145,145c79.953,0,145-65.047,145-145     c0.359-1.892-3.687-35.318,24.567-61.941C449.596,300.275,449.785,293.946,445.998,289.926z"/><path style="fill:#283954;" d="M131.009,277.683c0,5.522,4.478,10,10,10s10-4.478,10-10v-174.68c0-23.159-18.841-42-42-42h-8v-40     h6.67c44.869,0,83.33,36.558,83.33,83.33v236.67c0,38.598,31.401,70,70,70c38.533,0,70-31.166,70-70v-15     c0-36.276,20.16-68.896,52.609-85.125l1.7-0.85c4.94-2.469,6.944-8.475,4.476-13.415s-8.475-6.942-13.415-4.476     c-1.356,0.922-28.852,12.066-48.168,43.315c-11.254,18.207-17.202,39.145-17.202,60.55v15c0,27.592-22.323,50-50,50     c-27.57,0-50-22.43-50-50v-80h30c5.522,0,10-4.478,10-10s-4.478-10-10-10h-30v-60h30c5.522,0,10-4.478,10-10s-4.478-10-10-10h-30     c-0.024-59.251,0.054-56.454-0.059-60h30.059c5.522,0,10-4.478,10-10s-4.478-10-10-10h-32.664     c-10.728-46.369-52.154-80-100.666-80C79.995,1.037,80.882,0.919,79.595,1.104l-70,10c-4.927,0.704-8.586,4.923-8.586,9.899v40     c0,4.977,3.659,9.195,8.586,9.899c74.247,10.571,70.073,10.101,71.414,10.101h28c12.131,0,22,9.869,22,22V277.683z      M21.009,52.331V29.676l60-8.571v39.797L21.009,52.331z"/></g><g><path style="fill:#DC5461;" d="M501.024,261.625l-41.529-47.16c-3.65-4.146-9.97-4.546-14.113-0.896     c-4.146,3.65-4.547,9.969-0.896,14.113l41.53,47.162c7.29,8.274,6.488,20.937-1.784,28.225     c-8.331,7.337-20.963,6.462-28.229-1.797l-79.317-90.046c-7.284-8.276-6.479-20.939,1.795-28.229     c8.317-7.328,20.951-6.468,28.225,1.784l11.359,12.9c3.649,4.146,9.968,4.548,14.113,0.896c4.146-3.649,4.547-9.969,0.896-14.113     l-11.362-12.903c-14.625-16.598-39.904-18.149-56.452-3.572c-16.546,14.576-18.155,39.899-3.584,56.453l79.316,90.046     c14.61,16.608,39.894,18.173,56.458,3.589C514,303.498,515.602,278.172,501.024,261.625z"/><path style="fill:#DC5461;" d="M261.009,61.003c-16.542,0-30,13.458-30,30s13.458,30,30,30s30-13.458,30-30     S277.551,61.003,261.009,61.003z M261.009,101.003c-5.514,0-10-4.486-10-10s4.486-10,10-10s10,4.486,10,10     S266.523,101.003,261.009,101.003z"/><path style="fill:#DC5461;" d="M261.009,141.003c-16.542,0-30,13.458-30,30s13.458,30,30,30s30-13.458,30-30     S277.551,141.003,261.009,141.003z M261.009,181.003c-5.514,0-10-4.486-10-10s4.486-10,10-10s10,4.486,10,10     S266.523,181.003,261.009,181.003z"/><path style="fill:#DC5461;" d="M261.009,221.003c-16.542,0-30,13.458-30,30s13.458,30,30,30s30-13.458,30-30     S277.551,221.003,261.009,221.003z M261.009,261.003c-5.514,0-10-4.486-10-10s4.486-10,10-10s10,4.486,10,10     S266.523,261.003,261.009,261.003z"/></g></g></g><g id="Layer_1"/></svg>