<?xml version="1.0" ?><svg xmlns="http://www.w3.org/2000/svg" xmlns:xlink="http://www.w3.org/1999/xlink" version="1.1" viewBox="0 0 512 512" style="enable-background:new 0 0 512 512;" xml:space="preserve"><g id="_x32_1_x2C__grand_piano_x2C__piano_x2C__musical_instrument_x2C__music_and_multimedia_x2C__music_instrument_x2C__musical"><g><path style="fill:#DC5461;" d="M381,261.004H131c-5.523,0-10,4.478-10,10v50c0,5.522,4.477,10,10,10c5.522,0,10-4.478,10-10v-40    h42.5v40c0,5.522,4.477,10,10,10c5.522,0,10-4.478,10-10v-40H246v40c0,5.522,4.478,10,10,10s10-4.478,10-10v-40h42.5v40    c0,5.522,4.478,10,10,10s10-4.478,10-10v-40H371v40c0,5.522,4.478,10,10,10s10-4.478,10-10v-50    C391,265.482,386.523,261.004,381,261.004z"/><path style="fill:#DC5461;" d="M441,181.004c-5.522,0-10,4.478-10,10v130c0,5.522,4.478,10,10,10s10-4.478,10-10v-130    C451,185.482,446.523,181.004,441,181.004z"/><path style="fill:#DC5461;" d="M71,181.004c-5.523,0-10,4.478-10,10v130c0,5.522,4.477,10,10,10c5.522,0,10-4.478,10-10v-130    C81,185.482,76.523,181.004,71,181.004z"/><g><path style="fill:#283954;" d="M501,181.004h-73.82l-37.09-74.189l68.476-28.954c20.356-8.612,29.888-32.053,21.265-52.424     c-8.666-20.504-32.194-29.825-52.414-21.277l-194.56,82.22c-5.087,2.149-7.469,8.017-5.318,13.104     c2.148,5.086,8.014,7.472,13.103,5.318l194.56-82.22c10.157-4.29,21.887,0.423,26.209,10.647     c4.31,10.177-0.445,21.9-10.636,26.211L163.274,181.004H60.344l143.449-60.622c5.087-2.149,7.469-8.017,5.318-13.104     c-2.148-5.086-8.013-7.469-13.104-5.318L7.11,181.789c-3.662,1.549-6.131,5.192-6.11,9.264c0,19.329,0,143.281,0,169.948     c0,5.522,4.477,10,10,10h20v130.003c0,5.522,4.477,10,10,10h40c4.977,0,9.195-3.659,9.899-8.586l18.774-131.417H299.16     c5.522,0,10-4.478,10-10s-4.478-10-10-10H21v-19.997h470v19.997H339.16c-5.522,0-10,4.478-10,10s4.478,10,10,10h63.167     l18.774,131.417c0.704,4.927,4.923,8.586,9.899,8.586h40c5.522,0,10-4.478,10-10V371.001h20c5.522,0,10-4.478,10-10     c0-26.666,0-150.709,0-169.997C511,185.482,506.523,181.004,501,181.004z M51,371.004h38.47l-17.143,120H51V371.004z      M461,491.004h-21.327l-17.143-120H461V491.004z M371.632,114.62l33.188,66.384H214.632L371.632,114.62z M491,311.001H21V201.004     c2.74,0,454.493,0,470,0V311.001z"/><path style="fill:#283954;" d="M201,241.004h110c5.522,0,10-4.478,10-10s-4.478-10-10-10H201c-5.523,0-10,4.478-10,10     S195.478,241.004,201,241.004z"/><path style="fill:#283954;" d="M226,431.004c-5.523,0-10,4.478-10,10v60c0,5.522,4.477,10,10,10s10-4.478,10-10v-60     C236,435.482,231.523,431.004,226,431.004z"/><path style="fill:#283954;" d="M286,431.004c-5.522,0-10,4.478-10,10v60c0,5.522,4.478,10,10,10s10-4.478,10-10v-60     C296,435.482,291.523,431.004,286,431.004z"/></g><path style="fill:#DC5461;" d="M286,391.004h-60c-16.542,0-30,13.458-30,30s13.458,30,30,30h60c16.542,0,30-13.458,30-30    S302.542,391.004,286,391.004z M286,431.004h-60c-5.514,0-10-4.486-10-10s4.486-10,10-10h60c5.514,0,10,4.486,10,10    S291.514,431.004,286,431.004z"/></g></g><g id="Layer_1"/></svg>