<?xml version="1.0" ?><svg xmlns="http://www.w3.org/2000/svg" xmlns:xlink="http://www.w3.org/1999/xlink" version="1.1" viewBox="0 0 512 512" style="enable-background:new 0 0 512 512;" xml:space="preserve"><g id="_x30_4_x2C__tambourine_x2C__music_and_multimedia_x2C__percussion_instrument_x2C__musical_instrument_x2C__orchestra_x2C__music"><g><g><path style="fill:#DC5461;" d="M207.681,87.379c5.479-0.697,9.354-5.704,8.657-11.183C213.256,51.998,232.181,31.09,256,31.09     c23.818,0,42.744,20.907,39.662,45.106c-0.762,5.988,3.907,11.264,9.933,11.264c4.96,0,9.265-3.688,9.907-8.738     C320.095,42.596,291.864,11.09,256,11.09c-35.832,0-64.099,31.473-59.502,67.631C197.194,84.2,202.198,88.072,207.681,87.379z"/><path style="fill:#DC5461;" d="M81.453,175.689c4.377,3.388,10.657,2.569,14.028-1.789c3.38-4.368,2.58-10.649-1.788-14.029     c-19.375-14.994-20.651-43.164-3.863-59.951c16.818-16.82,44.995-15.472,59.949,3.861c3.378,4.369,9.661,5.171,14.027,1.793     c4.369-3.379,5.172-9.659,1.793-14.028c-22.267-28.794-64.435-31.245-89.912-5.768C50.246,111.221,52.621,153.373,81.453,175.689     z"/><path style="fill:#DC5461;" d="M68.631,325.592c5.479-0.697,9.355-5.703,8.658-11.182c-0.697-5.48-5.716-9.36-11.182-8.658     C41.905,308.832,21,289.909,21,266.09c0-23.82,20.906-42.742,45.107-39.662c5.482,0.698,10.485-3.179,11.182-8.658     c0.697-5.479-3.179-10.485-8.658-11.182C32.579,201.999,1,230.158,1,266.09c0,33.084,26.916,60,60,60     C63.467,326.09,66.034,325.922,68.631,325.592z"/><path style="fill:#DC5461;" d="M163.808,426.607c-4.366-3.376-10.647-2.578-14.028,1.792     c-14.924,19.305-43.106,20.704-59.949,3.861c-16.848-16.847-15.438-45.029,3.861-59.949c4.369-3.38,5.171-9.66,1.792-14.028     c-3.38-4.37-9.663-5.169-14.028-1.792c-28.539,22.072-31.437,64.241-5.768,89.912c25.438,25.436,67.607,23.073,89.912-5.768     C168.979,436.267,168.177,429.987,163.808,426.607z"/><path style="fill:#DC5461;" d="M430.545,356.491c-4.366-3.376-10.647-2.578-14.028,1.792c-3.379,4.368-2.577,10.648,1.792,14.028     c19.304,14.923,20.707,43.105,3.861,59.949c-16.847,16.847-45.03,15.438-59.949-3.861c-3.38-4.369-9.663-5.17-14.028-1.792     c-4.369,3.38-5.171,9.66-1.792,14.028c22.072,28.539,64.241,31.437,89.912,5.768     C461.953,420.761,459.133,378.601,430.545,356.491z"/><path style="fill:#DC5461;" d="M443.369,206.588c-5.479,0.697-9.355,5.703-8.658,11.182c0.696,5.479,5.712,9.355,11.182,8.658     C470.095,223.349,491,242.271,491,266.09c0,23.821-20.907,42.742-45.107,39.662c-5.482-0.697-10.485,3.179-11.182,8.658     c-0.697,5.478,3.179,10.484,8.658,11.182C479.494,330.184,511,301.956,511,266.09C511,230.195,479.459,201.994,443.369,206.588z"/><path style="fill:#DC5461;" d="M348.193,105.574c4.367,3.378,10.649,2.576,14.027-1.793     c14.963-19.344,43.139-20.672,59.949-3.861c16.793,16.792,15.503,44.964-3.863,59.951c-4.368,3.38-5.168,9.661-1.788,14.029     c3.374,4.362,9.654,5.173,14.028,1.789c28.88-22.352,31.164-64.51,5.766-89.911c-25.439-25.439-67.61-23.072-89.912,5.768     C343.021,95.915,343.824,102.195,348.193,105.574z"/><path style="fill:#DC5461;" d="M256,201.09c-35.841,0-65,29.159-65,65c0,35.841,29.159,65,65,65s65-29.159,65-65     C321,230.249,291.841,201.09,256,201.09z M256,311.09c-24.813,0-45-20.187-45-45c0-24.813,20.187-45,45-45s45,20.187,45,45     C301,290.904,280.813,311.09,256,311.09z"/></g><g><path style="fill:#283954;" d="M461,266.09c0-113.038-91.963-205-205-205s-205,91.962-205,205     c0,84.393,50.974,157.004,124.035,188.387c-1.152,19.497,12.002,37.216,31.471,41.389c5.714,1.229,11.573,2.254,17.414,3.044     c5.477,0.74,10.51-3.098,11.25-8.57c0.739-5.474-3.098-10.51-8.57-11.25c-5.33-0.721-10.675-1.654-15.894-2.778     c-10.421-2.233-17.217-12.252-15.47-22.811c1.872-11.331,12.824-18.671,24.04-16.271c24.037,5.121,49.394,5.125,73.464-0.004     c11.251-2.41,22.152,4.925,24.023,16.265c1.748,10.563-5.048,20.587-15.474,22.821c-11.898,2.555-24.188,4.104-36.526,4.605     c-5.518,0.225-9.81,4.88-9.586,10.398c0.22,5.41,4.738,9.786,10.398,9.586c13.474-0.548,26.902-2.242,39.909-5.034     c19.475-4.174,32.63-21.894,31.48-41.391C410.012,423.101,461,350.498,461,266.09z M330.839,435.32     c-8.988-14.216-25.889-21.175-42.283-17.649c-21.303,4.539-43.816,4.538-65.104,0.001c-17.204-3.674-33.739,4.198-42.283,17.652     C114.906,405.943,71,339.092,71,266.09c0-102.009,82.99-185,185-185s185,82.991,185,185     C441,339.089,397.098,405.937,330.839,435.32z"/><path style="fill:#283954;" d="M354.127,173.38c-3.796-4.013-10.125-4.192-14.137-0.396c-4.014,3.794-4.19,10.124-0.396,14.137     C359.847,208.54,371,236.586,371,266.09c0,63.411-51.589,115-115,115s-115-51.589-115-115s51.589-115,115-115     c19.035,0,37.875,4.737,54.48,13.7c4.861,2.623,10.927,0.809,13.55-4.051c2.623-4.86,0.81-10.927-4.05-13.55     c-19.516-10.532-41.64-16.1-63.98-16.1c-74.439,0-135,60.56-135,135s60.561,135,135,135s135-60.56,135-135     C391,231.454,377.904,198.528,354.127,173.38z"/></g></g></g><g id="Layer_1"/></svg>