<?xml version="1.0" ?><svg xmlns="http://www.w3.org/2000/svg" xmlns:xlink="http://www.w3.org/1999/xlink" version="1.1" viewBox="0 0 512 512" style="enable-background:new 0 0 512 512;" xml:space="preserve"><g id="_x32_8_x2C__chimes_x2C__music_and_multimedia_x2C__percussion_instrument_x2C__musical_instrument_x2C__orchestra_x2C__music"><g><g><path style="fill:#283954;" d="M466,101h-15v-5c0-24.813-20.187-45-45-45H301V30.667C301,14.309,287.691,1,271.333,1h-30.666     C224.309,1,211,14.309,211,30.667V51H106c-24.813,0-45,20.187-45,45v5H46c-12.021,0-23.322,4.681-31.821,13.179     C5.681,122.678,1,133.979,1,146c0,13.785,11.215,25,25,25h15.454v30H31c-5.522,0-10,4.478-10,10v290c0,5.522,4.478,10,10,10     h40.909c5.522,0,10-4.478,10-10V211c0-5.522-4.478-10-10-10H61.454v-30h61.818v40c0,5.522,4.478,10,10,10s10-4.478,10-10v-40     h61.818v30H194.64c-5.522,0-10,4.478-10,10v110c0,5.522,4.478,10,10,10s10-4.478,10-10V221h20.91v210h-20.91v-70     c0-5.522-4.478-10-10-10s-10,4.478-10,10v80c0,5.522,4.478,10,10,10h40.91c5.522,0,10-4.478,10-10V211c0-5.522-4.478-10-10-10     h-10.459v-30h61.818v40c0,5.522,4.478,10,10,10s10-4.478,10-10v-40h61.818v30h-10.455c-5.522,0-10,4.478-10,10v170     c0,5.522,4.478,10,10,10h40.909c5.522,0,10-4.478,10-10V211c0-5.522-4.478-10-10-10h-10.454v-30h61.818v40     c0,5.522,4.478,10,10,10s10-4.478,10-10v-40H486c13.865,0,25-11.245,25-25C511,121.187,490.813,101,466,101z M61.909,491H41V221     h20.909V491z M389.182,371h-20.909V221h20.909V371z M231,30.667c0-5.33,4.337-9.667,9.667-9.667h30.666     c5.33,0,9.667,4.337,9.667,9.667V51h-50V30.667z M486,151H26c-2.757,0-5-2.243-5-5c0-6.68,2.6-12.958,7.321-17.679     C33.042,123.6,39.32,121,46,121c16.651,0,267.858,0,284.67,0c5.522,0,10-4.478,10-10s-4.478-10-10-10H81v-5     c0-13.785,11.215-25,25-25c6.984,0,290.529,0,300,0c13.785,0,25,11.215,25,25v5h-60.33c-5.522,0-10,4.478-10,10s4.478,10,10,10     c12.667,0,85.104,0,95.33,0c13.785,0,25,11.215,25,25C491,148.678,488.819,151,486,151z"/></g><g><path style="fill:#DC5461;" d="M153.728,201h-40.909c-5.522,0-10,4.478-10,10v260c0,5.522,4.478,10,10,10h40.909     c5.522,0,10-4.478,10-10V211C163.728,205.478,159.25,201,153.728,201z M143.728,461h-20.909V221h20.909V461z"/><path style="fill:#DC5461;" d="M317.363,201h-40.909c-5.522,0-10,4.478-10,10v200c0,5.522,4.478,10,10,10h40.909     c5.522,0,10-4.478,10-10V211C327.363,205.478,322.886,201,317.363,201z M307.363,401h-20.909V221h20.909V401z"/><path style="fill:#DC5461;" d="M481,201h-40.909c-5.522,0-10,4.478-10,10v140c0,5.522,4.478,10,10,10H481c5.522,0,10-4.478,10-10     V211C491,205.478,486.522,201,481,201z M471,341h-20.909V221H471V341z"/></g></g></g><g id="Layer_1"/></svg>