<?xml version="1.0" ?><svg xmlns="http://www.w3.org/2000/svg" xmlns:xlink="http://www.w3.org/1999/xlink" version="1.1" viewBox="0 0 512 512" style="enable-background:new 0 0 512 512;" xml:space="preserve"><g id="_x30_8_x2C__harp_x2C__music_and_multimedia_x2C__music_x2C__music_instrument_x2C__harps_x2C__musical_instruments"><g><g><path style="fill:#DC5461;" d="M90.906,111c-5.522,0-10,4.477-10,10v260c0,5.522,4.478,10,10,10s10-4.478,10-10V121     C100.906,115.477,96.428,111,90.906,111z"/><path style="fill:#DC5461;" d="M50.906,111c-5.522,0-10,4.477-10,10v260c0,5.522,4.478,10,10,10s10-4.478,10-10V121     C60.906,115.477,56.428,111,50.906,111z"/><path style="fill:#DC5461;" d="M361.156,171c-5.522,0-10,4.477-10,10v113.24c0,5.523,4.478,10,10,10s10-4.477,10-10V181     C371.156,175.477,366.678,171,361.156,171z"/><path style="fill:#DC5461;" d="M271.156,132.03c-5.522,0-10,4.478-10,10v225.489c0,5.523,4.478,10,10,10s10-4.477,10-10V142.03     C281.156,136.508,276.678,132.03,271.156,132.03z"/><path style="fill:#DC5461;" d="M181.156,81c-5.522,0-10,4.477-10,10v350c0,5.522,4.478,10,10,10s10-4.478,10-10V91     C191.156,85.477,186.678,81,181.156,81z"/></g><g><path style="fill:#283954;" d="M509.834,202.595c-4.977-26.221-23.963-47.22-49.549-54.803l-126.171-37.38     c-15.936-4.721-29.565-16.317-36.499-32.461C285.396,49.43,257.451,31,226.424,31h-85.881c-2.434-16.938-17.036-30-34.637-30h-70     c-19.299,0-35,15.701-35,35v60c0,19.299,15.701,35,35,35h70c17.601,0,32.203-13.062,34.637-30h85.877     c2.989,0,5.683,1.776,6.86,4.525c14.982,34.955,44.486,61.197,80.947,72c131.284,38.927,126.265,37.357,126.687,37.583     c0.116,0.284,0.21,0.801,0.207,1.09c-0.275,0.32,11.356-9.226-263.772,214.802h-56.444v-31.25c0-15.853-12.897-28.75-28.75-28.75     h-42.5c-15.853,0-28.75,12.897-28.75,28.75v36.605C8.94,443.291,0.905,456.149,0.905,471c0,22.056,17.944,40,40,40h62.6     c5.522,0,10-4.478,10-10s-4.478-10-10-10h-62.6c-11.028,0-20-8.972-20-20c0-11.044,8.952-20,20-20h250c11.028,0,20,8.972,20,20     c0,11.066-8.975,20-20,20h-147.4c-5.522,0-10,4.478-10,10s4.478,10,10,10h147.4c22.097,0,40-17.898,40-40     c0-22.056-17.944-40-40-40h-10.958l79.923-62.44c4.353-3.399,5.124-9.685,1.724-14.036c-3.399-4.352-9.686-5.126-14.036-1.724     L247.462,431h-38.437l244.09-198.736c6.334-4.998,9.102-12.407,7.595-20.35c-1.516-7.976-6.849-13.874-14.633-16.182     L319.909,158.35c-30.74-9.107-55.614-31.233-68.246-60.703C247.329,87.534,237.421,81,226.42,81h-85.515V51h85.519     c23.015,0,43.743,13.671,52.812,34.836c9.012,20.985,26.97,37.167,49.197,43.752l126.17,37.38     c18.652,5.527,31.954,20.24,35.582,39.356c3.628,19.116-3.357,37.679-18.687,49.656l-92.431,72.21     c-4.353,3.399-5.124,9.685-1.724,14.036c3.388,4.338,9.673,5.134,14.036,1.724l92.432-72.21     C504.839,255.31,514.811,228.815,509.834,202.595z M105.906,111h-70c-8.271,0-15-6.729-15-15V36c0-8.272,6.729-15,15-15h70     c8.27,0,14.996,6.725,15,14.994c0,0.389,0,7.355,0,60.006C120.906,104.271,114.177,111,105.906,111z M120.905,35.995     c0,0.002,0,0.003,0,0.005C120.905,36.752,120.905,36.121,120.905,35.995z M100.906,431h-60v-31.25c0-4.825,3.925-8.75,8.75-8.75     h42.5c4.825,0,8.75,3.925,8.75,8.75V431z"/></g></g></g><g id="Layer_1"/></svg>