<?xml version="1.0" ?><svg xmlns="http://www.w3.org/2000/svg" xmlns:xlink="http://www.w3.org/1999/xlink" version="1.1" viewBox="0 0 512 512" style="enable-background:new 0 0 512 512;" xml:space="preserve"><g id="_x33_1_x2C__cello_x2C__music_x2C__musical_instrument_x2C__orchestra_x2C__music_and_multimedia_x2C__string_instrument"><g><path style="fill:#DC5461;" d="M232.611,89.204c8.268,0,16.041,3.22,21.886,9.065l61.559,61.558    c3.907,3.905,10.236,3.904,14.143,0c3.905-3.905,3.905-10.237,0-14.143L268.64,84.127c-9.623-9.623-22.417-14.923-36.028-14.923    c-0.002,0-0.007,0-0.009,0c-10.215,0.002-19.972,2.989-28.273,8.548l-22.587-22.587c-3.906-3.904-10.236-3.904-14.143,0    c-3.905,3.905-3.905,10.237,0,14.143l119.487,119.488c3.907,3.905,10.236,3.904,14.143,0c3.905-3.905,3.905-10.237,0-14.143    l-82.281-82.281c4.197-2.067,8.841-3.167,13.656-3.168C232.607,89.204,232.609,89.204,232.611,89.204z"/><path style="fill:#DC5461;" d="M434.324,307.748c13.202-19.792,11.085-46.851-6.364-64.3l-61.558-61.559    c-3.905-3.903-10.235-3.904-14.143,0c-3.905,3.905-3.905,10.237,0,14.143l61.558,61.559c9.73,9.73,11.522,24.126,5.897,35.548    l-82.281-82.282c-3.906-3.904-10.236-3.904-14.143,0c-3.905,3.905-3.905,10.237,0,14.143l119.487,119.488    c3.907,3.905,10.236,3.904,14.143,0c3.905-3.905,3.905-10.237,0-14.143L434.324,307.748z"/><path style="fill:#DC5461;" d="M113.57,320.333c-21.555,21.557-21.555,56.63,0,78.185c21.554,21.554,56.628,21.555,78.184,0    c21.555-21.555,21.555-56.628,0-78.185C170.199,298.778,135.125,298.778,113.57,320.333z M177.611,384.375    c-13.756,13.758-36.143,13.758-49.898,0c-13.757-13.757-13.757-36.142,0-49.899s36.142-13.758,49.898,0    S191.368,370.618,177.611,384.375z"/><g><path style="fill:#283954;" d="M52.646,394.608c-3.905,3.905-3.905,10.237,0,14.143l50.691,50.691     c3.907,3.905,10.236,3.904,14.143,0c3.905-3.905,3.905-10.237,0-14.143l-50.691-50.691     C62.882,390.704,56.552,390.704,52.646,394.608z"/><path style="fill:#283954;" d="M392.979,82.9c-3.903-3.903-10.236-3.904-14.143,0L262.052,199.684     c-17.231-8.505-36.342-12.355-55.735-11.159c-5.513,0.341-9.705,5.086-9.365,10.598c0.341,5.512,5.098,9.694,10.598,9.365     c13.569-0.842,26.967,1.333,39.377,6.322l-51.841,51.841c-3.905,3.905-3.905,10.237,0,14.143l36.209,36.209     c3.905,3.903,10.237,3.904,14.143,0l51.764-51.764c14.892,37.505,3.499,82.04-30.689,106.968     c-2.363,1.724-3.854,4.395-4.08,7.311c-3.185,41.213-27.26,77.466-62.715,96.747c-3.296,1.635-5.559,5.034-5.559,8.964     c0,5.522,4.482,10,10.005,10c1.659,0,3.292-0.413,4.752-1.201c40.057-21.631,67.918-61.929,73.034-108.444     c41.787-33.26,52.479-90.389,30.399-135.491l116.837-116.838c3.905-3.905,3.905-10.237,0-14.143L392.979,82.9z M238.366,295.788     L216.3,273.721c5.664-5.664,132.864-132.864,133.399-133.399l22.066,22.066L238.366,295.788z M385.908,148.246l-22.066-22.066     l22.066-22.066l22.066,22.066L385.908,148.246z"/><path style="fill:#283954;" d="M508.085,95.32l-23.188-23.188c-3.906-3.904-10.236-3.904-14.143,0     c-3.905,3.905-3.905,10.237,0,14.143l23.188,23.188c3.907,3.905,10.236,3.904,14.143,0     C511.99,105.557,511.99,99.225,508.085,95.32z"/><path style="fill:#283954;" d="M462.419,105.849c-3.906-3.904-10.236-3.904-14.143,0c-3.905,3.905-3.905,10.237,0,14.143     l17.568,17.568c3.907,3.905,10.236,3.904,14.143,0c3.905-3.905,3.905-10.237,0-14.143L462.419,105.849z"/><path style="fill:#283954;" d="M416.768,4.003c-3.906-3.904-10.236-3.904-14.143,0c-3.905,3.905-3.905,10.237,0,14.143     l23.489,23.489c3.907,3.905,10.236,3.904,14.143,0c3.905-3.905,3.905-10.237,0-14.143L416.768,4.003z"/><path style="fill:#283954;" d="M392.404,64.12c3.907,3.905,10.236,3.904,14.143,0c3.905-3.905,3.905-10.237,0-14.143L388.67,32.1     c-3.906-3.904-10.236-3.904-14.143,0c-3.905,3.905-3.905,10.237,0,14.143L392.404,64.12z"/><path style="fill:#283954;" d="M139.894,245.564c8.134-11.196,19.431-21.135,33.013-27.869c4.948-2.453,6.97-8.453,4.517-13.401     c-2.452-4.947-8.451-6.97-13.401-4.517c-14.996,7.436-27.702,18.016-37.519,30.363c-31.722,3.49-61.432,17.726-84.091,40.384     c-54.982,54.984-55.282,143.202-0.611,198.541c33.131,33.527,80.507,48.145,126.654,39.354c5.426-1.033,8.985-6.27,7.952-11.694     s-6.266-8.981-11.694-7.952c-39.69,7.559-80.321-5.062-108.685-33.765C9.494,407.906,9.73,331.492,56.555,284.667     c20.362-20.361,47.359-32.795,76.02-35.01C135.496,249.43,138.172,247.934,139.894,245.564z"/></g><path style="fill:#DC5461;" d="M501.757,46.845l-36.209-36.209c-3.371-3.372-8.655-3.893-12.618-1.249L366.03,67.321    c-5.26,3.507-5.974,10.94-1.524,15.392l65.175,65.175c4.455,4.455,11.889,3.73,15.392-1.524l57.934-86.899    C505.65,55.498,505.127,50.217,501.757,46.845z M435.197,125.12l-47.924-47.924l69.929-46.62l24.615,24.615L435.197,125.12z"/></g></g><g id="Layer_1"/></svg>