<?xml version="1.0" ?><!DOCTYPE svg  PUBLIC '-//W3C//DTD SVG 1.1//EN'  'http://www.w3.org/Graphics/SVG/1.1/DTD/svg11.dtd'><svg class="icon" height="118.11px" version="1.1" viewBox="0 0 1734 1024" width="200px" xmlns="http://www.w3.org/2000/svg"><path d="M600.453302 1017.171968c-111.296926 0-481.785957-6.828032-576.763886-94.875509-1.263186-1.263186-26.458625-27.107288-12.76842-69.81663 0-8.057078 1.809429-43.870107 21.883843-49.947056 2.389811-17.274922 11.368674-67.187838 37.007935-84.496899a11.812496 11.812496 0 0 1 0.648663-7.032873c3.652997-8.774021 16.557978-12.76842 41.855838-12.836701 16.626259-4.813763 250.725345-72.069881 301.560045-87.296393 24.376075-7.340135 117.134894-50.663999 220.477163-103.069147 105.322398-53.395212 182.445022-96.514236 194.598919-108.633993 2.08255-8.193639 11.675935-41.138894 34.140162-54.624258a111.535907 111.535907 0 0 0-30.316464-18.060146 6.828032 6.828032 0 0 1-3.960258-8.43262L884.260464 145.539508a6.623191 6.623191 0 0 1 2.11669-3.140895c0.921784-0.785224 9.456825-7.476695 26.390344-7.476695a80.570781 80.570781 0 0 1 23.044609 3.652997c6.042809-33.081816 25.570981-125.089551 57.321331-130.381276a135.570581 135.570581 0 0 1 21.03034-1.297326c28.404614 0 115.735147 7.920517 123.928785 20.176835a52.541708 52.541708 0 0 0 3.652998 4.472361c7.613256 8.739881 21.303461 24.444356 19.357471 49.981196L1556.138839 186.1663a6.554911 6.554911 0 0 1 1.741149 0.751083c2.936054 1.741148 27.312129 16.86524 27.312129 35.164367a130.825098 130.825098 0 0 1 19.357471 27.994932c11.095552 22.191105 11.334534 42.538641 0.785224 59.1649 7.613256 10.242048 23.693272 36.768954 9.490965 64.627325 2.662933 8.261919 7.579116 27.312129 0.273121 38.168701l23.898113 73.776888h3.004334a6.828032 6.828032 0 0 1 6.828032 6.145229l23.488432 224.471561c8.53504 5.052744 26.117223 21.06448 24.376075 66.846436 5.428286 12.324598 39.295326 91.802894 28.984997 140.725745a6.828032 6.828032 0 0 1-1.843569 3.414016c-2.697073 2.697073-69.236247 65.719811-378.955791 68.280323a6.828032 6.828032 0 0 1-6.828032-6.828032v-3.789558h-2.253251v3.789558a6.828032 6.828032 0 0 1-6.828032 6.828032H1307.598465a6.828032 6.828032 0 0 1-6.828033-5.223444h-2.458091v1.126625a6.828032 6.828032 0 0 1-6.828033 6.828032h-23.898112a6.828032 6.828032 0 0 1-5.325866-2.526372 6.828032 6.828032 0 0 1-5.291725 2.526372h-23.898113a6.828032 6.828032 0 0 1-6.828032-5.291725h-2.594652a6.828032 6.828032 0 0 1-6.657332 5.291725h-23.898113a6.828032 6.828032 0 0 1-6.45249-4.540641v0.375541a6.828032 6.828032 0 0 1-6.828032 6.828033h-23.898113a6.828032 6.828032 0 0 1-6.452491-4.574782v0.443822a6.828032 6.828032 0 0 1-6.828032 6.828032h-23.898113a6.828032 6.828032 0 0 0-10.58345 0h-26.561046a6.828032 6.828032 0 0 1-4.30166-1.536307 6.828032 6.828032 0 0 1-6.31593 4.1651h-23.898113a6.828032 6.828032 0 0 1-6.657331-5.189305 6.828032 6.828032 0 0 1-6.623192 5.189305h-23.898112a6.828032 6.828032 0 0 1-6.623192-5.189305 6.828032 6.828032 0 0 1-6.623191 5.189305h-23.898113a6.828032 6.828032 0 0 1-6.486631-4.643062v-0.307262l-0.580382 1.194906a6.828032 6.828032 0 0 1-6.111089 3.755418h-23.898113a6.828032 6.828032 0 0 1-6.452491-4.540642v0.375542a6.828032 6.828032 0 0 1-6.828032 6.828032h-23.898113a6.828032 6.828032 0 0 1-6.623191-5.223444 6.828032 6.828032 0 0 1-6.623192 5.223444h-23.898113a6.828032 6.828032 0 0 1-6.623191-5.223444 6.828032 6.828032 0 0 1-5.906248 5.189304l-23.898113 2.662933h-0.785223a6.828032 6.828032 0 0 1-6.452491-4.677202l-0.170701-0.477962v0.477962a6.828032 6.828032 0 0 1-6.48663 4.677202h-20.9962a6.828032 6.828032 0 0 1-6.828032-5.325865h-2.594652a6.828032 6.828032 0 0 1-6.657332 5.325865h-23.898113a6.828032 6.828032 0 0 1-6.179369-3.891978l-0.614523 1.877708a6.828032 6.828032 0 0 1-6.48663 4.677202h-23.898113a6.828032 6.828032 0 0 1-6.452491-4.574781v0.375542a6.828032 6.828032 0 0 1-6.828032 6.828032h-26.322065a6.828032 6.828032 0 0 1-5.325865-2.526372 6.828032 6.828032 0 0 1-5.291725 2.526372h-23.898113a6.828032 6.828032 0 0 1-6.623191-5.189305 6.828032 6.828032 0 0 1-6.520771 5.189305s-9.149563 0.170701-25.161299 0.170701z" fill="#FFFFFF"/><path d="M1014.163778 13.724345c41.753417 0 113.755018 10.446889 118.227379 17.070081 5.325865 7.954658 26.561046 23.898113 21.23518 55.750883l400.737214 106.210042s26.561046 15.943455 23.898113 31.852771c0 0 47.796226 47.796226 18.572248 84.940721 0 0 29.189838 31.81863 10.61759 63.671401 0 0 10.61759 29.189838 0 37.178636l26.561045 82.243649h7.954658l23.898113 228.261118s26.561046 7.954658 23.898113 63.705542c0 0 39.807428 87.569514 29.189838 137.994532 0 0-63.705541 63.705541-374.210309 66.334333v-10.61759h-15.909315v10.61759H1307.598465v-5.291725h-15.943456v7.954658h-23.898113v-7.954658h-10.61759v7.954658h-23.898113v-5.291725h-15.909315v5.291725h-23.898113v-7.954658h-13.280523v10.61759h-23.898113v-5.325865h-13.280522V996.960992h-23.898113v-7.988798h-10.58345V996.960992h-26.561046v-5.325865h-10.58345v7.954658h-23.898113v-7.954658h-13.280523v7.954658h-23.898113v-5.291725H996.922996v5.291725h-23.898113l-2.662932-7.954658-7.954658 2.662933-2.662933 5.291725h-23.898112v-5.291725h-13.280523v7.954657h-23.898113V996.960992h-13.246383v5.291725h-23.898113V996.960992h-13.109822v5.291725l-23.898113 2.662933-2.662932-7.954658h-7.920518l-2.662932 7.954658h-21.235181v-5.325865h-15.909315v5.325865h-23.898113v-5.325865h-10.61759l-2.662933 7.988797h-23.898113v-5.325865H699.903592v7.954658h-26.629326v-7.954658h-10.61759v7.954658h-23.898113v-7.954658h-13.280522v7.954658s-9.081283 0.170701-25.024739 0.170701c-101.089018 0-477.962259-5.940388-572.120824-93.06608 0 0-23.898113-23.898113-10.61759-63.671401 0 0 0-45.133293 21.23518-45.133294 0 0 7.988798-74.288991 39.807428-87.569513 0 0-15.909315-15.943455 34.515704-15.943456 0 0 249.462159-71.694339 302.55011-87.569514s398.108422-188.419551 419.343602-215.083016c0 0 10.61759-47.796226 39.807428-55.716744a106.039341 106.039341 0 0 0-39.807428-26.526905l55.716743-172.510235s7.067013-5.906248 22.020404-5.906248a79.034474 79.034474 0 0 1 28.404614 5.906248s21.23518-127.411082 53.087951-132.702808a126.011336 126.011336 0 0 1 19.767154-1.160765m0-13.656065a141.169567 141.169567 0 0 0-22.020404 1.399747c-19.664733 3.414016-34.891245 27.312129-49.366674 78.078549-5.496566 19.220911-9.593385 38.03214-12.085617 50.595719a81.936387 81.936387 0 0 0-17.787024-2.04841c-18.913649 0-28.950857 7.544976-30.726145 9.047143a14.065746 14.065746 0 0 0-4.30166 6.31593l-55.716744 172.510235a13.656065 13.656065 0 0 0 7.920518 16.86524 105.390678 105.390678 0 0 1 21.474161 11.573515c-17.718744 15.431353-26.014803 40.968194-28.746016 51.210242-12.76842 10.993132-76.337401 47.796226-192.789491 106.824565-100.815897 51.210242-194.59892 94.909649-218.121491 101.976662-50.015336 14.987531-277.730213 80.43422-300.43342 87.023271-20.210976 0-40.968194 2.492232-47.181703 17.070081a19.869574 19.869574 0 0 0-1.433887 6.48663c-23.795692 19.08435-33.115957 62.852037-36.222711 82.687471-15.875175 8.091218-22.122825 31.989331-22.532506 53.702474-14.304728 46.020938 13.382943 74.357271 14.611989 75.552177l0.341401 0.375542c42.436221 39.158765 140.247783 66.982997 291.283857 82.755751 120.54891 12.563579 243.043809 13.929186 290.191372 13.929186 15.875175 0 24.888178-0.170701 25.263719-0.170701a13.656065 13.656065 0 0 0 6.41835-1.707008 13.451224 13.451224 0 0 0 6.623192 1.707008h23.898113a13.656065 13.656065 0 0 0 5.291725-1.058345 13.656065 13.656065 0 0 0 5.325865 1.058345H699.903592a13.656065 13.656065 0 0 0 8.944723-3.414016 13.895046 13.895046 0 0 0 4.3358 0.716943h23.898113a13.656065 13.656065 0 0 0 8.978863-3.414016 12.76842 12.76842 0 0 0 4.30166 0.716944h23.898113a13.656065 13.656065 0 0 0 7.954657-2.560512 13.656065 13.656065 0 0 0 7.954658 2.560512h21.23518a13.314663 13.314663 0 0 0 6.623192-1.741149 13.656065 13.656065 0 0 0 6.623191 1.741149h1.536307l23.898113-2.628793a13.860906 13.860906 0 0 0 5.155165-1.638727 13.451224 13.451224 0 0 0 6.623191 1.707008h23.898113a13.656065 13.656065 0 0 0 6.623191-1.707008 13.656065 13.656065 0 0 0 6.623191 1.707008h23.898113a13.656065 13.656065 0 0 0 8.944723-3.414017 13.895046 13.895046 0 0 0 4.3358 0.682804h23.898113a13.895046 13.895046 0 0 0 6.828032-1.707008 13.656065 13.656065 0 0 0 6.623192 1.707008h23.898113a13.656065 13.656065 0 0 0 6.623191-1.707008 13.656065 13.656065 0 0 0 6.623191 1.707008h23.898113a13.656065 13.656065 0 0 0 6.623192-1.707008 13.656065 13.656065 0 0 0 6.657331 1.707008h23.898113a13.656065 13.656065 0 0 0 8.364339-2.833634 12.017337 12.017337 0 0 0 2.253251 0.204841h26.561046a13.348803 13.348803 0 0 1 10.58345 0h23.898113a13.451224 13.451224 0 0 0 8.944722-3.414016 13.143962 13.143962 0 0 0 4.3358 0.716944h23.898113a13.656065 13.656065 0 0 0 8.978863-3.414017 13.826765 13.826765 0 0 0 4.30166 0.682804h23.898113a13.656065 13.656065 0 0 0 7.954658-2.560512 13.656065 13.656065 0 0 0 7.954657 2.560512h23.898113a13.656065 13.656065 0 0 0 5.291725-1.058345 13.860906 13.860906 0 0 0 5.325865 1.058345h23.898113a13.656065 13.656065 0 0 0 9.798227-4.09682 13.656065 13.656065 0 0 0 6.145229 1.433887h21.23518a13.417083 13.417083 0 0 0 7.954658-2.560512 13.656065 13.656065 0 0 0 7.954657 2.560512c130.039875-1.092485 233.450423-12.802561 307.261453-34.720544 56.433687-16.762819 74.562112-33.730479 76.439821-35.608188a13.656065 13.656065 0 0 0 3.721277-6.828033c10.242048-49.264253-21.644862-126.93312-28.814296-143.388677 1.297326-43.596986-14.270587-62.066813-24.785757-69.509369l-23.147029-221.194105a13.656065 13.656065 0 0 0-11.573515-12.085618l-21.371741-66.334333c5.803827-11.949056 2.526372-28.507035-0.409682-38.407682 12.358738-27.312129 0-52.644129-8.705741-65.480829 9.525105-17.923585 8.603321-39.090485-2.765353-61.896113a136.970327 136.970327 0 0 0-18.777089-27.687671c-2.11669-20.176835-25.40028-35.198506-30.726145-38.305261a14.543709 14.543709 0 0 0-3.414016-1.502167L1168.135905 76.303261c0-25.093019-14.065746-40.968194-21.23518-49.230113-1.229046-1.433887-2.662933-3.072615-3.140895-3.789558-3.004334-4.472361-6.828032-10.071348-54.624258-17.070081a574.988598 574.988598 0 0 0-75.108355-6.213509z"/><path d="M601.614068 889.624325a6.828032 6.828032 0 0 1-6.418351-4.506501l-95.592451-262.879243a6.828032 6.828032 0 0 1 3.140894-8.330199c3.687137-2.01427 368.713743-201.768354 407.735948-232.870041 23.556711-18.879509 41.480296-22.839768 52.371007-22.839768a33.081816 33.081816 0 0 1 16.182437 3.414016l406.26792 202.860839a6.828032 6.828032 0 0 1 3.755418 5.598986c3.414016 42.504501-51.995466 151.650597-54.351137 156.259519a6.828032 6.828032 0 0 1-2.526372 2.731213l-151.275055 92.895379a6.828032 6.828032 0 0 1-2.765353 0.955925l-575.739682 66.675735z" fill="#FFFFFF"/><path d="M962.782835 365.163166a25.912382 25.912382 0 0 1 12.939121 2.765353l406.609322 202.963259c3.209175 40.968194-53.634194 152.674802-53.634194 152.674802l-151.275055 92.861239-575.807961 66.368474-95.592452-262.879243s368.918584-201.700073 408.726012-233.552844c21.713143-17.377342 37.895579-21.337601 48.103487-21.337601m0-13.656064c-17.411482 0-36.495832 8.193639-56.638528 24.341935-30.726145 24.580916-279.505501 162.643729-406.745882 232.153097a13.656065 13.656065 0 0 0-6.28179 16.660399l95.592452 262.879242a13.656065 13.656065 0 0 0 12.802561 8.978863 11.744216 11.744216 0 0 0 1.570447 0l575.910382-66.368474a13.656065 13.656065 0 0 0 5.598987-1.945989l151.275055-92.895379a13.280523 13.280523 0 0 0 5.018603-5.428286c6.008668-11.778356 58.516237-116.076549 55.102221-159.912516a13.656065 13.656065 0 0 0-7.510836-11.163832l-406.26792-202.792559a40.18297 40.18297 0 0 0-19.391612-4.369941z"/><path d="M1158.952202 756.921518a6.828032 6.828032 0 0 1-6.657331-8.43262l31.92105-132.532107L653.575393 740.909782a5.940388 5.940388 0 0 1-1.536307 0.204841 6.828032 6.828032 0 0 1-6.520771-4.847903L635.037286 701.682737a6.828032 6.828032 0 0 1 4.847903-8.637461l980.300593-245.092219a7.237714 7.237714 0 0 1 1.672868-0.204841 6.828032 6.828032 0 0 1 6.486631 4.745483l10.754151 33.320797h3.004334a6.828032 6.828032 0 0 1 6.828032 6.145229l23.898113 228.226979a6.828032 6.828032 0 0 1-1.809429 5.394146 6.828032 6.828032 0 0 1-4.984463 2.15083L1341.738626 711.788224a6.828032 6.828032 0 0 1-5.769687-3.687137 6.828032 6.828032 0 0 1 0.341401-6.828032c49.708075-76.815363 47.796226-109.93132 42.402081-122.904581a21.303461 21.303461 0 0 0-12.59772-12.324599l-119.115023 38.03214-30.999266 134.204975a6.828032 6.828032 0 0 1-4.916184 5.086884l-50.288457 13.314663a5.906248 5.906248 0 0 1-1.843569 0.238981z" fill="#0C1011"/><path d="M1621.687949 454.576249l12.290458 38.06628h7.954658l23.898113 228.261118-323.785291-15.943455c87.603654-135.3316 23.898113-145.94919 23.898113-145.94919l-124.748149 39.807428-31.818631 137.994533-50.425018 13.280522 34.481563-143.388677L652.107366 734.08175l-10.61759-34.515703L1621.687949 454.576249m0-13.656065a13.656065 13.656065 0 0 0-3.414016 0.409682L638.1099 686.285524a13.656065 13.656065 0 0 0-9.900647 17.411482l10.617591 34.481563A13.656065 13.656065 0 0 0 652.107366 747.737814a13.860906 13.860906 0 0 0 3.140895-0.375542l519.818097-122.324198-29.292258 121.743816a13.656065 13.656065 0 0 0 13.280523 16.865239 13.280523 13.280523 0 0 0 3.414016-0.443822l50.425018-13.280522a13.656065 13.656065 0 0 0 9.832366-10.242049l30.111623-130.415416L1365.636739 573.38401a15.670334 15.670334 0 0 1 6.828032 8.091218c3.823698 9.456825 7.408415 39.739148-41.992398 116.076549a13.656065 13.656065 0 0 0 10.788291 21.06448l323.78529 15.909315h0.648663a13.656065 13.656065 0 0 0 13.656065-15.089952l-23.898113-228.226978a13.656065 13.656065 0 0 0-11.573515-12.085617l-9.251984-28.746016a13.656065 13.656065 0 0 0-13.007401-9.490965z"/><path d="M1200.432498 566.794959a6.828032 6.828032 0 0 1-6.589051-8.53504c37.998-147.792759 94.431686-371.718077 96.241115-391.31453l-1.433887-5.633127-27.858372-6.828032-0.682803-0.204841c-57.867574-20.962059-153.152764-54.624258-162.404747-55.341201h-2.594653c-36.768954 0-58.550377 21.23518-64.866306 63.193438a6.828032 6.828032 0 0 1-3.175035 4.813763 7.101154 7.101154 0 0 1-3.584717 0.990065 6.589051 6.589051 0 0 1-2.15083-0.341402l-15.943456-5.291725a6.828032 6.828032 0 0 1-4.506501-7.954657c0.785224-3.584717 19.835434-87.706075 75.893579-87.706075h2.765353c49.264253 2.458092 72.069881 11.710075 76.30326 13.656065L1556.138839 186.1663a6.554911 6.554911 0 0 1 1.741149 0.751083c2.936054 1.741148 27.312129 16.86524 27.312129 35.164367a130.825098 130.825098 0 0 1 19.357471 27.994932c11.095552 22.191105 11.334534 42.538641 0.785224 59.1649 7.613256 10.242048 23.693272 36.768954 9.490965 64.627325 2.970194 9.320264 8.876442 32.569714-3.209175 41.855838a6.828032 6.828032 0 0 1-4.1651 1.433887c-178.792025-0.921784-186.575982-6.828032-189.887578-9.286124-0.887644-0.648663-1.843569-1.263186-2.867773-1.911849-12.563579-8.057078-31.579649-20.279256-29.087418-117.817697 2.04841-79.136894-5.291725-102.181503-7.886377-107.746349L1342.011747 174.183103l-83.063012 374.244449a6.828032 6.828032 0 0 1-4.984464 5.155165l-51.858905 12.939121a6.828032 6.828032 0 0 1-1.672868 0.273121z" fill="#0C1011"/><path d="M1076.879254 73.264786h2.423952c53.087951 2.662933 74.323131 13.280523 74.323131 13.280523l400.737214 106.210042s26.561046 15.943455 23.898113 31.852771c0 0 47.796226 47.796226 18.572248 84.940721 0 0 29.189838 31.81863 10.61759 63.671401 0 0 10.54931 29.053277 0 37.110355-51.210242-0.273121-177.528839-1.570447-185.824898-7.920517-10.61759-7.954658-31.852771-10.61759-29.223979-114.096419S1381.853316 174.183103 1381.853316 174.183103l-45.099154-7.954657-84.462759 380.731079-51.858905 13.007402s96.514236-375.166233 96.514236-393.738481l-2.662932-10.61759-31.852771-7.954658S1108.527184 91.905314 1097.909594 91.905314h-2.799494c-14.953391 0-61.657131 2.287391-71.523638 68.997267l-15.943455-5.291725s18.026005-82.346069 69.236247-82.34607m0-13.656064c-61.45229 0-81.731546 89.276522-82.55091 93.06608a13.656065 13.656065 0 0 0 9.013003 15.875175l15.909315 5.325865a14.543709 14.543709 0 0 0 4.3358 0.682803 13.656065 13.656065 0 0 0 13.656065-11.641795c5.701407-38.612523 24.683337-57.355471 58.038274-57.355471h2.08255c11.300393 1.980129 90.744549 29.63366 160.458758 54.93152l1.331467 0.409682 23.898113 5.974528v0.409682c-3.414016 25.775822-58.789358 244.921518-95.899714 389.197839a13.656065 13.656065 0 0 0 16.523838 16.626259l51.858906-12.939121a13.656065 13.656065 0 0 0 10.037207-10.242049l81.697406-367.996799 25.468561 4.506501c2.662933 8.569181 7.818097 34.140161 6.111088 101.4987-2.423951 93.680603 13.860906 111.979729 32.194173 123.758085l2.458091 1.638728c5.121024 3.857838 12.904981 9.695806 193.950257 10.65173a13.656065 13.656065 0 0 0 8.330199-2.833633c14.338868-11.027272 10.037207-34.140161 6.35007-46.737881 12.358738-27.312129 0-52.644129-8.705741-65.48083 9.525105-17.923585 8.603321-39.090485-2.765353-61.896112a136.970327 136.970327 0 0 0-18.777089-27.687671c-2.11669-20.176835-25.40028-35.198506-30.726145-38.305261a14.543709 14.543709 0 0 0-3.414016-1.502167l-399.439888-105.834501c-6.179369-2.731213-29.63366-11.573515-78.28339-14.031606h-3.106755z"/><path d="M941.308673 154.48423a6.828032 6.828032 0 0 1-1.843568-0.273121 6.828032 6.828032 0 0 1-4.882043-7.681536c3.687137-22.088684 23.898113-132.497966 58.686937-138.335934h1.126625a6.828032 6.828032 0 0 1 6.31593 9.354404L947.658743 150.28499a6.828032 6.828032 0 0 1-6.35007 4.19924z" fill="#0C1011"/><path d="M994.396624 14.953391l-53.087951 132.702807s21.23518-127.411082 53.087951-132.702807m0-13.656065h-0.580382a13.963326 13.963326 0 0 0-2.04841 0.238981c-19.459892 3.414016-34.583983 27.58525-48.991132 78.010269a663.923718 663.923718 0 0 0-14.91925 65.856371 13.656065 13.656065 0 0 0 26.117223 7.305995L1006.891923 20.552377a13.656065 13.656065 0 0 0 1.160766-5.530706 13.656065 13.656065 0 0 0-13.417084-13.656065z m0 27.312129z"/><path d="M1278.476907 429.312529a35.232647 35.232647 0 0 1-10.65173-1.638728c-55.511902-17.070081-337.202374-102.830166-431.770621-103.71781a6.828032 6.828032 0 0 1-6.41835-8.944722l54.624258-169.471761a6.623191 6.623191 0 0 1 2.11669-3.140895 26.765887 26.765887 0 0 1 5.360005-3.243315 7.135294 7.135294 0 0 1 2.901914-0.614523 5.530706 5.530706 0 0 1 1.058345 0c75.722878 11.744216 330.408482 54.180436 433.443488 103.376408a32.911116 32.911116 0 0 1 18.777089 32.399014c-2.765353 36.427552-11.846636 103.000867-41.377875 141.271987a35.164366 35.164366 0 0 1-28.063213 13.656065z" fill="#FFFFFF"/><path d="M894.775633 145.368807c73.059945 11.402814 328.803894 53.736614 431.42922 102.727746a26.219644 26.219644 0 0 1 14.88511 25.707541c-2.423951 31.886911-10.924852 99.996533-39.943989 137.618991a28.746016 28.746016 0 0 1-31.306528 9.729946c-69.577649-21.508302-339.558045-103.171568-433.580049-104.025072l54.624258-169.471761a18.640528 18.640528 0 0 1 3.891978-2.287391m0-13.656064a13.656065 13.656065 0 0 0-5.803827 1.263186 32.433153 32.433153 0 0 0-6.828032 4.165099 13.656065 13.656065 0 0 0-4.26752 6.31593l-54.624259 169.471761a13.656065 13.656065 0 0 0 12.836701 17.855304c72.547843 0.682803 269.707275 53.873175 429.790491 103.410549a42.40208 42.40208 0 0 0 46.191639-14.441288c30.726145-39.670868 39.909849-107.81463 42.743482-144.890845A39.670868 39.670868 0 0 0 1332.07696 235.635394C1228.188449 186.029739 972.717622 143.456958 896.892323 131.712743a14.680269 14.680269 0 0 0-2.11669 0zM752.889123 761.393879a8.739881 8.739881 0 1 1 8.705741-8.705741 8.739881 8.739881 0 0 1-8.705741 8.705741z"/><path d="M752.889123 747.430553a5.325865 5.325865 0 1 1-5.325865 5.325865 5.291725 5.291725 0 0 1 5.325865-5.325865m0-6.828032a12.153897 12.153897 0 1 0 12.119757 12.153897 12.188038 12.188038 0 0 0-12.119757-12.153897zM816.560524 748.215776a8.739881 8.739881 0 1 1 8.739881-8.739881 8.739881 8.739881 0 0 1-8.739881 8.739881z"/><path d="M816.560524 734.08175a5.325865 5.325865 0 1 1-5.291725 5.291725 5.291725 5.291725 0 0 1 5.291725-5.291725m0-6.828033a12.153897 12.153897 0 1 0 12.153897 12.119758 12.119757 12.119757 0 0 0-12.153897-12.119758zM872.311407 737.495766a8.739881 8.739881 0 1 1 8.705741-8.739881 8.739881 8.739881 0 0 1-8.705741 8.739881z"/><path d="M872.311407 723.56658a5.325865 5.325865 0 0 1 0 10.61759 5.325865 5.325865 0 1 1 0-10.61759m0-6.828032a12.153897 12.153897 0 1 0 12.119758 12.119757 12.153897 12.153897 0 0 0-12.119758-12.119757zM938.645741 724.317664a8.739881 8.739881 0 1 1 8.739881-8.739882 8.739881 8.739881 0 0 1-8.739881 8.739882z"/><path d="M938.645741 710.183637a5.325865 5.325865 0 1 1-5.291725 5.291725 5.325865 5.325865 0 0 1 5.291725-5.291725m0-6.828033a12.153897 12.153897 0 1 0 12.153897 12.119758 12.119757 12.119757 0 0 0-12.153897-12.119758zM1063.39389 700.419551a8.739881 8.739881 0 1 1 8.705742-8.705742 8.739881 8.739881 0 0 1-8.705742 8.705742z"/><path d="M1063.39389 686.285524a5.325865 5.325865 0 1 1-5.325865 5.325865 5.291725 5.291725 0 0 1 5.325865-5.325865m0-6.828033a12.153897 12.153897 0 1 0 12.119758 12.153898 12.188038 12.188038 0 0 0-12.119758-12.153898zM999.688349 711.037141a8.739881 8.739881 0 1 1 8.739882-8.705741 8.705741 8.705741 0 0 1-8.739882 8.705741z"/><path d="M999.688349 697.005534a5.325865 5.325865 0 1 1 0 10.617591 5.325865 5.325865 0 0 1 0-10.617591m0-6.828032a12.153897 12.153897 0 1 0 12.153898 12.153898 12.153897 12.153897 0 0 0-12.153898-12.153898zM1124.436499 684.510235a8.739881 8.739881 0 1 1 8.705741-8.739881 8.739881 8.739881 0 0 1-8.705741 8.739881z"/><path d="M1124.436499 670.478629a5.325865 5.325865 0 0 1 0 10.61759 5.325865 5.325865 0 1 1 0-10.61759m0-6.828032a12.153897 12.153897 0 1 0 12.119757 12.119757 12.153897 12.153897 0 0 0-12.119757-12.119757z"/><path d="M521.965071 863.063279a6.828032 6.828032 0 0 1-6.48663-4.779622c-0.443822-1.331466-42.40208-134.409815-70.362873-167.491632-18.777089-22.156965-20.484097-26.356205-20.484097-34.686404a30.726145 30.726145 0 0 0-2.18497-12.666 17.752884 17.752884 0 0 1 2.526372-15.158231c17.445622-28.677736 111.877309-68.928986 156.805761-76.03014a136.560645 136.560645 0 0 1 20.688938-1.843568c13.280523 0 21.713143 3.140895 25.741681 9.661665a16.148296 16.148296 0 0 1 0.819364 14.71441c-8.022938 23.659132 0 73.811029 23.556712 145.129826 18.060145 54.863239 38.953924 102.898446 39.158765 103.376408a6.828032 6.828032 0 0 1-0.238981 5.906248 6.828032 6.828032 0 0 1-4.779623 3.414016l-163.667934 30.248183a7.886377 7.886377 0 0 1-1.092485 0.204841z" fill="#FFFFFF"/><path d="M602.638273 557.235714c27.721811 0 20.210976 15.055811 20.210975 15.055811-21.23518 61.042609 62.817897 253.729679 62.817897 253.729679l-163.667934 30.214043s-42.470361-135.3316-71.694338-169.847303-13.280523-21.23518-21.235181-45.099153 103.478829-74.323131 153.903848-82.277789a127.0014 127.0014 0 0 1 19.630592-1.775288m0-13.656065a142.262052 142.262052 0 0 0-21.747282 1.945989c-42.40208 6.828032-141.81823 46.703741-161.585384 79.205175a24.307795 24.307795 0 0 0-3.175035 20.859638 23.898113 23.898113 0 0 1 1.843569 10.242049c-0.375542 10.993132 2.901914 16.89938 21.917983 39.397746 22.498366 26.561046 57.492032 128.196306 69.065547 165.10182a13.656065 13.656065 0 0 0 13.007401 9.593386 15.397213 15.397213 0 0 0 2.492232-0.238981l163.702074-30.248183a13.656065 13.656065 0 0 0 10.003067-18.87951c-0.204841-0.477962-21.030339-48.410749-38.953924-102.966726-30.248183-91.905314-27.926652-127.274522-23.659132-140.316063a22.976329 22.976329 0 0 0-1.365606-20.791359c-5.291725-8.569181-15.909315-12.904981-31.54551-12.904981z"/><path d="M600.453302 1017.171968c-111.296926 0-481.785957-6.828032-576.763886-94.875509-1.263186-1.263186-26.458625-27.107288-12.76842-69.81663 0-8.43262 2.01427-47.796226 25.536841-50.663999h0.785223a7.101154 7.101154 0 0 1 2.662933 0.512102c35.847169 15.055811 125.294392 32.979396 347.785824 32.945256 39.909849 0 83.233713-0.580383 128.810828-1.741148 4.882043-0.341402 515.516437-37.144496 631.934387-88.559579 5.462426-11.232113 30.896846-51.210242 115.871708-51.210242 29.906781 0 64.456625 5.018604 102.659465 14.953391 40.14883 1.775288 79.580716 4.882043 117.749417 7.852237 49.981196 3.926119 97.197039 7.647396 137.380009 7.647396a410.637861 410.637861 0 0 0 52.81483-2.936054h0.921784a6.828032 6.828032 0 0 1 5.052744 2.253251c7.920517 8.739881 17.070081 26.219644 15.738614 59.711142 5.428286 12.324598 39.295326 91.802894 28.984997 140.725745a6.828032 6.828032 0 0 1-1.843568 3.414016c-2.697073 2.697073-69.236247 65.719811-378.955791 68.280323a6.828032 6.828032 0 0 1-6.828033-6.828032v-3.789558h-2.25325v3.789558a6.828032 6.828032 0 0 1-6.828033 6.828032H1307.598465a6.828032 6.828032 0 0 1-6.828033-5.189304h-2.458091v1.126625a6.828032 6.828032 0 0 1-6.828033 6.828032h-23.898112a6.828032 6.828032 0 0 1-5.325866-2.526372 6.828032 6.828032 0 0 1-5.291725 2.526372h-23.898113a6.828032 6.828032 0 0 1-6.828032-5.291725h-2.594652a6.828032 6.828032 0 0 1-6.657332 5.291725h-23.898113a6.828032 6.828032 0 0 1-6.45249-4.540641v0.375541a6.828032 6.828032 0 0 1-6.828032 6.828033h-23.898113a6.828032 6.828032 0 0 1-6.452491-4.574782v0.443822a6.828032 6.828032 0 0 1-6.828032 6.828032h-23.898113a6.828032 6.828032 0 0 0-10.58345 0h-26.561046a6.828032 6.828032 0 0 1-4.30166-1.536307 6.828032 6.828032 0 0 1-6.31593 4.1651h-23.898113a6.828032 6.828032 0 0 1-6.657331-5.189305 6.828032 6.828032 0 0 1-6.623192 5.189305h-23.898112a6.828032 6.828032 0 0 1-6.623192-5.189305 6.828032 6.828032 0 0 1-6.623191 5.189305h-23.898113a6.828032 6.828032 0 0 1-6.486631-4.643062v-0.307262l-0.580382 1.194906a6.828032 6.828032 0 0 1-6.111089 3.755418h-23.898113a6.828032 6.828032 0 0 1-6.452491-4.540642v0.375542a6.828032 6.828032 0 0 1-6.828032 6.828032h-23.898113a6.828032 6.828032 0 0 1-6.623191-5.223444 6.828032 6.828032 0 0 1-6.623192 5.223444h-23.898113a6.828032 6.828032 0 0 1-6.623191-5.223444 6.828032 6.828032 0 0 1-5.906248 5.189304l-23.898113 2.662933h-0.785223a6.828032 6.828032 0 0 1-6.452491-4.677202l-0.170701-0.477962v0.477962a6.828032 6.828032 0 0 1-6.48663 4.677202h-20.9962a6.828032 6.828032 0 0 1-6.828032-5.325865h-2.594652a6.828032 6.828032 0 0 1-6.657332 5.325865h-23.898113a6.828032 6.828032 0 0 1-6.179369-3.891978l-0.614523 1.877708a6.828032 6.828032 0 0 1-6.48663 4.677202h-23.898113a6.828032 6.828032 0 0 1-6.452491-4.574781v0.375542a6.828032 6.828032 0 0 1-6.828032 6.828032h-26.322065a6.828032 6.828032 0 0 1-5.325865-2.526372 6.828032 6.828032 0 0 1-5.291725 2.526372h-23.898113a6.828032 6.828032 0 0 1-6.623191-5.189305 6.828032 6.828032 0 0 1-6.520771 5.189305s-9.115423 0.170701-25.161299 0.170701z" fill="#FFFFFF"/><path d="M1264.30874 700.692672c27.039008 0 60.428086 4.1651 101.63526 14.88511 93.612322 4.1651 185.142095 15.567914 256.051211 15.567914a417.534174 417.534174 0 0 0 53.736614-3.004334c7.203574 7.988798 15.431353 24.205374 13.895045 56.467827 0 0 39.807428 87.569514 29.189838 137.994532 0 0-63.705541 63.705541-374.210308 66.334333v-10.61759h-15.909316v10.61759H1307.598465v-5.291725h-15.943456v7.954658h-23.898113v-7.954658h-10.61759v7.954658h-23.898113v-5.291725h-15.909315v5.291725h-23.898113v-7.954658h-13.280523v10.61759h-23.898113v-5.325865h-13.280522V996.960992h-23.898113v-7.988798h-10.58345V996.960992h-26.561046v-5.325865h-10.58345v7.954658h-23.898113v-7.954658h-13.280523v7.954658h-23.898113v-5.291725H996.922996v5.291725h-23.898113l-2.662932-7.954658-7.954658 2.662933-2.662933 5.291725h-23.898112v-5.291725h-13.280523v7.954657h-23.898113V996.960992h-13.246383v5.291725h-23.898113V996.960992h-13.109822v5.291725l-23.898113 2.662933-2.662932-7.954658h-7.920518l-2.662932 7.954658h-21.235181v-5.325865h-15.909315v5.325865h-23.898113v-5.325865h-10.61759l-2.662933 7.988797h-23.898113v-5.325865H699.903592v7.954658h-26.629326v-7.954658h-10.61759v7.954658h-23.898113v-7.954658h-13.280522v7.954658s-9.047143 0.170701-25.024739 0.170701c-101.123158 0-477.962259-5.940388-572.120824-93.06608 0 0-23.898113-23.898113-10.61759-63.671401 0 0 0-42.675202 19.528172-44.996733 36.734814 15.397213 127.342802 33.457358 350.448757 33.457358 38.817363 0 81.697406-0.546243 128.981529-1.741148 0 0 522.822431-37.144496 636.952991-90.232446 0 0 17.513903-49.434954 110.682403-49.400814m0-13.656065c-83.301994 0-112.457692 37.554178-120.753751 52.575849-117.817697 49.947056-612.611056 85.999066-627.530306 87.057411-45.440555 1.160765-88.593719 1.741148-128.332866 1.741149-122.187638 0-281.246649-5.598986-345.157032-32.399013a13.451224 13.451224 0 0 0-5.291725-1.058345h-1.604587c-28.097353 3.414016-31.238248 43.665266-31.545509 56.365406-14.304728 46.055078 13.382943 74.391412 14.611989 75.586317l0.341401 0.375542c42.436221 39.158765 140.247783 66.982997 291.249717 82.755751 120.58305 12.563579 243.077949 13.929186 290.191371 13.929186 15.909315 0 24.888178-0.170701 25.26372-0.170701a13.656065 13.656065 0 0 0 6.41835-1.707008 13.451224 13.451224 0 0 0 6.623191 1.707008h23.898113a13.656065 13.656065 0 0 0 5.291725-1.058345 13.656065 13.656065 0 0 0 5.325866 1.058345H699.903592a13.656065 13.656065 0 0 0 8.944723-3.414016 13.895046 13.895046 0 0 0 4.3358 0.716943h23.898113a13.656065 13.656065 0 0 0 8.978863-3.414016 12.76842 12.76842 0 0 0 4.30166 0.716944h23.898113a13.656065 13.656065 0 0 0 7.954657-2.560512 13.656065 13.656065 0 0 0 7.954658 2.560512h21.23518a13.314663 13.314663 0 0 0 6.623192-1.741149 13.656065 13.656065 0 0 0 6.623191 1.741149h1.536307l23.898113-2.628793a13.860906 13.860906 0 0 0 5.155165-1.638727 13.451224 13.451224 0 0 0 6.623191 1.707008h23.898113a13.656065 13.656065 0 0 0 6.623191-1.707008 13.656065 13.656065 0 0 0 6.623191 1.707008h23.898113a13.656065 13.656065 0 0 0 8.944723-3.414017 13.895046 13.895046 0 0 0 4.3358 0.682804h23.898113a13.895046 13.895046 0 0 0 6.828032-1.707008 13.656065 13.656065 0 0 0 6.623192 1.707008h23.898113a13.656065 13.656065 0 0 0 6.623191-1.707008 13.656065 13.656065 0 0 0 6.623191 1.707008h23.898113a13.656065 13.656065 0 0 0 6.623192-1.707008 13.656065 13.656065 0 0 0 6.657331 1.707008h23.898113a13.656065 13.656065 0 0 0 8.364339-2.833634 12.017337 12.017337 0 0 0 2.253251 0.204841h26.561046a13.348803 13.348803 0 0 1 10.58345 0h23.898113a13.451224 13.451224 0 0 0 8.944722-3.414016 13.143962 13.143962 0 0 0 4.3358 0.716944h23.898113a13.656065 13.656065 0 0 0 8.978863-3.414017 13.826765 13.826765 0 0 0 4.30166 0.682804h23.898113a13.656065 13.656065 0 0 0 7.954658-2.560512 13.656065 13.656065 0 0 0 7.954657 2.560512h23.898113a13.656065 13.656065 0 0 0 5.291725-1.058345 13.860906 13.860906 0 0 0 5.325865 1.058345h23.898113a13.656065 13.656065 0 0 0 9.798227-4.09682 13.656065 13.656065 0 0 0 6.145229 1.433887h21.23518a13.417083 13.417083 0 0 0 7.954658-2.560512 13.656065 13.656065 0 0 0 7.954657 2.560512c130.039875-1.092485 233.450423-12.802561 307.261453-34.720544 56.433687-16.762819 74.562112-33.730479 76.439821-35.608188a13.656065 13.656065 0 0 0 3.721277-6.828033c10.242048-49.264253-21.644862-126.96726-28.814296-143.388677 1.024205-34.754684-8.876442-53.395212-17.548043-62.954458a13.656065 13.656065 0 0 0-10.242048-4.506501 16.080016 16.080016 0 0 0-1.809429 0 396.947656 396.947656 0 0 1-51.927185 2.901913c-39.909849 0-87.023271-3.721278-136.867907-7.613256-37.963859-2.970194-77.225045-6.042809-117.237314-7.852237-38.510102-9.968927-73.367207-14.987531-103.68367-14.98753zM369.495111 749.001a5.769687 5.769687 0 0 1-1.297326 0 92.178436 92.178436 0 0 1-27.31213-10.242048 6.828032 6.828032 0 0 1 6.623192-11.949057 79.068614 79.068614 0 0 0 23.42015 8.842302 6.828032 6.828032 0 0 1-1.263186 13.656065z m27.004867-1.058345a6.828032 6.828032 0 0 1-1.877709-13.382943 55.614323 55.614323 0 0 0 20.9962-11.846636 6.828032 6.828032 0 1 1 8.978862 10.242048 68.655865 68.655865 0 0 1-26.185504 14.68027 6.179369 6.179369 0 0 1-1.911849 0.307261z m-317.742482-20.210975a6.828032 6.828032 0 0 1-0.307261-13.656065l27.312129-1.229046a6.828032 6.828032 0 0 1 0.614523 13.656065l-27.312129 1.229046z m54.624259-2.458092a6.828032 6.828032 0 0 1-0.307262-13.656064l27.312129-1.229046a6.828032 6.828032 0 0 1 0.614523 13.656064l-27.312129 1.229046z m188.41955-1.672868a6.828032 6.828032 0 0 1-4.506501-1.707008c-2.11669-1.843569-3.789558-3.414016-5.018604-4.643062l-14.88511 0.648663a6.828032 6.828032 0 1 1-0.614523-13.656064l17.923585-0.819364a6.828032 6.828032 0 0 1 5.325865 2.18497s2.321531 2.492232 6.28179 6.008669a6.828032 6.828032 0 0 1 0.614522 9.627525 6.828032 6.828032 0 0 1-5.155164 2.355671zM187.801172 722.815496a6.828032 6.828032 0 0 1-0.307262-13.656064l27.312129-1.229046a6.828032 6.828032 0 0 1 0.614523 13.656065l-27.312129 1.229045z m54.624258-2.389811a6.828032 6.828032 0 0 1-0.273121-13.656064l27.312129-1.229046a6.828032 6.828032 0 1 1 0.614523 13.656064l-27.312129 1.229046z m195.315863-6.38421a6.828032 6.828032 0 0 1-5.701407-10.58345c2.594652-3.926119 5.121024-8.227779 7.544976-12.836701a6.828032 6.828032 0 1 1 12.085617 6.35007 157.727546 157.727546 0 0 1-8.227779 13.997466 6.828032 6.828032 0 0 1-5.667267 3.004335z"/><path d="M682.253129 627.393745a25.263719 25.263719 0 0 1-18.913649-8.56918c-10.037207-11.163833-13.451224-32.433153-10.242049-63.193439a6.828032 6.828032 0 0 1 3.414016-5.257585l291.93252-161.892645a7.032873 7.032873 0 0 1 3.414016-0.853504 6.828032 6.828032 0 0 1 2.560512 0.512103c0.307261 0 31.81863 12.870841 62.544776 28.438754 58.447956 29.53124 64.866307 43.801827 63.773821 52.95139-2.731213 24.478496-59.984264 70.840835-87.501233 70.840835a18.811229 18.811229 0 0 1-13.656065-5.121024 102.659465 102.659465 0 0 0-46.123358-12.051477 71.387077 71.387077 0 0 0-26.697606 4.984463c-39.192905 15.670334-215.526839 97.23118-217.302127 98.050544l-0.853504 0.341402a22.771488 22.771488 0 0 1-6.35007 0.819363z" fill="#FFFFFF"/><path d="M951.926264 394.455424s124.74815 50.425018 122.085217 74.323132c-2.287391 20.484097-55.750884 64.866307-80.707342 64.866306a11.983197 11.983197 0 0 1-9.525105-3.721277 108.429152 108.429152 0 0 0-50.390878-13.451224 77.941988 77.941988 0 0 0-29.223978 5.496566c-39.807428 15.909315-217.643529 98.187104-217.643529 98.187104a16.284857 16.284857 0 0 1-4.26752 0.512103c-8.944722 0-28.472895-6.41835-22.259385-64.217644l291.93252-161.892645m0-13.656065a13.656065 13.656065 0 0 0-6.623192 1.707008l-291.93252 161.892646a13.656065 13.656065 0 0 0-6.828032 10.515169c-3.414016 33.218377 0.307261 55.614323 11.846636 68.280323a32.023471 32.023471 0 0 0 23.898113 10.856571 29.053277 29.053277 0 0 0 8.296059-1.126625 14.646129 14.646129 0 0 0 1.707008-0.648663c1.775288-0.819364 177.938521-82.311929 216.960726-97.913983a65.139428 65.139428 0 0 1 24.171234-4.506501 96.241115 96.241115 0 0 1 42.094819 10.788291 25.46856 25.46856 0 0 0 17.821164 6.38421c21.030339 0 47.181703-19.391612 57.457892-27.721811s34.686404-30.043342 36.803094-49.195973c2.253251-20.210976-25.332-38.510102-67.426819-59.813562-31.033407-15.670334-61.793692-28.131493-63.091018-28.677736a13.929186 13.929186 0 0 0-5.121024-0.990064z"/><path d="M949.707153 464.374475a45.201574 45.201574 0 0 1-13.075682-2.219111 6.554911 6.554911 0 0 1-2.594652-1.468027c-0.546243-0.512102-56.775088-51.210242-95.899713-51.210242h-2.970194a6.828032 6.828032 0 0 1-6.623192-8.46676l2.970194-11.880776a60.120824 60.120824 0 0 1 15.772755-27.926652l6.828032-6.623191a6.828032 6.828032 0 0 1 4.813763-2.01427 6.828032 6.828032 0 0 1 2.355671 0.409682c17.923585 6.554911 107.234247 40.968194 110.853104 75.108355 0.614523 3.209175 3.140895 18.777089-4.847903 28.643596a21.269321 21.269321 0 0 1-17.582183 7.647396z" fill="#FFFFFF"/><path d="M858.757763 359.154498s103.786091 37.963859 106.449023 69.81663c0 0 6.076949 28.438754-15.499633 28.438754a37.963859 37.963859 0 0 1-11.061412-1.911849s-58.208975-53.156231-100.508635-53.156231h-2.970194l2.970194-11.880776a52.84897 52.84897 0 0 1 13.997466-24.717477l6.623191-6.657332m0-13.656064a13.656065 13.656065 0 0 0-9.627525 3.994399l-6.828033 6.828032a67.256118 67.256118 0 0 0-17.616323 31.067547l-2.936054 11.880776a13.656065 13.656065 0 0 0 13.246383 17.070081h2.970194c30.248183 0 76.1667 35.813029 91.324932 49.605654a13.656065 13.656065 0 0 0 5.189304 2.936054 50.493299 50.493299 0 0 0 15.055811 2.526372 27.858372 27.858372 0 0 0 22.737348-10.242049c9.559245-11.846636 7.237714-28.916717 6.281789-33.93532-2.11669-18.435687-21.713143-36.564113-61.45229-56.945789a532.313396 532.313396 0 0 0-53.736614-23.659132 13.963326 13.963326 0 0 0-4.711342-0.819364z"/><path d="M857.255596 500.324065a14.407148 14.407148 0 0 1-6.589051-1.570448l-90.369007-45.030872a6.828032 6.828032 0 0 1-0.307262-12.017337l34.140162-19.391612a6.828032 6.828032 0 0 1 3.414016-0.887644 6.828032 6.828032 0 0 1 3.618857 1.024205l77.600587 48.479029a6.828032 6.828032 0 0 1 2.458091 8.842302c-1.877709 3.448156-11.095552 20.552377-23.966393 20.552377z" fill="#FFFFFF"/><path d="M797.373753 428.254184l77.600587 48.479029s-8.39848 16.762819-17.718744 16.76282a7.408415 7.408415 0 0 1-3.414016-0.853504l-90.369007-45.030873 34.140161-19.357472m0-13.656064a13.656065 13.656065 0 0 0-6.828032 1.775288l-34.140161 19.391612a13.656065 13.656065 0 0 0 0.648663 23.898113l90.369007 45.030872a21.13276 21.13276 0 0 0 9.627525 2.287391c16.489698 0 27.073148-18.606388 29.906782-24.307795a13.656065 13.656065 0 0 0-4.950324-17.684603L804.611467 416.578249a13.656065 13.656065 0 0 0-7.237714-2.08255z"/><path d="M774.602265 539.994932a33.115957 33.115957 0 0 1-7.271854-0.853504c-11.983197-2.662933-27.790091-13.656065-43.050743-24.376075-12.70014-8.876442-28.507035-19.903714-34.720545-19.903714h-0.341401l-0.375542 0.170701a6.828032 6.828032 0 0 1-3.175035 0.785224 6.828032 6.828032 0 0 1-3.960259-12.392879 11.505234 11.505234 0 0 1 2.389812-1.297326l35.130226-18.503968a6.828032 6.828032 0 0 1 3.175035-0.751083 6.828032 6.828032 0 0 1 3.687137 1.058345l64.866307 41.412016a6.828032 6.828032 0 0 1 3.004334 4.40408c0.307261 1.502167 2.731213 14.88511-4.335801 23.488431a18.538108 18.538108 0 0 1-15.021671 6.759752z" fill="#FFFFFF"/><path d="M722.401959 469.836901l64.866306 41.412015s4.404081 21.917984-12.76842 21.917984a27.312129 27.312129 0 0 1-5.803828-0.682803c-21.849703-4.882043-62.886177-44.38221-79.239314-44.38221a7.032873 7.032873 0 0 0-2.594652 0.443822l35.437487-18.640528m-35.437487 18.640528l-1.297326 0.648663a5.121024 5.121024 0 0 1 1.297326-0.648663m35.437487-32.296593a13.929186 13.929186 0 0 0-6.35007 1.536308l-34.891245 18.367407a17.548043 17.548043 0 0 0-3.414016 1.911849 13.656065 13.656065 0 0 0 7.920518 24.785757 13.895046 13.895046 0 0 0 4.813762-0.853504c6.042809 1.775288 20.825498 12.119757 29.872642 18.435687 16.557978 11.573515 32.194172 22.464226 45.474694 25.43442a40.968194 40.968194 0 0 0 8.774022 1.024205 25.229579 25.229579 0 0 0 20.484097-9.115423c8.876442-10.788291 6.35007-26.185504 5.769687-29.155698a13.656065 13.656065 0 0 0-6.076949-8.842302l-64.866306-41.412016a13.656065 13.656065 0 0 0-7.340135-2.11669z"/><path d="M681.228924 584.411282a6.828032 6.828032 0 0 1-3.891978-1.194905c-23.898113-16.489698-66.402614-42.777622-78.522371-43.221445a6.828032 6.828032 0 0 1-2.799494-12.939121l42.060679-21.13276a6.828032 6.828032 0 0 1 7.067014 0.580383l61.45229 44.38221a6.828032 6.828032 0 0 1 2.833633 5.530706c-0.136561 11.232113-7.613256 27.994932-28.199773 27.994932z" fill="#FFFFFF"/><path d="M641.114234 512.170701l61.452291 44.38221s0 21.23518-21.23518 21.23518c0 0-63.5007-43.699407-82.175369-44.38221l41.958258-21.23518m0-13.656065a13.826765 13.826765 0 0 0-6.111088 1.433887l-42.060679 21.1669a13.656065 13.656065 0 0 0 5.633126 25.844102c7.305995 0.409682 39.158765 17.377342 74.937655 42.026539a13.929186 13.929186 0 0 0 7.749816 2.389811c25.605121 0 34.891245-20.859639 34.891245-34.891245a13.656065 13.656065 0 0 0-5.667267-11.061412l-61.45229-44.38221a13.656065 13.656065 0 0 0-8.022938-2.594652z"/><path d="M564.435432 629.544576c-3.755418 0-19.152631-3.038474-59.779423-42.094819a6.828032 6.828032 0 0 1 2.219111-11.266254l28.199773-11.027272a6.828032 6.828032 0 0 1 2.458092-0.477962 7.203574 7.203574 0 0 1 3.789558 1.126625l45.440555 29.975062a6.828032 6.828032 0 0 1 2.901913 7.340135c-0.682803 2.697073-7.135294 26.424485-25.229579 26.424485z" fill="#FFFFFF"/><path d="M537.567125 571.506301l45.440555 29.975062s-5.291725 21.23518-18.572248 21.23518-55.06808-40.18297-55.06808-40.18297l28.199773-11.027272m0-13.656064a13.143962 13.143962 0 0 0-4.950323 0.955924l-28.199774 11.027272a13.656065 13.656065 0 0 0-8.398479 10.037208 13.656065 13.656065 0 0 0 3.926118 12.529439c0.443822 0.409682 10.958992 10.48103 23.31773 20.723078 24.615056 20.484097 34.345002 23.24945 41.207175 23.24945 6.076949 0 17.582183-2.287391 26.185504-17.582183a64.866307 64.866307 0 0 0 5.667267-13.997466 13.656065 13.656065 0 0 0-5.735547-14.71441L545.077961 559.966927a13.929186 13.929186 0 0 0-7.544976-2.253251zM856.367952 302.345269a2.901914 2.901914 0 0 1-1.058345-0.204841 3.414016 3.414016 0 0 1-2.15083-4.30166l45.099153-135.36574a3.414016 3.414016 0 1 1 6.486631 2.18497l-45.133294 135.3316a3.414016 3.414016 0 0 1-3.243315 2.355671zM866.985542 304.974061a2.867774 2.867774 0 0 1-1.058345 0A3.414016 3.414016 0 0 1 863.776367 300.5017l45.099153-135.365739a3.414016 3.414016 0 0 1 6.486631 2.15083l-45.133294 135.36574a3.414016 3.414016 0 0 1-3.243315 2.32153zM877.603132 304.974061a2.867774 2.867774 0 0 1-1.058345 0 3.414016 3.414016 0 0 1-2.18497-4.472361l45.133293-135.365739a3.414016 3.414016 0 0 1 6.486631 2.15083L880.846448 302.652531a3.414016 3.414016 0 0 1-3.243316 2.32153zM888.220722 304.974061a2.867774 2.867774 0 0 1-1.058345 0 3.414016 3.414016 0 0 1-2.18497-4.30166l45.133293-135.36574a3.414016 3.414016 0 0 1 6.486631 2.15083l-45.133293 135.19504a3.414016 3.414016 0 0 1-3.243316 2.32153zM898.838313 304.974061a2.867774 2.867774 0 0 1-1.058345 0 3.414016 3.414016 0 0 1-2.184971-4.30166l45.133294-135.36574a3.414016 3.414016 0 0 1 6.48663 2.15083l-45.133293 135.19504a3.414016 3.414016 0 0 1-3.243315 2.32153zM909.455903 304.974061a2.867774 2.867774 0 0 1-1.058345 0 3.414016 3.414016 0 0 1-2.184971-4.30166l45.133294-135.36574a3.414016 3.414016 0 0 1 6.48663 2.15083l-45.133293 135.19504a3.414016 3.414016 0 0 1-3.243315 2.32153zM920.073493 307.636994a3.823698 3.823698 0 0 1-1.058345 0 3.414016 3.414016 0 0 1-2.18497-4.3358l45.133293-135.3316a3.414016 3.414016 0 0 1 4.23338-2.321531 3.414016 3.414016 0 0 1 2.18497 4.30166l-45.065013 135.36574a3.414016 3.414016 0 0 1-3.243315 2.321531zM930.691083 307.636994a4.26752 4.26752 0 0 1-1.092485 0 3.414016 3.414016 0 0 1-2.15083-4.3358l45.133293-135.3316a3.414016 3.414016 0 0 1 4.30166-2.15083 3.414016 3.414016 0 0 1 2.184971 4.30166l-45.133294 135.195039a3.414016 3.414016 0 0 1-3.243315 2.321531zM943.971606 310.299927a4.062679 4.062679 0 0 1-1.092485-0.170701 3.414016 3.414016 0 0 1-2.15083-4.335801l45.099153-135.331599a3.414016 3.414016 0 1 1 6.48663 2.15083l-45.099153 135.3316a3.414016 3.414016 0 0 1-3.243315 2.355671zM957.217989 312.962859a2.901914 2.901914 0 0 1-1.058345-0.204841 3.414016 3.414016 0 0 1-2.150831-4.30166l45.099154-135.36574a3.414016 3.414016 0 0 1 6.48663 2.18497L960.461304 310.743749a3.414016 3.414016 0 0 1-3.243315 2.21911zM970.498511 318.254584a3.823698 3.823698 0 0 1-1.058345 0 3.414016 3.414016 0 0 1-2.18497-4.3358l45.133293-135.3316a3.414016 3.414016 0 0 1 4.301661-2.15083 3.414016 3.414016 0 0 1 2.18497 4.30166l-45.133293 135.195039a3.414016 3.414016 0 0 1-3.243316 2.321531zM983.779034 323.580449a3.106755 3.106755 0 0 1-1.092485-0.204841 3.414016 3.414016 0 0 1-2.15083-4.30166l45.133293-135.36574a3.414016 3.414016 0 1 1 6.452491 2.184971L987.022349 321.224778a3.414016 3.414016 0 0 1-3.243315 2.355671zM996.922996 326.209242a2.936054 2.936054 0 0 1-1.092485 0 3.414016 3.414016 0 0 1-2.15083-4.30166l45.235714-135.536441a3.414016 3.414016 0 0 1 6.48663 2.15083L1000.337012 323.887711a3.414016 3.414016 0 0 1-3.414016 2.321531zM1010.305939 328.872174a3.823698 3.823698 0 0 1-1.058345 0A3.414016 3.414016 0 0 1 1007.165045 324.399813l45.133293-135.331599a3.414016 3.414016 0 0 1 4.30166-2.184971 3.414016 3.414016 0 0 1 2.184971 4.335801l-45.235714 135.331599a3.414016 3.414016 0 0 1-3.243316 2.321531zM1023.586462 331.535107a4.062679 4.062679 0 0 1-1.092485 0 3.414016 3.414016 0 0 1-2.15083-4.3358l45.133293-135.36574a3.414016 3.414016 0 1 1 6.452491 2.18497L1026.829778 329.179436a3.414016 3.414016 0 0 1-3.243316 2.355671zM1036.866985 334.19804a2.970194 2.970194 0 0 1-1.092485-0.204841 3.414016 3.414016 0 0 1-2.15083-4.301661L1078.859383 194.325798a3.414016 3.414016 0 0 1 6.486631 2.184971l-45.269854 135.331599a3.414016 3.414016 0 0 1-3.209175 2.355672zM1050.113368 336.826832a2.867774 2.867774 0 0 1-1.058345 0 3.414016 3.414016 0 0 1-2.184971-4.30166l45.133294-135.36574a3.414016 3.414016 0 0 1 6.48663 2.15083L1053.356683 334.641862a3.414016 3.414016 0 0 1-3.243315 2.18497zM1063.39389 339.489765a4.062679 4.062679 0 0 1-1.092485 0 3.414016 3.414016 0 0 1-2.15083-4.335801l45.133293-135.3316a3.414016 3.414016 0 1 1 6.452491 2.150831l-45.099153 135.195039a3.414016 3.414016 0 0 1-3.243316 2.321531zM1076.674413 342.152697a4.062679 4.062679 0 0 1-1.092485 0 3.414016 3.414016 0 0 1-2.15083-4.3358l45.099153-135.36574a3.414016 3.414016 0 0 1 6.486631 2.18497l-45.099154 135.160899a3.414016 3.414016 0 0 1-3.243315 2.355671zM1089.920796 344.88391a2.867774 2.867774 0 0 1-1.058345 0 3.414016 3.414016 0 0 1-2.184971-4.30166L1131.810774 204.909249a3.414016 3.414016 0 0 1 4.3358-2.150831 3.414016 3.414016 0 0 1 2.15083 4.301661l-45.133293 135.365739a3.414016 3.414016 0 0 1-3.243315 2.458092zM1103.201319 347.444422a3.175035 3.175035 0 0 1-1.092486 0 3.414016 3.414016 0 0 1-2.15083-4.30166l45.133294-135.536441a3.414016 3.414016 0 0 1 6.45249 2.15083l-45.099153 135.36574a3.414016 3.414016 0 0 1-3.243315 2.321531zM1116.413561 352.770287a3.106755 3.106755 0 0 1-1.092485-0.204841 3.414016 3.414016 0 0 1-2.15083-4.30166l45.099153-135.36574a3.414016 3.414016 0 0 1 4.3358-2.15083 3.414016 3.414016 0 0 1 2.15083 4.335801L1119.827577 350.414616a3.414016 3.414016 0 0 1-3.414016 2.355671zM1129.728224 355.39908a2.867774 2.867774 0 0 1-1.058345 0 3.414016 3.414016 0 0 1-2.15083-4.301661l45.099153-135.365739a3.414016 3.414016 0 0 1 6.486631 2.15083l-45.133294 135.195039a3.414016 3.414016 0 0 1-3.243315 2.321531zM1143.008747 360.724945a4.26752 4.26752 0 0 1-1.092485 0 3.414016 3.414016 0 0 1-2.150831-4.335801l45.133294-135.331599a3.414016 3.414016 0 0 1 4.30166-2.18497 3.414016 3.414016 0 0 1 2.18497 4.3358L1146.252062 358.539975a3.414016 3.414016 0 0 1-3.243315 2.18497zM1156.289269 366.01667a3.038474 3.038474 0 0 1-1.092485 0 3.414016 3.414016 0 0 1-2.15083-4.30166l45.099153-135.36574a3.414016 3.414016 0 0 1 4.335801-2.15083 3.414016 3.414016 0 0 1 2.15083 4.30166l-45.099153 135.36574a3.414016 3.414016 0 0 1-3.243316 2.15083zM1169.535652 371.342535a3.823698 3.823698 0 0 1-1.058345 0 3.414016 3.414016 0 0 1-2.15083-4.3358l45.099153-135.3316a3.414016 3.414016 0 1 1 6.486631 2.15083l-45.133294 135.3316a3.414016 3.414016 0 0 1-3.243315 2.18497zM1182.816175 376.63426a2.867774 2.867774 0 0 1-1.058345 0 3.414016 3.414016 0 0 1-2.18497-4.30166l45.133293-135.36574a3.414016 3.414016 0 0 1 6.486631 2.15083l-45.133294 135.195039a3.414016 3.414016 0 0 1-3.243315 2.321531zM1196.096698 379.297193a4.062679 4.062679 0 0 1-1.092486 0 3.414016 3.414016 0 0 1-2.15083-4.335801l45.133294-135.331599a3.414016 3.414016 0 0 1 6.45249 2.15083l-45.099153 135.195039a3.414016 3.414016 0 0 1-3.243315 2.321531zM1209.37722 384.623058a2.970194 2.970194 0 0 1-1.092485-0.204841 3.414016 3.414016 0 0 1-2.15083-4.30166l45.099153-135.36574a3.414016 3.414016 0 0 1 6.486631 2.18497L1212.586396 382.438088a3.414016 3.414016 0 0 1-3.209176 2.18497zM1222.623603 387.25185a2.867774 2.867774 0 0 1-1.058345 0 3.414016 3.414016 0 0 1-2.18497-4.30166l45.133293-135.36574a3.414016 3.414016 0 0 1 6.486631 2.15083l-45.133294 135.36574a3.414016 3.414016 0 0 1-3.243315 2.15083zM1235.904126 392.680136a4.062679 4.062679 0 0 1-1.092485 0 3.414016 3.414016 0 0 1-2.150831-4.3358L1277.794104 252.705474a3.414016 3.414016 0 1 1 6.45249 2.184971L1239.318142 390.222044a3.414016 3.414016 0 0 1-3.414016 2.458092zM1249.184649 397.869441a2.936054 2.936054 0 0 1-1.092486 0 3.414016 3.414016 0 0 1-2.15083-4.301661l45.099153-135.36574a3.414016 3.414016 0 0 1 6.486631 2.150831l-45.133293 135.365739a3.414016 3.414016 0 0 1-3.209175 2.150831zM1262.431031 403.195306a2.901914 2.901914 0 0 1-1.058345-0.204841 3.414016 3.414016 0 0 1-2.18497-4.301661L1304.184449 263.323065a3.414016 3.414016 0 0 1 6.48663 2.18497l-45.133293 135.3316a3.414016 3.414016 0 0 1-3.106755 2.355671zM1275.711554 408.487031a3.175035 3.175035 0 0 1-1.092485 0 3.414016 3.414016 0 0 1-2.15083-4.335801l45.133293-135.331599a3.414016 3.414016 0 0 1 6.45249 2.15083L1278.954869 406.336201a3.414016 3.414016 0 0 1-3.243315 2.15083z"/></svg>