<?xml version="1.0" ?><svg viewBox="0 0 512 512" xmlns="http://www.w3.org/2000/svg"><title/><g data-name="/ OUTLINE" id="_OUTLINE"><path d="M272,352h16V336H224V280a24.0275,24.0275,0,0,0-24-24H120a24.0275,24.0275,0,0,0-24,24v56H64V211.31348l40.07788-40.07788a23.8172,23.8172,0,0,0,6.95191,15.10766L128,203.31348,163.31348,168l-16.97022-16.97021A23.843,23.843,0,0,0,129.37256,144H115.31348l-13.65674-13.65674L90.34326,141.65674,100.68652,152,64,188.68652V176H48v28.68652L26.34326,226.34326l11.31348,11.31348L48,227.31348V336H32v16H48V480H16v16H496V480H272ZM120,160h9.37256a7.94834,7.94834,0,0,1,5.65723,2.34326L140.68652,168,128,180.68652l-5.65674-5.65673A7.94834,7.94834,0,0,1,120,169.37256Zm-8,120a8.00917,8.00917,0,0,1,8-8h80a8.00917,8.00917,0,0,1,8,8v56H112Zm94.24146,96H113.75854l4.79993-24h82.88306ZM112,392h96a8,8,0,0,1,0,16H112a8,8,0,0,1,0-16Zm-6.41748,88H64V352h38.24146l-5.981,29.90479A23.98423,23.98423,0,0,0,112,424h6.0271ZM152,480H121.9729l12.44458-56H152Zm16,0V424h17.58252l12.44458,56Zm88,0H214.41748L201.9729,424H208a23.98423,23.98423,0,0,0,15.7395-42.09521L217.75854,352H256Z"/><rect height="16" width="16" x="152" y="296"/><rect height="24" width="16" x="128" y="216"/><rect height="22.62742" transform="translate(-100.2153 174.05887) rotate(-45)" width="15.99967" x="152.00016" y="196.68629"/><rect height="16" width="24" x="168" y="176"/><path d="M368,136a24.0275,24.0275,0,0,0,24,24h16V144H392a8,8,0,0,1,0-16h48V112H392A24.0275,24.0275,0,0,0,368,136Z"/><rect height="16" width="16" x="456" y="112"/><path d="M360,96h72V80H360a8,8,0,0,1,0-16h16V48H360a24,24,0,0,0,0,48Z"/><path d="M16,16V32H56V59.71851l-6.188,4.12524A39.92,39.92,0,0,0,32,97.126V112H96V97.126A39.91846,39.91846,0,0,0,78.188,63.84424L72,59.71875V32h80V59.71851l-6.188,4.12524A39.92,39.92,0,0,0,128,97.126V112h64V97.126a39.91846,39.91846,0,0,0-17.812-33.28174L168,59.71875V32h80V59.71851l-6.188,4.12524A39.92,39.92,0,0,0,224,97.126V112h64V97.126a39.91846,39.91846,0,0,0-17.812-33.28174L264,59.71875V32h40V440H496V16ZM79.97363,96H48.02637A23.94608,23.94608,0,0,1,58.687,77.15674L64,73.61475l5.313,3.54248A23.94445,23.94445,0,0,1,79.97363,96Zm96,0H144.02637A23.94608,23.94608,0,0,1,154.687,77.15674l5.313-3.542,5.313,3.54248A23.94445,23.94445,0,0,1,175.97363,96Zm96,0H240.02637A23.94608,23.94608,0,0,1,250.687,77.15674l5.313-3.542,5.313,3.54248A23.94445,23.94445,0,0,1,271.97363,96ZM368,424H320V334.73853A53.311,53.311,0,0,0,365.30469,360H368Zm0-80h-2.69531a37.30484,37.30484,0,0,1-33.36621-53.98828l7.48877-14.97705c.48437-.969.92651-1.95337,1.34936-2.94458L368,299.31348Zm0-67.31348-22.93506-22.93506,3.71143-37.11425a27.35939,27.35939,0,0,1,54.44726,0l.80237,8.02331L384,244.68652V224H368Zm35.66077,63.22608A37.33737,37.33737,0,0,1,386.69531,344H384V267.31348l22.083-22.083,1.127,11.269c.13989,1.39942.3573,2.79785.609,4.18823a37.24,37.24,0,0,1-2.70276,7.19165l-7.48828,14.97706A53.57149,53.57149,0,0,0,392,306.69531,53.03349,53.03349,0,0,0,403.66077,339.9126ZM448,424H384V360h2.69531a53.35094,53.35094,0,0,0,29.32129-8.79883A52.98249,52.98249,0,0,0,445.30469,360H448Zm0-80h-2.69531a37.30484,37.30484,0,0,1-33.36621-53.98828l7.48877-14.97705A53.124,53.124,0,0,0,424.79,256.5l.39966-3.99683L448,275.31348Zm32,80H464V360h2.69531A53.49942,53.49942,0,0,0,480,358.304Zm0-82.448A37.48054,37.48054,0,0,1,466.69531,344H464V299.31348l16-16Zm0-80.86548-16,16V224H448v28.68652l-20.75317-20.75317,1.52954-15.29614A27.35643,27.35643,0,0,1,480,206.23218Zm0-77.39575a43.31159,43.31159,0,0,0-64,19.29114,43.37109,43.37109,0,0,0-83.14453,12.4635l-3.98633,39.86279a37.17884,37.17884,0,0,1-3.75293,12.97119L320,278.11206V32H480Z"/><path d="M288,152H208v88h80Zm-16,72H224V168h48Z"/></g></svg>