<?xml version="1.0" ?><!DOCTYPE svg  PUBLIC '-//W3C//DTD SVG 1.1//EN'  'http://www.w3.org/Graphics/SVG/1.1/DTD/svg11.dtd'><svg enable-background="new 0 0 512 512" height="512px" id="Layer_1" version="1.1" viewBox="0 0 512 512" width="512px" xml:space="preserve" xmlns="http://www.w3.org/2000/svg" xmlns:xlink="http://www.w3.org/1999/xlink"><g><polygon clip-rule="evenodd" fill="#E6E6E5" fill-rule="evenodd" points="0,0 435.207,0 512,76.795 512,512 76.793,512 0,435.207     "/><polygon clip-rule="evenodd" fill="#F2F3F3" fill-rule="evenodd" points="435.207,0 512,76.795 435.207,76.795  "/><polygon clip-rule="evenodd" fill="#C9C9C9" fill-rule="evenodd" points="435.207,76.795 512,153.584 512,76.795  "/><polygon clip-rule="evenodd" fill="#F2F3F3" fill-rule="evenodd" points="76.793,512 0,435.207 76.793,435.207  "/><polygon clip-rule="evenodd" fill="#C9C9C9" fill-rule="evenodd" points="153.588,512 76.793,435.207 76.793,512  "/><path clip-rule="evenodd" d="M267.715,95.992c49.129,0,90.699,39.756,90.699,88.732   s-32.652,81.021-87.52,84.049c-51.25,2.723-87.379-31.293-89.494-84.049C179.436,134.236,218.738,95.992,267.715,95.992   L267.715,95.992z" fill="#37B5A8" fill-rule="evenodd"/><path clip-rule="evenodd" d="M334.832,214.355c39.309,0,67.723,30.986,67.723,66.813   c0,46.563-31.59,66.957-67.57,66.957s-65.152-31.742-65.152-67.715C269.832,241.107,298.855,214.355,334.832,214.355   L334.832,214.355z" fill="#B7BB3D" fill-rule="evenodd"/><path clip-rule="evenodd" d="M214.201,140.131c60.471,0,97.658,42.324,99.619,104.91   c1.965,63.791-61.223,169.303-125.77,170.967c-1.814,0-4.988,0-6.047-1.664c-1.51-2.121-1.361-4.383,2.418-6.953   c13.305-9.07,20.863-16.176,26.455-26.453c5.596-10.277,2.27-20.711-12.547-23.582c-51.547-9.832-88.885-50.492-88.885-108.084   C109.445,186.234,156.76,140.131,214.201,140.131L214.201,140.131z" fill="#F0A34B" fill-rule="evenodd"/><path clip-rule="evenodd" d="M310.645,218.734c-10.273-47.918-44.895-78.604-96.443-78.604   c-8.313,0-16.322,1.059-24.186,2.873c-6.047,12.242-9.221,26.453-8.615,41.721c2.115,52.756,38.092,86.615,89.342,84.049   C274.52,244.586,289.941,226.596,310.645,218.734L310.645,218.734z" fill="#5F804F" fill-rule="evenodd"/><path clip-rule="evenodd" d="M313.215,258.945c-11.938,5.594-26.148,8.918-42.32,9.828   c0,0,0,0-0.152,0c-0.613,3.777-0.91,7.563-0.91,11.637c0,18.746,8.008,36.434,20.711,48.977   C302.938,305.809,311.098,280.719,313.215,258.945L313.215,258.945z" fill="#B0853A" fill-rule="evenodd"/><path clip-rule="evenodd" d="M270.895,268.773c16.172-0.91,30.383-4.234,42.32-9.828   c0.605-4.836,0.754-9.521,0.605-13.904c-0.301-9.221-1.359-17.988-3.176-26.307c-20.703,7.861-36.125,25.852-39.902,50.039H270.895   z" fill="#4D7444" fill-rule="evenodd"/><path clip-rule="evenodd" d="M313.82,245.041c0.148,4.383,0,9.068-0.605,13.904   c19.199-8.92,32.805-23.43,39.758-42.324c-5.746-1.512-11.785-2.266-18.141-2.266c-8.465,0-16.629,1.508-24.188,4.379   C312.461,227.053,313.52,235.82,313.82,245.041L313.82,245.041z" fill="#3B9B4B" fill-rule="evenodd"/><path clip-rule="evenodd" d="M290.543,329.387c-17.387,33.105-42.781,63.34-70.596,77.703   c-10.432,5.441-21.164,8.613-31.896,8.918c-1.512,0-4.082,0-5.443-1.059L279.66,512h45.195H512V302.48L333.477,123.957   c15.414,15.871,24.938,37.336,24.938,60.768c0,11.641-1.813,22.373-5.441,31.896c29.629,7.859,49.582,34.463,49.582,64.547   c0,46.563-31.59,66.957-67.57,66.957C317.75,348.125,302.184,340.883,290.543,329.387L290.543,329.387z M210.877,380.938   c5.596-10.277,2.27-20.711-12.547-23.582c-22.826-4.23-42.779-14.668-58.047-29.93l63.641,63.645   C206.494,387.895,208.762,384.57,210.877,380.938L210.877,380.938z" fill="#C9C9C9" fill-rule="evenodd"/></g></svg>