<?xml version="1.0" ?><svg xmlns="http://www.w3.org/2000/svg" xmlns:xlink="http://www.w3.org/1999/xlink" version="1.0" viewBox="0 0 48 48" enable-background="new 0 0 48 48" xml:space="preserve"><g id="Layer_1"/><g id="_x31_4_x5F_Stocks"><path d="M45,40c0,0.553-0.447,1-1,1H4c-0.552,0-1-0.447-1-1V8c0-0.552,0.448-1,1-1s1,0.448,1,1v31h39C44.553,39,45,39.447,45,40z    M7,28V12c0-0.552,0.448-1,1-1h2V8c0-0.552,0.448-1,1-1s1,0.448,1,1v3h2c0.552,0,1,0.448,1,1v16c0,0.553-0.448,1-1,1h-2v3   c0,0.553-0.448,1-1,1s-1-0.447-1-1v-3H8C7.448,29,7,28.553,7,28z M9,27h4V13H9V27z M17,32v-9c0-0.552,0.448-1,1-1h2v-3   c0-0.552,0.448-1,1-1s1,0.448,1,1v3h2c0.552,0,1,0.448,1,1v9c0,0.553-0.448,1-1,1h-2v3c0,0.553-0.448,1-1,1s-1-0.447-1-1v-3h-2   C17.448,33,17,32.553,17,32z M19,31h4v-7h-4V31z M27,30V19c0-0.552,0.447-1,1-1h2v-3c0-0.552,0.447-1,1-1s1,0.448,1,1v3h2   c0.553,0,1,0.448,1,1v11c0,0.553-0.447,1-1,1h-2v3c0,0.553-0.447,1-1,1s-1-0.447-1-1v-3h-2C27.447,31,27,30.553,27,30z M29,29h4v-9   h-4V29z M45,12v14c0,0.553-0.447,1-1,1h-2v3c0,0.553-0.447,1-1,1s-1-0.447-1-1v-3h-2c-0.553,0-1-0.447-1-1V12c0-0.552,0.447-1,1-1   h2V8c0-0.552,0.447-1,1-1s1,0.448,1,1v3h2C44.553,11,45,11.448,45,12z M43,13h-4v12h4V13z"/></g></svg>