<?xml version="1.0" ?><!DOCTYPE svg  PUBLIC '-//W3C//DTD SVG 1.1//EN'  'http://www.w3.org/Graphics/SVG/1.1/DTD/svg11.dtd'><svg xmlns="http://www.w3.org/2000/svg" xmlns:xlink="http://www.w3.org/1999/xlink" version="1.1" id="Layer_1" width="512px" height="512px" viewBox="0 0 512 512" enable-background="new 0 0 512 512" xml:space="preserve"><g><path fill-rule="evenodd" clip-rule="evenodd" fill="#FFF584" d="M203.422,36.699c16.219-6.507,33.623-28.571,51.717-28.571   c18.092,0.004,36.272,21.881,53.001,28.378c17.3,2.473,43.409-7.941,59.076,1.109c15.663,9.052,20.47,37.083,31.711,51.079   c13.747,10.789,41.561,14.831,50.604,30.498c9.042,15.673-0.812,42.35,1.925,60.089c6.509,16.222,28.579,33.626,28.575,51.717   c-0.002,18.094-21.878,36.274-28.376,53c-2.476,17.305,7.937,43.408-1.115,59.077c-9.045,15.666-37.081,20.471-51.075,31.71   c-10.793,13.751-14.828,41.563-30.499,50.605c-15.669,9.039-42.354-0.811-60.09,1.924c-16.221,6.511-33.623,28.578-51.715,28.578   c-18.094-0.004-36.274-21.881-53.001-28.38c-17.302-2.472-43.409,7.936-59.076-1.109c-15.665-9.051-20.475-37.085-31.711-51.08   c-13.747-10.788-41.561-14.831-50.605-30.498c-9.042-15.671,0.809-42.349-1.925-60.089c-6.509-16.22-28.577-33.623-28.572-51.716   c0.002-18.092,21.876-36.273,28.374-52.998c2.474-17.307-7.937-43.409,1.112-59.081c9.047-15.664,37.083-20.47,51.076-31.707   c10.792-13.751,14.83-41.563,30.502-50.604C159.001,29.581,185.684,39.44,203.422,36.699z"/><path fill="#5B57A4" d="M201.318,28.76c5.117-2.283,10.929-6.687,16.868-11.18C229.593,8.939,241.406,0,255.139,0   c13.553,0.005,25.596,8.77,37.299,17.283c6.198,4.511,12.286,8.944,17.732,11.268c5.592,0.607,12.881-0.306,20.33-1.234   c14.197-1.775,28.897-3.612,40.793,3.259c11.707,6.762,17.76,20.389,23.646,33.631c3.104,6.989,6.155,13.854,9.731,18.618   c4.606,3.384,11.319,6.215,18.177,9.105c13.199,5.567,26.868,11.334,33.727,23.217c6.781,11.751,5.214,26.534,3.693,40.896   c-0.809,7.665-1.607,15.188-0.868,21.132c2.284,5.123,6.684,10.938,11.182,16.873c8.634,11.409,17.578,23.218,17.576,36.95   c-0.003,13.555-8.767,25.6-17.284,37.3c-4.508,6.197-8.944,12.287-11.268,17.731c-0.609,5.593,0.306,12.885,1.235,20.33   c1.774,14.199,3.611,28.898-3.257,40.794c-6.761,11.707-20.389,17.767-33.636,23.648c-6.986,3.101-13.852,6.157-18.618,9.73   c-3.379,4.606-6.212,11.318-9.105,18.178c-5.567,13.198-11.33,26.865-23.213,33.726c-11.752,6.78-26.534,5.214-40.9,3.693   c-7.66-0.813-15.186-1.603-21.13-0.87c-5.119,2.285-10.935,6.683-16.872,11.179c-11.406,8.635-23.22,17.58-36.949,17.58   c-13.555-0.004-25.601-8.767-37.303-17.282c-6.198-4.51-12.287-8.944-17.734-11.271c-5.591-0.604-12.88,0.309-20.325,1.236   c-14.196,1.775-28.897,3.616-40.795-3.258c-11.707-6.762-17.762-20.39-23.646-33.636c-3.104-6.988-6.156-13.853-9.731-18.616   c-4.606-3.376-11.317-6.213-18.175-9.101c-13.201-5.568-26.87-11.337-33.727-23.22c-6.781-11.749-5.218-26.534-3.697-40.9   c0.813-7.659,1.609-15.188,0.871-21.131c-2.282-5.117-6.685-10.934-11.18-16.868c-8.637-11.409-17.578-23.223-17.575-36.951   c0-13.556,8.766-25.598,17.282-37.301c4.506-6.196,8.942-12.287,11.266-17.729c0.606-5.595-0.306-12.885-1.235-20.333   c-1.776-14.195-3.616-28.897,3.257-40.793c6.763-11.707,20.391-17.762,33.634-23.648c6.99-3.102,13.854-6.157,18.618-9.731   c3.38-4.604,6.212-11.316,9.102-18.177c5.57-13.199,11.335-26.863,23.221-33.724c11.749-6.782,26.53-5.214,40.896-3.698   C187.849,28.698,195.375,29.494,201.318,28.76L201.318,28.76z M227.998,30.584c-6.937,5.249-13.719,10.386-20.912,13.411   c-0.743,0.371-1.554,0.634-2.42,0.768c-7.992,1.235-16.979,0.285-26.137-0.685c-11.823-1.253-23.986-2.541-31.147,1.593   c-7.122,4.105-11.808,15.219-16.336,25.948c-3.506,8.31-6.933,16.438-11.805,22.646l-0.007-0.004   c-0.376,0.475-0.809,0.917-1.3,1.31c-6.314,5.073-14.589,8.751-23.019,12.496c-10.819,4.804-21.956,9.752-26.115,16.952   c-4.103,7.104-2.605,19.09-1.156,30.663c1.111,8.884,2.199,17.563,1.064,25.484l-0.009-0.006c-0.086,0.604-0.243,1.202-0.466,1.79   c-2.948,7.587-8.267,14.891-13.676,22.327c-6.982,9.593-14.165,19.459-14.165,27.742c0,8.21,7.292,17.837,14.329,27.135   c5.251,6.939,10.388,13.729,13.411,20.916c0.374,0.742,0.639,1.555,0.773,2.423c1.23,7.991,0.281,16.979-0.688,26.139   c-1.251,11.821-2.539,23.983,1.594,31.145c4.11,7.119,15.219,11.807,25.949,16.335c8.311,3.506,16.438,6.937,22.647,11.809   l-0.005,0.004c0.478,0.376,0.917,0.808,1.31,1.301c5.074,6.315,8.748,14.594,12.493,23.018   c4.807,10.822,9.755,21.957,16.958,26.113c7.102,4.104,19.088,2.607,30.66,1.162c8.882-1.115,17.563-2.201,25.482-1.068v0.01   c0.599,0.089,1.199,0.241,1.786,0.469c7.587,2.948,14.889,8.262,22.329,13.676c9.59,6.978,19.458,14.163,27.742,14.163   c8.21,0,17.837-7.29,27.134-14.334c6.94-5.252,13.728-10.387,20.919-13.408c0.741-0.372,1.554-0.638,2.42-0.771   c7.993-1.235,16.975-0.282,26.135,0.687c11.821,1.252,23.987,2.541,31.148-1.594c7.12-4.105,11.808-15.219,16.336-25.947   c3.504-8.313,6.933-16.439,11.809-22.648l0.006,0.004c0.374-0.472,0.807-0.914,1.298-1.31c6.316-5.071,14.587-8.748,23.017-12.493   c10.823-4.808,21.956-9.756,26.117-16.961c4.104-7.097,2.605-19.083,1.154-30.656c-1.108-8.885-2.194-17.563-1.062-25.483h0.009   c0.086-0.598,0.243-1.195,0.47-1.785c2.946-7.589,8.263-14.894,13.674-22.328c6.977-9.592,14.16-19.461,14.163-27.741   c0-8.209-7.288-17.837-14.33-27.135c-5.253-6.941-10.39-13.729-13.412-20.921c-0.372-0.738-0.638-1.553-0.772-2.417   c-1.23-7.993-0.281-16.982,0.688-26.139c1.253-11.822,2.542-23.983-1.594-31.145c-4.11-7.122-15.219-11.809-25.947-16.337   c-8.313-3.504-16.441-6.934-22.649-11.806l0.005-0.011c-0.473-0.37-0.915-0.806-1.311-1.297   c-5.071-6.314-8.751-14.592-12.493-23.021c-4.807-10.819-9.758-21.956-16.958-26.113c-7.102-4.099-19.084-2.603-30.66-1.156   c-8.88,1.109-17.563,2.196-25.482,1.061v-0.008c-0.599-0.083-1.194-0.238-1.786-0.463c-7.587-2.948-14.892-8.263-22.329-13.681   c-9.588-6.975-19.458-14.158-27.74-14.158C246.932,16.253,237.3,23.542,227.998,30.584z"/><path fill-rule="evenodd" clip-rule="evenodd" fill="#F5ACCC" d="M110.164,298.723L10.085,398.798l86.725,15.088l18.346,89.982   l111.916-111.917C174.421,382.256,130.854,346.581,110.164,298.723z"/><path fill="#5B57A4" d="M113.828,306.59l-86.875,86.877l71.229,12.392c3.598,0.616,6.238,3.501,6.704,6.934l15.209,74.604   l97.493-97.497c6.359,1.584,12.872,2.776,19.505,3.568L120.925,509.636l-0.02-0.02c-1.09,1.095-2.502,1.887-4.124,2.218   c-4.398,0.898-8.693-1.942-9.592-6.34l-17.236-84.531L9.097,406.898c-1.75-0.213-3.44-0.992-4.781-2.333   c-3.185-3.183-3.185-8.352,0-11.533l102.549-102.551C108.891,296.005,111.226,301.378,113.828,306.59z"/><path fill-rule="evenodd" clip-rule="evenodd" fill="#F5ACCC" d="M401.84,298.723l100.077,100.075l-86.729,15.088l-18.34,89.982   L284.932,391.951C337.581,382.256,381.146,346.581,401.84,298.723z"/><path fill="#5B57A4" d="M405.137,290.481l102.547,102.551c3.185,3.182,3.185,8.351,0,11.533c-1.339,1.341-3.032,2.12-4.776,2.333   l-80.866,14.064l-17.228,84.531c-0.899,4.397-5.194,7.238-9.595,6.34c-1.622-0.331-3.033-1.123-4.122-2.218l-0.019,0.02   L274.906,393.467c6.636-0.786,13.146-1.988,19.507-3.568l97.494,97.497l15.207-74.604c0.463-3.433,3.106-6.322,6.704-6.938   l71.229-12.388l-86.875-86.877C400.776,301.378,403.109,296.005,405.137,290.481z"/><path fill-rule="evenodd" clip-rule="evenodd" fill="#FFF584" d="M256,76.956c87.697,0,158.817,71.12,158.817,158.816   c0,87.699-71.12,158.817-158.817,158.817c-87.696,0-158.815-71.118-158.815-158.817C97.185,148.076,168.304,76.956,256,76.956z"/><path fill="#5B57A4" d="M256,68.8c46.1,0,87.848,18.695,118.065,48.909c30.214,30.223,48.909,71.965,48.909,118.063   s-18.694,87.85-48.909,118.064c-30.218,30.216-71.966,48.91-118.065,48.91c-46.101,0-87.847-18.694-118.062-48.91   c-30.217-30.215-48.914-71.966-48.914-118.064s18.696-87.841,48.914-118.063C168.154,87.495,209.9,68.8,256,68.8L256,68.8z    M362.526,129.25C335.265,101.981,297.597,85.113,256,85.113c-41.595,0-79.26,16.868-106.527,44.137   c-27.265,27.261-44.132,64.929-44.132,106.522c0,41.596,16.867,79.264,44.132,106.525c27.267,27.269,64.932,44.135,106.527,44.135   c41.596,0,79.264-16.866,106.525-44.135c27.268-27.262,44.133-64.93,44.133-106.525   C406.659,194.179,389.793,156.511,362.526,129.25z"/><path fill="#5B57A4" d="M307.121,164.974l57.318,14.083c16.659,4.093,23.763,24.846,12.409,38.248l-38.031,45.012l4.321,58.894   c1.203,19.079-16.303,30.184-32.507,23.615l-54.645-22.297l-54.646,22.297c-15.986,6.47-34.052-6.43-32.46-24.034l4.277-58.475   l-38.035-45.012c-11.242-13.295-4.428-34.597,13.021-38.408l56.709-13.923l31.037-50.052c9.618-15.577,29.242-15.635,39.355-1.111   L307.121,164.974L307.121,164.974z M260.089,125.911c-2.509-3.962-5.789-3.904-8.33,0.203l-34.397,55.847l-65.114,15.938   c-3.014,0.659-4.343,4.451-2.302,6.861l43.165,51.05l-4.901,66.61c-0.311,3.122,2.829,5.606,5.836,4.394l62.061-25.255   l61.821,25.25c2.937,1.179,6.043-1.144,5.83-4.231l-4.919-66.772l42.396-50.109c3.479-3.814,3.053-6.688-1.433-7.789   l-65.132-15.968C283.781,162.957,271.624,144.518,260.089,125.911z"/><path fill="#F5ACCC" d="M260.089,125.911c-2.509-3.962-5.789-3.904-8.33,0.203l-34.397,55.847l-65.114,15.938   c-3.014,0.659-4.343,4.451-2.302,6.861l43.165,51.05l-4.901,66.61c-0.311,3.122,2.829,5.606,5.836,4.394l62.061-25.255   l61.821,25.25c2.937,1.179,6.043-1.144,5.83-4.231l-4.919-66.772l42.396-50.109c3.479-3.814,3.053-6.688-1.433-7.789   l-65.132-15.968C283.781,162.957,271.624,144.518,260.089,125.911z"/></g></svg>